<svg width="145" height="37" viewBox="0 0 145 37" fill="none" xmlns="http://www.w3.org/2000/svg">
<g opacity="0.5">
<path d="M47.3052 22.5237V10.4769C47.3052 9.77155 47.2488 8.32799 47.136 6.14621L48.6454 11.4361L52.2284 22.5237H55.1907L58.7737 11.4361C58.827 11.27 58.8852 11.0825 58.9481 10.8738L59.026 10.6131C59.3334 9.57465 59.743 8.08568 60.2549 6.14621C60.1703 8.21514 60.1256 9.38597 60.1209 9.6587C60.1162 9.93142 60.1138 10.2041 60.1138 10.4769V22.5237H63.8097V2.64782H58.2659L54.6124 14.3138L53.7237 17.5018L53.0465 14.8357L52.7362 13.7637L49.1814 2.64782H43.6094V22.5237H47.3052ZM71.2611 22.8058C73.4993 22.8058 75.1733 21.8043 76.283 19.8012H76.3676C76.4617 20.751 76.7461 21.4704 77.2211 21.9595C77.696 22.4485 78.4318 22.693 79.4287 22.693C79.7108 22.693 79.9577 22.6836 80.1693 22.6648C80.3809 22.646 80.5807 22.6225 80.7688 22.5942C80.9569 22.566 81.145 22.5284 81.3331 22.4814C81.5211 22.4344 81.7327 22.3827 81.9678 22.3262V20.1821C81.6857 20.2385 81.3942 20.2667 81.0933 20.2667C80.6418 20.2667 80.3198 20.1045 80.127 19.78C79.9342 19.4556 79.8378 18.8655 79.8378 18.0097V12.4518C79.8378 10.7026 79.3158 9.35306 78.272 8.40323C77.2281 7.4534 75.7422 6.97848 73.8144 6.97848C71.9053 6.97848 70.3983 7.36171 69.2933 8.12815C68.1883 8.8946 67.5088 10.0208 67.2549 11.5066L71.3881 11.7041C71.4727 10.933 71.6866 10.3805 72.0299 10.0466C72.3732 9.71277 72.9116 9.54584 73.6451 9.54584C74.435 9.54584 75.004 9.788 75.352 10.2723C75.6999 10.7566 75.8739 11.4972 75.8739 12.4941V13.2699L72.5871 13.3264C70.631 13.3452 69.1381 13.7684 68.1083 14.5959C67.0786 15.4235 66.5637 16.6272 66.5637 18.2072C66.5637 19.6648 66.9775 20.7957 67.805 21.5997C68.6326 22.4038 69.7846 22.8058 71.2611 22.8058ZM72.5307 20.041C71.9758 20.041 71.5315 19.8647 71.1976 19.512C70.8638 19.1593 70.6968 18.621 70.6968 17.8968C70.6968 17.3326 70.7979 16.8812 71.0001 16.5426C71.2023 16.2041 71.4962 15.9525 71.8818 15.7879C72.2674 15.6233 72.921 15.5222 73.8426 15.4846L75.8739 15.4564V16.2323C75.8739 16.9 75.7281 17.5324 75.4366 18.1296C75.1451 18.7267 74.743 19.1946 74.2305 19.5332C73.718 19.8717 73.1514 20.041 72.5307 20.041ZM87.7406 22.5237V15.0332C87.7406 13.4627 88.0157 12.2778 88.5658 11.4784C89.1159 10.6791 89.8847 10.2794 90.8722 10.2794C91.3612 10.2794 91.9255 10.3499 92.565 10.491V7.17597C92.2546 7.03491 91.8455 6.96438 91.3377 6.96438C90.717 6.96438 90.1998 7.07017 89.786 7.28177C89.3722 7.49337 89.0149 7.81781 88.7139 8.25511C88.413 8.69241 88.0697 9.4471 87.6842 10.5192H87.6277C87.6277 10.2371 87.6042 9.66575 87.5572 8.80526C87.5102 7.94477 87.4726 7.42989 87.4443 7.26061H83.6638C83.692 7.69321 83.7179 8.18928 83.7414 8.74883C83.7649 9.30839 83.7767 10.0067 83.7767 10.8436V22.5237H87.7406ZM98.9019 22.7776C100.153 22.7776 101.267 22.6178 102.245 22.298V19.8435C101.671 19.9752 101.229 20.041 100.919 20.041C100.327 20.041 99.8894 19.8647 99.6073 19.512C99.3251 19.1593 99.1841 18.6115 99.1841 17.8686V9.94082H102.076V7.26061H99.1841V3.67759H96.7013L95.46 7.26061H93.3299V9.94082H95.2625V18.9407C95.2625 20.2291 95.5775 21.1907 96.2076 21.8255C96.8377 22.4602 97.7358 22.7776 98.9019 22.7776ZM108.554 4.50987V1.58984H104.59V4.50987H108.554ZM108.554 22.5237V7.26061H104.59V22.5237H108.554ZM116.555 22.5237V14.342C116.555 13.0536 116.849 11.998 117.437 11.1751C118.025 10.3523 118.798 9.94082 119.758 9.94082C121.573 9.94082 122.48 11.2809 122.48 13.9611V22.5237H126.43V12.8326C126.43 10.9142 125.997 9.4565 125.132 8.45965C124.267 7.4628 123.026 6.96438 121.408 6.96438C120.289 6.96438 119.325 7.2277 118.516 7.75433C117.707 8.28097 117.035 9.12735 116.499 10.2935H116.443C116.443 10.002 116.419 9.46826 116.372 8.69241C116.325 7.91656 116.287 7.43929 116.259 7.26061H112.479C112.507 7.6744 112.533 8.14226 112.556 8.6642C112.58 9.18613 112.592 9.85618 112.592 10.6744V22.5237H116.555ZM136.957 22.8058C139.383 22.8058 141.282 22.1029 142.655 20.6969C144.029 19.291 144.715 17.3514 144.715 14.8781C144.715 12.3295 144.059 10.3758 142.747 9.01685C141.435 7.65794 139.533 6.97848 137.041 6.97848C134.605 6.97848 132.71 7.68145 131.356 9.08739C130.002 10.4933 129.325 12.4235 129.325 14.8781C129.325 17.342 130.002 19.2792 131.356 20.6899C132.71 22.1005 134.577 22.8058 136.957 22.8058ZM136.914 20.0974C135.804 20.0974 134.956 19.6531 134.368 18.7644C133.78 17.8757 133.486 16.5802 133.486 14.8781C133.486 11.4267 134.69 9.70101 137.098 9.70101C138.226 9.70101 139.087 10.1101 139.679 10.9283C140.272 11.7464 140.568 13.063 140.568 14.8781C140.568 18.3576 139.35 20.0974 136.914 20.0974Z" fill="#FF3F00"/>
<path opacity="0.595853" d="M82.9041 34.9711C83.205 34.9711 83.4837 34.923 83.7403 34.8267C83.9968 34.7305 84.2126 34.6023 84.3878 34.4419C84.5629 34.2816 84.7084 34.1188 84.8244 33.9535C84.9403 33.7883 85.0353 33.6168 85.1093 33.4392L84.2361 33.1654C84.1275 33.4368 83.9536 33.6662 83.7144 33.8536C83.4751 34.0411 83.2001 34.1348 82.8893 34.1348C82.4107 34.1348 82.0284 33.935 81.7423 33.5354C81.4561 33.1358 81.3131 32.5932 81.3131 31.9074C81.3131 31.2315 81.4549 30.6926 81.7386 30.2905C82.0222 29.8884 82.4058 29.6874 82.8893 29.6874C83.3974 29.6874 83.8093 29.9711 84.1251 30.5384L84.9613 30.2646C84.7886 29.865 84.5259 29.5295 84.1732 29.2582C83.8204 28.9869 83.3974 28.8512 82.9041 28.8512C82.1394 28.8512 81.5153 29.1262 81.0318 29.6763C80.5484 30.2264 80.3066 30.9701 80.3066 31.9074C80.3066 32.8596 80.5521 33.6082 81.0429 34.1533C81.5338 34.6985 82.1542 34.9711 82.9041 34.9711ZM87.5143 34.9711C87.8103 34.9711 88.0755 34.9217 88.3098 34.823C88.5442 34.7244 88.7329 34.5973 88.8759 34.4419C89.019 34.2865 89.1374 34.1065 89.2311 33.9017C89.3249 33.697 89.3902 33.496 89.4272 33.2986C89.4642 33.1013 89.4827 32.904 89.4827 32.7066C89.4827 32.0702 89.315 31.5325 88.9795 31.0934C88.6441 30.6543 88.1556 30.4348 87.5143 30.4348C86.868 30.4348 86.3772 30.6543 86.0417 31.0934C85.7062 31.5325 85.5385 32.0702 85.5385 32.7066C85.5385 32.9138 85.557 33.1173 85.594 33.3171C85.631 33.5169 85.6976 33.7192 85.7938 33.9239C85.89 34.1287 86.0109 34.3063 86.1564 34.4567C86.3019 34.6072 86.4919 34.7305 86.7262 34.8267C86.9605 34.923 87.2232 34.9711 87.5143 34.9711ZM87.5143 34.1718C87.243 34.1718 87.0062 34.051 86.8039 33.8092C86.6016 33.5675 86.5005 33.2 86.5005 32.7066C86.5005 32.2034 86.6029 31.8322 86.8076 31.5929C87.0123 31.3536 87.2479 31.234 87.5143 31.234C87.7807 31.234 88.015 31.3536 88.2173 31.5929C88.4196 31.8322 88.5207 32.2034 88.5207 32.7066C88.5207 33.2 88.4196 33.5675 88.2173 33.8092C88.015 34.051 87.7807 34.1718 87.5143 34.1718ZM91.2661 34.8378V28.792H90.3337V34.8378H91.2661ZM94.093 34.9711C94.389 34.9711 94.6541 34.9217 94.8885 34.823C95.1228 34.7244 95.3115 34.5973 95.4546 34.4419C95.5977 34.2865 95.7161 34.1065 95.8098 33.9017C95.9035 33.697 95.9689 33.496 96.0059 33.2986C96.0429 33.1013 96.0614 32.904 96.0614 32.7066C96.0614 32.0702 95.8937 31.5325 95.5582 31.0934C95.2227 30.6543 94.7343 30.4348 94.093 30.4348C93.4467 30.4348 92.9558 30.6543 92.6204 31.0934C92.2849 31.5325 92.1172 32.0702 92.1172 32.7066C92.1172 32.9138 92.1357 33.1173 92.1727 33.3171C92.2097 33.5169 92.2763 33.7192 92.3725 33.9239C92.4687 34.1287 92.5895 34.3063 92.7351 34.4567C92.8806 34.6072 93.0705 34.7305 93.3049 34.8267C93.5392 34.923 93.8019 34.9711 94.093 34.9711ZM94.093 34.1718C93.8216 34.1718 93.5848 34.051 93.3826 33.8092C93.1803 33.5675 93.0792 33.2 93.0792 32.7066C93.0792 32.2034 93.1815 31.8322 93.3863 31.5929C93.591 31.3536 93.8266 31.234 94.093 31.234C94.3594 31.234 94.5937 31.3536 94.796 31.5929C94.9982 31.8322 95.0994 32.2034 95.0994 32.7066C95.0994 33.2 94.9982 33.5675 94.796 33.8092C94.5937 34.051 94.3594 34.1718 94.093 34.1718ZM97.7708 34.8378V32.6622C97.7708 32.2478 97.8559 31.9161 98.0261 31.6669C98.1963 31.4178 98.4417 31.2932 98.7624 31.2932C98.945 31.2932 99.13 31.3228 99.3174 31.382V30.531C99.1744 30.4669 98.9894 30.4348 98.7624 30.4348C98.5207 30.4348 98.3122 30.494 98.1371 30.6124C97.962 30.7308 97.8275 30.8689 97.7338 31.0268V30.568H96.831V34.8378H97.7708ZM101.338 34.9711C101.875 34.9711 102.291 34.8489 102.585 34.6047C102.878 34.3605 103.025 34.0633 103.025 33.713C103.025 33.1457 102.586 32.7214 101.708 32.4402C101.683 32.4304 101.644 32.418 101.589 32.4032C101.382 32.3342 101.222 32.2774 101.108 32.233C100.995 32.1886 100.885 32.1183 100.779 32.0221C100.673 31.9259 100.62 31.8162 100.62 31.6928C100.62 31.5448 100.68 31.4252 100.801 31.3339C100.922 31.2426 101.096 31.197 101.323 31.197C101.737 31.197 102.09 31.3968 102.381 31.7964L103.003 31.419C102.85 31.1329 102.618 30.8973 102.307 30.7123C101.996 30.5273 101.666 30.4348 101.315 30.4348C100.847 30.4348 100.455 30.5483 100.139 30.7752C99.8231 31.0021 99.6652 31.3031 99.6652 31.678C99.6652 31.8704 99.6998 32.0394 99.7688 32.1849C99.8379 32.3305 99.939 32.4513 100.072 32.5475C100.205 32.6437 100.332 32.7202 100.453 32.7769C100.574 32.8337 100.723 32.8916 100.901 32.9508C100.921 32.9558 100.953 32.9656 100.997 32.9804C101.244 33.0594 101.429 33.1223 101.552 33.1691C101.676 33.216 101.793 33.2863 101.904 33.38C102.015 33.4738 102.07 33.5823 102.07 33.7056C102.07 33.8586 102.002 33.9807 101.867 34.0719C101.731 34.1632 101.547 34.2088 101.315 34.2088C100.842 34.2088 100.457 33.9918 100.161 33.5576L99.4876 33.9498C99.6603 34.2656 99.9082 34.5147 100.231 34.6972C100.554 34.8798 100.923 34.9711 101.338 34.9711ZM107.339 34.9711C107.635 34.9711 107.9 34.9217 108.135 34.823C108.369 34.7244 108.558 34.5973 108.701 34.4419C108.844 34.2865 108.962 34.1065 109.056 33.9017C109.15 33.697 109.215 33.496 109.252 33.2986C109.289 33.1013 109.308 32.904 109.308 32.7066C109.308 32.0702 109.14 31.5325 108.804 31.0934C108.469 30.6543 107.98 30.4348 107.339 30.4348C106.693 30.4348 106.202 30.6543 105.866 31.0934C105.531 31.5325 105.363 32.0702 105.363 32.7066C105.363 32.9138 105.382 33.1173 105.419 33.3171C105.456 33.5169 105.522 33.7192 105.619 33.9239C105.715 34.1287 105.836 34.3063 105.981 34.4567C106.127 34.6072 106.317 34.7305 106.551 34.8267C106.785 34.923 107.048 34.9711 107.339 34.9711ZM107.339 34.1718C107.068 34.1718 106.831 34.051 106.629 33.8092C106.426 33.5675 106.325 33.2 106.325 32.7066C106.325 32.2034 106.428 31.8322 106.632 31.5929C106.837 31.3536 107.073 31.234 107.339 31.234C107.605 31.234 107.84 31.3536 108.042 31.5929C108.244 31.8322 108.346 32.2034 108.346 32.7066C108.346 33.2 108.244 33.5675 108.042 33.8092C107.84 34.051 107.605 34.1718 107.339 34.1718ZM111.343 34.8378V31.3672H112.231V30.568H111.343V30.1758C111.343 29.9686 111.378 29.8181 111.45 29.7244C111.521 29.6307 111.634 29.5838 111.787 29.5838H112.327V28.792H111.653C111.254 28.792 110.944 28.9018 110.725 29.1213C110.505 29.3408 110.395 29.6701 110.395 30.1092V30.568H109.744V31.3672H110.395V34.8378H111.343ZM114.961 36.5843C115.331 36.5843 115.641 36.4955 115.89 36.3179C116.139 36.1403 116.343 35.8344 116.5 35.4003L118.269 30.568H117.248L116.574 32.7658C116.417 33.3332 116.325 33.6612 116.301 33.75H116.271C116.207 33.4984 116.113 33.1704 115.99 32.7658L115.257 30.568H114.229L115.827 34.7342L115.686 35.1561C115.603 35.3929 115.49 35.5594 115.35 35.6556C115.209 35.7518 115.028 35.7999 114.806 35.7999H114.673V36.5843H114.961ZM120.563 34.9711C120.859 34.9711 121.124 34.9217 121.359 34.823C121.593 34.7244 121.782 34.5973 121.925 34.4419C122.068 34.2865 122.186 34.1065 122.28 33.9017C122.374 33.697 122.439 33.496 122.476 33.2986C122.513 33.1013 122.531 32.904 122.531 32.7066C122.531 32.0702 122.364 31.5325 122.028 31.0934C121.693 30.6543 121.204 30.4348 120.563 30.4348C119.917 30.4348 119.426 30.6543 119.09 31.0934C118.755 31.5325 118.587 32.0702 118.587 32.7066C118.587 32.9138 118.606 33.1173 118.643 33.3171C118.68 33.5169 118.746 33.7192 118.843 33.9239C118.939 34.1287 119.06 34.3063 119.205 34.4567C119.351 34.6072 119.541 34.7305 119.775 34.8267C120.009 34.923 120.272 34.9711 120.563 34.9711ZM120.563 34.1718C120.292 34.1718 120.055 34.051 119.853 33.8092C119.65 33.5675 119.549 33.2 119.549 32.7066C119.549 32.2034 119.652 31.8322 119.856 31.5929C120.061 31.3536 120.297 31.234 120.563 31.234C120.829 31.234 121.064 31.3536 121.266 31.5929C121.468 31.8322 121.569 32.2034 121.569 32.7066C121.569 33.2 121.468 33.5675 121.266 33.8092C121.064 34.051 120.829 34.1718 120.563 34.1718ZM124.685 34.9711C124.976 34.9711 125.219 34.9045 125.414 34.7712C125.609 34.638 125.741 34.495 125.81 34.342H125.817V34.8378H126.72V30.568H125.787V32.9582C125.787 33.2888 125.709 33.5737 125.551 33.8129C125.393 34.0522 125.173 34.1718 124.892 34.1718C124.423 34.1718 124.189 33.8388 124.189 33.1728V30.568H123.249V33.2912C123.249 33.6119 123.294 33.8882 123.382 34.12C123.471 34.3519 123.59 34.5258 123.738 34.6417C123.886 34.7577 124.037 34.8415 124.193 34.8934C124.348 34.9452 124.512 34.9711 124.685 34.9711ZM128.681 34.8378V32.6622C128.681 32.2478 128.766 31.9161 128.936 31.6669C129.106 31.4178 129.352 31.2932 129.673 31.2932C129.855 31.2932 130.04 31.3228 130.228 31.382V30.531C130.084 30.4669 129.899 30.4348 129.673 30.4348C129.431 30.4348 129.222 30.494 129.047 30.6124C128.872 30.7308 128.738 30.8689 128.644 31.0268V30.568H127.741V34.8378H128.681ZM133.58 34.8378V28.792H132.647V34.8378H133.58ZM135.733 29.9316V28.903H134.727V29.9316H135.733ZM135.696 34.8378V30.568H134.771V34.8378H135.696ZM138.072 34.8378V31.3672H138.96V30.568H138.072V30.1758C138.072 29.9686 138.107 29.8181 138.179 29.7244C138.25 29.6307 138.363 29.5838 138.516 29.5838H139.056V28.792H138.382C137.983 28.792 137.673 28.9018 137.454 29.1213C137.234 29.3408 137.124 29.6701 137.124 30.1092V30.568H136.473V31.3672H137.124V34.8378H138.072ZM141.35 34.9711C141.814 34.9711 142.201 34.865 142.512 34.6528C142.822 34.4407 143.047 34.1768 143.185 33.861L142.401 33.5946C142.307 33.7772 142.17 33.9264 141.99 34.0423C141.81 34.1583 141.601 34.2162 141.365 34.2162C141.024 34.2162 140.757 34.0991 140.562 33.8647C140.367 33.6304 140.269 33.3504 140.269 33.0248H143.229C143.244 32.9015 143.252 32.7757 143.252 32.6474C143.252 31.9913 143.069 31.4585 142.704 31.049C142.339 30.6395 141.875 30.4348 141.313 30.4348C140.741 30.4348 140.266 30.6383 139.888 31.0453C139.511 31.4523 139.322 31.9987 139.322 32.6844C139.322 33.38 139.511 33.935 139.888 34.3494C140.266 34.7638 140.753 34.9711 141.35 34.9711ZM142.297 32.3662H140.284C140.289 32.0505 140.384 31.7755 140.569 31.5411C140.754 31.3068 141.002 31.1896 141.313 31.1896C141.624 31.1896 141.865 31.3043 142.038 31.5337C142.211 31.7631 142.297 32.0406 142.297 32.3662Z" fill="#FF3F00"/>
<path d="M8.52488 5.04359L8.52488 34.5154C8.52474 34.7974 8.37949 35.0584 8.14299 35.2015C7.90648 35.3445 7.61401 35.3484 7.37402 35.2116L0.399119 31.2289C0.152933 31.0886 0.00014476 30.8221 0 30.5327L0 1.06092C0.000141074 0.778865 0.145396 0.517922 0.381897 0.374859C0.618397 0.231797 0.910874 0.227951 1.15086 0.364746L8.12576 4.34742C8.37195 4.48775 8.52474 4.75425 8.52488 5.04359Z" fill="#FF3F00"/>
<path d="M19.8901 5.04359L19.8901 34.5154C19.89 34.7974 19.7447 35.0584 19.5082 35.2015C19.2717 35.3445 18.9792 35.3484 18.7393 35.2116L11.7644 31.2289C11.5182 31.0886 11.3654 30.8221 11.3652 30.5327L11.3652 1.06092C11.3654 0.778865 11.5106 0.517922 11.7471 0.374859C11.9836 0.231797 12.2761 0.227951 12.5161 0.364746L19.491 4.34742C19.7372 4.48775 19.89 4.75425 19.8901 5.04359Z" fill="#FF3F00"/>
<path d="M31.2573 5.04359L31.2573 34.5154C31.2572 34.7974 31.1119 35.0584 30.8754 35.2015C30.6389 35.3445 30.3464 35.3484 30.1064 35.2116L23.1315 31.2289C22.8854 31.0886 22.7326 30.8221 22.7324 30.5327L22.7324 1.06092C22.7326 0.778865 22.8778 0.517922 23.1143 0.374859C23.3508 0.231797 23.6433 0.227951 23.8833 0.364746L30.8582 4.34742C31.1044 4.48775 31.2572 4.75425 31.2573 5.04359Z" fill="#FF3F00"/>
</g>
</svg>
