<svg width="165" height="48" viewBox="0 0 165 48" fill="none" xmlns="http://www.w3.org/2000/svg">
<path d="M64.62 9.756C65.46 9.756 66.216 9.852 66.888 10.044C67.584 10.212 68.1 10.428 68.436 10.692L67.752 13.968C67.488 13.8 67.188 13.668 66.852 13.572C66.516 13.476 66.12 13.428 65.664 13.428C64.728 13.428 63.984 13.644 63.432 14.076C62.88 14.484 62.604 15.192 62.604 16.2V18.684L62.82 19.656V36H57.888V15.84C57.888 14.832 58.056 13.944 58.392 13.176C58.728 12.408 59.196 11.772 59.796 11.268C60.396 10.764 61.104 10.392 61.92 10.152C62.76 9.888 63.66 9.756 64.62 9.756ZM68.292 18V21.672H54.756V18H68.292ZM80.8442 24.516C80.8442 23.484 80.5442 22.68 79.9442 22.104C79.3682 21.528 78.6002 21.24 77.6402 21.24C76.7522 21.24 75.9722 21.468 75.3002 21.924C74.6282 22.38 74.1362 23.136 73.8242 24.192L69.6122 22.896C70.0202 21.312 70.9082 20.04 72.2762 19.08C73.6682 18.12 75.5282 17.64 77.8562 17.64C79.4402 17.64 80.8202 17.892 81.9962 18.396C83.1722 18.876 84.0842 19.608 84.7322 20.592C85.4042 21.576 85.7402 22.812 85.7402 24.3V31.608C85.7402 32.52 86.1722 32.976 87.0362 32.976C87.4442 32.976 87.8282 32.916 88.1882 32.796L87.9002 35.856C87.2762 36.168 86.4962 36.324 85.5602 36.324C84.7202 36.324 83.9642 36.18 83.2922 35.892C82.6202 35.604 82.0922 35.172 81.7082 34.596C81.3242 33.996 81.1322 33.252 81.1322 32.364V32.22L81.9962 32.076C81.8522 32.988 81.4562 33.768 80.8082 34.416C80.1602 35.04 79.3682 35.52 78.4322 35.856C77.5202 36.192 76.5722 36.36 75.5882 36.36C74.3642 36.36 73.3082 36.18 72.4202 35.82C71.5322 35.436 70.8482 34.884 70.3682 34.164C69.8882 33.444 69.6482 32.556 69.6482 31.5C69.6482 30.156 70.0802 29.064 70.9442 28.224C71.8082 27.36 73.0442 26.772 74.6522 26.46L81.4202 25.092L81.3842 28.152L77.0642 29.016C76.2482 29.184 75.6242 29.412 75.1922 29.7C74.7842 29.964 74.5802 30.408 74.5802 31.032C74.5802 31.632 74.7962 32.088 75.2282 32.4C75.6842 32.712 76.2242 32.868 76.8482 32.868C77.3522 32.868 77.8442 32.808 78.3242 32.688C78.8042 32.568 79.2362 32.376 79.6202 32.112C80.0042 31.848 80.3042 31.488 80.5202 31.032C80.7362 30.576 80.8442 30.024 80.8442 29.376V24.516ZM96.1161 10.116V30.456C96.1161 31.296 96.2601 31.884 96.5481 32.22C96.8361 32.556 97.3161 32.724 97.9881 32.724C98.3961 32.724 98.7321 32.7 98.9961 32.652C99.2601 32.58 99.5961 32.484 100.004 32.364L99.5721 35.604C99.1641 35.844 98.6481 36.024 98.0241 36.144C97.4241 36.288 96.8241 36.36 96.2241 36.36C94.4721 36.36 93.1881 35.94 92.3721 35.1C91.5801 34.236 91.1841 32.868 91.1841 30.996V10.116H96.1161ZM107.612 10.116V30.456C107.612 31.296 107.756 31.884 108.044 32.22C108.332 32.556 108.812 32.724 109.484 32.724C109.892 32.724 110.228 32.7 110.492 32.652C110.756 32.58 111.092 32.484 111.5 32.364L111.068 35.604C110.66 35.844 110.144 36.024 109.52 36.144C108.92 36.288 108.32 36.36 107.72 36.36C105.968 36.36 104.684 35.94 103.868 35.1C103.076 34.236 102.68 32.868 102.68 30.996V10.116H107.612ZM122.456 17.64C124.28 17.64 125.876 18.012 127.244 18.756C128.636 19.5 129.716 20.568 130.484 21.96C131.276 23.352 131.672 25.032 131.672 27C131.672 28.944 131.276 30.624 130.484 32.04C129.716 33.432 128.636 34.5 127.244 35.244C125.876 35.988 124.28 36.36 122.456 36.36C120.656 36.36 119.06 35.988 117.668 35.244C116.276 34.5 115.184 33.432 114.392 32.04C113.624 30.624 113.24 28.944 113.24 27C113.24 25.032 113.624 23.352 114.392 21.96C115.184 20.568 116.276 19.5 117.668 18.756C119.06 18.012 120.656 17.64 122.456 17.64ZM122.456 21.312C121.544 21.312 120.764 21.528 120.116 21.96C119.492 22.368 119.012 22.992 118.676 23.832C118.34 24.672 118.172 25.728 118.172 27C118.172 28.272 118.34 29.328 118.676 30.168C119.012 31.008 119.492 31.644 120.116 32.076C120.764 32.484 121.544 32.688 122.456 32.688C123.344 32.688 124.1 32.484 124.724 32.076C125.372 31.644 125.864 31.008 126.2 30.168C126.536 29.328 126.704 28.272 126.704 27C126.704 25.728 126.536 24.672 126.2 23.832C125.864 22.992 125.372 22.368 124.724 21.96C124.1 21.528 123.344 21.312 122.456 21.312ZM158.527 18H163.783L158.023 36H152.335L148.411 23.76L144.631 36H138.943L133.183 18H138.439L142.039 31.788L146.035 18H150.931L154.963 31.788L158.527 18Z" fill="#04091E"/>
<path d="M23 47C35.7025 47 46 36.7026 46 24C46 11.2974 35.7025 1 23 1C10.2974 1 0 11.2974 0 24C0 36.7026 10.2974 47 23 47Z" fill="#FDCC04"/>
<mask id="mask0_426_4603" style="mask-type:luminance" maskUnits="userSpaceOnUse" x="23" y="11" width="13" height="11">
<path d="M25.0232 13.8576H30.0858C32.0576 13.8576 33.112 16.2748 31.6769 17.7139C31.2677 18.1243 30.7041 18.3789 30.0858 18.3789L28.7211 18.3791L28.2106 18.3789L28.2109 18.3791H23.0967C24.5016 18.3791 25.7779 18.9545 26.7022 19.8814C27.095 20.275 27.424 20.7324 27.6731 21.2364H30.0167H30.0189H30.0212H30.0232H30.0255H30.0276H30.0298H30.0321H30.0341H30.0364H30.0384H30.0407H30.043H30.0453H30.0475H30.0498H30.0518H30.0541H30.0564H30.0587H30.061H30.0632H30.0655H30.0678H30.0701H30.0723H30.0746H30.0767H30.0789H30.0812H30.0832H30.0855H30.0878C30.211 21.2364 30.3333 21.2319 30.4543 21.2235L30.4522 21.2202C34.8107 20.889 36.7787 15.5961 33.6936 12.5025C32.7693 11.5756 31.4927 11 30.088 11H25.0255H24.7939V13.8573H25.0232V13.8576Z" fill="white"/>
</mask>
<g mask="url(#mask0_426_4603)">
<path d="M36.7767 11H23.0967V21.2364H36.7767V11Z" fill="url(#paint0_linear_426_4603)"/>
</g>
<mask id="mask1_426_4603" style="mask-type:luminance" maskUnits="userSpaceOnUse" x="11" y="11" width="15" height="6">
<path d="M25.0229 13.8573V11H16.107C13.0748 11 11.025 13.4982 11.0002 16.1185C10.9997 16.1779 11.0002 16.2373 11.0017 16.2969H13.8604C13.855 16.2375 13.852 16.1781 13.8513 16.1185C13.8459 15.5611 14.0494 14.9903 14.5156 14.5228C14.9249 14.1124 15.488 13.8576 16.1068 13.8576H25.0229V13.8573Z" fill="white"/>
</mask>
<g mask="url(#mask1_426_4603)">
<path d="M25.0222 11H10.999V16.2966H25.0222V11Z" fill="#04091E"/>
</g>
<mask id="mask2_426_4603" style="mask-type:luminance" maskUnits="userSpaceOnUse" x="11" y="25" width="9" height="12">
<path d="M19.5367 28.621V25.7637H16.1058C13.296 25.7637 11.002 28.0642 11.002 30.8816C11.002 33.9214 13.4931 35.9778 16.1058 36.0026C16.164 36.0031 16.2219 36.0029 16.2804 36.0014V33.1347C16.2224 33.14 16.1642 33.1428 16.1058 33.1435C15.55 33.1489 14.981 32.9451 14.5146 32.4773C13.0968 31.0555 14.1048 28.621 16.1058 28.621H18.3603H19.5367Z" fill="white"/>
</mask>
<g mask="url(#mask2_426_4603)">
<path d="M19.5364 25.7637H11.002V36.0034H19.5364V25.7637Z" fill="#04091E"/>
</g>
<mask id="mask3_426_4603" style="mask-type:luminance" maskUnits="userSpaceOnUse" x="11" y="16" width="12" height="6">
<path d="M22.3465 18.3798H16.1068C14.7758 18.3798 13.8622 17.278 13.8513 16.1191H11.0002C10.9883 17.3854 11.4495 18.68 12.5013 19.7348C13.4256 20.6617 14.7019 21.2374 16.1068 21.2374H22.3465H22.4518V18.38H22.3465V18.3798Z" fill="white"/>
</mask>
<g mask="url(#mask3_426_4603)">
<path d="M22.452 16.1191H10.9883V21.2371H22.452V16.1191Z" fill="#04091E"/>
</g>
<mask id="mask4_426_4603" style="mask-type:luminance" maskUnits="userSpaceOnUse" x="19" y="18" width="10" height="11">
<path d="M24.6867 25.0891C24.2775 25.4995 23.7143 25.7544 23.0958 25.7544H19.5373H19.4482V28.6117H19.5373H21.2103H23.0958C27.0247 28.6117 29.2783 24.4389 27.6818 21.2326H27.6724C27.4234 20.7288 27.0941 20.2714 26.7016 19.8775C25.7861 18.9595 24.525 18.3862 23.1358 18.3753L23.0958 18.375H22.3464V21.2323H23.0958C25.0668 21.2326 26.1227 23.6491 24.6867 25.0891Z" fill="white"/>
</mask>
<g mask="url(#mask4_426_4603)">
<path d="M29.278 18.375H19.4482V28.6114H29.278V18.375Z" fill="#04091E"/>
</g>
<mask id="mask5_426_4603" style="mask-type:luminance" maskUnits="userSpaceOnUse" x="16" y="28" width="6" height="8">
<path d="M18.3608 30.8712V30.8732V30.875V30.877V30.8791V30.8811V30.8829L18.3605 30.8907V30.8928V30.8948L18.3603 30.9047V30.9067L18.36 30.9146V30.9164V30.9184V30.9202L18.3598 30.9222V30.9242V30.926V30.9281L18.3595 30.9301V30.9319V30.9331L18.3593 30.9339V30.9359V30.9377L18.359 30.9397V30.9418V30.9435L18.3588 30.9456V30.9473L18.3585 30.9494V30.9514L18.3583 30.9532V30.9552L18.358 30.957V30.959L18.3578 30.961V30.9628L18.3575 30.9649V30.9666L18.3572 30.9687V30.9707L18.357 30.9725L18.3567 30.9745V30.9763L18.3565 30.9783V30.9801L18.3562 30.9821L18.356 30.9841V30.9859L18.3557 30.988L18.3552 30.9956H18.3555C18.2887 32.2613 17.2224 33.1207 16.1045 33.1318V35.9912C17.3672 36.0034 18.6582 35.5409 19.71 34.4859C20.6143 33.5785 21.1739 32.344 21.2065 30.9956V30.9935L21.2068 30.9918V30.9897V30.988L21.207 30.9839V30.9821V30.9811L21.2073 30.9773V30.9753L21.2075 30.9694V30.9676L21.2078 30.9598V30.958L21.2081 30.9522V30.9501V30.9484L21.2083 30.9443V30.9425V30.9405V30.9387V30.9374V30.9367L21.2086 30.9347V30.9329V30.9308V30.9288V30.927V30.925V30.923L21.2088 30.9151V30.9131V30.9113V30.9093V30.9072V30.9055V30.9034V30.9014L21.2091 30.8935V30.8915V30.8895V30.8877V30.8857V30.8836V30.8816V30.8798V30.8778V30.8758V30.874V30.872V28.6113H18.3598V30.8712H18.3608Z" fill="white"/>
</mask>
<g mask="url(#mask5_426_4603)">
<path d="M21.2112 28.6113H16.1074V36.0052H21.2112V28.6113Z" fill="#04091E"/>
</g>
<defs>
<linearGradient id="paint0_linear_426_4603" x1="25.2116" y1="13.7918" x2="24.7315" y2="28.3397" gradientUnits="userSpaceOnUse">
<stop stop-color="#04091E"/>
<stop offset="1" stop-color="#04091E" stop-opacity="0"/>
</linearGradient>
</defs>
</svg>
