<svg width="48" height="48" viewBox="0 0 48 48" fill="none" xmlns="http://www.w3.org/2000/svg">
<path d="M24 27.8438C26.1228 27.8438 27.8438 26.1228 27.8438 24C27.8438 21.8772 26.1228 20.1562 24 20.1562C21.8772 20.1562 20.1562 21.8772 20.1562 24C20.1562 26.1228 21.8772 27.8438 24 27.8438Z" fill="#E1E6ED"/>
<path d="M39.6895 19.6875C39.6895 19.6875 40.8145 18 40.252 16.5C39.6895 15.5625 39.502 15.75 39.502 15.75C39.502 15.75 38.752 13.875 35.9395 14.0625C33.127 14.25 32.377 16.875 32.377 17.8125L32.752 17.625C32.752 17.625 32.1895 18.375 32.752 19.5C32.752 19.5 33.502 17.8125 34.252 17.8125L34.0645 18.5625C34.0645 18.5625 36.6895 18.75 38.1895 17.25L37.627 18.1875C37.627 18.1875 38.752 18 39.127 17.4375C39.127 17.4375 38.9395 18.5625 39.6895 19.6875Z" fill="#2662FA"/>
<path d="M19.0645 19.6875C19.0645 19.6875 20.1895 18 19.627 16.5C19.0645 15.5625 18.877 15.75 18.877 15.75C18.877 15.75 18.127 13.875 15.3145 14.0625C12.502 14.25 11.752 16.875 11.752 17.8125L12.127 17.625C12.127 17.625 11.5645 18.375 12.127 19.5C12.127 19.5 12.877 17.8125 13.627 17.8125L13.4395 18.5625C13.4395 18.5625 16.0645 18.75 17.5645 17.25L17.002 18.1875C17.002 18.1875 18.127 18 18.502 17.4375C18.502 17.4375 18.3145 18.5625 19.0645 19.6875Z" fill="#2662FA"/>
<path d="M26.9403 11.25C26.9403 11.25 25.6278 12.5625 24.1278 12.75C22.6278 12.9375 22.8153 15 22.8153 15C22.8153 15 22.0653 15.5625 22.4403 16.5C22.5078 16.6688 22.9221 17.235 23.0028 17.4375C23.2671 18.1013 23.2334 18.5063 23.3778 18.9375C23.3778 18.9375 23.1903 20.25 22.4403 20.25C22.4403 20.25 22.8153 18.9375 21.5028 16.875C20.1903 14.8125 21.8778 10.875 22.8153 9.93753C23.7528 9.00003 26.0028 7.12503 28.4403 8.62503C30.8778 10.125 31.2528 12.75 30.6903 16.3125C30.1278 19.875 30.3153 20.625 30.3153 20.625C30.3153 20.625 28.8153 19.875 28.6278 19.125C28.6278 19.125 29.3778 18.375 29.3778 17.0625C29.3778 17.0625 30.1278 16.875 29.9403 15.75C29.7528 14.625 29.1903 14.8125 29.1903 14.8125C29.1903 14.8125 29.7528 12.1875 26.9403 11.25Z" fill="#2662FA"/>
<path d="M39.872 33.9318L39.0001 33.0599C38.612 32.6718 38.612 32.0418 39.0001 31.6537L39.872 30.7818C40.2601 30.3937 40.8901 30.3937 41.2782 30.7818L42.1501 31.6537C42.5382 32.0418 42.5382 32.6718 42.1501 33.0599L41.2782 33.9318C40.8901 34.3199 40.2601 34.3199 39.872 33.9318Z" stroke="#04091E" stroke-width="0.6" stroke-miterlimit="10" stroke-linecap="round"/>
<path d="M12.127 38.4375C17.5117 38.4375 21.877 34.0723 21.877 28.6875C21.877 23.3027 17.5117 18.9375 12.127 18.9375C6.74218 18.9375 2.37695 23.3027 2.37695 28.6875C2.37695 34.0723 6.74218 38.4375 12.127 38.4375Z" fill="#E1E6ED"/>
<path d="M15.1758 7.37068L15.5939 6.95068" stroke="#04091E" stroke-width="0.6" stroke-miterlimit="10" stroke-linecap="round"/>
<path d="M17.2246 7.37068L17.6446 6.95068" stroke="#04091E" stroke-width="0.6" stroke-miterlimit="10" stroke-linecap="round"/>
<path d="M19.2773 7.37068L19.6973 6.95068" stroke="#04091E" stroke-width="0.6" stroke-miterlimit="10" stroke-linecap="round"/>
<path d="M15.1758 9.42195L15.5939 9.00195" stroke="#04091E" stroke-width="0.6" stroke-miterlimit="10" stroke-linecap="round"/>
<path d="M17.2246 9.42195L17.6446 9.00195" stroke="#04091E" stroke-width="0.6" stroke-miterlimit="10" stroke-linecap="round"/>
<path d="M19.2773 9.42195L19.6973 9.00195" stroke="#04091E" stroke-width="0.6" stroke-miterlimit="10" stroke-linecap="round"/>
<path d="M15.1758 11.5894L15.5939 11.1694" stroke="#04091E" stroke-width="0.6" stroke-miterlimit="10" stroke-linecap="round"/>
<path d="M17.2246 11.5894L17.6446 11.1694" stroke="#04091E" stroke-width="0.6" stroke-miterlimit="10" stroke-linecap="round"/>
<path d="M19.2773 11.5894L19.6973 11.1694" stroke="#04091E" stroke-width="0.6" stroke-miterlimit="10" stroke-linecap="round"/>
<path d="M34.627 9.375V10.3125" stroke="#04091E" stroke-width="0.6" stroke-miterlimit="10" stroke-linecap="round"/>
<path d="M34.627 6.9375V7.875" stroke="#04091E" stroke-width="0.6" stroke-miterlimit="10" stroke-linecap="round"/>
<path d="M33.877 8.625H32.9395" stroke="#04091E" stroke-width="0.6" stroke-miterlimit="10" stroke-linecap="round"/>
<path d="M36.3145 8.625H35.377" stroke="#04091E" stroke-width="0.6" stroke-miterlimit="10" stroke-linecap="round"/>
<path d="M6.68945 24.9375V25.875" stroke="#04091E" stroke-width="0.6" stroke-miterlimit="10" stroke-linecap="round"/>
<path d="M6.68945 22.5V23.4375" stroke="#04091E" stroke-width="0.6" stroke-miterlimit="10" stroke-linecap="round"/>
<path d="M5.93945 24.1875H5.00195" stroke="#04091E" stroke-width="0.6" stroke-miterlimit="10" stroke-linecap="round"/>
<path d="M8.37695 24.1875H7.43945" stroke="#04091E" stroke-width="0.6" stroke-miterlimit="10" stroke-linecap="round"/>
<path d="M33.8113 26.3175C33.5713 26.4938 33.2995 26.6981 32.9395 26.9025" stroke="#04091E" stroke-width="0.6" stroke-miterlimit="10" stroke-linecap="round" stroke-linejoin="round"/>
<path d="M42 27.6937C44.6794 28.3537 45.4706 29.5181 45.6244 29.7919" stroke="#04091E" stroke-width="0.6" stroke-miterlimit="10" stroke-linecap="round" stroke-linejoin="round"/>
<path d="M38.8008 26.3175C39.2995 26.685 39.9352 27.1744 41.2345 27.5138" stroke="#04091E" stroke-width="0.6" stroke-miterlimit="10" stroke-linecap="round" stroke-linejoin="round"/>
<path d="M35.4121 27.135C36.3477 27.3469 37.5796 27.2831 38.7702 26.3063C38.5771 25.8281 38.5809 25.1963 38.6315 24.6919" stroke="#04091E" stroke-width="0.6" stroke-miterlimit="10" stroke-linecap="round" stroke-linejoin="round"/>
<path d="M33.9505 24.5231C34.0236 25.0443 34.0686 25.7981 33.8398 26.3081C33.8417 26.4056 34.2186 26.7168 34.8186 26.9531" stroke="#04091E" stroke-width="0.6" stroke-miterlimit="10" stroke-linecap="round" stroke-linejoin="round"/>
<path d="M37.3862 14.235C39.5969 14.7019 39.4506 15.7687 39.4506 15.7687C39.4506 15.7687 40.3956 16.0406 40.3431 17.1862C40.2906 18.3319 40.315 18.8869 39.8575 19.4269C39.6288 19.5131 39.6288 19.5994 39.6288 19.5994C39.6288 19.5994 38.9519 18.4462 39.2144 17.3569C39.2144 17.3569 38.8825 17.8744 37.8025 17.9606C37.8025 17.9606 38.3313 17.5425 38.3838 17.2706C38.3838 17.2706 36.1431 18.8231 34.0675 18.4781C34.0675 18.4781 34.4819 18.1331 34.4819 17.7019C34.4819 17.7019 33.6513 17.8744 33.07 19.5131L32.7381 19.4269C32.7381 19.4269 32.4063 18.3056 32.7381 17.5294C32.5713 17.5294 32.4062 17.7881 32.4062 17.7881C32.4062 17.7881 32.4888 16.3219 33.3194 15.4594C33.3194 15.4594 33.8669 14.7712 34.8962 14.3812" stroke="#04091E" stroke-width="0.6" stroke-miterlimit="10" stroke-linecap="round" stroke-linejoin="round"/>
<path d="M35.4785 14.2087C35.8929 14.1187 36.3635 14.0869 36.8904 14.1506" stroke="#04091E" stroke-width="0.6" stroke-miterlimit="10" stroke-linecap="round" stroke-linejoin="round"/>
<path d="M32.9903 19.4588C32.5159 19.5019 32.2047 20.0513 32.2628 20.6869C32.3097 21.2025 32.5853 21.6169 32.9416 21.7313C33.1159 24.0413 34.7059 25.83 36.2941 25.83C37.9816 25.83 39.4553 24.0319 39.6466 21.7144C39.9803 21.5813 40.2372 21.18 40.2841 20.685C40.3422 20.0494 40.0309 19.5 39.5566 19.4569" stroke="#04091E" stroke-width="0.6" stroke-miterlimit="10" stroke-linecap="round" stroke-linejoin="round"/>
<path d="M13.1865 26.3175C12.639 26.7206 11.9302 27.27 10.359 27.6075C7.38148 28.2469 6.52461 29.505 6.36523 29.7919" stroke="#04091E" stroke-width="0.6" stroke-miterlimit="10" stroke-linecap="round" stroke-linejoin="round"/>
<path d="M18.1758 26.3175C18.4552 26.5219 18.7758 26.7656 19.2314 27" stroke="#04091E" stroke-width="0.6" stroke-miterlimit="10" stroke-linecap="round" stroke-linejoin="round"/>
<path d="M14.7871 27.135C15.7227 27.3469 16.9546 27.2831 18.1452 26.3063C17.9521 25.8281 17.9559 25.1963 18.0065 24.6919" stroke="#04091E" stroke-width="0.6" stroke-miterlimit="10" stroke-linecap="round" stroke-linejoin="round"/>
<path d="M13.3255 24.5231C13.3986 25.0443 13.4436 25.7981 13.2148 26.3081C13.2167 26.4056 13.5936 26.7168 14.1936 26.9531" stroke="#04091E" stroke-width="0.6" stroke-miterlimit="10" stroke-linecap="round" stroke-linejoin="round"/>
<path d="M16.7613 14.235C18.9719 14.7019 18.8256 15.7687 18.8256 15.7687C18.8256 15.7687 19.7706 16.0406 19.7181 17.1862C19.6656 18.3319 19.69 18.8869 19.2325 19.4269C19.0038 19.5131 19.0038 19.5994 19.0038 19.5994C19.0038 19.5994 18.3269 18.4462 18.5894 17.3569C18.5894 17.3569 18.2575 17.8744 17.1775 17.9606C17.1775 17.9606 17.7063 17.5425 17.7588 17.2706C17.7588 17.2706 15.5181 18.8231 13.4425 18.4781C13.4425 18.4781 13.8569 18.1331 13.8569 17.7019C13.8569 17.7019 13.0262 17.8744 12.445 19.5131L12.1131 19.4269C12.1131 19.4269 11.7813 18.3056 12.1131 17.5294C11.9463 17.5294 11.7812 17.7881 11.7812 17.7881C11.7812 17.7881 11.8637 16.3219 12.6944 15.4594C12.6944 15.4594 13.2419 14.7712 14.2713 14.3812" stroke="#04091E" stroke-width="0.6" stroke-miterlimit="10" stroke-linecap="round" stroke-linejoin="round"/>
<path d="M14.8535 14.2087C15.2679 14.1187 15.7385 14.0869 16.2654 14.1506" stroke="#04091E" stroke-width="0.6" stroke-miterlimit="10" stroke-linecap="round" stroke-linejoin="round"/>
<path d="M12.3653 19.4588C11.8909 19.5019 11.5797 20.0513 11.6378 20.6869C11.6847 21.2025 11.9603 21.6169 12.3166 21.7313C12.4909 24.0413 14.0809 25.83 15.6691 25.83C17.3566 25.83 18.8303 24.0319 19.0216 21.7144C19.3553 21.5813 19.6122 21.18 19.6591 20.685C19.7172 20.0494 19.4059 19.5 18.9316 19.4569" stroke="#04091E" stroke-width="0.6" stroke-miterlimit="10" stroke-linecap="round" stroke-linejoin="round"/>
<path d="M28.7812 19.2244C28.92 19.9538 30.225 20.475 30.225 20.475C29.9362 18.165 30.8025 17.01 30.8719 14.1394" stroke="#04091E" stroke-width="0.6" stroke-miterlimit="10" stroke-linecap="round" stroke-linejoin="round"/>
<path d="M30.6543 11.625C30.808 12.1631 30.8924 12.7556 30.898 13.4062" stroke="#04091E" stroke-width="0.6" stroke-miterlimit="10" stroke-linecap="round" stroke-linejoin="round"/>
<path d="M23.3917 18.84C23.3261 19.6744 22.3324 20.2838 22.3324 20.2838C22.3324 20.2838 22.8892 19.6219 21.8505 17.5894C20.9449 15.8175 20.8267 13.5844 21.9442 11.1619C23.0617 8.73938 26.0449 7.43438 27.9086 8.36625C29.0036 8.91375 29.8717 9.75 30.3855 10.8938" stroke="#04091E" stroke-width="0.6" stroke-miterlimit="10" stroke-linecap="round" stroke-linejoin="round"/>
<path d="M29.2862 14.9401C29.4043 13.3332 28.8924 11.8838 26.888 11.3101C26.888 11.3101 25.6468 12.2644 24.1018 12.8382C23.2243 13.1626 22.9243 13.9369 22.8887 14.8444" stroke="#04091E" stroke-width="0.6" stroke-miterlimit="10" stroke-linecap="round" stroke-linejoin="round"/>
<path d="M26.8887 11.31C26.8887 11.31 27.4624 10.7363 27.4624 9.97314L26.8887 11.31Z" fill="white"/>
<path d="M26.8887 11.31C26.8887 11.31 27.4624 10.7363 27.4624 9.97314" stroke="#04091E" stroke-width="0.6" stroke-miterlimit="10" stroke-linecap="round" stroke-linejoin="round"/>
<path d="M23.6844 21.3075C23.1538 21.6975 22.4656 22.23 20.9431 22.5581C20.2737 22.7025 19.715 22.8787 19.25 23.0662" stroke="#04091E" stroke-width="0.6" stroke-miterlimit="10" stroke-linecap="round" stroke-linejoin="round"/>
<path d="M31.6211 22.6406C32.0448 22.7456 32.4198 22.8619 32.7498 22.9875" stroke="#04091E" stroke-width="0.6" stroke-miterlimit="10" stroke-linecap="round" stroke-linejoin="round"/>
<path d="M28.5215 21.3075C29.0052 21.6637 29.6202 22.1381 30.8802 22.4662" stroke="#04091E" stroke-width="0.6" stroke-miterlimit="10" stroke-linecap="round" stroke-linejoin="round"/>
<path d="M24.551 22.665L23.7129 21.2981" stroke="#04091E" stroke-width="0.6" stroke-miterlimit="10" stroke-linecap="round" stroke-linejoin="round"/>
<path d="M28.357 19.7325C28.3082 20.2219 28.3045 20.835 28.492 21.2982L27.502 22.875" stroke="#04091E" stroke-width="0.6" stroke-miterlimit="10" stroke-linecap="round" stroke-linejoin="round"/>
<path d="M23.8198 19.5675C23.891 20.0738 23.9341 20.8031 23.7129 21.2963" stroke="#04091E" stroke-width="0.6" stroke-miterlimit="10" stroke-linecap="round" stroke-linejoin="round"/>
<path d="M22.9813 14.9718C22.5219 15.015 22.22 15.5456 22.2763 16.1625C22.3213 16.6612 22.5894 17.0625 22.9344 17.175C23.105 19.4137 24.9331 20.8593 26.1838 20.8593C27.3388 20.8593 29.2475 19.4043 29.4331 17.1581C29.7575 17.0287 30.0069 16.6406 30.05 16.1606C30.1063 15.5437 29.8044 15.0131 29.345 14.97" stroke="#04091E" stroke-width="0.6" stroke-miterlimit="10" stroke-linecap="round" stroke-linejoin="round"/>
<path d="M26.166 24.96C22.1273 24.96 18.8535 28.2337 18.8535 32.2725C18.8535 36.3112 22.1273 39.585 26.166 39.585C30.2048 39.585 33.4785 36.3112 33.4785 32.2725C33.4785 28.2356 30.2048 24.96 26.166 24.96ZM26.166 37.5225C23.2673 37.5225 20.916 35.1712 20.916 32.2725C20.916 29.3737 23.2673 27.0225 26.166 27.0225C29.0648 27.0225 31.416 29.3737 31.416 32.2725C31.416 35.1731 29.0666 37.5225 26.166 37.5225Z" fill="#2662FA" stroke="#04091E" stroke-width="0.6" stroke-miterlimit="10"/>
<path d="M26.1895 37.5C29.0889 37.5 31.4395 35.1495 31.4395 32.25C31.4395 29.3505 29.0889 27 26.1895 27C23.29 27 20.9395 29.3505 20.9395 32.25C20.9395 35.1495 23.29 37.5 26.1895 37.5Z" stroke="#04091E" stroke-width="0.6" stroke-miterlimit="10" stroke-linecap="round" stroke-linejoin="round"/>
<path d="M26.1895 34.5C27.4321 34.5 28.4395 33.4926 28.4395 32.25C28.4395 31.0074 27.4321 30 26.1895 30C24.9468 30 23.9395 31.0074 23.9395 32.25C23.9395 33.4926 24.9468 34.5 26.1895 34.5Z" fill="#2662FA" stroke="#04091E" stroke-width="0.6" stroke-miterlimit="10"/>
<path d="M26.1895 23.625V28.5" stroke="#04091E" stroke-width="0.6" stroke-miterlimit="10" stroke-linecap="round" stroke-linejoin="round"/>
<path d="M26.1895 36.1875V41.0625" stroke="#04091E" stroke-width="0.6" stroke-miterlimit="10" stroke-linecap="round" stroke-linejoin="round"/>
<path d="M34.627 32.25H30.127" stroke="#04091E" stroke-width="0.6" stroke-miterlimit="10" stroke-linecap="round" stroke-linejoin="round"/>
<path d="M22.0645 32.25H17.5645" stroke="#04091E" stroke-width="0.6" stroke-miterlimit="10" stroke-linecap="round" stroke-linejoin="round"/>
<path d="M11.3886 35.0738C11.0267 34.7119 11.0267 34.1231 11.3886 33.7613C11.7505 33.3994 12.3392 33.3994 12.7011 33.7613C13.063 34.1231 13.063 34.7119 12.7011 35.0738C12.3392 35.4356 11.7505 35.4356 11.3886 35.0738Z" fill="#E1E6ED" stroke="#04091E" stroke-width="0.6" stroke-miterlimit="10" stroke-linecap="round"/>
</svg>
