<svg width="48" height="48" viewBox="0 0 48 48" fill="none" xmlns="http://www.w3.org/2000/svg">
<path d="M14.573 44.7056C21.2687 44.7056 26.6967 39.2776 26.6967 32.5819C26.6967 25.8861 21.2687 20.4581 14.573 20.4581C7.87721 20.4581 2.44922 25.8861 2.44922 32.5819C2.44922 39.2776 7.87721 44.7056 14.573 44.7056Z" fill="#E1E6ED"/>
<path d="M28.5139 22.7381C32.5494 22.7381 35.8208 19.4667 35.8208 15.4313C35.8208 11.3958 32.5494 8.12439 28.5139 8.12439C24.4784 8.12439 21.207 11.3958 21.207 15.4313C21.207 19.4667 24.4784 22.7381 28.5139 22.7381Z" fill="#E1E6ED"/>
<path d="M27.6715 40.7701L25.7065 42.0095C24.7727 42.5983 23.5765 42.5795 22.6615 41.9589L16.3652 37.6895L19.8696 35.4789L27.6715 40.7701Z" fill="#2662FA"/>
<path d="M19.9322 35.1095L13.3341 39.272C12.4116 39.8532 11.1909 39.5776 10.6097 38.6551L8.65407 35.5539C8.07282 34.6314 8.34845 33.4107 9.27095 32.8295L15.8691 28.667L19.9322 35.1095Z" stroke="#010101" stroke-width="0.6" stroke-miterlimit="10" stroke-linecap="round"/>
<path d="M15.8691 28.667C18.886 26.7638 21.211 23.942 22.501 20.6157L24.2073 16.2207C24.3591 15.8326 24.631 15.5007 24.9835 15.2795L25.1185 15.1932C26.0279 14.6195 27.2298 14.8913 27.8035 15.8007L36.6085 29.7601C37.1823 30.6695 36.9104 31.8713 36.001 32.4451C35.6541 32.6645 35.2473 32.7676 34.8366 32.7413L30.1079 32.4357C26.6091 32.2089 23.1273 33.0957 20.161 34.967L19.9323 35.1113L15.8691 28.667Z" stroke="#010101" stroke-width="0.6" stroke-miterlimit="10" stroke-linecap="round"/>
<path d="M12.0645 34.5132L15.2145 32.5276" stroke="#010101" stroke-width="0.6" stroke-miterlimit="10" stroke-linecap="round"/>
<path d="M13.1289 36.2007L14.6664 35.2313" stroke="#010101" stroke-width="0.6" stroke-miterlimit="10" stroke-linecap="round"/>
<path d="M33.3623 32.4902L28.7461 25.1702" stroke="#010101" stroke-width="0.6" stroke-miterlimit="10" stroke-linecap="round"/>
<path d="M26.3506 21.3751L23.8438 17.3982" stroke="#010101" stroke-width="0.6" stroke-miterlimit="10" stroke-linecap="round"/>
<path d="M28.027 24.0301L27.3164 22.9032" stroke="#010101" stroke-width="0.6" stroke-miterlimit="10" stroke-linecap="round"/>
<path d="M27.7652 40.4514L25.8002 41.6908C24.8665 42.2795 23.6702 42.2608 22.7552 41.6402L16.459 37.3708L19.9634 35.1602L27.7652 40.4514Z" stroke="#010101" stroke-width="0.6" stroke-miterlimit="10" stroke-linecap="round"/>
<path d="M14.7641 30.5963C18.8224 30.5963 22.1123 27.3064 22.1123 23.2481C22.1123 19.1899 18.8224 15.9 14.7641 15.9C10.7059 15.9 7.41602 19.1899 7.41602 23.2481C7.41602 27.3064 10.7059 30.5963 14.7641 30.5963Z" fill="#2662FA" stroke="#010101" stroke-width="0.6" stroke-miterlimit="10"/>
<path d="M20.2563 13.3969C23.0461 13.3969 25.3076 11.1354 25.3076 8.34568C25.3076 5.55595 23.0461 3.29443 20.2563 3.29443C17.4666 3.29443 15.2051 5.55595 15.2051 8.34568C15.2051 11.1354 17.4666 13.3969 20.2563 13.3969Z" fill="#2662FA" stroke="#010101" stroke-width="0.6" stroke-miterlimit="10"/>
<path d="M34.0212 25.6369L30.2188 19.5882C31.8894 18.5382 34.0944 19.0407 35.1444 20.7113C36.1944 22.3819 35.6919 24.5869 34.0212 25.6369Z" fill="#2662FA" stroke="#010101" stroke-width="0.6" stroke-miterlimit="10"/>
<path d="M37.4336 19.2675L39.8392 18.0657" stroke="#010101" stroke-width="0.6" stroke-miterlimit="10" stroke-linecap="round" stroke-linejoin="round"/>
<path d="M35.8047 17.777L36.6541 15.2251" stroke="#010101" stroke-width="0.6" stroke-miterlimit="10" stroke-linecap="round" stroke-linejoin="round"/>
<path d="M37.5996 21.6094L40.1515 22.4606" stroke="#010101" stroke-width="0.6" stroke-miterlimit="10" stroke-linecap="round" stroke-linejoin="round"/>
<path d="M30.1504 16.7719L36.3941 10.5281L38.706 12.84L44.3948 7.15125" stroke="#010101" stroke-width="0.6" stroke-miterlimit="10" stroke-linecap="round" stroke-linejoin="round"/>
<path d="M42.6582 5.99438H45.5513V8.69251" stroke="#010101" stroke-width="0.6" stroke-miterlimit="10" stroke-linecap="round" stroke-linejoin="round"/>
<path d="M6.07617 38.2689V37.3389" stroke="#010101" stroke-width="0.6" stroke-miterlimit="10" stroke-linecap="round"/>
<path d="M4.11328 39.3002H4.91203" stroke="#010101" stroke-width="0.6" stroke-miterlimit="10" stroke-linecap="round"/>
<path d="M7.24023 39.3H8.03711" stroke="#010101" stroke-width="0.6" stroke-miterlimit="10" stroke-linecap="round"/>
<path d="M6.07617 41.2632V40.2001" stroke="#010101" stroke-width="0.6" stroke-miterlimit="10" stroke-linecap="round"/>
<path d="M30.4551 7.30131V6.62256" stroke="#010101" stroke-width="0.6" stroke-miterlimit="10" stroke-linecap="round"/>
<path d="M29.0234 8.05505H29.6066" stroke="#010101" stroke-width="0.6" stroke-miterlimit="10" stroke-linecap="round"/>
<path d="M31.3047 8.05505H31.8878" stroke="#010101" stroke-width="0.6" stroke-miterlimit="10" stroke-linecap="round"/>
<path d="M30.4551 9.48755V8.7113" stroke="#010101" stroke-width="0.6" stroke-miterlimit="10" stroke-linecap="round"/>
<path d="M34.5459 41.6644L34.0078 41.1282" stroke="#010101" stroke-width="0.6" stroke-miterlimit="10" stroke-linecap="round"/>
<path d="M34.5459 39.0338L34.0078 38.4976" stroke="#010101" stroke-width="0.6" stroke-miterlimit="10" stroke-linecap="round"/>
<path d="M34.5459 36.4051L34.0078 35.8669" stroke="#010101" stroke-width="0.6" stroke-miterlimit="10" stroke-linecap="round"/>
<path d="M37.1768 41.6644L36.6387 41.1282" stroke="#010101" stroke-width="0.6" stroke-miterlimit="10" stroke-linecap="round"/>
<path d="M37.1768 39.0338L36.6387 38.4976" stroke="#010101" stroke-width="0.6" stroke-miterlimit="10" stroke-linecap="round"/>
<path d="M37.1768 36.4051L36.6387 35.8669" stroke="#010101" stroke-width="0.6" stroke-miterlimit="10" stroke-linecap="round"/>
<path d="M39.9562 41.6644L39.4199 41.1282" stroke="#010101" stroke-width="0.6" stroke-miterlimit="10" stroke-linecap="round"/>
<path d="M39.9562 39.0338L39.4199 38.4976" stroke="#010101" stroke-width="0.6" stroke-miterlimit="10" stroke-linecap="round"/>
<path d="M39.9562 36.4051L39.4199 35.8669" stroke="#010101" stroke-width="0.6" stroke-miterlimit="10" stroke-linecap="round"/>
<path d="M41.5936 30.3226L40.8998 29.6288C40.4761 29.2051 40.4761 28.5188 40.8998 28.0951L41.5936 27.4013C42.0173 26.9776 42.7036 26.9776 43.1273 27.4013L43.8211 28.0951C44.2448 28.5188 44.2448 29.2051 43.8211 29.6288L43.1273 30.3226C42.7036 30.7463 42.0173 30.7463 41.5936 30.3226Z" stroke="#010101" stroke-width="0.6" stroke-miterlimit="10" stroke-linecap="round"/>
</svg>
