<svg width="48" height="48" viewBox="0 0 48 48" fill="none" xmlns="http://www.w3.org/2000/svg">
<path d="M36.0834 40.6444C38.8349 40.6444 41.0653 38.414 41.0653 35.6625C41.0653 32.9111 38.8349 30.6807 36.0834 30.6807C33.332 30.6807 31.1016 32.9111 31.1016 35.6625C31.1016 38.414 33.332 40.6444 36.0834 40.6444Z" fill="#E1E6ED"/>
<path d="M22.9666 32.9362C28.69 32.9362 33.3298 28.2965 33.3298 22.5731C33.3298 16.8497 28.69 12.21 22.9666 12.21C17.2432 12.21 12.6035 16.8497 12.6035 22.5731C12.6035 28.2965 17.2432 32.9362 22.9666 32.9362Z" fill="#E1E6ED"/>
<path d="M45.5675 25.7643L42.4419 27.0956C42.0612 27.2587 41.6206 27.0806 41.4575 26.7L37.3437 17.04C37.1806 16.6593 37.3587 16.2187 37.7394 16.0556L40.865 14.7243C41.2456 14.5612 41.6862 14.7393 41.8494 15.12L45.9631 24.78C46.1262 25.1625 45.95 25.6031 45.5675 25.7643Z" fill="#2662FA" stroke="#04091E" stroke-width="0.6" stroke-miterlimit="10" stroke-linecap="round"/>
<path d="M43.123 25.3049C43.5373 25.3049 43.873 24.9691 43.873 24.5549C43.873 24.1407 43.5373 23.8049 43.123 23.8049C42.7088 23.8049 42.373 24.1407 42.373 24.5549C42.373 24.9691 42.7088 25.3049 43.123 25.3049Z" fill="white" stroke="#04091E" stroke-width="0.6" stroke-miterlimit="10" stroke-linecap="round"/>
<path d="M14.2874 22.7738L13.0387 27.2719C12.928 27.6713 12.5137 27.9056 12.1162 27.7931L8.84241 26.8838C8.44304 26.7731 8.20866 26.3588 8.32116 25.9613L11.128 15.8438C11.2387 15.4444 11.653 15.21 12.0505 15.3225L15.3243 16.2319C15.7237 16.3425 15.958 16.7569 15.8455 17.1544L14.9024 20.5519" fill="#2662FA"/>
<path d="M14.2874 22.7738L13.0387 27.2719C12.928 27.6713 12.5137 27.9056 12.1162 27.7931L8.84241 26.8838C8.44304 26.7731 8.20866 26.3588 8.32116 25.9613L11.128 15.8438C11.2387 15.4444 11.653 15.21 12.0505 15.3225L15.3243 16.2319C15.7237 16.3425 15.958 16.7569 15.8455 17.1544L14.9024 20.5519" stroke="#04091E" stroke-width="0.6" stroke-miterlimit="10" stroke-linecap="round"/>
<path d="M11.0605 25.3051C11.4748 25.3051 11.8105 24.9693 11.8105 24.5551C11.8105 24.1408 11.4748 23.8051 11.0605 23.8051C10.6463 23.8051 10.3105 24.1408 10.3105 24.5551C10.3105 24.9693 10.6463 25.3051 11.0605 25.3051Z" fill="white" stroke="#04091E" stroke-width="0.6" stroke-miterlimit="10" stroke-linecap="round"/>
<path d="M32.5293 17.67L30.6543 16.875L30.1443 16.6593C30.0055 16.6012 29.863 16.5562 29.7168 16.5281C29.4393 16.4737 29.1543 16.4737 28.873 16.53L24.5605 17.3925C24.1368 17.4768 23.7543 17.7056 23.4787 18.0393L20.3418 21.8362C21.823 23.1056 24.0318 23.0212 25.4118 21.6412L25.9668 21.0862H29.3418C29.578 22.5075 30.4537 23.7393 31.7174 24.4312L38.5293 28.1625L38.7224 28.2675C39.6824 28.7925 39.9937 30.0225 39.3993 30.9412C38.8593 31.7775 37.7605 32.0475 36.8943 31.5581L33.2812 29.5218" stroke="#04091E" stroke-width="0.6" stroke-miterlimit="10" stroke-linecap="round"/>
<path d="M37.7793 18.2737L36.2587 18.8268C35.9099 18.9525 35.5274 18.9431 35.1862 18.7987L33.4668 18.0693" stroke="#04091E" stroke-width="0.6" stroke-miterlimit="10" stroke-linecap="round"/>
<path d="M30.6543 31.7737L33.8324 33.6544C34.6162 34.1175 35.6249 33.8625 36.0937 33.0825C36.5605 32.3062 36.3149 31.2975 35.5424 30.8231" stroke="#04091E" stroke-width="0.6" stroke-miterlimit="10" stroke-linecap="round"/>
<path d="M31.123 32.0549L31.7248 32.4056C32.623 32.9287 32.9005 34.0968 32.3361 34.9687C31.7755 35.8349 30.6073 36.0637 29.7617 35.4712L27.5586 33.9299" stroke="#04091E" stroke-width="0.6" stroke-miterlimit="10" stroke-linecap="round"/>
<path d="M24.8418 36.0862L26.3999 37.0406C27.1499 37.4999 28.1287 37.2768 28.603 36.5362C29.0699 35.8106 28.8843 34.8487 28.183 34.3481L27.4668 33.8362" stroke="#04091E" stroke-width="0.6" stroke-miterlimit="10" stroke-linecap="round"/>
<path d="M22.7793 18.8362L17.5949 18.6693C17.1805 18.6562 16.7718 18.5643 16.3893 18.4012L15.6543 18.0862" stroke="#04091E" stroke-width="0.6" stroke-miterlimit="10" stroke-linecap="round"/>
<path d="M15.1855 27.1799L13.3105 26.6174" stroke="#04091E" stroke-width="0.6" stroke-miterlimit="10" stroke-linecap="round"/>
<path d="M40.9668 25.5862L39.4424 26.4168C39.0974 26.6043 38.8443 26.9231 38.7355 27.2999L38.5293 28.0237" stroke="#04091E" stroke-width="0.6" stroke-miterlimit="10" stroke-linecap="round"/>
<path d="M17.6015 28.7662L16.9847 29.473C16.4747 30.058 15.5859 30.118 15.0009 29.608C14.4159 29.098 14.3559 28.2093 14.8659 27.6243L15.4828 26.9174C15.9928 26.3324 16.8815 26.2724 17.4665 26.7824C18.0515 27.2924 18.1115 28.1793 17.6015 28.7662Z" stroke="#04091E" stroke-width="0.6" stroke-miterlimit="10" stroke-linecap="round"/>
<path d="M25.2482 35.6868L24.7551 36.2512C24.1757 36.9149 23.1688 36.9824 22.507 36.4049C21.8432 35.8255 21.7757 34.8187 22.3532 34.1568L22.8463 33.5924C23.4257 32.9287 24.4326 32.8612 25.0945 33.4387C25.7582 34.0162 25.8276 35.023 25.2482 35.6868Z" stroke="#04091E" stroke-width="0.6" stroke-miterlimit="10" stroke-linecap="round"/>
<path d="M22.7228 33.7331L22.2297 34.2975C21.5828 35.0381 20.4578 35.115 19.7172 34.4681C18.9766 33.8213 18.8997 32.6963 19.5466 31.9556L20.0397 31.3913C20.6866 30.6506 21.8116 30.5738 22.5522 31.2206C23.2928 31.8656 23.3697 32.9906 22.7228 33.7331Z" stroke="#04091E" stroke-width="0.6" stroke-miterlimit="10" stroke-linecap="round"/>
<path d="M20.1625 31.2488L19.3 32.2369C18.6531 32.9775 17.5281 33.0544 16.7875 32.4075C16.0469 31.7606 15.97 30.6356 16.6169 29.895L17.4794 28.9069C18.1262 28.1663 19.2512 28.0894 19.9919 28.7363C20.7344 29.3831 20.8094 30.5081 20.1625 31.2488Z" stroke="#04091E" stroke-width="0.6" stroke-miterlimit="10" stroke-linecap="round"/>
<path d="M32.9043 25.0237L34.2168 24.6487" stroke="#04091E" stroke-width="0.6" stroke-miterlimit="10" stroke-linecap="round"/>
<path d="M9.8418 40.3987C12.4312 40.3987 14.5293 38.3006 14.5293 35.7112C14.5293 33.1218 12.4312 31.0237 9.8418 31.0237C7.25242 31.0237 5.1543 33.1218 5.1543 35.7112C5.1543 38.2987 7.25242 40.3987 9.8418 40.3987Z" fill="#2662FA" stroke="#04091E" stroke-width="0.6" stroke-miterlimit="10" stroke-linecap="round"/>
<path d="M9.84094 35.7093C9.38906 35.7093 9.02344 35.3437 9.02344 34.8918C9.02344 34.44 9.38906 34.0743 9.84094 34.0743C10.1072 34.0743 10.3434 34.2018 10.4934 34.3987C10.5984 34.5356 10.6603 34.7081 10.6603 34.8937" stroke="white" stroke-width="0.6" stroke-miterlimit="10" stroke-linecap="round" stroke-linejoin="round"/>
<path d="M9.84086 35.7094C10.2927 35.7094 10.6584 36.075 10.6584 36.5269C10.6584 36.9787 10.2927 37.3444 9.84086 37.3444C9.61398 37.3444 9.40961 37.2525 9.26148 37.1044C9.11336 36.9562 9.02148 36.7519 9.02148 36.525" stroke="white" stroke-width="0.6" stroke-miterlimit="10" stroke-linecap="round" stroke-linejoin="round"/>
<path d="M9.8418 37.3987V37.9612" stroke="white" stroke-width="0.6" stroke-miterlimit="10" stroke-linecap="round" stroke-linejoin="round"/>
<path d="M9.8418 33.4612V34.0237" stroke="white" stroke-width="0.6" stroke-miterlimit="10" stroke-linecap="round" stroke-linejoin="round"/>
<path d="M34.0411 14.2293L27.9342 11.5199C27.3661 11.2686 27.1111 10.603 27.3623 10.0349L28.778 6.84363C29.0292 6.2755 29.6948 6.0205 30.263 6.27175L36.3698 8.98113C36.938 9.23238 37.193 9.898 36.9417 10.4661L35.5261 13.6574C35.2748 14.2255 34.6092 14.4805 34.0411 14.2293Z" fill="#2662FA" stroke="#04091E" stroke-width="0.6" stroke-miterlimit="10" stroke-linecap="round"/>
<path d="M31.7012 6.86243L31.9937 6.20243C32.108 5.94556 32.4099 5.82931 32.6668 5.94368L34.9993 6.97868C35.2562 7.09306 35.3724 7.39493 35.258 7.65181L34.9655 8.31181" stroke="#04091E" stroke-width="0.6" stroke-miterlimit="10" stroke-linecap="round"/>
<path d="M31.2147 9.83617L28.1172 8.43555" stroke="#04091E" stroke-width="0.6" stroke-miterlimit="10" stroke-linecap="round"/>
<path d="M36.2417 12.0412L33.0898 10.5862" stroke="#04091E" stroke-width="0.6" stroke-miterlimit="10" stroke-linecap="round"/>
<path d="M32.3425 10.8693L31.5644 10.5242C31.3056 10.4099 31.1894 10.108 31.3038 9.85112C31.4181 9.59237 31.72 9.47613 31.9769 9.5905L32.755 9.9355C33.0138 10.0499 33.13 10.3518 33.0156 10.6086C32.9031 10.8674 32.6013 10.9836 32.3425 10.8693Z" fill="#2662FA" stroke="#04091E" stroke-width="0.6" stroke-miterlimit="10" stroke-linecap="round"/>
<path d="M36.8975 41.2067L36.4531 40.7623" stroke="#04091E" stroke-width="0.6" stroke-miterlimit="10" stroke-linecap="round"/>
<path d="M36.8975 39.028L36.4531 38.5818" stroke="#04091E" stroke-width="0.6" stroke-miterlimit="10" stroke-linecap="round"/>
<path d="M36.8975 36.8474L36.4531 36.4011" stroke="#04091E" stroke-width="0.6" stroke-miterlimit="10" stroke-linecap="round"/>
<path d="M39.0791 41.2068L38.6328 40.7625" stroke="#04091E" stroke-width="0.6" stroke-miterlimit="10" stroke-linecap="round"/>
<path d="M39.0791 39.028L38.6328 38.5818" stroke="#04091E" stroke-width="0.6" stroke-miterlimit="10" stroke-linecap="round"/>
<path d="M39.0791 36.8474L38.6328 36.4011" stroke="#04091E" stroke-width="0.6" stroke-miterlimit="10" stroke-linecap="round"/>
<path d="M41.3818 41.2068L40.9355 40.7625" stroke="#04091E" stroke-width="0.6" stroke-miterlimit="10" stroke-linecap="round"/>
<path d="M41.3818 39.028L40.9355 38.5818" stroke="#04091E" stroke-width="0.6" stroke-miterlimit="10" stroke-linecap="round"/>
<path d="M41.3818 36.8474L40.9355 36.4011" stroke="#04091E" stroke-width="0.6" stroke-miterlimit="10" stroke-linecap="round"/>
<path d="M19.9785 41.0249V42.1012" stroke="#04091E" stroke-width="0.6" stroke-miterlimit="10" stroke-linecap="round"/>
<path d="M19.9785 38.2236V39.3018" stroke="#04091E" stroke-width="0.6" stroke-miterlimit="10" stroke-linecap="round"/>
<path d="M19.1172 40.1624H18.0391" stroke="#04091E" stroke-width="0.6" stroke-miterlimit="10" stroke-linecap="round"/>
<path d="M21.918 40.1624H20.8398" stroke="#04091E" stroke-width="0.6" stroke-miterlimit="10" stroke-linecap="round"/>
<path d="M3.14148 26.7337L2.26961 25.8618C1.88148 25.4737 1.88148 24.8437 2.26961 24.4556L3.14148 23.5837C3.52961 23.1956 4.15961 23.1956 4.54773 23.5837L5.41961 24.4556C5.80773 24.8437 5.80773 25.4737 5.41961 25.8618L4.54773 26.7337C4.15961 27.1218 3.52961 27.1218 3.14148 26.7337Z" stroke="#04091E" stroke-width="0.6" stroke-miterlimit="10" stroke-linecap="round"/>
<path d="M22.5393 9.46118C22.2768 8.07368 21.0562 7.02368 19.5918 7.02368H17.9043" stroke="#04091E" stroke-width="0.6" stroke-miterlimit="10" stroke-linecap="round"/>
<path d="M16.6855 7.02368C14.9774 7.02368 13.5918 8.40931 13.5918 10.1174C13.5918 11.8256 14.9774 13.2112 16.6855 13.2112H17.1543L19.5918 14.7112V13.2112C21.2493 13.2112 22.5918 11.8687 22.5918 10.2112" stroke="#04091E" stroke-width="0.6" stroke-miterlimit="10" stroke-linecap="round"/>
<path d="M18.0918 10.5862C18.2989 10.5862 18.4668 10.4183 18.4668 10.2112C18.4668 10.0041 18.2989 9.83618 18.0918 9.83618C17.8847 9.83618 17.7168 10.0041 17.7168 10.2112C17.7168 10.4183 17.8847 10.5862 18.0918 10.5862Z" fill="#04091E"/>
<path d="M19.9668 10.5862C20.1739 10.5862 20.3418 10.4183 20.3418 10.2112C20.3418 10.0041 20.1739 9.83618 19.9668 9.83618C19.7597 9.83618 19.5918 10.0041 19.5918 10.2112C19.5918 10.4183 19.7597 10.5862 19.9668 10.5862Z" fill="#04091E"/>
<path d="M16.2168 10.5862C16.4239 10.5862 16.5918 10.4183 16.5918 10.2112C16.5918 10.0041 16.4239 9.83618 16.2168 9.83618C16.0097 9.83618 15.8418 10.0041 15.8418 10.2112C15.8418 10.4183 16.0097 10.5862 16.2168 10.5862Z" fill="#04091E"/>
</svg>
