<svg width="48" height="48" viewBox="0 0 48 48" fill="none" xmlns="http://www.w3.org/2000/svg">
<path d="M9.63227 37.8901C12.3837 37.8901 14.6141 35.6597 14.6141 32.9083C14.6141 30.1569 12.3837 27.9264 9.63227 27.9264C6.88085 27.9264 4.65039 30.1569 4.65039 32.9083C4.65039 35.6597 6.88085 37.8901 9.63227 37.8901Z" fill="#E1E6ED"/>
<path d="M25.0077 30.8945C30.7311 30.8945 35.3708 26.2547 35.3708 20.5313C35.3708 14.8079 30.7311 10.1682 25.0077 10.1682C19.2843 10.1682 14.6445 14.8079 14.6445 20.5313C14.6445 26.2547 19.2843 30.8945 25.0077 30.8945Z" fill="#E1E6ED"/>
<path d="M25.5003 30.5982C25.5003 30.5982 23.3947 31.4513 20.5128 31.9613C20.0478 30.2119 20.4322 27.9825 20.4322 27.9825L17.1997 28.2225L13.9672 27.9825C13.9672 27.9825 14.3759 30.36 13.8397 32.13C12.2891 31.8788 10.7684 31.3706 9.41656 30.4856C9.41656 30.4856 10.4891 29.4619 10.3278 27.4144C10.2434 26.37 8.90656 22.3482 9.18968 19.9088C9.46718 17.5219 10.3278 14.9063 13.8528 14.6775C13.8528 14.6775 17.7191 11.0382 22.7234 15.2475C27.7259 19.455 23.3403 25.8225 24.3641 28.3238C24.9322 29.8013 25.5003 30.5982 25.5003 30.5982Z" fill="#2662FA" stroke="#04091E" stroke-width="0.6" stroke-miterlimit="10"/>
<path d="M19.2435 36.467L17.2016 39.8476L13.3691 33.5064C13.5754 33.2176 13.7291 32.4995 13.8398 32.1301" stroke="#04091E" stroke-width="0.6" stroke-miterlimit="10" stroke-linecap="round" stroke-linejoin="round"/>
<path d="M20.5137 31.9613C20.6262 32.3944 20.793 33.1726 21.0312 33.5063L19.9043 35.3719" stroke="#04091E" stroke-width="0.6" stroke-miterlimit="10" stroke-linecap="round" stroke-linejoin="round"/>
<path d="M15.3826 19.0332C15.2682 19.83 13.1082 20.9663 13.1082 20.9663C15.9545 20.6532 18.4107 18.1969 18.4107 18.1969C17.7282 20.0157 16.1776 20.9663 16.1776 20.9663C18.332 20.4694 19.4907 18.8119 19.9445 17.8894C21.6507 19.1232 22.772 21.3807 22.772 24.0938C22.772 28.0819 18.6788 31.4288 17.1995 31.4288C15.6076 31.4288 11.627 28.0819 11.627 24.0938C11.627 23.3325 11.7188 22.5975 11.8876 21.9075C12.5401 19.6013 15.3826 19.0332 15.3826 19.0332Z" fill="white" stroke="#04091E" stroke-width="0.6" stroke-miterlimit="10" stroke-linecap="round" stroke-linejoin="round"/>
<path d="M27.4619 17.1376L27.0156 16.6932" stroke="#04091E" stroke-width="0.6" stroke-miterlimit="10" stroke-linecap="round"/>
<path d="M27.4619 14.9589L27.0156 14.5127" stroke="#04091E" stroke-width="0.6" stroke-miterlimit="10" stroke-linecap="round"/>
<path d="M27.4619 12.7783L27.0156 12.332" stroke="#04091E" stroke-width="0.6" stroke-miterlimit="10" stroke-linecap="round"/>
<path d="M29.6397 17.1377L29.1953 16.6934" stroke="#04091E" stroke-width="0.6" stroke-miterlimit="10" stroke-linecap="round"/>
<path d="M29.6397 14.9589L29.1953 14.5127" stroke="#04091E" stroke-width="0.6" stroke-miterlimit="10" stroke-linecap="round"/>
<path d="M29.6397 12.7783L29.1953 12.332" stroke="#04091E" stroke-width="0.6" stroke-miterlimit="10" stroke-linecap="round"/>
<path d="M31.9444 17.1377L31.5 16.6934" stroke="#04091E" stroke-width="0.6" stroke-miterlimit="10" stroke-linecap="round"/>
<path d="M31.9444 14.9589L31.5 14.5127" stroke="#04091E" stroke-width="0.6" stroke-miterlimit="10" stroke-linecap="round"/>
<path d="M31.9444 12.7783L31.5 12.332" stroke="#04091E" stroke-width="0.6" stroke-miterlimit="10" stroke-linecap="round"/>
<path d="M5.10547 31.9557V33.0319" stroke="#04091E" stroke-width="0.6" stroke-miterlimit="10" stroke-linecap="round"/>
<path d="M5.10547 29.1544V30.2325" stroke="#04091E" stroke-width="0.6" stroke-miterlimit="10" stroke-linecap="round"/>
<path d="M4.24414 31.0931H3.16602" stroke="#04091E" stroke-width="0.6" stroke-miterlimit="10" stroke-linecap="round"/>
<path d="M7.04305 31.0931H5.9668" stroke="#04091E" stroke-width="0.6" stroke-miterlimit="10" stroke-linecap="round"/>
<path d="M21.2969 10.7101C21.2969 10.0595 21.8238 9.53076 22.4763 9.53076C23.1269 9.53076 23.6556 10.0576 23.6556 10.7101C23.6556 11.3608 23.1288 11.8895 22.4763 11.8895C21.8256 11.8876 21.2969 11.3608 21.2969 10.7101Z" stroke="#04091E" stroke-width="0.6" stroke-miterlimit="10" stroke-linecap="round"/>
<path d="M11.2268 10.5901C10.9643 9.20259 9.74367 8.15259 8.2793 8.15259H6.5918" stroke="#04091E" stroke-width="0.6" stroke-miterlimit="10" stroke-linecap="round"/>
<path d="M5.37305 8.15442C3.66492 8.15442 2.2793 9.54004 2.2793 11.2482C2.2793 12.9563 3.66492 14.3419 5.37305 14.3419H5.8418L8.2793 15.8419V14.3419C9.9368 14.3419 11.2793 12.9994 11.2793 11.3419" stroke="#04091E" stroke-width="0.6" stroke-miterlimit="10" stroke-linecap="round"/>
<path d="M6.7793 11.7169C6.9864 11.7169 7.1543 11.549 7.1543 11.3419C7.1543 11.1348 6.9864 10.9669 6.7793 10.9669C6.57219 10.9669 6.4043 11.1348 6.4043 11.3419C6.4043 11.549 6.57219 11.7169 6.7793 11.7169Z" fill="#04091E"/>
<path d="M8.6543 11.7169C8.8614 11.7169 9.0293 11.549 9.0293 11.3419C9.0293 11.1348 8.8614 10.9669 8.6543 10.9669C8.44719 10.9669 8.2793 11.1348 8.2793 11.3419C8.2793 11.549 8.44719 11.7169 8.6543 11.7169Z" fill="#04091E"/>
<path d="M4.9043 11.7169C5.1114 11.7169 5.2793 11.549 5.2793 11.3419C5.2793 11.1348 5.1114 10.9669 4.9043 10.9669C4.69719 10.9669 4.5293 11.1348 4.5293 11.3419C4.5293 11.549 4.69719 11.7169 4.9043 11.7169Z" fill="#04091E"/>
<path d="M21.1035 33.6021C21.9848 34.2508 23.1304 35.1358 25.6598 35.6814C30.4598 36.7127 31.8398 38.7396 32.0966 39.2008" stroke="#04091E" stroke-width="0.6" stroke-miterlimit="10" stroke-linecap="round" stroke-linejoin="round"/>
<path d="M8.09234 35.8407C3.84359 36.9094 2.58547 38.762 2.33984 39.2007" stroke="#04091E" stroke-width="0.6" stroke-miterlimit="10" stroke-linecap="round" stroke-linejoin="round"/>
<path d="M13.3348 33.6021C12.5305 34.1946 11.5105 34.982 9.41797 35.5277" stroke="#04091E" stroke-width="0.6" stroke-miterlimit="10" stroke-linecap="round" stroke-linejoin="round"/>
<path d="M32.2182 38.342C32.3607 38.2539 32.4976 38.1564 32.627 38.0495C32.3757 37.652 32.4938 37.1251 32.8913 36.872C33.0957 36.7426 33.3451 36.707 33.5776 36.7708C33.7182 36.4426 33.8063 36.092 33.8382 35.7358C33.3788 35.6326 33.092 35.1751 33.1951 34.7176C33.2476 34.4833 33.3976 34.2808 33.6076 34.1626C33.4745 33.8308 33.2907 33.5214 33.062 33.2458C32.6645 33.497 32.1395 33.3789 31.8882 32.9814C31.7588 32.777 31.7232 32.5295 31.7888 32.297C31.4607 32.1564 31.1101 32.0683 30.7538 32.0364C30.6488 32.4958 30.1913 32.7826 29.732 32.6758C29.4995 32.6214 29.2988 32.4733 29.1807 32.2651C28.8488 32.3983 28.5395 32.582 28.2638 32.8108C28.4513 33.1108 28.4345 33.4933 28.2245 33.7764C28.0126 34.0595 27.6507 34.1833 27.3095 34.0876C27.1688 34.4158 27.0807 34.7664 27.0488 35.1226C27.1651 35.1489 27.2757 35.1995 27.3713 35.2708M29.222 36.092C28.967 35.6326 28.9895 35.0458 29.3232 34.5976C29.7788 33.9864 30.6432 33.8589 31.2545 34.3145C31.8545 34.7608 31.9876 35.6008 31.5638 36.2101C31.3332 36.542 30.9713 36.7426 30.5926 36.7876" stroke="#04091E" stroke-width="0.6" stroke-miterlimit="10" stroke-linecap="round"/>
<path d="M36.68 31.6408C36.3932 32.1133 35.8438 32.3589 35.3 32.2595C35.1275 32.7939 35.0413 33.3508 35.045 33.9114C35.2307 33.9358 35.4088 33.9976 35.57 34.0951C36.2 34.4776 36.4007 35.297 36.0182 35.927C35.9207 36.0883 35.7913 36.2251 35.6357 36.332C35.8907 36.8308 36.2225 37.2864 36.62 37.6801C37.2032 37.2283 38.0413 37.3351 38.4932 37.9183C38.7257 38.2183 38.8194 38.6026 38.75 38.9758C39.2844 39.1483 39.8413 39.2345 40.4019 39.2308C40.4957 38.4995 41.1632 37.9839 41.8925 38.0776C42.0782 38.102 42.2582 38.1639 42.4194 38.2614C42.5807 38.3589 42.7175 38.4883 42.8244 38.642C43.3232 38.3851 43.7769 38.0514 44.1725 37.6539C43.7207 37.0708 43.8294 36.2326 44.4125 35.7808C44.7107 35.5501 45.095 35.4564 45.4663 35.5239C45.6388 34.9895 45.725 34.4326 45.7213 33.872C44.99 33.7783 44.4763 33.1089 44.57 32.3776C44.6188 32.0045 44.8232 31.667 45.1325 31.4533C44.8775 30.9545 44.5438 30.4989 44.1463 30.1033C43.5632 30.5533 42.7269 30.4445 42.2769 29.8633C42.0463 29.5651 41.9525 29.1826 42.02 28.8114C41.4857 28.6389 40.9288 28.5526 40.3682 28.5564C40.2707 29.2876 39.5994 29.8014 38.87 29.7039C38.4988 29.6551 38.165 29.4508 37.9513 29.1451C37.4525 29.4001 36.9969 29.7339 36.6013 30.1314C36.935 30.5701 36.9669 31.1683 36.68 31.6408ZM41.4838 32.0364C42.4832 32.6439 42.815 33.9339 42.2432 34.9464C41.6657 35.9683 40.3325 36.3451 39.3069 35.7733C38.2288 35.1733 37.8744 33.8026 38.51 32.7583C39.1325 31.7383 40.4619 31.4158 41.4838 32.0364Z" fill="#2662FA" stroke="#04091E" stroke-width="0.6" stroke-miterlimit="10"/>
<path d="M26.8418 32.5294V27.8419H25.3418L28.0605 24.3732L30.7793 27.8419H29.0918V31.0294" stroke="#04091E" stroke-width="0.6" stroke-miterlimit="10" stroke-linecap="round"/>
<path d="M34.4712 29.9044V22.4682H32.0918L36.4043 16.9669L40.7168 22.4682H38.0412V27.525" stroke="#04091E" stroke-width="0.6" stroke-miterlimit="10" stroke-linecap="round"/>
</svg>
