<svg width="87" height="87" viewBox="0 0 87 87" fill="none" xmlns="http://www.w3.org/2000/svg">
<circle cx="43.5" cy="43.5" r="43.5" fill="#2662FA"/>
<path d="M36.3333 22C35.2288 22 34.3333 22.8955 34.3333 24V35.3333H23C21.8955 35.3333 21 36.2289 21 37.3333C21 38.4378 21.8955 39.3333 23 39.3333H36.3333C37.4378 39.3333 38.3333 38.4378 38.3333 37.3333V24C38.3333 22.8955 37.4378 22 36.3333 22Z" fill="white"/>
<path d="M49.668 39.3333H63.0013C64.1057 39.3333 65.0013 38.4378 65.0013 37.3333C65.0013 36.2289 64.1057 35.3333 63.0013 35.3333H51.668V24C51.668 22.8955 50.7724 22 49.668 22C48.5635 22 47.668 22.8955 47.668 24V37.3333C47.668 38.4378 48.5635 39.3333 49.668 39.3333Z" fill="white"/>
<path d="M36.3333 48.666H23C21.8955 48.666 21 49.5615 21 50.666C21 51.7705 21.8955 52.666 23 52.666H34.3333V63.9993C34.3333 65.1038 35.2288 65.9993 36.3333 65.9993C37.4378 65.9993 38.3333 65.1038 38.3333 63.9993V50.666C38.3333 49.5615 37.4378 48.666 36.3333 48.666Z" fill="white"/>
<path d="M63.0013 48.666H49.668C48.5635 48.666 47.668 49.5615 47.668 50.666V63.9993C47.668 65.1038 48.5635 65.9993 49.668 65.9993C50.7724 65.9993 51.668 65.1038 51.668 63.9993V52.666H63.0013C64.1057 52.666 65.0013 51.7705 65.0013 50.666C65.0013 49.5615 64.1057 48.666 63.0013 48.666Z" fill="white"/>
</svg>
