<svg width="44" height="36" viewBox="0 0 44 36" fill="none" xmlns="http://www.w3.org/2000/svg">
<path d="M37.6895 13.688C37.6895 13.688 38.8145 12.0005 38.252 10.5005C37.6895 9.56298 37.502 9.75048 37.502 9.75048C37.502 9.75048 36.752 7.87548 33.9395 8.06298C31.127 8.25048 30.377 10.8755 30.377 11.813L30.752 11.6255C30.752 11.6255 30.1895 12.3755 30.752 13.5005C30.752 13.5005 31.502 11.813 32.252 11.813L32.0645 12.563C32.0645 12.563 34.6895 12.7505 36.1895 11.2505L35.627 12.188C35.627 12.188 36.752 12.0005 37.127 11.438C37.127 11.438 36.9395 12.563 37.6895 13.688Z" fill="#FF3F00"/>
<path d="M17.0645 13.688C17.0645 13.688 18.1895 12.0005 17.627 10.5005C17.0645 9.56298 16.877 9.75048 16.877 9.75048C16.877 9.75048 16.127 7.87548 13.3145 8.06298C10.502 8.25048 9.75195 10.8755 9.75195 11.813L10.127 11.6255C10.127 11.6255 9.56445 12.3755 10.127 13.5005C10.127 13.5005 10.877 11.813 11.627 11.813L11.4395 12.563C11.4395 12.563 14.0645 12.7505 15.5645 11.2505L15.002 12.188C15.002 12.188 16.127 12.0005 16.502 11.438C16.502 11.438 16.3145 12.563 17.0645 13.688Z" fill="#FF3F00"/>
<path d="M24.9403 5.25027C24.9403 5.25027 23.6278 6.56277 22.1278 6.75027C20.6278 6.93777 20.8153 9.00027 20.8153 9.00027C20.8153 9.00027 20.0653 9.56277 20.4403 10.5003C20.5078 10.669 20.9221 11.2353 21.0028 11.4378C21.2671 12.1015 21.2334 12.5065 21.3778 12.9378C21.3778 12.9378 21.1903 14.2503 20.4403 14.2503C20.4403 14.2503 20.8153 12.9378 19.5028 10.8753C18.1903 8.81277 19.8778 4.87527 20.8153 3.93777C21.7528 3.00027 24.0028 1.12527 26.4403 2.62527C28.8778 4.12527 29.2528 6.75027 28.6903 10.3128C28.1278 13.8753 28.3153 14.6253 28.3153 14.6253C28.3153 14.6253 26.8153 13.8753 26.6278 13.1253C26.6278 13.1253 27.3778 12.3753 27.3778 11.0628C27.3778 11.0628 28.1278 10.8753 27.9403 9.75027C27.7528 8.62527 27.1903 8.81277 27.1903 8.81277C27.1903 8.81277 27.7528 6.18777 24.9403 5.25027Z" fill="#FF3F00"/>
<path d="M37.872 27.9323L37.0001 27.0604C36.612 26.6723 36.612 26.0423 37.0001 25.6542L37.872 24.7823C38.2601 24.3942 38.8901 24.3942 39.2782 24.7823L40.1501 25.6542C40.5382 26.0423 40.5382 26.6723 40.1501 27.0604L39.2782 27.9323C38.8901 28.3204 38.2601 28.3204 37.872 27.9323Z" stroke="#04091E" stroke-width="0.6" stroke-miterlimit="10" stroke-linecap="round"/>
<path d="M10.127 32.4375C15.5117 32.4375 19.877 28.0723 19.877 22.6875C19.877 17.3027 15.5117 12.9375 10.127 12.9375C4.74218 12.9375 0.376953 17.3027 0.376953 22.6875C0.376953 28.0723 4.74218 32.4375 10.127 32.4375Z" fill="#E1E6ED"/>
<path d="M13.1758 1.3702L13.5939 0.950195" stroke="#04091E" stroke-width="0.6" stroke-miterlimit="10" stroke-linecap="round"/>
<path d="M15.2246 1.3702L15.6446 0.950195" stroke="#04091E" stroke-width="0.6" stroke-miterlimit="10" stroke-linecap="round"/>
<path d="M17.2773 1.3702L17.6973 0.950195" stroke="#04091E" stroke-width="0.6" stroke-miterlimit="10" stroke-linecap="round"/>
<path d="M13.1758 3.42098L13.5939 3.00098" stroke="#04091E" stroke-width="0.6" stroke-miterlimit="10" stroke-linecap="round"/>
<path d="M15.2246 3.42098L15.6446 3.00098" stroke="#04091E" stroke-width="0.6" stroke-miterlimit="10" stroke-linecap="round"/>
<path d="M17.2773 3.42098L17.6973 3.00098" stroke="#04091E" stroke-width="0.6" stroke-miterlimit="10" stroke-linecap="round"/>
<path d="M13.1758 5.58895L13.5939 5.16895" stroke="#04091E" stroke-width="0.6" stroke-miterlimit="10" stroke-linecap="round"/>
<path d="M15.2246 5.58895L15.6446 5.16895" stroke="#04091E" stroke-width="0.6" stroke-miterlimit="10" stroke-linecap="round"/>
<path d="M17.2773 5.58895L17.6973 5.16895" stroke="#04091E" stroke-width="0.6" stroke-miterlimit="10" stroke-linecap="round"/>
<path d="M32.627 3.375V4.3125" stroke="#04091E" stroke-width="0.6" stroke-miterlimit="10" stroke-linecap="round"/>
<path d="M32.627 0.9375V1.875" stroke="#04091E" stroke-width="0.6" stroke-miterlimit="10" stroke-linecap="round"/>
<path d="M31.877 2.625H30.9395" stroke="#04091E" stroke-width="0.6" stroke-miterlimit="10" stroke-linecap="round"/>
<path d="M34.3145 2.625H33.377" stroke="#04091E" stroke-width="0.6" stroke-miterlimit="10" stroke-linecap="round"/>
<path d="M4.68945 18.9375V19.875" stroke="#04091E" stroke-width="0.6" stroke-miterlimit="10" stroke-linecap="round"/>
<path d="M4.68945 16.5V17.4375" stroke="#04091E" stroke-width="0.6" stroke-miterlimit="10" stroke-linecap="round"/>
<path d="M3.93945 18.1875H3.00195" stroke="#04091E" stroke-width="0.6" stroke-miterlimit="10" stroke-linecap="round"/>
<path d="M6.37695 18.1875H5.43945" stroke="#04091E" stroke-width="0.6" stroke-miterlimit="10" stroke-linecap="round"/>
<path d="M31.8113 20.3174C31.5713 20.4936 31.2995 20.698 30.9395 20.9024" stroke="#04091E" stroke-width="0.6" stroke-miterlimit="10" stroke-linecap="round" stroke-linejoin="round"/>
<path d="M40 21.6934C42.6794 22.3534 43.4706 23.5177 43.6244 23.7915" stroke="#04091E" stroke-width="0.6" stroke-miterlimit="10" stroke-linecap="round" stroke-linejoin="round"/>
<path d="M36.8008 20.3174C37.2995 20.6849 37.9352 21.1743 39.2345 21.5136" stroke="#04091E" stroke-width="0.6" stroke-miterlimit="10" stroke-linecap="round" stroke-linejoin="round"/>
<path d="M33.4121 21.1355C34.3477 21.3474 35.5796 21.2836 36.7702 20.3068C36.5771 19.8286 36.5809 19.1968 36.6315 18.6924" stroke="#04091E" stroke-width="0.6" stroke-miterlimit="10" stroke-linecap="round" stroke-linejoin="round"/>
<path d="M31.9505 18.5234C32.0236 19.0447 32.0686 19.7984 31.8398 20.3084C31.8417 20.4059 32.2186 20.7172 32.8186 20.9534" stroke="#04091E" stroke-width="0.6" stroke-miterlimit="10" stroke-linecap="round" stroke-linejoin="round"/>
<path d="M35.3862 8.23535C37.5969 8.70223 37.4506 9.7691 37.4506 9.7691C37.4506 9.7691 38.3956 10.041 38.3431 11.1866C38.2906 12.3322 38.315 12.8872 37.8575 13.4272C37.6288 13.5135 37.6288 13.5997 37.6288 13.5997C37.6288 13.5997 36.9519 12.4466 37.2144 11.3572C37.2144 11.3572 36.8825 11.8747 35.8025 11.961C35.8025 11.961 36.3313 11.5429 36.3838 11.271C36.3838 11.271 34.1431 12.8235 32.0675 12.4785C32.0675 12.4785 32.4819 12.1335 32.4819 11.7022C32.4819 11.7022 31.6513 11.8747 31.07 13.5135L30.7381 13.4272C30.7381 13.4272 30.4063 12.306 30.7381 11.5297C30.5713 11.5297 30.4062 11.7885 30.4062 11.7885C30.4062 11.7885 30.4888 10.3222 31.3194 9.45973C31.3194 9.45973 31.8669 8.7716 32.8962 8.3816" stroke="#04091E" stroke-width="0.6" stroke-miterlimit="10" stroke-linecap="round" stroke-linejoin="round"/>
<path d="M33.4785 8.20873C33.8929 8.11873 34.3635 8.08686 34.8904 8.15061" stroke="#04091E" stroke-width="0.6" stroke-miterlimit="10" stroke-linecap="round" stroke-linejoin="round"/>
<path d="M30.9903 13.4589C30.5159 13.502 30.2047 14.0514 30.2628 14.687C30.3097 15.2027 30.5853 15.617 30.9416 15.7314C31.1159 18.0414 32.7059 19.8302 34.2941 19.8302C35.9816 19.8302 37.4553 18.032 37.6466 15.7145C37.9803 15.5814 38.2372 15.1802 38.2841 14.6852C38.3422 14.0495 38.0309 13.5002 37.5566 13.457" stroke="#04091E" stroke-width="0.6" stroke-miterlimit="10" stroke-linecap="round" stroke-linejoin="round"/>
<path d="M11.1865 20.3174C10.639 20.7205 9.93023 21.2699 8.35898 21.6074C5.38148 22.2468 4.52461 23.5049 4.36523 23.7918" stroke="#04091E" stroke-width="0.6" stroke-miterlimit="10" stroke-linecap="round" stroke-linejoin="round"/>
<path d="M16.1758 20.3174C16.4552 20.5218 16.7758 20.7655 17.2314 20.9999" stroke="#04091E" stroke-width="0.6" stroke-miterlimit="10" stroke-linecap="round" stroke-linejoin="round"/>
<path d="M12.7871 21.1355C13.7227 21.3474 14.9546 21.2836 16.1452 20.3068C15.9521 19.8286 15.9559 19.1968 16.0065 18.6924" stroke="#04091E" stroke-width="0.6" stroke-miterlimit="10" stroke-linecap="round" stroke-linejoin="round"/>
<path d="M11.3255 18.5234C11.3986 19.0447 11.4436 19.7984 11.2148 20.3084C11.2167 20.4059 11.5936 20.7172 12.1936 20.9534" stroke="#04091E" stroke-width="0.6" stroke-miterlimit="10" stroke-linecap="round" stroke-linejoin="round"/>
<path d="M14.7613 8.23535C16.9719 8.70223 16.8256 9.7691 16.8256 9.7691C16.8256 9.7691 17.7706 10.041 17.7181 11.1866C17.6656 12.3322 17.69 12.8872 17.2325 13.4272C17.0038 13.5135 17.0038 13.5997 17.0038 13.5997C17.0038 13.5997 16.3269 12.4466 16.5894 11.3572C16.5894 11.3572 16.2575 11.8747 15.1775 11.961C15.1775 11.961 15.7063 11.5429 15.7588 11.271C15.7588 11.271 13.5181 12.8235 11.4425 12.4785C11.4425 12.4785 11.8569 12.1335 11.8569 11.7022C11.8569 11.7022 11.0262 11.8747 10.445 13.5135L10.1131 13.4272C10.1131 13.4272 9.78125 12.306 10.1131 11.5297C9.94625 11.5297 9.78125 11.7885 9.78125 11.7885C9.78125 11.7885 9.86375 10.3222 10.6944 9.45973C10.6944 9.45973 11.2419 8.7716 12.2713 8.3816" stroke="#04091E" stroke-width="0.6" stroke-miterlimit="10" stroke-linecap="round" stroke-linejoin="round"/>
<path d="M12.8535 8.20873C13.2679 8.11873 13.7385 8.08686 14.2654 8.15061" stroke="#04091E" stroke-width="0.6" stroke-miterlimit="10" stroke-linecap="round" stroke-linejoin="round"/>
<path d="M10.3653 13.4589C9.89095 13.502 9.5797 14.0514 9.63782 14.687C9.6847 15.2027 9.96032 15.617 10.3166 15.7314C10.4909 18.0414 12.0809 19.8302 13.6691 19.8302C15.3566 19.8302 16.8303 18.032 17.0216 15.7145C17.3553 15.5814 17.6122 15.1802 17.6591 14.6852C17.7172 14.0495 17.4059 13.5002 16.9316 13.457" stroke="#04091E" stroke-width="0.6" stroke-miterlimit="10" stroke-linecap="round" stroke-linejoin="round"/>
<path d="M26.7812 13.2246C26.92 13.954 28.225 14.4753 28.225 14.4753C27.9362 12.1653 28.8025 11.0103 28.8719 8.13965" stroke="#04091E" stroke-width="0.6" stroke-miterlimit="10" stroke-linecap="round" stroke-linejoin="round"/>
<path d="M28.6543 5.625C28.808 6.16312 28.8924 6.75562 28.898 7.40625" stroke="#04091E" stroke-width="0.6" stroke-miterlimit="10" stroke-linecap="round" stroke-linejoin="round"/>
<path d="M21.3917 12.8404C21.3261 13.6747 20.3324 14.2841 20.3324 14.2841C20.3324 14.2841 20.8892 13.6222 19.8505 11.5897C18.9449 9.81787 18.8267 7.58474 19.9442 5.16224C21.0617 2.73974 24.0449 1.43474 25.9086 2.36662C27.0036 2.91412 27.8717 3.75037 28.3855 4.89412" stroke="#04091E" stroke-width="0.6" stroke-miterlimit="10" stroke-linecap="round" stroke-linejoin="round"/>
<path d="M27.2862 8.94055C27.4043 7.33367 26.8924 5.8843 24.888 5.31055C24.888 5.31055 23.6468 6.26492 22.1018 6.83867C21.2243 7.16305 20.9243 7.93742 20.8887 8.84492" stroke="#04091E" stroke-width="0.6" stroke-miterlimit="10" stroke-linecap="round" stroke-linejoin="round"/>
<path d="M24.8887 5.31051C24.8887 5.31051 25.4624 4.73676 25.4624 3.97363L24.8887 5.31051Z" fill="white"/>
<path d="M24.8887 5.31051C24.8887 5.31051 25.4624 4.73676 25.4624 3.97363" stroke="#04091E" stroke-width="0.6" stroke-miterlimit="10" stroke-linecap="round" stroke-linejoin="round"/>
<path d="M21.6844 15.3076C21.1538 15.6976 20.4656 16.2301 18.9431 16.5582C18.2737 16.7026 17.715 16.8789 17.25 17.0664" stroke="#04091E" stroke-width="0.6" stroke-miterlimit="10" stroke-linecap="round" stroke-linejoin="round"/>
<path d="M29.6211 16.6406C30.0448 16.7456 30.4198 16.8619 30.7498 16.9875" stroke="#04091E" stroke-width="0.6" stroke-miterlimit="10" stroke-linecap="round" stroke-linejoin="round"/>
<path d="M26.5215 15.3076C27.0052 15.6639 27.6202 16.1382 28.8802 16.4664" stroke="#04091E" stroke-width="0.6" stroke-miterlimit="10" stroke-linecap="round" stroke-linejoin="round"/>
<path d="M22.551 16.6647L21.7129 15.2979" stroke="#04091E" stroke-width="0.6" stroke-miterlimit="10" stroke-linecap="round" stroke-linejoin="round"/>
<path d="M26.357 13.7324C26.3082 14.2218 26.3045 14.8349 26.492 15.298L25.502 16.8749" stroke="#04091E" stroke-width="0.6" stroke-miterlimit="10" stroke-linecap="round" stroke-linejoin="round"/>
<path d="M21.8198 13.5674C21.891 14.0736 21.9341 14.803 21.7129 15.2961" stroke="#04091E" stroke-width="0.6" stroke-miterlimit="10" stroke-linecap="round" stroke-linejoin="round"/>
<path d="M20.9813 8.97258C20.5219 9.0157 20.22 9.54633 20.2763 10.1632C20.3213 10.662 20.5894 11.0632 20.9344 11.1757C21.105 13.4145 22.9331 14.8601 24.1838 14.8601C25.3388 14.8601 27.2475 13.4051 27.4331 11.1588C27.7575 11.0295 28.0069 10.6413 28.05 10.1613C28.1063 9.54445 27.8044 9.01383 27.345 8.9707" stroke="#04091E" stroke-width="0.6" stroke-miterlimit="10" stroke-linecap="round" stroke-linejoin="round"/>
<path d="M24.166 18.96C20.1273 18.96 16.8535 22.2337 16.8535 26.2725C16.8535 30.3112 20.1273 33.585 24.166 33.585C28.2048 33.585 31.4785 30.3112 31.4785 26.2725C31.4785 22.2356 28.2048 18.96 24.166 18.96ZM24.166 31.5225C21.2673 31.5225 18.916 29.1712 18.916 26.2725C18.916 23.3737 21.2673 21.0225 24.166 21.0225C27.0648 21.0225 29.416 23.3737 29.416 26.2725C29.416 29.1731 27.0666 31.5225 24.166 31.5225Z" fill="#FF3F00" stroke="#04091E" stroke-width="0.6" stroke-miterlimit="10"/>
<path d="M24.1895 31.5C27.0889 31.5 29.4395 29.1495 29.4395 26.25C29.4395 23.3505 27.0889 21 24.1895 21C21.29 21 18.9395 23.3505 18.9395 26.25C18.9395 29.1495 21.29 31.5 24.1895 31.5Z" stroke="#04091E" stroke-width="0.6" stroke-miterlimit="10" stroke-linecap="round" stroke-linejoin="round"/>
<path d="M24.1895 28.5C25.4321 28.5 26.4395 27.4926 26.4395 26.25C26.4395 25.0074 25.4321 24 24.1895 24C22.9468 24 21.9395 25.0074 21.9395 26.25C21.9395 27.4926 22.9468 28.5 24.1895 28.5Z" fill="#FF3F00" stroke="#04091E" stroke-width="0.6" stroke-miterlimit="10"/>
<path d="M24.1895 17.625V22.5" stroke="#04091E" stroke-width="0.6" stroke-miterlimit="10" stroke-linecap="round" stroke-linejoin="round"/>
<path d="M24.1895 30.1875V35.0625" stroke="#04091E" stroke-width="0.6" stroke-miterlimit="10" stroke-linecap="round" stroke-linejoin="round"/>
<path d="M32.627 26.25H28.127" stroke="#04091E" stroke-width="0.6" stroke-miterlimit="10" stroke-linecap="round" stroke-linejoin="round"/>
<path d="M20.0645 26.25H15.5645" stroke="#04091E" stroke-width="0.6" stroke-miterlimit="10" stroke-linecap="round" stroke-linejoin="round"/>
<path d="M9.38859 29.0741C9.02672 28.7123 9.02672 28.1235 9.38859 27.7616C9.75047 27.3998 10.3392 27.3998 10.7011 27.7616C11.063 28.1235 11.063 28.7123 10.7011 29.0741C10.3392 29.436 9.75047 29.436 9.38859 29.0741Z" fill="#E1E6ED" stroke="#04091E" stroke-width="0.6" stroke-miterlimit="10" stroke-linecap="round"/>
</svg>
