<svg width="48" height="48" viewBox="0 0 48 48" fill="none" xmlns="http://www.w3.org/2000/svg">
<path d="M14.573 44.7055C21.2687 44.7055 26.6967 39.2775 26.6967 32.5818C26.6967 25.886 21.2687 20.458 14.573 20.458C7.87721 20.458 2.44922 25.886 2.44922 32.5818C2.44922 39.2775 7.87721 44.7055 14.573 44.7055Z" fill="#E1E6ED"/>
<path d="M28.5139 22.7378C32.5494 22.7378 35.8208 19.4664 35.8208 15.4309C35.8208 11.3954 32.5494 8.12402 28.5139 8.12402C24.4784 8.12402 21.207 11.3954 21.207 15.4309C21.207 19.4664 24.4784 22.7378 28.5139 22.7378Z" fill="#E1E6ED"/>
<path d="M27.6715 40.7688L25.7065 42.0082C24.7727 42.5969 23.5765 42.5782 22.6615 41.9575L16.3652 37.6882L19.8696 35.4775L27.6715 40.7688Z" fill="#FF3F00"/>
<path d="M19.9322 35.1085L13.3341 39.271C12.4116 39.8523 11.1909 39.5766 10.6097 38.6541L8.65407 35.5529C8.07282 34.6304 8.34845 33.4098 9.27095 32.8285L15.8691 28.666L19.9322 35.1085Z" stroke="#010101" stroke-width="0.6" stroke-miterlimit="10" stroke-linecap="round"/>
<path d="M15.8691 28.666C18.886 26.7629 21.211 23.941 22.501 20.6147L24.2073 16.2197C24.3591 15.8316 24.631 15.4997 24.9835 15.2785L25.1185 15.1922C26.0279 14.6185 27.2298 14.8904 27.8035 15.7997L36.6085 29.7591C37.1823 30.6685 36.9104 31.8704 36.001 32.4441C35.6541 32.6635 35.2473 32.7666 34.8366 32.7404L30.1079 32.4347C26.6091 32.2079 23.1273 33.0947 20.161 34.966L19.9323 35.1104L15.8691 28.666Z" stroke="#010101" stroke-width="0.6" stroke-miterlimit="10" stroke-linecap="round"/>
<path d="M12.0645 34.512L15.2145 32.5264" stroke="#010101" stroke-width="0.6" stroke-miterlimit="10" stroke-linecap="round"/>
<path d="M13.1289 36.1998L14.6664 35.2305" stroke="#010101" stroke-width="0.6" stroke-miterlimit="10" stroke-linecap="round"/>
<path d="M33.3623 32.4889L28.7461 25.1689" stroke="#010101" stroke-width="0.6" stroke-miterlimit="10" stroke-linecap="round"/>
<path d="M26.3506 21.3743L23.8438 17.3975" stroke="#010101" stroke-width="0.6" stroke-miterlimit="10" stroke-linecap="round"/>
<path d="M28.027 24.0292L27.3164 22.9023" stroke="#010101" stroke-width="0.6" stroke-miterlimit="10" stroke-linecap="round"/>
<path d="M27.7652 40.4504L25.8002 41.6898C24.8665 42.2786 23.6702 42.2598 22.7552 41.6392L16.459 37.3698L19.9634 35.1592L27.7652 40.4504Z" stroke="#010101" stroke-width="0.6" stroke-miterlimit="10" stroke-linecap="round"/>
<path d="M14.7641 30.5957C18.8224 30.5957 22.1123 27.3058 22.1123 23.2475C22.1123 19.1893 18.8224 15.8994 14.7641 15.8994C10.7059 15.8994 7.41602 19.1893 7.41602 23.2475C7.41602 27.3058 10.7059 30.5957 14.7641 30.5957Z" fill="#FF3F00" stroke="#010101" stroke-width="0.6" stroke-miterlimit="10"/>
<path d="M20.2563 13.3964C23.0461 13.3964 25.3076 11.1349 25.3076 8.34519C25.3076 5.55547 23.0461 3.29395 20.2563 3.29395C17.4666 3.29395 15.2051 5.55547 15.2051 8.34519C15.2051 11.1349 17.4666 13.3964 20.2563 13.3964Z" fill="#FF3F00" stroke="#010101" stroke-width="0.6" stroke-miterlimit="10"/>
<path d="M34.0212 25.6363L30.2188 19.5876C31.8894 18.5376 34.0944 19.0401 35.1444 20.7107C36.1944 22.3813 35.6919 24.5863 34.0212 25.6363Z" fill="#FF3F00" stroke="#010101" stroke-width="0.6" stroke-miterlimit="10"/>
<path d="M37.4336 19.2673L39.8392 18.0654" stroke="#010101" stroke-width="0.6" stroke-miterlimit="10" stroke-linecap="round" stroke-linejoin="round"/>
<path d="M35.8047 17.7765L36.6541 15.2246" stroke="#010101" stroke-width="0.6" stroke-miterlimit="10" stroke-linecap="round" stroke-linejoin="round"/>
<path d="M37.5996 21.6094L40.1515 22.4606" stroke="#010101" stroke-width="0.6" stroke-miterlimit="10" stroke-linecap="round" stroke-linejoin="round"/>
<path d="M30.1504 16.772L36.3941 10.5282L38.706 12.8401L44.3948 7.15137" stroke="#010101" stroke-width="0.6" stroke-miterlimit="10" stroke-linecap="round" stroke-linejoin="round"/>
<path d="M42.6582 5.99414H45.5513V8.69227" stroke="#010101" stroke-width="0.6" stroke-miterlimit="10" stroke-linecap="round" stroke-linejoin="round"/>
<path d="M6.07617 38.2679V37.3379" stroke="#010101" stroke-width="0.6" stroke-miterlimit="10" stroke-linecap="round"/>
<path d="M4.11328 39.2988H4.91203" stroke="#010101" stroke-width="0.6" stroke-miterlimit="10" stroke-linecap="round"/>
<path d="M7.24023 39.2988H8.03711" stroke="#010101" stroke-width="0.6" stroke-miterlimit="10" stroke-linecap="round"/>
<path d="M6.07617 41.2623V40.1992" stroke="#010101" stroke-width="0.6" stroke-miterlimit="10" stroke-linecap="round"/>
<path d="M30.4551 7.30082V6.62207" stroke="#010101" stroke-width="0.6" stroke-miterlimit="10" stroke-linecap="round"/>
<path d="M29.0234 8.05469H29.6066" stroke="#010101" stroke-width="0.6" stroke-miterlimit="10" stroke-linecap="round"/>
<path d="M31.3047 8.05469H31.8878" stroke="#010101" stroke-width="0.6" stroke-miterlimit="10" stroke-linecap="round"/>
<path d="M30.4551 9.48719V8.71094" stroke="#010101" stroke-width="0.6" stroke-miterlimit="10" stroke-linecap="round"/>
<path d="M34.5459 41.6642L34.0078 41.1279" stroke="#010101" stroke-width="0.6" stroke-miterlimit="10" stroke-linecap="round"/>
<path d="M34.5459 39.0333L34.0078 38.4971" stroke="#010101" stroke-width="0.6" stroke-miterlimit="10" stroke-linecap="round"/>
<path d="M34.5459 36.4043L34.0078 35.8662" stroke="#010101" stroke-width="0.6" stroke-miterlimit="10" stroke-linecap="round"/>
<path d="M37.1768 41.6642L36.6387 41.1279" stroke="#010101" stroke-width="0.6" stroke-miterlimit="10" stroke-linecap="round"/>
<path d="M37.1768 39.0333L36.6387 38.4971" stroke="#010101" stroke-width="0.6" stroke-miterlimit="10" stroke-linecap="round"/>
<path d="M37.1768 36.4043L36.6387 35.8662" stroke="#010101" stroke-width="0.6" stroke-miterlimit="10" stroke-linecap="round"/>
<path d="M39.9562 41.6642L39.4199 41.1279" stroke="#010101" stroke-width="0.6" stroke-miterlimit="10" stroke-linecap="round"/>
<path d="M39.9562 39.0333L39.4199 38.4971" stroke="#010101" stroke-width="0.6" stroke-miterlimit="10" stroke-linecap="round"/>
<path d="M39.9562 36.4043L39.4199 35.8662" stroke="#010101" stroke-width="0.6" stroke-miterlimit="10" stroke-linecap="round"/>
<path d="M41.5936 30.3221L40.8998 29.6283C40.4761 29.2046 40.4761 28.5183 40.8998 28.0946L41.5936 27.4008C42.0173 26.9771 42.7036 26.9771 43.1273 27.4008L43.8211 28.0946C44.2448 28.5183 44.2448 29.2046 43.8211 29.6283L43.1273 30.3221C42.7036 30.7458 42.0173 30.7458 41.5936 30.3221Z" stroke="#010101" stroke-width="0.6" stroke-miterlimit="10" stroke-linecap="round"/>
</svg>
