<svg width="48" height="48" viewBox="0 0 48 48" fill="none" xmlns="http://www.w3.org/2000/svg">
<path d="M36.0834 40.6444C38.8349 40.6444 41.0653 38.414 41.0653 35.6625C41.0653 32.9111 38.8349 30.6807 36.0834 30.6807C33.332 30.6807 31.1016 32.9111 31.1016 35.6625C31.1016 38.414 33.332 40.6444 36.0834 40.6444Z" fill="#E1E6ED"/>
<path d="M22.9666 32.9362C28.69 32.9362 33.3298 28.2965 33.3298 22.5731C33.3298 16.8497 28.69 12.21 22.9666 12.21C17.2432 12.21 12.6035 16.8497 12.6035 22.5731C12.6035 28.2965 17.2432 32.9362 22.9666 32.9362Z" fill="#E1E6ED"/>
<path d="M45.5675 25.7636L42.4419 27.0949C42.0612 27.258 41.6206 27.0799 41.4575 26.6992L37.3437 17.0392C37.1806 16.6586 37.3587 16.218 37.7394 16.0549L40.865 14.7236C41.2456 14.5605 41.6862 14.7386 41.8494 15.1192L45.9631 24.7792C46.1262 25.1617 45.95 25.6024 45.5675 25.7636Z" fill="#FF3F00" stroke="#04091E" stroke-width="0.6" stroke-miterlimit="10" stroke-linecap="round"/>
<path d="M43.123 25.3047C43.5373 25.3047 43.873 24.9689 43.873 24.5547C43.873 24.1405 43.5373 23.8047 43.123 23.8047C42.7088 23.8047 42.373 24.1405 42.373 24.5547C42.373 24.9689 42.7088 25.3047 43.123 25.3047Z" fill="white" stroke="#04091E" stroke-width="0.6" stroke-miterlimit="10" stroke-linecap="round"/>
<path d="M14.2874 22.7734L13.0387 27.2715C12.928 27.6709 12.5137 27.9053 12.1162 27.7928L8.84241 26.8834C8.44304 26.7728 8.20866 26.3584 8.32116 25.9609L11.128 15.8434C11.2387 15.444 11.653 15.2096 12.0505 15.3221L15.3243 16.2315C15.7237 16.3421 15.958 16.7565 15.8455 17.154L14.9024 20.5515" fill="#FF3F00"/>
<path d="M14.2874 22.7734L13.0387 27.2715C12.928 27.6709 12.5137 27.9053 12.1162 27.7928L8.84241 26.8834C8.44304 26.7728 8.20866 26.3584 8.32116 25.9609L11.128 15.8434C11.2387 15.444 11.653 15.2096 12.0505 15.3221L15.3243 16.2315C15.7237 16.3421 15.958 16.7565 15.8455 17.154L14.9024 20.5515" stroke="#04091E" stroke-width="0.6" stroke-miterlimit="10" stroke-linecap="round"/>
<path d="M11.0605 25.3047C11.4748 25.3047 11.8105 24.9689 11.8105 24.5547C11.8105 24.1405 11.4748 23.8047 11.0605 23.8047C10.6463 23.8047 10.3105 24.1405 10.3105 24.5547C10.3105 24.9689 10.6463 25.3047 11.0605 25.3047Z" fill="white" stroke="#04091E" stroke-width="0.6" stroke-miterlimit="10" stroke-linecap="round"/>
<path d="M32.5293 17.6697L30.6543 16.8747L30.1443 16.6591C30.0055 16.601 29.863 16.556 29.7168 16.5279C29.4393 16.4735 29.1543 16.4735 28.873 16.5297L24.5605 17.3922C24.1368 17.4766 23.7543 17.7054 23.4787 18.0391L20.3418 21.836C21.823 23.1054 24.0318 23.021 25.4118 21.641L25.9668 21.086H29.3418C29.578 22.5072 30.4537 23.7391 31.7174 24.431L38.5293 28.1622L38.7224 28.2672C39.6824 28.7922 39.9937 30.0222 39.3993 30.941C38.8593 31.7772 37.7605 32.0472 36.8943 31.5579L33.2812 29.5216" stroke="#04091E" stroke-width="0.6" stroke-miterlimit="10" stroke-linecap="round"/>
<path d="M37.7793 18.2737L36.2587 18.8268C35.9099 18.9525 35.5274 18.9431 35.1862 18.7987L33.4668 18.0693" stroke="#04091E" stroke-width="0.6" stroke-miterlimit="10" stroke-linecap="round"/>
<path d="M30.6543 31.7739L33.8324 33.6545C34.6162 34.1176 35.6249 33.8626 36.0937 33.0826C36.5605 32.3064 36.3149 31.2976 35.5424 30.8232" stroke="#04091E" stroke-width="0.6" stroke-miterlimit="10" stroke-linecap="round"/>
<path d="M31.123 32.0547L31.7248 32.4053C32.623 32.9284 32.9005 34.0966 32.3361 34.9684C31.7755 35.8347 30.6073 36.0634 29.7617 35.4709L27.5586 33.9297" stroke="#04091E" stroke-width="0.6" stroke-miterlimit="10" stroke-linecap="round"/>
<path d="M24.8418 36.0859L26.3999 37.0403C27.1499 37.4997 28.1287 37.2766 28.603 36.5359C29.0699 35.8103 28.8843 34.8484 28.183 34.3478L27.4668 33.8359" stroke="#04091E" stroke-width="0.6" stroke-miterlimit="10" stroke-linecap="round"/>
<path d="M22.7793 18.8359L17.5949 18.6691C17.1805 18.6559 16.7718 18.5641 16.3893 18.4009L15.6543 18.0859" stroke="#04091E" stroke-width="0.6" stroke-miterlimit="10" stroke-linecap="round"/>
<path d="M15.1855 27.1797L13.3105 26.6172" stroke="#04091E" stroke-width="0.6" stroke-miterlimit="10" stroke-linecap="round"/>
<path d="M40.9668 25.5859L39.4424 26.4166C39.0974 26.6041 38.8443 26.9228 38.7355 27.2997L38.5293 28.0234" stroke="#04091E" stroke-width="0.6" stroke-miterlimit="10" stroke-linecap="round"/>
<path d="M17.6015 28.7657L16.9847 29.4725C16.4747 30.0575 15.5859 30.1175 15.0009 29.6075C14.4159 29.0975 14.3559 28.2088 14.8659 27.6238L15.4828 26.9169C15.9928 26.3319 16.8815 26.2719 17.4665 26.7819C18.0515 27.2919 18.1115 28.1788 17.6015 28.7657Z" stroke="#04091E" stroke-width="0.6" stroke-miterlimit="10" stroke-linecap="round"/>
<path d="M25.2482 35.6863L24.7551 36.2507C24.1757 36.9144 23.1688 36.9819 22.507 36.4044C21.8432 35.8251 21.7757 34.8182 22.3532 34.1563L22.8463 33.5919C23.4257 32.9282 24.4326 32.8607 25.0945 33.4382C25.7582 34.0157 25.8276 35.0226 25.2482 35.6863Z" stroke="#04091E" stroke-width="0.6" stroke-miterlimit="10" stroke-linecap="round"/>
<path d="M22.7228 33.7329L22.2297 34.2973C21.5828 35.0379 20.4578 35.1148 19.7172 34.4679C18.9766 33.821 18.8997 32.696 19.5466 31.9554L20.0397 31.391C20.6866 30.6504 21.8116 30.5735 22.5522 31.2204C23.2928 31.8654 23.3697 32.9904 22.7228 33.7329Z" stroke="#04091E" stroke-width="0.6" stroke-miterlimit="10" stroke-linecap="round"/>
<path d="M20.1625 31.2485L19.3 32.2366C18.6531 32.9773 17.5281 33.0541 16.7875 32.4073C16.0469 31.7604 15.97 30.6354 16.6169 29.8948L17.4794 28.9066C18.1262 28.166 19.2512 28.0891 19.9919 28.736C20.7344 29.3829 20.8094 30.5079 20.1625 31.2485Z" stroke="#04091E" stroke-width="0.6" stroke-miterlimit="10" stroke-linecap="round"/>
<path d="M32.9043 25.0234L34.2168 24.6484" stroke="#04091E" stroke-width="0.6" stroke-miterlimit="10" stroke-linecap="round"/>
<path d="M9.8418 40.3984C12.4312 40.3984 14.5293 38.3003 14.5293 35.7109C14.5293 33.1216 12.4312 31.0234 9.8418 31.0234C7.25242 31.0234 5.1543 33.1216 5.1543 35.7109C5.1543 38.2984 7.25242 40.3984 9.8418 40.3984Z" fill="#FF3F00" stroke="#04091E" stroke-width="0.6" stroke-miterlimit="10" stroke-linecap="round"/>
<path d="M9.84094 35.7092C9.38906 35.7092 9.02344 35.3436 9.02344 34.8917C9.02344 34.4398 9.38906 34.0742 9.84094 34.0742C10.1072 34.0742 10.3434 34.2017 10.4934 34.3986C10.5984 34.5355 10.6603 34.708 10.6603 34.8936" stroke="white" stroke-width="0.6" stroke-miterlimit="10" stroke-linecap="round" stroke-linejoin="round"/>
<path d="M9.84086 35.709C10.2927 35.709 10.6584 36.0746 10.6584 36.5265C10.6584 36.9784 10.2927 37.344 9.84086 37.344C9.61398 37.344 9.40961 37.2521 9.26148 37.104C9.11336 36.9559 9.02148 36.7515 9.02148 36.5246" stroke="white" stroke-width="0.6" stroke-miterlimit="10" stroke-linecap="round" stroke-linejoin="round"/>
<path d="M9.8418 37.3984V37.9609" stroke="white" stroke-width="0.6" stroke-miterlimit="10" stroke-linecap="round" stroke-linejoin="round"/>
<path d="M9.8418 33.4609V34.0234" stroke="white" stroke-width="0.6" stroke-miterlimit="10" stroke-linecap="round" stroke-linejoin="round"/>
<path d="M34.0411 14.229L27.9342 11.5196C27.3661 11.2684 27.1111 10.6028 27.3623 10.0346L28.778 6.84338C29.0292 6.27526 29.6948 6.02026 30.263 6.27151L36.3698 8.98088C36.938 9.23213 37.193 9.89776 36.9417 10.4659L35.5261 13.6571C35.2748 14.2253 34.6092 14.4803 34.0411 14.229Z" fill="#FF3F00" stroke="#04091E" stroke-width="0.6" stroke-miterlimit="10" stroke-linecap="round"/>
<path d="M31.7012 6.86219L31.9937 6.20219C32.108 5.94531 32.4099 5.82906 32.6668 5.94344L34.9993 6.97844C35.2562 7.09281 35.3724 7.39469 35.258 7.65156L34.9655 8.31156" stroke="#04091E" stroke-width="0.6" stroke-miterlimit="10" stroke-linecap="round"/>
<path d="M31.2147 9.83617L28.1172 8.43555" stroke="#04091E" stroke-width="0.6" stroke-miterlimit="10" stroke-linecap="round"/>
<path d="M36.2417 12.0409L33.0898 10.5859" stroke="#04091E" stroke-width="0.6" stroke-miterlimit="10" stroke-linecap="round"/>
<path d="M32.3425 10.8686L31.5644 10.5236C31.3056 10.4093 31.1894 10.1074 31.3038 9.85051C31.4181 9.59176 31.72 9.47551 31.9769 9.58989L32.755 9.93489C33.0138 10.0493 33.13 10.3511 33.0156 10.608C32.9031 10.8668 32.6013 10.983 32.3425 10.8686Z" fill="#FF3F00" stroke="#04091E" stroke-width="0.6" stroke-miterlimit="10" stroke-linecap="round"/>
<path d="M36.8975 41.2061L36.4531 40.7617" stroke="#04091E" stroke-width="0.6" stroke-miterlimit="10" stroke-linecap="round"/>
<path d="M36.8975 39.0273L36.4531 38.5811" stroke="#04091E" stroke-width="0.6" stroke-miterlimit="10" stroke-linecap="round"/>
<path d="M36.8975 36.8466L36.4531 36.4004" stroke="#04091E" stroke-width="0.6" stroke-miterlimit="10" stroke-linecap="round"/>
<path d="M39.0791 41.2061L38.6328 40.7617" stroke="#04091E" stroke-width="0.6" stroke-miterlimit="10" stroke-linecap="round"/>
<path d="M39.0791 39.0273L38.6328 38.5811" stroke="#04091E" stroke-width="0.6" stroke-miterlimit="10" stroke-linecap="round"/>
<path d="M39.0791 36.8466L38.6328 36.4004" stroke="#04091E" stroke-width="0.6" stroke-miterlimit="10" stroke-linecap="round"/>
<path d="M41.3818 41.2061L40.9355 40.7617" stroke="#04091E" stroke-width="0.6" stroke-miterlimit="10" stroke-linecap="round"/>
<path d="M41.3818 39.0273L40.9355 38.5811" stroke="#04091E" stroke-width="0.6" stroke-miterlimit="10" stroke-linecap="round"/>
<path d="M41.3818 36.8466L40.9355 36.4004" stroke="#04091E" stroke-width="0.6" stroke-miterlimit="10" stroke-linecap="round"/>
<path d="M19.9785 41.0234V42.0997" stroke="#04091E" stroke-width="0.6" stroke-miterlimit="10" stroke-linecap="round"/>
<path d="M19.9785 38.2227V39.3008" stroke="#04091E" stroke-width="0.6" stroke-miterlimit="10" stroke-linecap="round"/>
<path d="M19.1172 40.1611H18.0391" stroke="#04091E" stroke-width="0.6" stroke-miterlimit="10" stroke-linecap="round"/>
<path d="M21.918 40.1611H20.8398" stroke="#04091E" stroke-width="0.6" stroke-miterlimit="10" stroke-linecap="round"/>
<path d="M3.14148 26.7331L2.26961 25.8612C1.88148 25.4731 1.88148 24.8431 2.26961 24.455L3.14148 23.5831C3.52961 23.195 4.15961 23.195 4.54773 23.5831L5.41961 24.455C5.80773 24.8431 5.80773 25.4731 5.41961 25.8612L4.54773 26.7331C4.15961 27.1212 3.52961 27.1212 3.14148 26.7331Z" stroke="#04091E" stroke-width="0.6" stroke-miterlimit="10" stroke-linecap="round"/>
<path d="M22.5393 9.46094C22.2768 8.07344 21.0562 7.02344 19.5918 7.02344H17.9043" stroke="#04091E" stroke-width="0.6" stroke-miterlimit="10" stroke-linecap="round"/>
<path d="M16.6855 7.02344C14.9774 7.02344 13.5918 8.40906 13.5918 10.1172C13.5918 11.8253 14.9774 13.2109 16.6855 13.2109H17.1543L19.5918 14.7109V13.2109C21.2493 13.2109 22.5918 11.8684 22.5918 10.2109" stroke="#04091E" stroke-width="0.6" stroke-miterlimit="10" stroke-linecap="round"/>
<path d="M18.0918 10.5859C18.2989 10.5859 18.4668 10.418 18.4668 10.2109C18.4668 10.0038 18.2989 9.83594 18.0918 9.83594C17.8847 9.83594 17.7168 10.0038 17.7168 10.2109C17.7168 10.418 17.8847 10.5859 18.0918 10.5859Z" fill="#04091E"/>
<path d="M19.9668 10.5859C20.1739 10.5859 20.3418 10.418 20.3418 10.2109C20.3418 10.0038 20.1739 9.83594 19.9668 9.83594C19.7597 9.83594 19.5918 10.0038 19.5918 10.2109C19.5918 10.418 19.7597 10.5859 19.9668 10.5859Z" fill="#04091E"/>
<path d="M16.2168 10.5859C16.4239 10.5859 16.5918 10.418 16.5918 10.2109C16.5918 10.0038 16.4239 9.83594 16.2168 9.83594C16.0097 9.83594 15.8418 10.0038 15.8418 10.2109C15.8418 10.418 16.0097 10.5859 16.2168 10.5859Z" fill="#04091E"/>
</svg>
