<svg width="48" height="48" viewBox="0 0 48 48" fill="none" xmlns="http://www.w3.org/2000/svg">
<path d="M9.63227 37.8895C12.3837 37.8895 14.6141 35.6591 14.6141 32.9077C14.6141 30.1562 12.3837 27.9258 9.63227 27.9258C6.88085 27.9258 4.65039 30.1562 4.65039 32.9077C4.65039 35.6591 6.88085 37.8895 9.63227 37.8895Z" fill="#E1E6ED"/>
<path d="M25.0077 30.8942C30.7311 30.8942 35.3708 26.2545 35.3708 20.5311C35.3708 14.8077 30.7311 10.168 25.0077 10.168C19.2843 10.168 14.6445 14.8077 14.6445 20.5311C14.6445 26.2545 19.2843 30.8942 25.0077 30.8942Z" fill="#E1E6ED"/>
<path d="M25.5003 30.5984C25.5003 30.5984 23.3947 31.4515 20.5128 31.9615C20.0478 30.2121 20.4322 27.9828 20.4322 27.9828L17.1997 28.2228L13.9672 27.9828C13.9672 27.9828 14.3759 30.3603 13.8397 32.1303C12.2891 31.879 10.7684 31.3709 9.41656 30.4859C9.41656 30.4859 10.4891 29.4621 10.3278 27.4146C10.2434 26.3703 8.90656 22.3484 9.18968 19.909C9.46718 17.5221 10.3278 14.9065 13.8528 14.6778C13.8528 14.6778 17.7191 11.0384 22.7234 15.2478C27.7259 19.4553 23.3403 25.8228 24.3641 28.324C24.9322 29.8015 25.5003 30.5984 25.5003 30.5984Z" fill="#FF3F00" stroke="#04091E" stroke-width="0.6" stroke-miterlimit="10"/>
<path d="M19.2435 36.4668L17.2016 39.8474L13.3691 33.5061C13.5754 33.2174 13.7291 32.4993 13.8398 32.1299" stroke="#04091E" stroke-width="0.6" stroke-miterlimit="10" stroke-linecap="round" stroke-linejoin="round"/>
<path d="M20.5137 31.9609C20.6262 32.3941 20.793 33.1722 21.0312 33.5059L19.9043 35.3716" stroke="#04091E" stroke-width="0.6" stroke-miterlimit="10" stroke-linecap="round" stroke-linejoin="round"/>
<path d="M15.3826 19.0334C15.2682 19.8303 13.1082 20.9665 13.1082 20.9665C15.9545 20.6534 18.4107 18.1971 18.4107 18.1971C17.7282 20.0159 16.1776 20.9665 16.1776 20.9665C18.332 20.4696 19.4907 18.8121 19.9445 17.8896C21.6507 19.1234 22.772 21.3809 22.772 24.094C22.772 28.0821 18.6788 31.429 17.1995 31.429C15.6076 31.429 11.627 28.0821 11.627 24.094C11.627 23.3328 11.7188 22.5978 11.8876 21.9078C12.5401 19.6015 15.3826 19.0334 15.3826 19.0334Z" fill="white" stroke="#04091E" stroke-width="0.6" stroke-miterlimit="10" stroke-linecap="round" stroke-linejoin="round"/>
<path d="M27.4619 17.1377L27.0156 16.6934" stroke="#04091E" stroke-width="0.6" stroke-miterlimit="10" stroke-linecap="round"/>
<path d="M27.4619 14.9589L27.0156 14.5127" stroke="#04091E" stroke-width="0.6" stroke-miterlimit="10" stroke-linecap="round"/>
<path d="M27.4619 12.7783L27.0156 12.332" stroke="#04091E" stroke-width="0.6" stroke-miterlimit="10" stroke-linecap="round"/>
<path d="M29.6397 17.1377L29.1953 16.6934" stroke="#04091E" stroke-width="0.6" stroke-miterlimit="10" stroke-linecap="round"/>
<path d="M29.6397 14.9589L29.1953 14.5127" stroke="#04091E" stroke-width="0.6" stroke-miterlimit="10" stroke-linecap="round"/>
<path d="M29.6397 12.7783L29.1953 12.332" stroke="#04091E" stroke-width="0.6" stroke-miterlimit="10" stroke-linecap="round"/>
<path d="M31.9444 17.1377L31.5 16.6934" stroke="#04091E" stroke-width="0.6" stroke-miterlimit="10" stroke-linecap="round"/>
<path d="M31.9444 14.9589L31.5 14.5127" stroke="#04091E" stroke-width="0.6" stroke-miterlimit="10" stroke-linecap="round"/>
<path d="M31.9444 12.7783L31.5 12.332" stroke="#04091E" stroke-width="0.6" stroke-miterlimit="10" stroke-linecap="round"/>
<path d="M5.10547 31.9551V33.0313" stroke="#04091E" stroke-width="0.6" stroke-miterlimit="10" stroke-linecap="round"/>
<path d="M5.10547 29.1543V30.2324" stroke="#04091E" stroke-width="0.6" stroke-miterlimit="10" stroke-linecap="round"/>
<path d="M4.24414 31.0928H3.16602" stroke="#04091E" stroke-width="0.6" stroke-miterlimit="10" stroke-linecap="round"/>
<path d="M7.04305 31.0928H5.9668" stroke="#04091E" stroke-width="0.6" stroke-miterlimit="10" stroke-linecap="round"/>
<path d="M21.2969 10.7096C21.2969 10.059 21.8238 9.53027 22.4763 9.53027C23.1269 9.53027 23.6556 10.0571 23.6556 10.7096C23.6556 11.3603 23.1288 11.889 22.4763 11.889C21.8256 11.8871 21.2969 11.3603 21.2969 10.7096Z" stroke="#04091E" stroke-width="0.6" stroke-miterlimit="10" stroke-linecap="round"/>
<path d="M11.2268 10.5898C10.9643 9.20234 9.74367 8.15234 8.2793 8.15234H6.5918" stroke="#04091E" stroke-width="0.6" stroke-miterlimit="10" stroke-linecap="round"/>
<path d="M5.37305 8.1543C3.66492 8.1543 2.2793 9.53992 2.2793 11.248C2.2793 12.9562 3.66492 14.3418 5.37305 14.3418H5.8418L8.2793 15.8418V14.3418C9.9368 14.3418 11.2793 12.9993 11.2793 11.3418" stroke="#04091E" stroke-width="0.6" stroke-miterlimit="10" stroke-linecap="round"/>
<path d="M6.7793 11.7168C6.9864 11.7168 7.1543 11.5489 7.1543 11.3418C7.1543 11.1347 6.9864 10.9668 6.7793 10.9668C6.57219 10.9668 6.4043 11.1347 6.4043 11.3418C6.4043 11.5489 6.57219 11.7168 6.7793 11.7168Z" fill="#04091E"/>
<path d="M8.6543 11.7168C8.8614 11.7168 9.0293 11.5489 9.0293 11.3418C9.0293 11.1347 8.8614 10.9668 8.6543 10.9668C8.44719 10.9668 8.2793 11.1347 8.2793 11.3418C8.2793 11.5489 8.44719 11.7168 8.6543 11.7168Z" fill="#04091E"/>
<path d="M4.9043 11.7168C5.1114 11.7168 5.2793 11.5489 5.2793 11.3418C5.2793 11.1347 5.1114 10.9668 4.9043 10.9668C4.69719 10.9668 4.5293 11.1347 4.5293 11.3418C4.5293 11.5489 4.69719 11.7168 4.9043 11.7168Z" fill="#04091E"/>
<path d="M21.1035 33.6016C21.9848 34.2503 23.1304 35.1353 25.6598 35.6809C30.4598 36.7122 31.8398 38.7391 32.0966 39.2003" stroke="#04091E" stroke-width="0.6" stroke-miterlimit="10" stroke-linecap="round" stroke-linejoin="round"/>
<path d="M8.09234 35.8408C3.84359 36.9096 2.58547 38.7621 2.33984 39.2008" stroke="#04091E" stroke-width="0.6" stroke-miterlimit="10" stroke-linecap="round" stroke-linejoin="round"/>
<path d="M13.3348 33.6016C12.5305 34.1941 11.5105 34.9816 9.41797 35.5272" stroke="#04091E" stroke-width="0.6" stroke-miterlimit="10" stroke-linecap="round" stroke-linejoin="round"/>
<path d="M32.2182 38.3418C32.3607 38.2536 32.4976 38.1561 32.627 38.0493C32.3757 37.6518 32.4938 37.1249 32.8913 36.8718C33.0957 36.7424 33.3451 36.7068 33.5776 36.7705C33.7182 36.4424 33.8063 36.0918 33.8382 35.7355C33.3788 35.6324 33.092 35.1749 33.1951 34.7174C33.2476 34.483 33.3976 34.2805 33.6076 34.1624C33.4745 33.8305 33.2907 33.5211 33.062 33.2455C32.6645 33.4968 32.1395 33.3786 31.8882 32.9811C31.7588 32.7768 31.7232 32.5293 31.7888 32.2968C31.4607 32.1561 31.1101 32.068 30.7538 32.0361C30.6488 32.4955 30.1913 32.7824 29.732 32.6755C29.4995 32.6211 29.2988 32.473 29.1807 32.2649C28.8488 32.398 28.5395 32.5818 28.2638 32.8105C28.4513 33.1105 28.4345 33.493 28.2245 33.7761C28.0126 34.0593 27.6507 34.183 27.3095 34.0874C27.1688 34.4155 27.0807 34.7661 27.0488 35.1224C27.1651 35.1486 27.2757 35.1993 27.3713 35.2705M29.222 36.0918C28.967 35.6324 28.9895 35.0455 29.3232 34.5974C29.7788 33.9861 30.6432 33.8586 31.2545 34.3143C31.8545 34.7605 31.9876 35.6005 31.5638 36.2099C31.3332 36.5418 30.9713 36.7424 30.5926 36.7874" stroke="#04091E" stroke-width="0.6" stroke-miterlimit="10" stroke-linecap="round"/>
<path d="M36.68 31.6402C36.3932 32.1127 35.8438 32.3583 35.3 32.2589C35.1275 32.7933 35.0413 33.3502 35.045 33.9108C35.2307 33.9352 35.4088 33.997 35.57 34.0945C36.2 34.477 36.4007 35.2964 36.0182 35.9264C35.9207 36.0877 35.7913 36.2245 35.6357 36.3314C35.8907 36.8302 36.2225 37.2858 36.62 37.6795C37.2032 37.2277 38.0413 37.3345 38.4932 37.9177C38.7257 38.2177 38.8194 38.602 38.75 38.9752C39.2844 39.1477 39.8413 39.2339 40.4019 39.2302C40.4957 38.4989 41.1632 37.9833 41.8925 38.077C42.0782 38.1014 42.2582 38.1633 42.4194 38.2608C42.5807 38.3583 42.7175 38.4877 42.8244 38.6414C43.3232 38.3845 43.7769 38.0508 44.1725 37.6533C43.7207 37.0702 43.8294 36.232 44.4125 35.7802C44.7107 35.5495 45.095 35.4558 45.4663 35.5233C45.6388 34.9889 45.725 34.432 45.7213 33.8714C44.99 33.7777 44.4763 33.1083 44.57 32.377C44.6188 32.0039 44.8232 31.6664 45.1325 31.4527C44.8775 30.9539 44.5438 30.4983 44.1463 30.1027C43.5632 30.5527 42.7269 30.4439 42.2769 29.8627C42.0463 29.5645 41.9525 29.182 42.02 28.8108C41.4857 28.6383 40.9288 28.552 40.3682 28.5558C40.2707 29.287 39.5994 29.8008 38.87 29.7033C38.4988 29.6545 38.165 29.4502 37.9513 29.1445C37.4525 29.3995 36.9969 29.7333 36.6013 30.1308C36.935 30.5695 36.9669 31.1677 36.68 31.6402ZM41.4838 32.0358C42.4832 32.6433 42.815 33.9333 42.2432 34.9458C41.6657 35.9677 40.3325 36.3445 39.3069 35.7727C38.2288 35.1727 37.8744 33.802 38.51 32.7577C39.1325 31.7377 40.4619 31.4152 41.4838 32.0358Z" fill="#FF3F00" stroke="#04091E" stroke-width="0.6" stroke-miterlimit="10"/>
<path d="M26.8418 32.5293V27.8418H25.3418L28.0605 24.373L30.7793 27.8418H29.0918V31.0293" stroke="#04091E" stroke-width="0.6" stroke-miterlimit="10" stroke-linecap="round"/>
<path d="M34.4712 29.9043V22.468H32.0918L36.4043 16.9668L40.7168 22.468H38.0412V27.5249" stroke="#04091E" stroke-width="0.6" stroke-miterlimit="10" stroke-linecap="round"/>
</svg>
