<svg width="110" height="110" viewBox="0 0 110 110" fill="none" xmlns="http://www.w3.org/2000/svg">
<path d="M22.0773 86.8307C28.3826 86.8307 33.4941 81.7192 33.4941 75.4139C33.4941 69.1085 28.3826 63.9971 22.0773 63.9971C15.772 63.9971 10.6605 69.1085 10.6605 75.4139C10.6605 81.7192 15.772 86.8307 22.0773 86.8307Z" fill="#E1E6ED"/>
<path d="M57.3117 70.7994C70.4278 70.7994 81.0605 60.1667 81.0605 47.0506C81.0605 33.9345 70.4278 23.3018 57.3117 23.3018C44.1956 23.3018 33.5629 33.9345 33.5629 47.0506C33.5629 60.1667 44.1956 70.7994 57.3117 70.7994Z" fill="#E1E6ED"/>
<path d="M58.4418 70.1209C58.4418 70.1209 53.6164 72.076 47.0121 73.2447C45.9465 69.2358 46.8274 64.1268 46.8274 64.1268L39.4196 64.6768L32.0118 64.1268C32.0118 64.1268 32.9485 69.5752 31.7196 73.6315C28.166 73.0557 24.6813 71.8912 21.5832 69.8631C21.5832 69.8631 24.041 67.517 23.6715 62.8248C23.4782 60.4315 20.4145 51.2147 21.0633 45.6244C21.6993 40.1545 23.6715 34.1604 31.7496 33.6361C31.7496 33.6361 40.6098 25.2959 52.0782 34.9424C63.5422 44.5846 53.4918 59.1768 55.8379 64.9088C57.1399 68.2947 58.4418 70.1209 58.4418 70.1209Z" fill="#2662FA" stroke="#04091E" stroke-miterlimit="10"/>
<path d="M44.1031 83.5695L39.4238 91.3168L30.641 76.7848C31.1136 76.123 31.466 74.4773 31.7195 73.6309" stroke="#04091E" stroke-miterlimit="10" stroke-linecap="round" stroke-linejoin="round"/>
<path d="M47.0121 73.2441C47.2699 74.2367 47.6523 76.0199 48.198 76.7848L45.6156 81.0602" stroke="#04091E" stroke-miterlimit="10" stroke-linecap="round" stroke-linejoin="round"/>
<path d="M35.2515 43.6172C34.9894 45.4434 30.0394 48.0473 30.0394 48.0473C36.5621 47.3297 42.191 41.7008 42.191 41.7008C40.6269 45.8687 37.0734 48.0473 37.0734 48.0473C42.0105 46.9086 44.666 43.1102 45.7058 40.9961C49.616 43.8234 52.1855 48.9969 52.1855 55.2145C52.1855 64.3539 42.8054 72.0238 39.4152 72.0238C35.7672 72.0238 26.6449 64.3539 26.6449 55.2145C26.6449 53.4699 26.8554 51.7855 27.2422 50.2043C28.7375 44.9191 35.2515 43.6172 35.2515 43.6172Z" fill="white" stroke="#04091E" stroke-miterlimit="10" stroke-linecap="round" stroke-linejoin="round"/>
<path d="M62.9364 39.2732L61.9137 38.2549" stroke="#04091E" stroke-miterlimit="10" stroke-linecap="round"/>
<path d="M62.9364 34.2805L61.9137 33.2578" stroke="#04091E" stroke-miterlimit="10" stroke-linecap="round"/>
<path d="M62.9364 29.2834L61.9137 28.2607" stroke="#04091E" stroke-miterlimit="10" stroke-linecap="round"/>
<path d="M67.9294 39.2732L66.911 38.2549" stroke="#04091E" stroke-miterlimit="10" stroke-linecap="round"/>
<path d="M67.9294 34.2805L66.911 33.2578" stroke="#04091E" stroke-miterlimit="10" stroke-linecap="round"/>
<path d="M67.9294 29.2834L66.911 28.2607" stroke="#04091E" stroke-miterlimit="10" stroke-linecap="round"/>
<path d="M73.2101 39.2732L72.1918 38.2549" stroke="#04091E" stroke-miterlimit="10" stroke-linecap="round"/>
<path d="M73.2101 34.2805L72.1918 33.2578" stroke="#04091E" stroke-miterlimit="10" stroke-linecap="round"/>
<path d="M73.2101 29.2834L72.1918 28.2607" stroke="#04091E" stroke-miterlimit="10" stroke-linecap="round"/>
<path d="M11.7004 73.2314V75.6979" stroke="#04091E" stroke-miterlimit="10" stroke-linecap="round"/>
<path d="M11.7004 66.8115V69.2822" stroke="#04091E" stroke-miterlimit="10" stroke-linecap="round"/>
<path d="M9.72815 71.2549H7.25745" stroke="#04091E" stroke-miterlimit="10" stroke-linecap="round"/>
<path d="M16.1434 71.2549H13.677" stroke="#04091E" stroke-miterlimit="10" stroke-linecap="round"/>
<path d="M48.8082 24.5436C48.8082 23.0525 50.0156 21.8408 51.511 21.8408C53.002 21.8408 54.2137 23.0482 54.2137 24.5436C54.2137 26.0346 53.0063 27.2463 51.511 27.2463C50.0199 27.242 48.8082 26.0346 48.8082 24.5436Z" stroke="#04091E" stroke-miterlimit="10" stroke-linecap="round"/>
<path d="M25.7297 24.2686C25.1281 21.0889 22.3308 18.6826 18.975 18.6826H15.1078" stroke="#04091E" stroke-miterlimit="10" stroke-linecap="round"/>
<path d="M12.3148 18.6865C8.40037 18.6865 5.22498 21.8619 5.22498 25.7764C5.22498 29.6908 8.40037 32.8662 12.3148 32.8662H13.389L18.975 36.3037V32.8662C22.7734 32.8662 25.85 29.7896 25.85 25.9912" stroke="#04091E" stroke-miterlimit="10" stroke-linecap="round"/>
<path d="M15.5375 26.8506C16.0121 26.8506 16.3969 26.4658 16.3969 25.9912C16.3969 25.5166 16.0121 25.1318 15.5375 25.1318C15.0629 25.1318 14.6781 25.5166 14.6781 25.9912C14.6781 26.4658 15.0629 26.8506 15.5375 26.8506Z" fill="#04091E"/>
<path d="M19.8344 26.8506C20.309 26.8506 20.6937 26.4658 20.6937 25.9912C20.6937 25.5166 20.309 25.1318 19.8344 25.1318C19.3597 25.1318 18.975 25.5166 18.975 25.9912C18.975 26.4658 19.3597 26.8506 19.8344 26.8506Z" fill="#04091E"/>
<path d="M11.2406 26.8506C11.7152 26.8506 12.1 26.4658 12.1 25.9912C12.1 25.5166 11.7152 25.1318 11.2406 25.1318C10.766 25.1318 10.3812 25.5166 10.3812 25.9912C10.3812 26.4658 10.766 26.8506 11.2406 26.8506Z" fill="#04091E"/>
<path d="M48.3656 77.0039C50.3851 78.4906 53.0105 80.5187 58.807 81.7691C69.807 84.1324 72.9695 88.7773 73.5582 89.8344" stroke="#04091E" stroke-miterlimit="10" stroke-linecap="round" stroke-linejoin="round"/>
<path d="M18.5452 82.1348C8.80852 84.584 5.92532 88.8293 5.36243 89.8348" stroke="#04091E" stroke-miterlimit="10" stroke-linecap="round" stroke-linejoin="round"/>
<path d="M30.5593 77.0039C28.7159 78.3617 26.3784 80.1664 21.5831 81.4168" stroke="#04091E" stroke-miterlimit="10" stroke-linecap="round" stroke-linejoin="round"/>
<path d="M52.0395 52.959L51.5453 54.6691C50.1918 58.734 46.9777 62.6398 43.9355 63.6238" stroke="#04091E" stroke-miterlimit="10" stroke-linecap="round" stroke-linejoin="round"/>
<path d="M41.6797 65.2434C42.928 65.2434 43.9399 64.4854 43.9399 63.5504C43.9399 62.6154 42.928 61.8574 41.6797 61.8574C40.4315 61.8574 39.4196 62.6154 39.4196 63.5504C39.4196 64.4854 40.4315 65.2434 41.6797 65.2434Z" stroke="#04091E" stroke-miterlimit="10" stroke-linecap="round" stroke-linejoin="round"/>
<path d="M73.8332 87.8664C74.1597 87.6645 74.4734 87.441 74.7699 87.1961C74.1941 86.2852 74.4648 85.0777 75.3758 84.4977C75.8441 84.2012 76.4156 84.1195 76.9484 84.2656C77.2707 83.5137 77.4726 82.7102 77.5457 81.8937C76.4929 81.6574 75.8355 80.609 76.0719 79.5605C76.1922 79.0234 76.5359 78.5594 77.0172 78.2887C76.7121 77.5281 76.291 76.8191 75.7668 76.1875C74.8558 76.7633 73.6527 76.4926 73.0769 75.5816C72.7804 75.1133 72.6988 74.5461 72.8492 74.0133C72.0972 73.691 71.2937 73.4891 70.4773 73.416C70.2367 74.4688 69.1883 75.1262 68.1355 74.8813C67.6027 74.7566 67.1429 74.4172 66.8722 73.9402C66.1117 74.2453 65.4027 74.6664 64.7711 75.1906C65.2008 75.8781 65.1621 76.7547 64.6808 77.4035C64.1953 78.0523 63.366 78.3359 62.584 78.1168C62.2617 78.8688 62.0597 79.6723 61.9867 80.4887C62.2531 80.5488 62.5066 80.6648 62.7258 80.8281M66.9668 82.7102C66.3824 81.6574 66.434 80.3125 67.1988 79.2855C68.2429 77.8848 70.2238 77.5926 71.6246 78.6367C72.9996 79.6594 73.3047 81.5844 72.3336 82.9809C71.8051 83.7414 70.9758 84.2012 70.1078 84.3043" stroke="#04091E" stroke-miterlimit="10" stroke-linecap="round"/>
<path d="M84.0598 72.51C83.4023 73.5928 82.1434 74.1557 80.8973 73.928C80.502 75.1526 80.3043 76.4288 80.3129 77.7135C80.7383 77.7694 81.1465 77.9112 81.516 78.1346C82.9598 79.0112 83.4195 80.8889 82.543 82.3327C82.3195 82.7022 82.023 83.0159 81.6664 83.2608C82.2508 84.4038 83.0113 85.4479 83.9223 86.3503C85.2586 85.3147 87.1793 85.5596 88.2148 86.896C88.7477 87.5835 88.9625 88.4643 88.8035 89.3194C90.0281 89.7147 91.3043 89.9124 92.5891 89.9038C92.8039 88.228 94.3336 87.0464 96.0051 87.2612C96.4305 87.3171 96.843 87.4589 97.2125 87.6823C97.582 87.9057 97.8957 88.2022 98.1406 88.5546C99.2836 87.9659 100.323 87.2011 101.23 86.2901C100.195 84.9538 100.444 83.0331 101.78 81.9975C102.463 81.469 103.344 81.2542 104.195 81.4089C104.59 80.1843 104.788 78.9081 104.779 77.6233C103.104 77.4085 101.926 75.8745 102.141 74.1987C102.253 73.3436 102.721 72.5702 103.43 72.0803C102.846 70.9374 102.081 69.8932 101.17 68.9866C99.8336 70.0178 97.9172 69.7686 96.8859 68.4366C96.3574 67.7534 96.1426 66.8768 96.2973 66.0261C95.0727 65.6307 93.7965 65.4331 92.5117 65.4417C92.2883 67.1175 90.75 68.2948 89.0785 68.0714C88.2277 67.9596 87.4629 67.4913 86.973 66.7909C85.8301 67.3753 84.7859 68.1401 83.8793 69.051C84.6441 70.0565 84.7172 71.4272 84.0598 72.51ZM95.0684 73.4167C97.3586 74.8089 98.1191 77.7651 96.8086 80.0854C95.4852 82.4272 92.4301 83.2909 90.0797 81.9803C87.609 80.6053 86.7969 77.4643 88.2535 75.071C89.6801 72.7335 92.7266 71.9944 95.0684 73.4167Z" fill="#FFB711" stroke="#04091E" stroke-miterlimit="10"/>
<path d="M61.514 74.5459V63.8037H58.0765L64.307 55.8545L70.5375 63.8037H66.6703V71.1084" stroke="#04091E" stroke-miterlimit="10" stroke-linecap="round"/>
<path d="M78.998 68.5303V51.4889H73.5453L83.4281 38.8818L93.3109 51.4889H87.1793V63.0775" stroke="#04091E" stroke-miterlimit="10" stroke-linecap="round"/>
</svg>
