<svg width="110" height="110" viewBox="0 0 110 110" fill="none" xmlns="http://www.w3.org/2000/svg">
<path d="M39.4539 99.2578C53.0992 99.2578 64.1609 88.1961 64.1609 74.5508C64.1609 60.9055 53.0992 49.8438 39.4539 49.8438C25.8085 49.8438 14.7468 60.9055 14.7468 74.5508C14.7468 88.1961 25.8085 99.2578 39.4539 99.2578Z" fill="#E1E6ED"/>
<path d="M78.9851 56.2891C85.9857 56.2891 91.6609 50.6139 91.6609 43.6133C91.6609 36.6126 85.9857 30.9375 78.9851 30.9375C71.9845 30.9375 66.3093 36.6126 66.3093 43.6133C66.3093 50.6139 71.9845 56.2891 78.9851 56.2891Z" fill="#E1E6ED"/>
<path d="M93.4871 37.9973L94.4496 37.0391" stroke="#010101" stroke-miterlimit="10" stroke-linecap="round"/>
<path d="M98.1877 37.9973L99.146 37.0391" stroke="#010101" stroke-miterlimit="10" stroke-linecap="round"/>
<path d="M102.889 37.9973L103.847 37.0391" stroke="#010101" stroke-miterlimit="10" stroke-linecap="round"/>
<path d="M93.4871 42.698L94.4496 41.7397" stroke="#010101" stroke-miterlimit="10" stroke-linecap="round"/>
<path d="M98.1877 42.698L99.146 41.7397" stroke="#010101" stroke-miterlimit="10" stroke-linecap="round"/>
<path d="M102.889 42.698L103.847 41.7397" stroke="#010101" stroke-miterlimit="10" stroke-linecap="round"/>
<path d="M93.4871 47.6652L94.4496 46.707" stroke="#010101" stroke-miterlimit="10" stroke-linecap="round"/>
<path d="M98.1877 47.6652L99.146 46.707" stroke="#010101" stroke-miterlimit="10" stroke-linecap="round"/>
<path d="M102.889 47.6652L103.847 46.707" stroke="#010101" stroke-miterlimit="10" stroke-linecap="round"/>
<path d="M36.2312 20.625V23.6328" stroke="#010101" stroke-miterlimit="10" stroke-linecap="round"/>
<path d="M36.2312 13.3203V16.3281" stroke="#010101" stroke-miterlimit="10" stroke-linecap="round"/>
<path d="M34.0828 18.4766H31.075" stroke="#010101" stroke-miterlimit="10" stroke-linecap="round"/>
<path d="M41.3875 18.4766H38.3796" stroke="#010101" stroke-miterlimit="10" stroke-linecap="round"/>
<path d="M64.5906 15.0391V16.7578" stroke="#010101" stroke-miterlimit="10" stroke-linecap="round"/>
<path d="M64.5906 10.7422V12.4609" stroke="#010101" stroke-miterlimit="10" stroke-linecap="round"/>
<path d="M63.3015 13.75H61.5828" stroke="#010101" stroke-miterlimit="10" stroke-linecap="round"/>
<path d="M67.5984 13.75H65.8796" stroke="#010101" stroke-miterlimit="10" stroke-linecap="round"/>
<path d="M95.326 89.0143L93.6717 87.36C92.7823 86.4705 92.7823 85.0268 93.6717 84.1373L95.326 82.483C96.2155 81.5936 97.6592 81.5936 98.5487 82.483L100.203 84.1373C101.092 85.0268 101.092 86.4705 100.203 87.36L98.5487 89.0143C97.6592 89.9037 96.2155 89.9037 95.326 89.0143Z" stroke="#010101" stroke-miterlimit="10" stroke-linecap="round"/>
<path d="M29.5409 86.3929C28.3894 85.2413 28.3894 83.3722 29.5409 82.2206C30.6925 81.069 32.5616 81.069 33.7132 82.2206C34.8647 83.3722 34.8647 85.2413 33.7132 86.3929C32.5616 87.5444 30.6925 87.5444 29.5409 86.3929Z" stroke="#010101" stroke-miterlimit="10" stroke-linecap="round"/>
<path d="M43.5359 69.7341V80.1368L27.457 67.4954L35.5266 63.2329L43.5359 69.7341Z" fill="#FFB711"/>
<path d="M35.8874 63.1168L21.6046 70.6621C18.9749 72.05 15.7136 71.0445 14.3257 68.4148L11.5198 63.0996C10.1319 60.4699 11.1374 57.2086 13.7671 55.8207L28.0499 48.2754L35.8874 63.1168Z" stroke="#010101" stroke-miterlimit="10" stroke-linecap="round"/>
<path d="M40.528 60.9812C39.1272 61.514 37.7522 62.1328 36.4159 62.8375L35.8917 63.1167L28.0542 48.2753C35.0022 44.6058 40.5882 38.7964 43.987 31.7109L48.4729 22.3437C48.8726 21.5144 49.5257 20.8355 50.3378 20.4058L50.6515 20.2425C52.744 19.1382 55.4511 20.5949 56.5554 22.6874L68.3546 44.4726L74.469 55.2148" stroke="#010101" stroke-miterlimit="10" stroke-linecap="round"/>
<path d="M18.7041 60.474L25.9615 56.6455" stroke="#010101" stroke-miterlimit="10" stroke-linecap="round"/>
<path d="M20.7581 64.3628L24.2987 62.4937" stroke="#010101" stroke-miterlimit="10" stroke-linecap="round"/>
<path d="M63.7312 55.2149L56.5554 42.5005" stroke="#010101" stroke-miterlimit="10" stroke-linecap="round"/>
<path d="M52.5938 33.9151L47.3301 24.5952" stroke="#010101" stroke-miterlimit="10" stroke-linecap="round"/>
<path d="M55.2363 39.8579L53.9128 37.2153" stroke="#010101" stroke-miterlimit="10" stroke-linecap="round"/>
<path d="M43.9654 80.1368L27.8779 67.4954L35.9475 63.2329L43.1061 68.9649" stroke="#010101" stroke-miterlimit="10" stroke-linecap="round"/>
<path d="M72.0068 28.4066L73.5279 23.8477" stroke="#010101" stroke-miterlimit="10" stroke-linecap="round" stroke-linejoin="round"/>
<path d="M77.5972 38.2163L82.1562 39.7374" stroke="#010101" stroke-miterlimit="10" stroke-linecap="round" stroke-linejoin="round"/>
<path d="M77.4983 31.4272L81.9971 29.3647" stroke="#010101" stroke-miterlimit="10" stroke-linecap="round" stroke-linejoin="round"/>
<path d="M70.5417 41.5165L67.5811 43.1365L62.6311 33.924L65.3854 32.0935C67.9893 30.6712 71.2506 31.6251 72.6772 34.229C74.0995 36.8287 73.1456 40.0943 70.5417 41.5165Z" fill="#FFB711" stroke="#010101" stroke-miterlimit="10" stroke-linecap="round" stroke-linejoin="round"/>
<path d="M67.1687 89.8047H65.0203C63.598 89.8047 62.4421 88.6488 62.4421 87.2266V81.2109C62.4421 79.7887 63.598 78.6328 65.0203 78.6328H67.1687C68.591 78.6328 69.7468 79.7887 69.7468 81.2109V87.2266C69.7468 88.6488 68.591 89.8047 67.1687 89.8047Z" fill="#2662FA"/>
<path d="M68.4578 88.9453H66.3093C64.8871 88.9453 63.7312 87.7895 63.7312 86.3672V79.9219C63.7312 78.4996 64.8871 77.3438 66.3093 77.3438H68.4578C69.88 77.3438 71.0359 78.4996 71.0359 79.9219V86.3672C71.0359 87.7895 69.88 88.9453 68.4578 88.9453Z" stroke="#050606" stroke-miterlimit="10"/>
<path d="M55.1376 57.5781V54.8582C55.1376 53.0363 56.6286 51.5625 58.4676 51.5625H75.87C77.709 51.5625 79.2001 53.0406 79.2001 54.8582V57.5781H82.6376V54.8195C82.6333 51.1242 79.634 48.1293 75.9301 48.125H58.4118C54.7079 48.1293 51.7086 51.1242 51.7043 54.8195V57.5781H55.1376Z" fill="#2662FA" stroke="#010101" stroke-miterlimit="10" stroke-linecap="round" stroke-linejoin="round"/>
<path d="M71.2165 82.5086C78.4954 82.3066 84.8161 81.6449 88.318 81.2152C89.9852 81.0047 91.2313 79.591 91.2313 77.9195V60.9039C91.2356 59.0734 89.7532 57.5824 87.9141 57.5781H46.8618C45.0227 57.5824 43.536 59.0691 43.5403 60.8996V77.9496C43.536 79.6125 44.7735 81.0219 46.4278 81.2453C52.1083 81.9801 57.8231 82.4098 63.5508 82.5387" stroke="#010101" stroke-miterlimit="10" stroke-linecap="round" stroke-linejoin="round"/>
<path d="M45.6843 68.75V76.2223C45.68 77.7133 46.7929 78.968 48.2711 79.157C48.9328 79.2387 49.7019 79.3289 50.5742 79.4234" stroke="#010101" stroke-miterlimit="10" stroke-linecap="round" stroke-linejoin="round"/>
<path d="M45.6843 63.1641V66.6016" stroke="#010101" stroke-miterlimit="10" stroke-linecap="round" stroke-linejoin="round"/>
<path d="M86.075 81.6406V91.3516C86.075 93.5816 84.266 95.3906 82.0359 95.3906H52.3015C50.0714 95.3906 48.2625 93.5816 48.2625 91.3516V81.6406" stroke="#010101" stroke-miterlimit="10" stroke-linecap="round" stroke-linejoin="round"/>
<path d="M17.325 46.4062C23.495 46.4062 28.4968 41.4044 28.4968 35.2344C28.4968 29.0643 23.495 24.0625 17.325 24.0625C11.1549 24.0625 6.15308 29.0643 6.15308 35.2344C6.15308 41.4044 11.1549 46.4062 17.325 46.4062Z" fill="#2662FA" stroke="#010101" stroke-miterlimit="10" stroke-linecap="round"/>
<path d="M11.5242 38.5861L14.8757 35.2346L17.1101 37.4689L21.205 33.374" stroke="white" stroke-miterlimit="10" stroke-linecap="round"/>
<path d="M19.9031 31.7969H22.9109V34.8047" stroke="white" stroke-miterlimit="10" stroke-linecap="round"/>
</svg>
