<svg width="110" height="110" viewBox="0 0 110 110" fill="none" xmlns="http://www.w3.org/2000/svg">
<path d="M33.3954 102.451C48.7399 102.451 61.179 90.0118 61.179 74.6674C61.179 59.3229 48.7399 46.8838 33.3954 46.8838C18.051 46.8838 5.61182 59.3229 5.61182 74.6674C5.61182 90.0118 18.051 102.451 33.3954 102.451Z" fill="#E1E6ED"/>
<path d="M65.3426 52.108C74.5905 52.108 82.0875 44.6111 82.0875 35.3631C82.0875 26.1151 74.5905 18.6182 65.3426 18.6182C56.0946 18.6182 48.5977 26.1151 48.5977 35.3631C48.5977 44.6111 56.0946 52.108 65.3426 52.108Z" fill="#E1E6ED"/>
<path d="M63.4133 93.4314L58.9102 96.2717C56.7704 97.6209 54.029 97.5779 51.9321 96.1557L37.5032 86.3717L45.534 81.3057L63.4133 93.4314Z" fill="#2662FA"/>
<path d="M45.6758 80.4594L30.5551 89.9984C28.441 91.3305 25.6437 90.6988 24.3117 88.5848L19.8301 81.4777C18.498 79.3637 19.1297 76.5664 21.2437 75.2344L36.3644 65.6953L45.6758 80.4594Z" stroke="#010101" stroke-miterlimit="10" stroke-linecap="round"/>
<path d="M36.3645 65.6952C43.2782 61.3339 48.6063 54.8671 51.5626 47.2444L55.4727 37.1726C55.8208 36.2831 56.4438 35.5226 57.2516 35.0155L57.561 34.8179C59.645 33.503 62.3993 34.1261 63.7141 36.2101L83.8922 68.2003C85.2071 70.2843 84.584 73.0386 82.5001 74.3534C81.7051 74.8562 80.7727 75.0925 79.8317 75.0323L68.995 74.332C60.977 73.812 52.9977 75.8445 46.2 80.1327L45.6758 80.4636L36.3645 65.6952Z" stroke="#010101" stroke-miterlimit="10" stroke-linecap="round"/>
<path d="M27.646 79.0934L34.8647 74.543" stroke="#010101" stroke-miterlimit="10" stroke-linecap="round"/>
<path d="M30.0867 82.9598L33.6101 80.7383" stroke="#010101" stroke-miterlimit="10" stroke-linecap="round"/>
<path d="M76.4541 74.4566L65.8752 57.6816" stroke="#010101" stroke-miterlimit="10" stroke-linecap="round"/>
<path d="M60.3841 48.9848L54.6392 39.8711" stroke="#010101" stroke-miterlimit="10" stroke-linecap="round"/>
<path d="M64.2254 55.0688L62.5969 52.4863" stroke="#010101" stroke-miterlimit="10" stroke-linecap="round"/>
<path d="M63.6282 92.701L59.1251 95.5412C56.9852 96.8904 54.2438 96.8475 52.1469 95.4252L37.718 85.6412L45.7489 80.5752L63.6282 92.701Z" stroke="#010101" stroke-miterlimit="10" stroke-linecap="round"/>
<path d="M33.8336 70.1164C43.1338 70.1164 50.673 62.5771 50.673 53.277C50.673 43.9768 43.1338 36.4375 33.8336 36.4375C24.5334 36.4375 16.9941 43.9768 16.9941 53.277C16.9941 62.5771 24.5334 70.1164 33.8336 70.1164Z" fill="#FFB711" stroke="#010101" stroke-miterlimit="10"/>
<path d="M34.839 52.9592L32.394 52.1686C31.0577 51.7346 30.3358 50.2823 30.7741 48.9202C31.2167 47.558 32.6562 46.8061 33.9882 47.2401L38.3194 48.6452" stroke="#010101" stroke-miterlimit="10" stroke-linecap="round"/>
<path d="M32.5789 52.2246L35.0238 53.0152C36.3601 53.4492 37.082 54.9016 36.6437 56.2637C36.2011 57.6258 34.7617 58.3777 33.4296 57.9438L29.0339 56.5172" stroke="#010101" stroke-miterlimit="10" stroke-linecap="round"/>
<path d="M36.1023 46.5654C36.3215 45.8908 36.4977 45.3408 36.4977 45.3408C36.4977 45.3408 36.3215 45.8865 36.1023 46.5654ZM36.1023 46.5654C35.8832 47.24 35.707 47.79 35.707 47.79C35.707 47.79 35.8789 47.24 36.1023 46.5654Z" stroke="#010101" stroke-miterlimit="10" stroke-linecap="round"/>
<path d="M32.1104 58.876C32.3295 58.2014 32.5057 57.6514 32.5057 57.6514C32.5057 57.6514 32.3295 58.1971 32.1104 58.876ZM32.1104 58.876C31.8913 59.5506 31.7151 60.1006 31.7151 60.1006C31.7151 60.1006 31.8913 59.5506 32.1104 58.876Z" stroke="#010101" stroke-miterlimit="10" stroke-linecap="round"/>
<path d="M46.4193 30.7014C52.8124 30.7014 57.9951 25.5187 57.9951 19.1256C57.9951 12.7325 52.8124 7.5498 46.4193 7.5498C40.0262 7.5498 34.8435 12.7325 34.8435 19.1256C34.8435 25.5187 40.0262 30.7014 46.4193 30.7014Z" fill="#2662FA" stroke="#010101" stroke-miterlimit="10"/>
<path d="M47.1112 18.9064L45.4312 18.3607C44.5116 18.0642 44.0175 17.063 44.3183 16.1263C44.6233 15.1896 45.6116 14.674 46.5312 14.9704L49.5089 15.9372" stroke="white" stroke-miterlimit="10" stroke-linecap="round"/>
<path d="M45.56 18.4043L47.2401 18.95C48.1596 19.2465 48.6538 20.2477 48.353 21.1844C48.0479 22.1211 47.0596 22.6367 46.1401 22.3402L43.1194 21.3605" stroke="white" stroke-miterlimit="10" stroke-linecap="round"/>
<path d="M47.9791 14.5111C48.1295 14.0471 48.2541 13.6689 48.2541 13.6689C48.2541 13.6689 48.1295 14.0471 47.9791 14.5111ZM47.9791 14.5111C47.8287 14.9752 47.7041 15.3533 47.7041 15.3533C47.7041 15.3533 47.8287 14.9752 47.9791 14.5111Z" stroke="white" stroke-miterlimit="10" stroke-linecap="round"/>
<path d="M45.2376 22.976C45.388 22.5119 45.5126 22.1338 45.5126 22.1338C45.5126 22.1338 45.388 22.5119 45.2376 22.976ZM45.2376 22.976C45.0873 23.44 44.9626 23.8182 44.9626 23.8182C44.9626 23.8182 45.083 23.44 45.2376 22.976Z" stroke="white" stroke-miterlimit="10" stroke-linecap="round"/>
<path d="M77.9626 58.7515L69.2485 44.8898C73.0771 42.4835 78.1302 43.6351 80.5364 47.4636C82.9427 51.2921 81.7911 56.3452 77.9626 58.7515Z" fill="#FFB711" stroke="#010101" stroke-miterlimit="10"/>
<path d="M85.783 44.1547L91.2959 41.4004" stroke="#010101" stroke-miterlimit="10" stroke-linecap="round" stroke-linejoin="round"/>
<path d="M82.0532 40.7387L83.9997 34.8906" stroke="#010101" stroke-miterlimit="10" stroke-linecap="round" stroke-linejoin="round"/>
<path d="M86.1653 49.5215L92.0133 51.4723" stroke="#010101" stroke-miterlimit="10" stroke-linecap="round" stroke-linejoin="round"/>
<path d="M69.0938 38.4359L83.4023 24.1273L88.7004 29.4254L101.737 16.3887" stroke="#010101" stroke-miterlimit="10" stroke-linecap="round" stroke-linejoin="round"/>
<path d="M97.7583 13.7373H104.388V19.9205" stroke="#010101" stroke-miterlimit="10" stroke-linecap="round" stroke-linejoin="round"/>
<path d="M13.9219 87.6996V85.5684" stroke="#010101" stroke-miterlimit="10" stroke-linecap="round"/>
<path d="M9.4231 90.0625H11.2536" stroke="#010101" stroke-miterlimit="10" stroke-linecap="round"/>
<path d="M16.5903 90.0625H18.4165" stroke="#010101" stroke-miterlimit="10" stroke-linecap="round"/>
<path d="M13.9219 94.5613V92.125" stroke="#010101" stroke-miterlimit="10" stroke-linecap="round"/>
<path d="M69.7898 16.7322V15.1768" stroke="#010101" stroke-miterlimit="10" stroke-linecap="round"/>
<path d="M66.5071 18.46H67.8434" stroke="#010101" stroke-miterlimit="10" stroke-linecap="round"/>
<path d="M71.7363 18.46H73.0727" stroke="#010101" stroke-miterlimit="10" stroke-linecap="round"/>
<path d="M69.7898 21.7428V19.9639" stroke="#010101" stroke-miterlimit="10" stroke-linecap="round"/>
<path d="M79.1656 95.4809L77.9324 94.252" stroke="#010101" stroke-miterlimit="10" stroke-linecap="round"/>
<path d="M79.1656 89.4525L77.9324 88.2236" stroke="#010101" stroke-miterlimit="10" stroke-linecap="round"/>
<path d="M79.1656 83.4285L77.9324 82.1953" stroke="#010101" stroke-miterlimit="10" stroke-linecap="round"/>
<path d="M85.1941 95.4809L83.9609 94.252" stroke="#010101" stroke-miterlimit="10" stroke-linecap="round"/>
<path d="M85.1941 89.4525L83.9609 88.2236" stroke="#010101" stroke-miterlimit="10" stroke-linecap="round"/>
<path d="M85.1941 83.4285L83.9609 82.1953" stroke="#010101" stroke-miterlimit="10" stroke-linecap="round"/>
<path d="M91.5622 95.4809L90.3333 94.252" stroke="#010101" stroke-miterlimit="10" stroke-linecap="round"/>
<path d="M91.5622 89.4525L90.3333 88.2236" stroke="#010101" stroke-miterlimit="10" stroke-linecap="round"/>
<path d="M91.5622 83.4285L90.3333 82.1953" stroke="#010101" stroke-miterlimit="10" stroke-linecap="round"/>
<path d="M95.3177 69.4893L93.7278 67.8994C92.7567 66.9283 92.7567 65.3557 93.7278 64.3846L95.3177 62.7947C96.2888 61.8236 97.8614 61.8236 98.8325 62.7947L100.422 64.3846C101.393 65.3557 101.393 66.9283 100.422 67.8994L98.8325 69.4893C97.8614 70.4604 96.2888 70.4604 95.3177 69.4893Z" stroke="#010101" stroke-miterlimit="10" stroke-linecap="round"/>
</svg>
