<svg width="110" height="110" viewBox="0 0 110 110" fill="none" xmlns="http://www.w3.org/2000/svg">
<path d="M37.4088 44.176C45.3919 44.176 51.8635 37.7044 51.8635 29.7213C51.8635 21.7382 45.3919 15.2666 37.4088 15.2666C29.4257 15.2666 22.9541 21.7382 22.9541 29.7213C22.9541 37.7044 29.4257 44.176 37.4088 44.176Z" fill="#E1E6ED"/>
<path d="M75.8699 98.9791C89.2708 98.9791 100.134 88.1155 100.134 74.7146C100.134 61.3138 89.2708 50.4502 75.8699 50.4502C62.469 50.4502 51.6055 61.3138 51.6055 74.7146C51.6055 88.1155 62.469 98.9791 75.8699 98.9791Z" fill="#E1E6ED"/>
<path d="M89.65 84.9232L87.2781 90.6811L85.1469 84.6482C84.6613 83.2689 84.4121 81.8166 84.4121 80.3514V54.8623H90.6211V80.0076C90.6254 81.692 90.2945 83.3635 89.65 84.9232Z" fill="#FFB711"/>
<path d="M29.3435 57.0583C28.0115 56.8305 26.6494 56.8219 25.313 57.0196C25.3345 58.7985 23.9123 60.2551 22.1334 60.2766C21.231 60.2895 20.363 59.92 19.7443 59.2583C18.64 60.0403 17.6689 60.9942 16.8654 62.077C17.8193 63.0094 18.0986 64.4274 17.5787 65.6563C17.0544 66.8809 15.8341 67.6587 14.5021 67.6114C14.2744 68.9434 14.2658 70.3055 14.4634 71.6418C14.9146 71.6376 15.3615 71.7235 15.7783 71.8997C17.4111 72.5915 18.1759 74.4778 17.4841 76.1149C17.308 76.5317 17.0459 76.9055 16.7107 77.2149C17.4927 78.3149 18.4423 79.286 19.5252 80.0895C20.7584 78.8133 22.7951 78.7747 24.0755 80.0122C24.733 80.6481 25.0896 81.5333 25.0552 82.4442C26.3873 82.6719 27.7494 82.6805 29.0857 82.4829L29.3435 57.0583ZM29.3392 74.4434C28.0974 75.0235 26.6408 75.1266 25.2873 74.611C22.5072 73.5497 21.188 70.4043 22.3439 67.693C23.4697 65.0418 26.5334 63.8086 29.1802 64.9344H29.1845" fill="#2662FA"/>
<path d="M29.3392 74.4434C28.0974 75.0235 26.6408 75.1266 25.2873 74.611C22.5072 73.5497 21.188 70.4043 22.3439 67.693C23.4697 65.0418 26.5334 63.8086 29.1802 64.9344H29.1845M29.3435 57.0583C28.0115 56.8305 26.6494 56.8219 25.313 57.0196C25.3345 58.7985 23.9123 60.2551 22.1334 60.2766C21.231 60.2895 20.363 59.92 19.7443 59.2583C18.64 60.0403 17.6689 60.9942 16.8654 62.077C17.8193 63.0094 18.0986 64.4274 17.5787 65.6563C17.0544 66.8809 15.8341 67.6587 14.5021 67.6114C14.2744 68.9434 14.2658 70.3055 14.4634 71.6418C14.9146 71.6376 15.3615 71.7235 15.7783 71.8997C17.4111 72.5915 18.1759 74.4778 17.4841 76.1149C17.308 76.5317 17.0459 76.9055 16.7107 77.2149C17.4927 78.3149 18.4423 79.286 19.5252 80.0895C20.7584 78.8133 22.7951 78.7747 24.0755 80.0122C24.733 80.6481 25.0896 81.5333 25.0552 82.4442C26.3873 82.6719 27.7494 82.6805 29.0857 82.4829L29.3435 57.0583Z" stroke="#04091E" stroke-miterlimit="10"/>
<path d="M12.5599 46.3809C12.0743 47.0297 11.245 47.3133 10.463 47.0941C10.1407 47.8461 9.93877 48.6496 9.86572 49.466C10.1321 49.5262 10.3856 49.6422 10.6048 49.8055C11.4685 50.45 11.6489 51.6703 11.0087 52.534C10.8454 52.7531 10.6349 52.9379 10.3942 53.0711C10.695 53.8316 11.1204 54.5406 11.6446 55.168C12.5556 54.5922 13.763 54.8629 14.3388 55.7738C14.6353 56.2422 14.7212 56.8137 14.5665 57.3508C15.3185 57.673 16.122 57.875 16.9384 57.948C17.1747 56.8953 18.2188 56.2336 19.2673 56.4699C19.5337 56.5301 19.7872 56.6461 20.0063 56.8094C20.2255 56.9727 20.4103 57.1789 20.5435 57.4195C21.304 57.1102 22.013 56.6891 22.6446 56.1648C22.0688 55.2539 22.3396 54.0465 23.2505 53.4664C23.7188 53.1699 24.2903 53.0883 24.8231 53.2344C25.1454 52.4824 25.3474 51.6789 25.4204 50.8625C24.3677 50.6262 23.7103 49.5777 23.9466 48.5293C24.0669 47.9922 24.4106 47.5281 24.8919 47.2574C24.5868 46.4969 24.1657 45.7879 23.6415 45.1562C22.7306 45.732 21.5274 45.4613 20.9517 44.5504C20.6552 44.082 20.5735 43.5148 20.7239 42.982C19.972 42.6598 19.1685 42.4578 18.3521 42.3848C18.1114 43.4375 17.063 44.0949 16.0103 43.85C15.4774 43.7254 15.0177 43.3859 14.747 42.909C13.9864 43.2141 13.2774 43.6352 12.6458 44.1594C13.0798 44.8512 13.0454 45.732 12.5599 46.3809ZM19.5079 47.6141C20.8829 48.6367 21.188 50.5617 20.2169 51.9582C19.2372 53.3676 17.2392 53.7328 15.8255 52.7617C14.3388 51.7391 14.0079 49.6937 15.0778 48.2586C16.122 46.8578 18.1028 46.5699 19.5079 47.6141Z" stroke="black" stroke-miterlimit="10"/>
<path d="M77.1119 100.078L74.6412 97.6076C73.8592 96.8256 73.8592 95.558 74.6412 94.776L77.1119 92.3053C77.8939 91.5232 79.1615 91.5232 79.9436 92.3053L82.4143 94.776C83.1963 95.558 83.1963 96.8256 82.4143 97.6076L79.9436 100.078C79.1615 100.86 77.8939 100.86 77.1119 100.078Z" stroke="#04091E" stroke-miterlimit="10" stroke-linecap="round"/>
<path d="M70.5161 19.9932L69.5278 19.0049" stroke="#04091E" stroke-miterlimit="10" stroke-linecap="round"/>
<path d="M70.5161 15.1592L69.5278 14.1709" stroke="#04091E" stroke-miterlimit="10" stroke-linecap="round"/>
<path d="M70.5161 10.3213L69.5278 9.33301" stroke="#04091E" stroke-miterlimit="10" stroke-linecap="round"/>
<path d="M75.3501 19.9932L74.3618 19.0049" stroke="#04091E" stroke-miterlimit="10" stroke-linecap="round"/>
<path d="M75.3501 15.1592L74.3618 14.1709" stroke="#04091E" stroke-miterlimit="10" stroke-linecap="round"/>
<path d="M75.3501 10.3213L74.3618 9.33301" stroke="#04091E" stroke-miterlimit="10" stroke-linecap="round"/>
<path d="M80.4634 19.9932L79.4751 19.0049" stroke="#04091E" stroke-miterlimit="10" stroke-linecap="round"/>
<path d="M80.4634 15.1592L79.4751 14.1709" stroke="#04091E" stroke-miterlimit="10" stroke-linecap="round"/>
<path d="M80.4634 10.3213L79.4751 9.33301" stroke="#04091E" stroke-miterlimit="10" stroke-linecap="round"/>
<path d="M67.7017 27.6377H77.013C78.5942 27.6377 79.879 28.9225 79.879 30.5037V80.8889C79.879 82.4701 78.5942 83.7549 77.013 83.7549H71.0446" stroke="#04091E" stroke-miterlimit="10" stroke-linecap="round" stroke-linejoin="round"/>
<path d="M55.7607 27.6377H64.8357" stroke="#04091E" stroke-miterlimit="10" stroke-linecap="round" stroke-linejoin="round"/>
<path d="M38.3281 34.8006V30.5037C38.3281 28.9225 39.6129 27.6377 41.1941 27.6377H52.4176" stroke="#04091E" stroke-miterlimit="10" stroke-linecap="round" stroke-linejoin="round"/>
<path d="M70.7138 64.8916V87.9357C70.7138 89.517 69.429 90.8018 67.8478 90.8018H61.0115H51.4595H39.9998H35.7029H32.2095C30.6283 90.8018 29.3435 89.517 29.3435 87.9357V37.7869C29.3435 36.2057 30.6283 34.9209 32.2095 34.9209H59.5419L70.7181 44.4299V60.1135" stroke="#04091E" stroke-miterlimit="10" stroke-linecap="round" stroke-linejoin="round"/>
<path d="M59.5806 34.8008V41.4867C59.5806 43.068 60.8653 44.3527 62.4466 44.3527H70.5634L59.5806 34.8008Z" fill="#2662FA" stroke="#04091E" stroke-miterlimit="10" stroke-linecap="round" stroke-linejoin="round"/>
<path d="M89.4182 85.4904L87.2826 90.6811L85.3318 85.1467C84.726 83.4365 84.4209 81.6318 84.4209 79.8186V30.7439C84.4209 29.0295 85.8088 27.6416 87.5232 27.6416C89.2377 27.6416 90.6256 29.0295 90.6256 30.7439V79.3932C90.6256 81.4857 90.2131 83.5568 89.4182 85.4904Z" stroke="#04091E" stroke-miterlimit="10" stroke-linecap="round" stroke-linejoin="round"/>
<path d="M90.6255 33.8467H84.4165V37.6666H90.6255V33.8467Z" fill="white" stroke="#04091E" stroke-miterlimit="10" stroke-linecap="round" stroke-linejoin="round"/>
<path d="M40.9536 55.9281C42.171 55.9281 43.1579 54.9412 43.1579 53.7238C43.1579 52.5064 42.171 51.5195 40.9536 51.5195C39.7362 51.5195 38.7493 52.5064 38.7493 53.7238C38.7493 54.9412 39.7362 55.9281 40.9536 55.9281Z" fill="#FFB711" stroke="#04091E" stroke-miterlimit="10" stroke-linecap="round" stroke-linejoin="round"/>
<path d="M40.9536 64.9691C42.171 64.9691 43.1579 63.9822 43.1579 62.7648C43.1579 61.5474 42.171 60.5605 40.9536 60.5605C39.7362 60.5605 38.7493 61.5474 38.7493 62.7648C38.7493 63.9822 39.7362 64.9691 40.9536 64.9691Z" fill="#FFB711" stroke="#04091E" stroke-miterlimit="10" stroke-linecap="round" stroke-linejoin="round"/>
<path d="M40.9536 73.9623C42.171 73.9623 43.1579 72.9754 43.1579 71.758C43.1579 70.5406 42.171 69.5537 40.9536 69.5537C39.7362 69.5537 38.7493 70.5406 38.7493 71.758C38.7493 72.9754 39.7362 73.9623 40.9536 73.9623Z" fill="white" stroke="#04091E" stroke-miterlimit="10" stroke-linecap="round" stroke-linejoin="round"/>
<path d="M46.6855 53.9043H57.6684" stroke="#04091E" stroke-miterlimit="10" stroke-linecap="round" stroke-linejoin="round"/>
<path d="M38.5688 46.2646H40.9536" stroke="#04091E" stroke-miterlimit="10" stroke-linecap="round" stroke-linejoin="round"/>
<path d="M43.8196 46.2646H46.2086" stroke="#04091E" stroke-miterlimit="10" stroke-linecap="round" stroke-linejoin="round"/>
<path d="M49.0747 46.2646H51.4638" stroke="#04091E" stroke-miterlimit="10" stroke-linecap="round" stroke-linejoin="round"/>
<path d="M46.6855 62.5029H57.6684" stroke="#04091E" stroke-miterlimit="10" stroke-linecap="round" stroke-linejoin="round"/>
<path d="M46.6855 71.5771H52.8945" stroke="#04091E" stroke-miterlimit="10" stroke-linecap="round" stroke-linejoin="round"/>
<path d="M76.7725 32.416V48.6539" stroke="#04091E" stroke-miterlimit="10" stroke-linecap="round" stroke-linejoin="round"/>
<path d="M76.7725 52.4736V57.2475" stroke="#04091E" stroke-miterlimit="10" stroke-linecap="round" stroke-linejoin="round"/>
<path d="M28.8234 29.0729H20.1309C18.7086 29.0729 17.5527 27.917 17.5527 26.4947V17.7979C17.5527 16.3756 18.7086 15.2197 20.1309 15.2197H28.8234C30.2457 15.2197 31.4016 16.3756 31.4016 17.7979V26.4904C31.4016 27.917 30.25 29.0729 28.8234 29.0729Z" fill="#FFB711" stroke="#04091E" stroke-miterlimit="10" stroke-linecap="round" stroke-linejoin="round"/>
<path d="M21.7852 22.533L23.5168 24.2604L27.7492 20.0322" stroke="#04091E" stroke-miterlimit="10" stroke-linecap="round" stroke-linejoin="round"/>
</svg>
