<svg width="110" height="110" viewBox="0 0 110 110" fill="none" xmlns="http://www.w3.org/2000/svg">
<path d="M27.7169 96.7579C40.0522 96.7579 50.0519 86.7582 50.0519 74.4229C50.0519 62.0876 40.0522 52.0879 27.7169 52.0879C15.3816 52.0879 5.38184 62.0876 5.38184 74.4229C5.38184 86.7582 15.3816 96.7579 27.7169 96.7579Z" fill="#E1E6ED"/>
<path d="M82.7126 37.5014C88.643 37.5014 93.4506 32.6938 93.4506 26.7634C93.4506 20.833 88.643 16.0254 82.7126 16.0254C76.7822 16.0254 71.9746 20.833 71.9746 26.7634C71.9746 32.6938 76.7822 37.5014 82.7126 37.5014Z" fill="#E1E6ED"/>
<path d="M73.2244 98.0472L71.2271 96.0456C70.338 95.1565 70.338 93.7134 71.2271 92.8242L73.2287 90.827C74.1178 89.9379 75.561 89.9379 76.4501 90.827L78.4474 92.8285C79.3365 93.7176 79.3365 95.1608 78.4474 96.0499L76.4458 98.0472C75.5567 98.9406 74.1135 98.9363 73.2244 98.0472Z" stroke="#04091E" stroke-miterlimit="10" stroke-linecap="round"/>
<path d="M23.9844 21.7215L24.9465 20.7637" stroke="#04091E" stroke-miterlimit="10" stroke-linecap="round"/>
<path d="M28.6831 21.7215L29.6409 20.7637" stroke="#04091E" stroke-miterlimit="10" stroke-linecap="round"/>
<path d="M33.3821 21.7258L34.3399 20.7637" stroke="#04091E" stroke-miterlimit="10" stroke-linecap="round"/>
<path d="M23.9844 26.4201L24.9422 25.458" stroke="#04091E" stroke-miterlimit="10" stroke-linecap="round"/>
<path d="M28.679 26.4207L29.6411 25.4629" stroke="#04091E" stroke-miterlimit="10" stroke-linecap="round"/>
<path d="M33.3779 26.425L34.3401 25.4629" stroke="#04091E" stroke-miterlimit="10" stroke-linecap="round"/>
<path d="M23.98 31.386L24.9421 30.4238" stroke="#04091E" stroke-miterlimit="10" stroke-linecap="round"/>
<path d="M28.679 31.3856L29.6368 30.4277" stroke="#04091E" stroke-miterlimit="10" stroke-linecap="round"/>
<path d="M33.3779 31.3899L34.3358 30.4277" stroke="#04091E" stroke-miterlimit="10" stroke-linecap="round"/>
<path d="M98.5918 64.1406V66.2882" stroke="#04091E" stroke-miterlimit="10" stroke-linecap="round"/>
<path d="M98.5961 58.5566L98.5918 60.7042" stroke="#04091E" stroke-miterlimit="10" stroke-linecap="round"/>
<path d="M96.8737 62.4219H94.7261" stroke="#04091E" stroke-miterlimit="10" stroke-linecap="round"/>
<path d="M102.457 62.4219H100.31" stroke="#04091E" stroke-miterlimit="10" stroke-linecap="round"/>
<path d="M6.65737 39.2194C7.48635 38.3904 8.83504 38.3904 9.66401 39.2194C10.493 40.0484 10.493 41.3971 9.66401 42.226C8.83504 43.055 7.48635 43.055 6.65737 42.226C5.8284 41.3971 5.8284 40.0484 6.65737 39.2194Z" fill="#E1E6ED" stroke="#04091E" stroke-miterlimit="10" stroke-linecap="round"/>
<path d="M90.0059 51.251L89.9973 80.8878" stroke="#04091E" stroke-miterlimit="10" stroke-linecap="round" stroke-linejoin="round"/>
<path d="M58.23 36.6338L72.4041 36.6424" stroke="#04091E" stroke-miterlimit="10" stroke-linecap="round" stroke-linejoin="round"/>
<path d="M16.1328 47.7843L16.1371 39.9842C16.1371 38.1244 17.6447 36.6168 19.5045 36.6211L33.3179 36.6254" stroke="#04091E" stroke-miterlimit="10" stroke-linecap="round" stroke-linejoin="round"/>
<path d="M16.1199 80.8571L16.1242 64.9648" stroke="#04091E" stroke-miterlimit="10" stroke-linecap="round" stroke-linejoin="round"/>
<path d="M93.2573 86.4712L13.285 86.4412C11.0558 86.4412 9.24756 84.6329 9.24756 82.3994V80.8574L43.9227 80.8703C44.9836 82.2276 46.6115 83.0179 48.3339 83.0179L58.0238 83.0222C59.7462 83.0222 61.3741 82.2319 62.435 80.8746H62.5467L97.2948 80.8875V82.4295C97.2948 84.6673 95.4865 86.4755 93.2573 86.4712Z" stroke="#04091E" stroke-miterlimit="10" stroke-linecap="round" stroke-linejoin="round"/>
<path d="M58.2385 11.2924L48.3596 11.2881C46.6973 11.2881 45.3529 12.6325 45.3529 14.2947L45.3486 22.4556C45.3486 24.1178 46.693 25.4622 48.3553 25.4622L64.677 25.4665C66.3393 25.4665 67.6837 24.1221 67.6837 22.4599L67.688 14.299C67.688 12.6368 66.3436 11.2924 64.6813 11.2924H62.1042" stroke="#04091E" stroke-miterlimit="10" stroke-linecap="round" stroke-linejoin="round"/>
<path d="M55.1846 15.2659L59.5055 17.7914C60.051 18.1093 60.051 18.8996 59.5055 19.2217L55.1846 21.7473C54.6348 22.0695 53.939 21.67 53.939 21.0343V15.9832C53.9433 15.3389 54.6348 14.9437 55.1846 15.2659Z" stroke="#04091E" stroke-miterlimit="10" stroke-linecap="round" stroke-linejoin="round"/>
<path d="M75.8318 55.9707L84.4222 55.975" stroke="#04091E" stroke-miterlimit="10" stroke-linecap="round" stroke-linejoin="round"/>
<path d="M75.8274 62.8438H81.8407" stroke="#04091E" stroke-miterlimit="10" stroke-linecap="round" stroke-linejoin="round"/>
<path d="M72.8252 57.6891H71.1071C70.6346 57.6891 70.248 57.3025 70.248 56.83V55.112C70.248 54.6395 70.6346 54.2529 71.1071 54.2529H72.8252C73.2976 54.2529 73.6842 54.6395 73.6842 55.112V56.83C73.6842 57.3025 73.2976 57.6891 72.8252 57.6891Z" stroke="#04091E" stroke-miterlimit="10" stroke-linecap="round" stroke-linejoin="round"/>
<path d="M72.8208 64.5612H71.1027C70.6302 64.5612 70.2437 64.1746 70.2437 63.7021V61.984C70.2437 61.5116 70.6302 61.125 71.1027 61.125H72.8208C73.2932 61.125 73.6798 61.5116 73.6798 61.984V63.7021C73.6798 64.1746 73.2975 64.5612 72.8208 64.5612Z" stroke="#04091E" stroke-miterlimit="10" stroke-linecap="round" stroke-linejoin="round"/>
<path d="M75.8274 69.2861H79.2636" stroke="#04091E" stroke-miterlimit="10" stroke-linecap="round" stroke-linejoin="round"/>
<path d="M53.9433 44.7173C53.9433 44.7173 56.8425 40.3749 55.3951 36.5135C53.9476 34.0996 53.4665 34.5806 53.4665 34.5806C53.4665 34.5806 51.538 29.7528 44.2963 30.2339C37.0546 30.7107 35.1217 37.467 35.1174 39.8809L36.0839 39.3999C36.0839 39.3999 34.6364 41.3284 36.0839 44.2277C36.0839 44.2277 38.0167 39.8852 39.9452 39.8852L39.4599 41.818C39.4599 41.818 46.2162 42.3034 50.0819 38.442L48.6344 40.8559C48.6344 40.8559 51.5294 40.3749 52.4958 38.9274C52.4958 38.9231 52.0147 41.818 53.9433 44.7173Z" fill="#FFB711"/>
<path d="M37.2477 62.9453C36.247 63.4436 34.2497 64.4443 31.8315 64.934C24.5297 66.4115 21.6132 68.0996 20.664 70.4705C19.835 72.5365 19.1778 76.836 18.6968 80.2721" stroke="#04091E" stroke-miterlimit="10" stroke-linecap="round" stroke-linejoin="round"/>
<path d="M53.2302 62.9502C54.231 63.4484 56.2283 64.4492 58.6465 64.9432C65.944 66.4293 68.8647 68.1173 69.8097 70.4883C70.5399 72.3137 71.3474 76.9439 71.953 80.8569" stroke="#04091E" stroke-miterlimit="10" stroke-linecap="round" stroke-linejoin="round"/>
<path d="M37.2478 62.9458C39.7476 61.9493 39.3482 58.5046 39.1635 57.1602" stroke="#04091E" stroke-miterlimit="10" stroke-linecap="round" stroke-linejoin="round"/>
<path d="M51.2156 57.6025C51.0868 58.8997 50.7346 61.9536 53.2301 62.9501" stroke="#04091E" stroke-miterlimit="10" stroke-linecap="round" stroke-linejoin="round"/>
<path d="M48.0243 30.6758C53.7155 31.8784 53.3375 34.6274 53.3375 34.6274C53.3375 34.6274 55.7686 35.3318 55.6311 38.2783C55.4937 41.2248 55.5581 42.6594 54.3769 44.0467C53.7369 44.472 53.7885 44.4891 53.7885 44.4891C53.7885 44.4891 52.0446 41.5212 52.7233 38.7164C52.7233 38.7164 51.7397 41.4739 48.7459 40.9757C48.7459 40.9757 50.245 39.4766 50.245 38.4802C50.245 38.4802 44.5968 42.8613 39.2535 41.9722C39.2535 41.9722 40.7526 40.4731 40.7526 39.4766C40.7526 39.4766 37.2563 39.9749 36.0493 44.0424C35.753 43.9694 35.1946 41.1561 36.0493 39.1588C35.6198 39.1588 35.1946 39.8246 35.1946 39.8246C35.1946 39.8246 35.4093 36.0491 37.5483 33.8285C37.5483 33.8285 38.9572 32.0588 41.6116 31.0538" stroke="#04091E" stroke-miterlimit="10" stroke-linecap="round" stroke-linejoin="round"/>
<path d="M43.1106 30.6029C44.1801 30.3753 45.3913 30.2894 46.7443 30.4526" stroke="#04091E" stroke-miterlimit="10" stroke-linecap="round" stroke-linejoin="round"/>
<path d="M36.6979 44.1201C35.478 44.2318 34.6748 45.6449 34.8252 47.2814C34.9454 48.6086 35.6584 49.6738 36.569 49.9745C37.02 55.919 41.1091 60.5321 45.1981 60.5321C49.5448 60.5321 53.3375 55.9061 53.8314 49.9401C54.6948 49.5965 55.3519 48.5656 55.4722 47.2943C55.6225 45.6578 54.8193 44.2447 53.6038 44.133" stroke="#04091E" stroke-miterlimit="10" stroke-linecap="round" stroke-linejoin="round"/>
<path d="M29.8643 80.4362V77" stroke="#04091E" stroke-miterlimit="10" stroke-linecap="round" stroke-linejoin="round"/>
<path d="M60.7898 82.1673V77.8721" stroke="#04091E" stroke-miterlimit="10" stroke-linecap="round" stroke-linejoin="round"/>
<path d="M53.2302 62.9506L45.3099 71.0127L37.2478 62.9463" stroke="#04091E" stroke-miterlimit="10" stroke-linecap="round" stroke-linejoin="round"/>
<path d="M50.1892 49.5188H47.3544C46.4781 49.5188 45.7651 48.8058 45.7651 47.9296V46.8129C45.7651 45.9366 46.4781 45.2236 47.3544 45.2236H50.1892C51.0654 45.2236 51.7784 45.9366 51.7784 46.8129V47.9296C51.7827 48.8058 51.0697 49.5188 50.1892 49.5188Z" stroke="#04091E" stroke-miterlimit="10" stroke-linecap="round" stroke-linejoin="round"/>
<path d="M42.8874 49.5149H40.0526C39.1764 49.5149 38.4634 48.8019 38.4634 47.9257V46.809C38.4634 45.9327 39.1764 45.2197 40.0526 45.2197H42.8874C43.7637 45.2197 44.4767 45.9327 44.4767 46.809V47.9257C44.481 48.8019 43.7679 49.5149 42.8874 49.5149Z" stroke="#04091E" stroke-miterlimit="10" stroke-linecap="round" stroke-linejoin="round"/>
<path d="M44.481 46.5078H45.7695" stroke="#04091E" stroke-miterlimit="10" stroke-linecap="round" stroke-linejoin="round"/>
<path d="M51.8171 45.795L54.2525 43.875" stroke="#04091E" stroke-miterlimit="10" stroke-linecap="round" stroke-linejoin="round"/>
<path d="M38.7898 45.6103L36.479 43.9395" stroke="#04091E" stroke-miterlimit="10" stroke-linecap="round" stroke-linejoin="round"/>
<path d="M77.756 49.0986L90.0617 49.1029L96.8825 53.2005V49.1072H101.405C103.415 49.1072 105.043 47.4793 105.043 45.4691L105.048 32.5578C105.048 30.5476 103.42 28.9197 101.41 28.9197L77.7602 28.9111C75.7501 28.9111 74.1222 30.539 74.1222 32.5492L74.1179 45.4605C74.1179 47.4664 75.7458 49.0986 77.756 49.0986Z" fill="#FFB711"/>
<path d="M105.048 32.5617C105.048 30.5515 103.42 28.9236 101.41 28.9236L77.7602 28.915C75.7501 28.915 74.1222 30.5429 74.1222 32.5531L74.1179 45.4644C74.1179 47.4746 75.7458 49.1025 77.756 49.1025L90.0832 49.1068L96.8825 53.2044V49.1111H101.405C103.415 49.1111 105.043 47.4832 105.043 45.473V43.5273" stroke="#04091E" stroke-miterlimit="10" stroke-linecap="round" stroke-linejoin="round"/>
<path d="M105.043 41.8053L105.048 35.792" stroke="#04091E" stroke-miterlimit="10" stroke-linecap="round" stroke-linejoin="round"/>
<path d="M83.1378 40.5123C84.0866 40.5123 84.8558 39.7431 84.8558 38.7943C84.8558 37.8454 84.0866 37.0762 83.1378 37.0762C82.1889 37.0762 81.4197 37.8454 81.4197 38.7943C81.4197 39.7431 82.1889 40.5123 83.1378 40.5123Z" stroke="#04091E" stroke-miterlimit="10" stroke-linecap="round" stroke-linejoin="round"/>
<path d="M89.5806 40.5123C90.5295 40.5123 91.2987 39.7431 91.2987 38.7943C91.2987 37.8454 90.5295 37.0762 89.5806 37.0762C88.6318 37.0762 87.8625 37.8454 87.8625 38.7943C87.8625 39.7431 88.6318 40.5123 89.5806 40.5123Z" stroke="#04091E" stroke-miterlimit="10" stroke-linecap="round" stroke-linejoin="round"/>
<path d="M96.0233 40.5162C96.9721 40.5162 97.7413 39.747 97.7413 38.7982C97.7413 37.8493 96.9721 37.0801 96.0233 37.0801C95.0744 37.0801 94.3052 37.8493 94.3052 38.7982C94.3052 39.747 95.0744 40.5162 96.0233 40.5162Z" stroke="#04091E" stroke-miterlimit="10" stroke-linecap="round" stroke-linejoin="round"/>
<path d="M4.96084 55.082V52.2944C4.96084 50.9886 6.02175 49.9277 7.32749 49.9277L22.7816 49.932C24.0874 49.932 25.1483 50.9929 25.1483 52.2987L25.144 60.451C25.144 61.7567 24.0831 62.8176 22.7773 62.8176L14.406 62.8133L10.1108 65.4721V62.809H7.3232C6.01746 62.809 4.95654 61.7481 4.95654 60.4424V58.5138" fill="#2662FA"/>
<path d="M4.96084 55.082V52.2944C4.96084 50.9886 6.02175 49.9277 7.32749 49.9277L22.7816 49.932C24.0874 49.932 25.1483 50.9929 25.1483 52.2987L25.144 60.451C25.144 61.7567 24.0831 62.8176 22.7773 62.8176L14.406 62.8133L10.1108 65.4721V62.809H7.3232C6.01746 62.809 4.95654 61.7481 4.95654 60.4424V58.5138" stroke="#04091E" stroke-miterlimit="10" stroke-linecap="round" stroke-linejoin="round"/>
<path d="M18.9202 57.2374C19.5133 57.2374 19.994 56.7567 19.994 56.1636C19.994 55.5706 19.5133 55.0898 18.9202 55.0898C18.3272 55.0898 17.8464 55.5706 17.8464 56.1636C17.8464 56.7567 18.3272 57.2374 18.9202 57.2374Z" stroke="white" stroke-miterlimit="10" stroke-linecap="round" stroke-linejoin="round"/>
<path d="M15.0545 57.2335C15.6476 57.2335 16.1283 56.7528 16.1283 56.1597C16.1283 55.5667 15.6476 55.0859 15.0545 55.0859C14.4615 55.0859 13.9807 55.5667 13.9807 56.1597C13.9807 56.7528 14.4615 57.2335 15.0545 57.2335Z" stroke="white" stroke-miterlimit="10" stroke-linecap="round" stroke-linejoin="round"/>
<path d="M10.7593 57.2335C11.3524 57.2335 11.8331 56.7528 11.8331 56.1597C11.8331 55.5667 11.3524 55.0859 10.7593 55.0859C10.1663 55.0859 9.68555 55.5667 9.68555 56.1597C9.68555 56.7528 10.1663 57.2335 10.7593 57.2335Z" stroke="white" stroke-miterlimit="10" stroke-linecap="round" stroke-linejoin="round"/>
</svg>
