<svg width="110" height="110" viewBox="0 0 110 110" fill="none" xmlns="http://www.w3.org/2000/svg">
<path d="M55 63.8086C59.8649 63.8086 63.8086 59.8649 63.8086 55C63.8086 50.1351 59.8649 46.1914 55 46.1914C50.1351 46.1914 46.1914 50.1351 46.1914 55C46.1914 59.8649 50.1351 63.8086 55 63.8086Z" fill="#E1E6ED"/>
<path d="M90.9563 45.1171C90.9563 45.1171 93.5344 41.2499 92.2454 37.8124C90.9563 35.664 90.5266 36.0937 90.5266 36.0937C90.5266 36.0937 88.8079 31.7968 82.3625 32.2265C75.9172 32.6562 74.1985 38.6718 74.1985 40.8202L75.0579 40.3906C75.0579 40.3906 73.7688 42.1093 75.0579 44.6874C75.0579 44.6874 76.7766 40.8202 78.4954 40.8202L78.0657 42.539C78.0657 42.539 84.0813 42.9687 87.5188 39.5312L86.2297 41.6796C86.2297 41.6796 88.8079 41.2499 89.6672 39.9609C89.6672 39.9609 89.2375 42.539 90.9563 45.1171Z" fill="#2662FA"/>
<path d="M43.6907 45.1171C43.6907 45.1171 46.2688 41.2499 44.9797 37.8124C43.6907 35.664 43.261 36.0937 43.261 36.0937C43.261 36.0937 41.5422 31.7968 35.0969 32.2265C28.6516 32.6562 26.9329 38.6718 26.9329 40.8202L27.7922 40.3906C27.7922 40.3906 26.5032 42.1093 27.7922 44.6874C27.7922 44.6874 29.511 40.8202 31.2297 40.8202L30.8 42.539C30.8 42.539 36.8157 42.9687 40.2532 39.5312L38.9641 41.6796C38.9641 41.6796 41.5422 41.2499 42.4016 39.9609C42.4016 39.9609 41.9719 42.539 43.6907 45.1171Z" fill="#2662FA"/>
<path d="M61.7374 25.7811C61.7374 25.7811 58.7296 28.7889 55.2921 29.2186C51.8546 29.6483 52.2843 34.3748 52.2843 34.3748C52.2843 34.3748 50.5656 35.6639 51.4249 37.8123C51.5796 38.1991 52.5292 39.4967 52.714 39.9608C53.3199 41.4819 53.2425 42.41 53.5734 43.3983C53.5734 43.3983 53.1437 46.4061 51.4249 46.4061C51.4249 46.4061 52.2843 43.3983 49.2765 38.6717C46.2687 33.9452 50.1359 24.9217 52.2843 22.7733C54.4328 20.6248 59.589 16.328 65.1749 19.7655C70.7609 23.203 71.6202 29.2186 70.3312 37.3827C69.0421 45.5467 69.4718 47.2655 69.4718 47.2655C69.4718 47.2655 66.0343 45.5467 65.6046 43.828C65.6046 43.828 67.3234 42.1092 67.3234 39.1014C67.3234 39.1014 69.0421 38.6717 68.6124 36.0936C68.1827 33.5155 66.8937 33.9452 66.8937 33.9452C66.8937 33.9452 68.1827 27.9295 61.7374 25.7811Z" fill="#FFB711"/>
<path d="M91.3731 77.7604L89.3751 75.7623C88.4856 74.8729 88.4856 73.4291 89.3751 72.5397L91.3731 70.5416C92.2626 69.6521 93.7063 69.6521 94.5958 70.5416L96.5938 72.5397C97.4833 73.4291 97.4833 74.8729 96.5938 75.7623L94.5958 77.7604C93.7063 78.6498 92.2626 78.6498 91.3731 77.7604Z" stroke="#010101" stroke-miterlimit="10" stroke-linecap="round"/>
<path d="M27.7922 88.0859C40.1323 88.0859 50.136 78.0823 50.136 65.7422C50.136 53.4021 40.1323 43.3984 27.7922 43.3984C15.4521 43.3984 5.44849 53.4021 5.44849 65.7422C5.44849 78.0823 15.4521 88.0859 27.7922 88.0859Z" fill="#E1E6ED"/>
<path d="M34.7791 16.8912L35.7373 15.9287" stroke="#010101" stroke-miterlimit="10" stroke-linecap="round"/>
<path d="M39.4756 16.8912L40.4381 15.9287" stroke="#010101" stroke-miterlimit="10" stroke-linecap="round"/>
<path d="M44.1763 16.8912L45.1388 15.9287" stroke="#010101" stroke-miterlimit="10" stroke-linecap="round"/>
<path d="M34.7791 21.5919L35.7373 20.6294" stroke="#010101" stroke-miterlimit="10" stroke-linecap="round"/>
<path d="M39.4756 21.5919L40.4381 20.6294" stroke="#010101" stroke-miterlimit="10" stroke-linecap="round"/>
<path d="M44.1763 21.5919L45.1388 20.6294" stroke="#010101" stroke-miterlimit="10" stroke-linecap="round"/>
<path d="M34.7791 26.5592L35.7373 25.5967" stroke="#010101" stroke-miterlimit="10" stroke-linecap="round"/>
<path d="M39.4756 26.5592L40.4381 25.5967" stroke="#010101" stroke-miterlimit="10" stroke-linecap="round"/>
<path d="M44.1763 26.5592L45.1388 25.5967" stroke="#010101" stroke-miterlimit="10" stroke-linecap="round"/>
<path d="M79.3547 21.4844V23.6328" stroke="#010101" stroke-miterlimit="10" stroke-linecap="round"/>
<path d="M79.3547 15.8984V18.0469" stroke="#010101" stroke-miterlimit="10" stroke-linecap="round"/>
<path d="M77.636 19.7656H75.4875" stroke="#010101" stroke-miterlimit="10" stroke-linecap="round"/>
<path d="M83.2219 19.7656H81.0735" stroke="#010101" stroke-miterlimit="10" stroke-linecap="round"/>
<path d="M15.3313 57.1484V59.2969" stroke="#010101" stroke-miterlimit="10" stroke-linecap="round"/>
<path d="M15.3313 51.5625V53.7109" stroke="#010101" stroke-miterlimit="10" stroke-linecap="round"/>
<path d="M13.6125 55.4297H11.4641" stroke="#010101" stroke-miterlimit="10" stroke-linecap="round"/>
<path d="M19.1985 55.4297H17.05" stroke="#010101" stroke-miterlimit="10" stroke-linecap="round"/>
<path d="M77.4856 60.311C76.9356 60.7149 76.3125 61.1833 75.4875 61.6517" stroke="#010101" stroke-miterlimit="10" stroke-linecap="round" stroke-linejoin="round"/>
<path d="M96.2502 63.4648C102.39 64.9773 104.204 67.6457 104.556 68.273" stroke="#010101" stroke-miterlimit="10" stroke-linecap="round" stroke-linejoin="round"/>
<path d="M88.9197 60.311C90.0626 61.1532 91.5193 62.2747 94.497 63.0524" stroke="#010101" stroke-miterlimit="10" stroke-linecap="round" stroke-linejoin="round"/>
<path d="M81.155 62.1843C83.2992 62.6698 86.1222 62.5237 88.8507 60.2851C88.4082 59.1894 88.4167 57.7413 88.5328 56.5854" stroke="#010101" stroke-miterlimit="10" stroke-linecap="round" stroke-linejoin="round"/>
<path d="M77.8036 56.1987C77.9711 57.3933 78.0743 59.1206 77.55 60.2894C77.5543 60.5128 78.418 61.2261 79.793 61.7675" stroke="#010101" stroke-miterlimit="10" stroke-linecap="round" stroke-linejoin="round"/>
<path d="M85.6798 32.6221C90.7458 33.692 90.4107 36.1369 90.4107 36.1369C90.4107 36.1369 92.5763 36.76 92.456 39.3854C92.3357 42.0107 92.3916 43.2826 91.3431 44.5201C90.8189 44.7178 90.8189 44.9154 90.8189 44.9154C90.8189 44.9154 89.2677 42.2729 89.8693 39.7764C89.8693 39.7764 89.1087 40.9623 86.6337 41.16C86.6337 41.16 87.8455 40.2018 87.9658 39.5787C87.9658 39.5787 82.831 43.1365 78.0744 42.3459C78.0744 42.3459 79.024 41.5553 79.024 40.567C79.024 40.567 77.1205 40.9623 75.7884 44.7178L75.0279 44.5201C75.0279 44.5201 74.2673 41.9506 75.0279 40.1717C74.6455 40.1717 74.2673 40.7647 74.2673 40.7647C74.2673 40.7647 74.4564 37.4045 76.3599 35.4279C76.3599 35.4279 77.6146 33.851 79.9736 32.9572" stroke="#010101" stroke-miterlimit="10" stroke-linecap="round" stroke-linejoin="round"/>
<path d="M81.3054 32.5618C82.255 32.3556 83.3335 32.2825 84.541 32.4286" stroke="#010101" stroke-miterlimit="10" stroke-linecap="round" stroke-linejoin="round"/>
<path d="M75.6036 44.5932C74.5164 44.692 73.8032 45.951 73.9364 47.4076C74.0438 48.5893 74.6754 49.5389 75.4918 49.801C75.8914 55.0947 79.5352 59.1939 83.1746 59.1939C87.0418 59.1939 90.4192 55.0732 90.8575 49.7623C91.6223 49.4572 92.211 48.5377 92.3184 47.4033C92.4516 45.9467 91.7383 44.6877 90.6512 44.5889" stroke="#010101" stroke-miterlimit="10" stroke-linecap="round" stroke-linejoin="round"/>
<path d="M30.2199 60.311C28.9652 61.2349 27.341 62.4938 23.7402 63.2673C16.9168 64.7325 14.9531 67.6157 14.5879 68.2731" stroke="#010101" stroke-miterlimit="10" stroke-linecap="round" stroke-linejoin="round"/>
<path d="M41.6538 60.311C42.294 60.7794 43.0288 61.338 44.0729 61.8751" stroke="#010101" stroke-miterlimit="10" stroke-linecap="round" stroke-linejoin="round"/>
<path d="M33.8894 62.1843C36.0335 62.6698 38.8566 62.5237 41.5851 60.2851C41.1425 59.1894 41.1511 57.7413 41.2671 56.5854" stroke="#010101" stroke-miterlimit="10" stroke-linecap="round" stroke-linejoin="round"/>
<path d="M30.5379 56.1987C30.7055 57.3933 30.8086 59.1206 30.2844 60.2894C30.2887 60.5128 31.1524 61.2261 32.5274 61.7675" stroke="#010101" stroke-miterlimit="10" stroke-linecap="round" stroke-linejoin="round"/>
<path d="M38.414 32.6221C43.48 33.692 43.1448 36.1369 43.1448 36.1369C43.1448 36.1369 45.3104 36.76 45.1901 39.3854C45.0698 42.0107 45.1257 43.2826 44.0772 44.5201C43.553 44.7178 43.553 44.9154 43.553 44.9154C43.553 44.9154 42.0019 42.2729 42.6034 39.7764C42.6034 39.7764 41.8429 40.9623 39.3679 41.16C39.3679 41.16 40.5796 40.2018 40.6999 39.5787C40.6999 39.5787 35.5651 43.1365 30.8085 42.3459C30.8085 42.3459 31.7581 41.5553 31.7581 40.567C31.7581 40.567 29.8546 40.9623 28.5226 44.7178L27.762 44.5201C27.762 44.5201 27.0015 41.9506 27.762 40.1717C27.3796 40.1717 27.0015 40.7647 27.0015 40.7647C27.0015 40.7647 27.1905 37.4045 29.094 35.4279C29.094 35.4279 30.3487 33.851 32.7077 32.9572" stroke="#010101" stroke-miterlimit="10" stroke-linecap="round" stroke-linejoin="round"/>
<path d="M34.0398 32.5618C34.9894 32.3556 36.0679 32.2825 37.2753 32.4286" stroke="#010101" stroke-miterlimit="10" stroke-linecap="round" stroke-linejoin="round"/>
<path d="M28.3379 44.5932C27.2508 44.692 26.5375 45.951 26.6707 47.4076C26.7782 48.5893 27.4098 49.5389 28.2262 49.801C28.6258 55.0947 32.2696 59.1939 35.909 59.1939C39.7762 59.1939 43.1536 55.0732 43.5918 49.7623C44.3567 49.4572 44.9454 48.5377 45.0528 47.4033C45.186 45.9467 44.4727 44.6877 43.3856 44.5889" stroke="#010101" stroke-miterlimit="10" stroke-linecap="round" stroke-linejoin="round"/>
<path d="M65.957 44.0555C66.275 45.727 69.2656 46.9215 69.2656 46.9215C68.6039 41.6277 70.5891 38.9809 70.748 32.4023" stroke="#010101" stroke-miterlimit="10" stroke-linecap="round" stroke-linejoin="round"/>
<path d="M70.2495 26.6406C70.6019 27.8738 70.7952 29.2316 70.8081 30.7227" stroke="#010101" stroke-miterlimit="10" stroke-linecap="round" stroke-linejoin="round"/>
<path d="M53.6079 43.1748C53.4575 45.0869 51.1801 46.4834 51.1801 46.4834C51.1801 46.4834 52.4563 44.9666 50.0758 40.3088C48.0005 36.2482 47.7298 31.1306 50.2907 25.5791C52.8516 20.0275 59.688 17.0369 63.959 19.1724C66.4684 20.4271 68.4579 22.3435 69.6352 24.9646" stroke="#010101" stroke-miterlimit="10" stroke-linecap="round" stroke-linejoin="round"/>
<path d="M67.1172 34.2372C67.3879 30.5548 66.2149 27.2333 61.6215 25.9185C61.6215 25.9185 58.777 28.1056 55.2364 29.4204C53.2254 30.1638 52.5379 31.9384 52.4563 34.0181" stroke="#010101" stroke-miterlimit="10" stroke-linecap="round" stroke-linejoin="round"/>
<path d="M61.6213 25.9187C61.6213 25.9187 62.9362 24.6038 62.9362 22.855L61.6213 25.9187Z" fill="white"/>
<path d="M61.6213 25.9187C61.6213 25.9187 62.9362 24.6038 62.9362 22.855" stroke="#010101" stroke-miterlimit="10" stroke-linecap="round" stroke-linejoin="round"/>
<path d="M54.2781 48.8291C53.0621 49.7229 51.4851 50.9432 47.996 51.6951C46.4621 52.026 45.1816 52.4299 44.116 52.8596" stroke="#010101" stroke-miterlimit="10" stroke-linecap="round" stroke-linejoin="round"/>
<path d="M72.4668 51.8843C73.4379 52.1249 74.2973 52.3913 75.0535 52.6792" stroke="#010101" stroke-miterlimit="10" stroke-linecap="round" stroke-linejoin="round"/>
<path d="M65.364 48.8291C66.4726 49.6455 67.882 50.7326 70.7695 51.4846" stroke="#010101" stroke-miterlimit="10" stroke-linecap="round" stroke-linejoin="round"/>
<path d="M56.2632 51.94L54.3425 48.8076" stroke="#010101" stroke-miterlimit="10" stroke-linecap="round" stroke-linejoin="round"/>
<path d="M64.986 45.2197C64.8743 46.3412 64.8657 47.7463 65.2954 48.8076L63.0266 52.4213" stroke="#010101" stroke-miterlimit="10" stroke-linecap="round" stroke-linejoin="round"/>
<path d="M54.5875 44.8418C54.7507 46.002 54.8496 47.6734 54.3425 48.8035" stroke="#010101" stroke-miterlimit="10" stroke-linecap="round" stroke-linejoin="round"/>
<path d="M52.6667 34.3105C51.614 34.4093 50.9222 35.6253 51.0511 37.039C51.1542 38.1819 51.7686 39.1015 52.5593 39.3593C52.9503 44.4897 57.1397 47.8026 60.0057 47.8026C62.6526 47.8026 67.0268 44.4683 67.4522 39.3206C68.1956 39.0241 68.7671 38.1347 68.8659 37.0347C68.9948 35.621 68.303 34.405 67.2503 34.3062" stroke="#010101" stroke-miterlimit="10" stroke-linecap="round" stroke-linejoin="round"/>
<path d="M59.9629 57.2002C50.7074 57.2002 43.2051 64.7025 43.2051 73.958C43.2051 83.2135 50.7074 90.7158 59.9629 90.7158C69.2184 90.7158 76.7207 83.2135 76.7207 73.958C76.7207 64.7068 69.2184 57.2002 59.9629 57.2002ZM59.9629 85.9893C53.3199 85.9893 47.9316 80.601 47.9316 73.958C47.9316 67.315 53.3199 61.9268 59.9629 61.9268C66.6059 61.9268 71.9941 67.315 71.9941 73.958C71.9941 80.6053 66.6102 85.9893 59.9629 85.9893Z" fill="#FFB711" stroke="#010101" stroke-miterlimit="10"/>
<path d="M60.0188 85.9375C66.6635 85.9375 72.05 80.5509 72.05 73.9062C72.05 67.2616 66.6635 61.875 60.0188 61.875C53.3741 61.875 47.9875 67.2616 47.9875 73.9062C47.9875 80.5509 53.3741 85.9375 60.0188 85.9375Z" stroke="#010101" stroke-miterlimit="10" stroke-linecap="round" stroke-linejoin="round"/>
<path d="M60.0188 79.0625C62.8665 79.0625 65.175 76.754 65.175 73.9062C65.175 71.0585 62.8665 68.75 60.0188 68.75C57.1711 68.75 54.8625 71.0585 54.8625 73.9062C54.8625 76.754 57.1711 79.0625 60.0188 79.0625Z" fill="#FFB711" stroke="#010101" stroke-miterlimit="10"/>
<path d="M60.0188 54.1406V65.3125" stroke="#010101" stroke-miterlimit="10" stroke-linecap="round" stroke-linejoin="round"/>
<path d="M60.0188 82.9297V94.1016" stroke="#010101" stroke-miterlimit="10" stroke-linecap="round" stroke-linejoin="round"/>
<path d="M79.3547 73.9062H69.0422" stroke="#010101" stroke-miterlimit="10" stroke-linecap="round" stroke-linejoin="round"/>
<path d="M50.5657 73.9062H40.2532" stroke="#010101" stroke-miterlimit="10" stroke-linecap="round" stroke-linejoin="round"/>
<path d="M26.0993 80.3773C25.27 79.548 25.27 78.1988 26.0993 77.3695C26.9286 76.5402 28.2778 76.5402 29.1071 77.3695C29.9364 78.1988 29.9364 79.548 29.1071 80.3773C28.2778 81.2066 26.9286 81.2066 26.0993 80.3773Z" fill="#E1E6ED" stroke="#010101" stroke-miterlimit="10" stroke-linecap="round"/>
</svg>
