<svg width="110" height="110" viewBox="0 0 110 110" fill="none" xmlns="http://www.w3.org/2000/svg">
<path d="M38.1348 74.4727C53.3226 74.4727 65.6348 62.1605 65.6348 46.9727C65.6348 31.7848 53.3226 19.4727 38.1348 19.4727C22.9469 19.4727 10.6348 31.7848 10.6348 46.9727C10.6348 62.1605 22.9469 74.4727 38.1348 74.4727Z" fill="#F4F8F7"/>
<path d="M84.8677 91.5137C91.9395 91.5137 97.6724 85.7808 97.6724 78.709C97.6724 71.6371 91.9395 65.9043 84.8677 65.9043C77.7958 65.9043 72.063 71.6371 72.063 78.709C72.063 85.7808 77.7958 91.5137 84.8677 91.5137Z" fill="#F4F8F7"/>
<path d="M64.3456 52.4766L50.0112 52.5024C48.8339 52.5067 47.8756 51.5485 47.8714 50.3711V50.2379C47.8671 49.0606 48.8253 48.1024 50.0026 48.0981L64.337 48.0723C65.5143 48.068 66.4725 49.0262 66.4768 50.2035V50.3367C66.4768 51.5184 65.5229 52.4766 64.3456 52.4766Z" fill="#FFB711" stroke="#010101" stroke-miterlimit="10" stroke-linecap="round"/>
<path d="M61.2389 56.9207L53.1178 56.9379C51.9361 56.9422 50.9736 55.984 50.9736 54.8024V54.6692C50.9694 53.4875 51.9276 52.525 53.1092 52.525L61.2303 52.5078C62.4119 52.5035 63.3744 53.4617 63.3744 54.6434V54.7766C63.3744 55.9582 62.4205 56.9164 61.2389 56.9207Z" stroke="#010101" stroke-miterlimit="10" stroke-linecap="round"/>
<path d="M57.1783 60.4945C55.4639 60.4988 54.0717 59.1238 54.0717 57.4309L54.0674 56.9367L60.2721 56.9238L60.2764 57.418C60.2807 59.1109 58.8928 60.4902 57.1783 60.4945Z" fill="#FFB711" stroke="#010101" stroke-miterlimit="10" stroke-linecap="round"/>
<path d="M66.9839 19.4992C66.0085 18.3648 64.5519 17.0844 62.4851 16.1777" stroke="#010101" stroke-miterlimit="10" stroke-linecap="round"/>
<path d="M69.0463 22.5961C68.926 22.2738 68.7713 21.8613 68.4834 21.3887" stroke="#010101" stroke-miterlimit="10" stroke-linecap="round"/>
<path d="M73.1198 28.1397C73.1198 18.9487 65.3425 11.571 56.014 12.2327C48.1851 12.787 41.8472 19.1034 41.2671 26.928C40.8159 33.0296 43.8022 38.4694 48.4858 41.5159C49.4784 42.1604 50.0843 43.2518 50.0843 44.4335V48.0772H64.2597V44.4378C64.2597 43.2432 64.887 42.1518 65.8882 41.4944C70.2409 38.6456 73.1198 33.73 73.1198 28.1397Z" stroke="black" stroke-miterlimit="10" stroke-linecap="round"/>
<path d="M57.4195 47.6312V39.0246C57.4195 37.568 56.2378 36.3863 54.7812 36.3863H52.766C51.2148 36.3863 49.9558 35.1273 49.9558 33.5762C49.9558 32.025 51.2148 30.766 52.766 30.7617H53.2042" stroke="#010101" stroke-miterlimit="10" stroke-linecap="round"/>
<path d="M49.148 33.3605C49.148 33.3605 44.5289 32.6902 44.7738 28.9262C45.0187 25.1578 48.843 24.7324 49.6336 24.7324" stroke="#010101" stroke-miterlimit="10" stroke-linecap="round"/>
<path d="M49.6335 26.9195C49.6335 26.9195 48.6625 21.9394 53.0968 20.964C57.5312 19.9886 58.8675 23.757 58.8675 23.757C60.3972 23.4991 61.9527 24.0792 62.9367 25.278C64.7585 27.3448 63.1171 30.1378 63.1171 30.1378" stroke="#010101" stroke-miterlimit="10" stroke-linecap="round"/>
<path d="M52.1516 26.9544C52.6715 25.5751 54.2141 24.879 55.5934 25.3989C56.9727 25.9188 57.6688 27.4614 57.1489 28.8407C57.136 28.8751 57.1231 28.9094 57.1102 28.9438" stroke="#010101" stroke-miterlimit="10" stroke-linecap="round"/>
<path d="M60.1824 28.3887C60.7582 29.7465 60.1179 31.3148 58.7601 31.8863C57.4023 32.4621 55.8339 31.8219 55.2625 30.4641" stroke="#010101" stroke-miterlimit="10" stroke-linecap="round"/>
<path d="M63.5727 28.8066C65.3516 29.6703 66.0907 31.8145 65.227 33.5934C64.3633 35.3723 62.2192 36.1113 60.4403 35.2477C59.2071 34.6461 58.425 33.3957 58.425 32.0293" stroke="#010101" stroke-miterlimit="10" stroke-linecap="round"/>
<path d="M72.5184 36.0679C72.9094 36.2097 73.2833 36.4289 73.6055 36.7296C74.2758 37.3484 74.6497 38.2207 74.6368 39.1316C75.9688 39.325 77.3266 39.3078 78.6543 39.0757C78.5856 37.3054 79.9606 35.8187 81.7266 35.7457C82.1778 35.7285 82.629 35.8058 83.0458 35.9734C83.4626 36.1367 83.845 36.3902 84.1544 36.7168C85.2329 35.9089 86.1782 34.9335 86.9559 33.8335C85.654 32.6304 85.5723 30.598 86.7754 29.296C87.3899 28.63 88.2622 28.2562 89.1688 28.2648C89.3622 26.9328 89.345 25.575 89.1129 24.2472C87.3426 24.316 85.8559 22.9367 85.7872 21.1664C85.7528 20.2597 86.1051 19.3832 86.7497 18.7515C85.9461 17.6687 84.9751 16.7234 83.8751 15.9457C82.6719 17.2433 80.6481 17.3207 79.3504 16.1218C78.6844 15.5074 78.3106 14.6351 78.3235 13.7285C76.9915 13.5351 75.6336 13.5523 74.3059 13.7843C74.3661 15.5546 72.9825 17.0414 71.2122 17.1015M73.9235 21.8625C75.2383 21.1406 76.8497 20.9902 78.3493 21.5918H78.3536C80.9661 22.6359 82.268 25.5621 81.3141 28.1875C80.3559 30.8386 77.3438 32.2652 74.6883 31.3199" stroke="black" stroke-miterlimit="10" stroke-linecap="round" stroke-linejoin="round"/>
<path d="M93.9038 53.6969V50.7578" stroke="#010101" stroke-miterlimit="10" stroke-linecap="round"/>
<path d="M88.4468 56.2188H90.9647" stroke="#010101" stroke-miterlimit="10" stroke-linecap="round"/>
<path d="M96.8428 56.2188H99.3607" stroke="#010101" stroke-miterlimit="10" stroke-linecap="round"/>
<path d="M93.9038 61.6766V58.3164" stroke="#010101" stroke-miterlimit="10" stroke-linecap="round"/>
<path d="M33.6102 41.2352C32.2051 40.35 30.6196 39.598 28.8235 39.0352" stroke="black" stroke-miterlimit="10" stroke-linecap="round" stroke-linejoin="round"/>
<path d="M44.3565 60.8648C44.3565 60.8648 43.8452 50.3934 36.6479 43.5957" stroke="black" stroke-miterlimit="10" stroke-linecap="round" stroke-linejoin="round"/>
<path d="M22.1074 32.8785V31.0566" stroke="#010101" stroke-miterlimit="10" stroke-linecap="round"/>
<path d="M17.905 35.2539H19.4476" stroke="#010101" stroke-miterlimit="10" stroke-linecap="round"/>
<path d="M24.6252 35.2539H26.3053" stroke="#010101" stroke-miterlimit="10" stroke-linecap="round"/>
<path d="M22.1074 39.4523V37.3555" stroke="#010101" stroke-miterlimit="10" stroke-linecap="round"/>
<path d="M85.8558 72.8887V97.8105H29.571V73.3184" stroke="black" stroke-miterlimit="10" stroke-linecap="round" stroke-linejoin="round"/>
<path d="M53.3112 73.3094H25.8843L29.9878 64.7285H57.419L53.3112 73.3094Z" fill="#2662FA" stroke="black" stroke-miterlimit="10" stroke-linecap="round" stroke-linejoin="round"/>
<path d="M61.6945 73.3094H89.448L85.3445 64.7285H57.5867L61.6945 73.3094Z" fill="#2662FA" stroke="black" stroke-miterlimit="10" stroke-linecap="round" stroke-linejoin="round"/>
<path d="M57.4963 65.1582V86.2086" stroke="black" stroke-miterlimit="10" stroke-linecap="round" stroke-linejoin="round"/>
<path d="M57.4963 88.7871V97.3809" stroke="black" stroke-miterlimit="10" stroke-linecap="round" stroke-linejoin="round"/>
<path d="M37.3054 87.498H42.8871" stroke="#010101" stroke-miterlimit="10" stroke-linecap="round"/>
<path d="M37.3054 90.9355H42.8871" stroke="#010101" stroke-miterlimit="10" stroke-linecap="round"/>
<path d="M45.4651 90.9355H46.3245" stroke="#010101" stroke-miterlimit="10" stroke-linecap="round"/>
<path d="M75.1135 74.6055V78.043" stroke="#010101" stroke-miterlimit="10" stroke-linecap="round"/>
<path d="M76.8323 84.025L74.5936 82.1687L72.4495 84.4891L70.0131 82.1687L67.3792 84.025V73.3086H76.8323V84.025Z" stroke="#010101" stroke-miterlimit="10" stroke-linecap="round"/>
<path d="M18.7429 55.0586L19.8257 56.1371" stroke="#010101" stroke-miterlimit="10" stroke-linecap="round"/>
<path d="M24.0366 55.0586L25.1151 56.1371" stroke="#010101" stroke-miterlimit="10" stroke-linecap="round"/>
<path d="M29.3262 55.0586L30.409 56.1371" stroke="#010101" stroke-miterlimit="10" stroke-linecap="round"/>
<path d="M18.7429 49.4648L19.8257 50.5477" stroke="#010101" stroke-miterlimit="10" stroke-linecap="round"/>
<path d="M24.0366 49.4648L25.1151 50.5477" stroke="#010101" stroke-miterlimit="10" stroke-linecap="round"/>
<path d="M29.3262 49.4648L30.409 50.5477" stroke="#010101" stroke-miterlimit="10" stroke-linecap="round"/>
<path d="M69.9661 60.8648C69.9661 60.8648 70.3528 52.9543 77.1032 50.8359" stroke="black" stroke-miterlimit="10" stroke-linecap="round" stroke-linejoin="round"/>
<path d="M82.7708 50.3668C84.0452 50.3668 85.0782 49.3337 85.0782 48.0594C85.0782 46.785 84.0452 45.752 82.7708 45.752C81.4965 45.752 80.4634 46.785 80.4634 48.0594C80.4634 49.3337 81.4965 50.3668 82.7708 50.3668Z" fill="#FFB711" stroke="#010101" stroke-miterlimit="10" stroke-linecap="round"/>
</svg>
