<svg width="110" height="110" viewBox="0 0 110 110" fill="none" xmlns="http://www.w3.org/2000/svg">
<path d="M64.7282 51.2315C71.0335 51.2315 76.145 46.1201 76.145 39.8147C76.145 33.5094 71.0335 28.3979 64.7282 28.3979C58.4229 28.3979 53.3114 33.5094 53.3114 39.8147C53.3114 46.1201 58.4229 51.2315 64.7282 51.2315Z" fill="#E1E6ED"/>
<path d="M28.716 96.2027C41.8321 96.2027 52.4648 85.57 52.4648 72.4539C52.4648 59.3378 41.8321 48.7051 28.716 48.7051C15.5999 48.7051 4.96716 59.3378 4.96716 72.4539C4.96716 85.57 15.5999 96.2027 28.716 96.2027Z" fill="#E1E6ED"/>
<path d="M73.5196 83.8965H7.52385C5.14768 83.8965 3.21838 81.9672 3.21838 79.591V77.9453H40.1672C41.2973 79.3891 43.0332 80.2355 44.868 80.2355H55.1934C57.0281 80.2355 58.7641 79.3934 59.8942 77.9453H60.0145H79.6469" stroke="#010101" stroke-miterlimit="10" stroke-linecap="round" stroke-linejoin="round"/>
<path d="M52.9676 50.8193L52.5637 55.692L53.7668 55.7135L55.404 51.6314L52.9676 50.8193Z" fill="#FFB711"/>
<path d="M47.6868 50.8193L48.095 55.692L46.8876 55.7135L45.2505 51.6314L47.6868 50.8193Z" fill="#FFB711"/>
<path d="M49.079 47.9706V50.3167L37.602 54.2741C36.4032 54.6866 35.0884 54.1065 34.5899 52.9378C34.2634 52.1815 34.3493 51.3093 34.8091 50.6261L43.9184 37.1812" stroke="#010101" stroke-miterlimit="10" stroke-linecap="round"/>
<path d="M51.1887 47.9706V50.3167L62.6657 54.2741C63.8645 54.6866 65.1793 54.1065 65.6778 52.9378C66.0043 52.1815 65.9184 51.3093 65.4586 50.6261L56.3493 37.1812" stroke="#010101" stroke-miterlimit="10" stroke-linecap="round"/>
<path d="M58.4591 39.9997C58.4591 39.9997 59.3958 34.3708 59.3958 25.9274C59.3958 17.4841 50.0157 10.9185 50.0157 10.9185C50.0157 10.9185 40.6356 17.4841 40.6356 25.9274C40.6356 34.3708 41.5723 39.9997 41.5723 39.9997" stroke="#010101" stroke-miterlimit="10" stroke-linecap="round"/>
<path d="M44.8551 51.7261L46.2645 55.4772H47.2012" fill="#FFB711"/>
<path d="M44.8551 51.7261L46.2645 55.4772H47.2012" stroke="#010101" stroke-miterlimit="10" stroke-linecap="round"/>
<path d="M52.8302 55.7133H53.7669L55.404 52.0352" fill="#FFB711"/>
<path d="M52.8302 55.7133H53.7669L55.404 52.0352" stroke="#010101" stroke-miterlimit="10" stroke-linecap="round"/>
<path d="M50.0157 28.9867C52.2298 28.9867 54.0247 27.1918 54.0247 24.9777C54.0247 22.7636 52.2298 20.9688 50.0157 20.9688C47.8016 20.9688 46.0067 22.7636 46.0067 24.9777C46.0067 27.1918 47.8016 28.9867 50.0157 28.9867Z" fill="#FFB711" stroke="#010101" stroke-miterlimit="10" stroke-linecap="round"/>
<path d="M50.252 41.1038C51.5477 41.1038 52.5981 40.0534 52.5981 38.7577C52.5981 37.462 51.5477 36.4116 50.252 36.4116C48.9563 36.4116 47.9059 37.462 47.9059 38.7577C47.9059 40.0534 48.9563 41.1038 50.252 41.1038Z" fill="white" stroke="#010101" stroke-miterlimit="10" stroke-linecap="round"/>
<path d="M51.8935 62.5108H48.138L47.2013 51.2573H52.8302L51.8935 62.5108Z" fill="#FFB711" stroke="#010101" stroke-miterlimit="10" stroke-linecap="round"/>
<path d="M50.3293 64.4272V69.7081" stroke="#010101" stroke-miterlimit="10" stroke-linecap="round"/>
<path d="M43.6262 59.7568V63.0053" stroke="#010101" stroke-miterlimit="10" stroke-linecap="round"/>
<path d="M56.2161 59.7568V62.1932" stroke="#010101" stroke-miterlimit="10" stroke-linecap="round"/>
<path d="M56.2161 65.4414V69.098" stroke="#010101" stroke-miterlimit="10" stroke-linecap="round"/>
<path d="M61.3466 30.8042H85.8301C87.854 30.8042 89.4911 32.4456 89.4911 34.4651V65.1276" stroke="#010101" stroke-miterlimit="10" stroke-linecap="round" stroke-linejoin="round"/>
<path d="M10.7723 46.8229V34.4651C10.7723 32.4413 12.4137 30.8042 14.4333 30.8042H37.5462" stroke="#010101" stroke-miterlimit="10" stroke-linecap="round" stroke-linejoin="round"/>
<path d="M10.7723 77.9454V66.0474" stroke="#010101" stroke-miterlimit="10" stroke-linecap="round" stroke-linejoin="round"/>
<path d="M38.9212 39.0459H11.4598" stroke="#010101" stroke-miterlimit="10" stroke-linecap="round"/>
<path d="M75.075 39.0459H60.4313" stroke="#010101" stroke-miterlimit="10" stroke-linecap="round"/>
<path d="M89.2633 39.0459H78.2805" stroke="#010101" stroke-miterlimit="10" stroke-linecap="round"/>
<path d="M19.929 63.1642C19.929 63.1642 28.0071 61.4626 28.4325 68.69C28.4325 68.69 38.6375 60.6118 43.7379 73.365C43.7379 73.365 49.6891 68.2646 56.07 73.365C56.07 73.365 59.0477 62.3091 70.5247 68.2646C70.5247 68.2646 73.077 61.0372 79.0282 62.7388C79.0282 62.7388 82.0059 53.8099 88.8079 54.6607" stroke="#010101" stroke-miterlimit="10" stroke-linecap="round" stroke-linejoin="round"/>
<path d="M100.401 77.2495C100.59 74.9034 99.7993 72.4972 98.0333 70.6839C94.7934 67.3624 89.4309 67.2937 86.1051 70.5292C84.3606 72.2308 83.5098 74.4952 83.5571 76.7468C83.5958 78.6718 82.8352 80.5238 81.4731 81.8859L80.5579 82.8011L85.7614 88.0046L86.6293 87.1367C88.0086 85.7574 89.8821 84.971 91.8329 85.0054C94.0415 85.0441 96.2672 84.2234 97.9559 82.5347C98.8497 81.641 99.5028 80.5925 99.911 79.4753" fill="#2662FA"/>
<path d="M100.401 77.2495C100.59 74.9034 99.7993 72.4972 98.0333 70.6839C94.7934 67.3624 89.4309 67.2937 86.1051 70.5292C84.3606 72.2308 83.5098 74.4952 83.5571 76.7468C83.5958 78.6718 82.8352 80.5238 81.4731 81.8859L80.5579 82.8011L85.7614 88.0046L86.6293 87.1366C88.0086 85.7574 89.8821 84.971 91.8329 85.0054C94.0415 85.0441 96.2672 84.2234 97.9559 82.5347C98.8497 81.6409 99.5028 80.5925 99.911 79.4753" stroke="#010101" stroke-miterlimit="10" stroke-linecap="round"/>
<path d="M79.6684 90.8232L77.7391 88.8939C76.8324 87.9873 76.8324 86.5135 77.7391 85.6068L78.7102 84.6357L83.9266 89.8521L82.9555 90.8232C82.0488 91.7299 80.575 91.7299 79.6684 90.8232Z" stroke="#010101" stroke-miterlimit="10" stroke-linecap="round"/>
<path d="M94.6773 71.7579C94.6773 71.7579 92.0476 70.5892 89.4867 71.599" stroke="white" stroke-miterlimit="10" stroke-linecap="round"/>
<path d="M100.117 67.7062L102.197 65.6265" stroke="#010101" stroke-miterlimit="10" stroke-linecap="round"/>
<path d="M103.744 74.7271H106.777" stroke="#010101" stroke-miterlimit="10" stroke-linecap="round"/>
<path d="M93.6289 64.6122V61.5786" stroke="#010101" stroke-miterlimit="10" stroke-linecap="round"/>
<path d="M15.5246 64.1569H5.92969C4.50742 64.1569 3.35156 63.0011 3.35156 61.5788V51.9839C3.35156 50.5616 4.50742 49.4058 5.92969 49.4058H15.5246C16.9469 49.4058 18.1027 50.5616 18.1027 51.9839V61.5788C18.1027 63.0011 16.9469 64.1569 15.5246 64.1569Z" fill="#FFB711" stroke="#010101" stroke-miterlimit="10" stroke-linecap="round" stroke-linejoin="round"/>
<path d="M7.85901 57.1875L9.70237 59.0309L14.2098 54.5234" stroke="#010101" stroke-miterlimit="10" stroke-linecap="round" stroke-linejoin="round"/>
<path d="M67.9165 24.8444L66.8938 23.8218" stroke="#010101" stroke-miterlimit="10" stroke-linecap="round"/>
<path d="M67.9165 19.847L66.8938 18.8286" stroke="#010101" stroke-miterlimit="10" stroke-linecap="round"/>
<path d="M67.9165 14.8542L66.8938 13.8315" stroke="#010101" stroke-miterlimit="10" stroke-linecap="round"/>
<path d="M72.9095 24.8444L71.8911 23.8218" stroke="#010101" stroke-miterlimit="10" stroke-linecap="round"/>
<path d="M72.9095 19.847L71.8911 18.8286" stroke="#010101" stroke-miterlimit="10" stroke-linecap="round"/>
<path d="M72.9095 14.8542L71.8911 13.8315" stroke="#010101" stroke-miterlimit="10" stroke-linecap="round"/>
<path d="M78.1903 24.8444L77.1676 23.8218" stroke="#010101" stroke-miterlimit="10" stroke-linecap="round"/>
<path d="M78.1903 19.847L77.1676 18.8286" stroke="#010101" stroke-miterlimit="10" stroke-linecap="round"/>
<path d="M78.1903 14.8542L77.1676 13.8315" stroke="#010101" stroke-miterlimit="10" stroke-linecap="round"/>
<path d="M33.1804 22.9971V25.2787" stroke="#010101" stroke-miterlimit="10" stroke-linecap="round"/>
<path d="M33.1804 17.0586V19.3402" stroke="#010101" stroke-miterlimit="10" stroke-linecap="round"/>
<path d="M31.3543 21.1665H29.0726" stroke="#010101" stroke-miterlimit="10" stroke-linecap="round"/>
<path d="M37.2925 21.1665H35.0066" stroke="#010101" stroke-miterlimit="10" stroke-linecap="round"/>
<path d="M32.579 96.6152V99.0816" stroke="#010101" stroke-miterlimit="10" stroke-linecap="round"/>
<path d="M32.579 90.1958V92.6622" stroke="#010101" stroke-miterlimit="10" stroke-linecap="round"/>
<path d="M30.6024 94.6387H28.136" stroke="#010101" stroke-miterlimit="10" stroke-linecap="round"/>
<path d="M37.022 94.6387H34.5513" stroke="#010101" stroke-miterlimit="10" stroke-linecap="round"/>
</svg>
