<svg width="58" height="58" viewBox="0 0 58 58" fill="none" xmlns="http://www.w3.org/2000/svg">
<path d="M18.2266 46.5977C25.7342 46.5977 31.8203 40.5115 31.8203 33.0039C31.8203 25.4963 25.7342 19.4102 18.2266 19.4102C10.7189 19.4102 4.63281 25.4963 4.63281 33.0039C4.63281 40.5115 10.7189 46.5977 18.2266 46.5977Z" fill="#E1E6ED"/>
<path d="M43.1484 24.168C47.9033 24.168 51.7578 20.3134 51.7578 15.5586C51.7578 10.8038 47.9033 6.94922 43.1484 6.94922C38.3936 6.94922 34.5391 10.8038 34.5391 15.5586C34.5391 20.3134 38.3936 24.168 43.1484 24.168Z" fill="#E1E6ED"/>
<path d="M11.6676 33.2217H6.33883C4.77102 33.2217 3.5 34.4927 3.5 36.0605V43.1723C3.5 44.9871 4.97039 46.4575 6.78516 46.4575H8.38242C10.1972 46.4575 11.6676 44.9871 11.6676 43.1723V33.2217Z" fill="#FF3F00"/>
<path d="M42.4827 40.5122C46.6832 40.5122 50.0884 37.107 50.0884 32.9065C50.0884 28.706 46.6832 25.3008 42.4827 25.3008C38.2821 25.3008 34.877 28.706 34.877 32.9065C34.877 37.107 38.2821 40.5122 42.4827 40.5122Z" fill="#FF5C00"/>
<path d="M35.6698 29.5038C34.8157 31.1736 34.5801 33.1651 35.1623 35.1022C36.3586 39.0942 40.5658 41.3621 44.5601 40.1658C48.5544 38.9696 50.8201 34.7623 49.6238 30.768C48.4276 26.7737 44.2203 24.5081 40.226 25.7044" stroke="#04091E" stroke-width="0.75" stroke-miterlimit="10" stroke-linecap="round"/>
<path d="M38.816 26.2871C37.7534 26.858 36.8653 27.6623 36.1992 28.6162L38.816 26.2871Z" fill="#FF5C00"/>
<path d="M38.816 26.2871C37.7534 26.858 36.8653 27.6623 36.1992 28.6162" stroke="#04091E" stroke-width="0.75" stroke-miterlimit="10" stroke-linecap="round"/>
<path d="M48.5817 33.2393C48.4186 34.9362 47.5962 36.4383 46.375 37.4918" stroke="#04091E" stroke-width="0.75" stroke-miterlimit="10" stroke-linecap="round"/>
<path d="M46.7467 41.6588V48.587H45.4213C44.8798 48.587 44.5898 49.2237 44.9455 49.6315L47.6393 52.7241C47.8863 53.0073 48.3258 53.0141 48.5796 52.7377L51.4229 49.6451C51.7945 49.2395 51.5068 48.587 50.9585 48.587H49.76V38.8086" stroke="#04091E" stroke-width="0.75" stroke-miterlimit="10" stroke-linecap="round"/>
<path d="M37.496 24.1319V18.7805H38.8213C39.3628 18.7805 39.6528 18.1439 39.2971 17.7361L36.6033 14.6435C36.3563 14.3603 35.9168 14.3535 35.6631 14.6299L32.8197 17.7225C32.4481 18.128 32.7359 18.7805 33.2842 18.7805H34.4827V27.7252" stroke="#04091E" stroke-width="0.75" stroke-miterlimit="10" stroke-linecap="round"/>
<path d="M3.39844 20.8558L3.90367 20.3506" stroke="#04091E" stroke-width="0.75" stroke-miterlimit="10" stroke-linecap="round"/>
<path d="M5.87305 20.8558L6.37828 20.3506" stroke="#04091E" stroke-width="0.75" stroke-miterlimit="10" stroke-linecap="round"/>
<path d="M8.34375 20.8558L8.84898 20.3506" stroke="#04091E" stroke-width="0.75" stroke-miterlimit="10" stroke-linecap="round"/>
<path d="M3.39844 23.3295L3.90367 22.8242" stroke="#04091E" stroke-width="0.75" stroke-miterlimit="10" stroke-linecap="round"/>
<path d="M5.87305 23.3295L6.37828 22.8242" stroke="#04091E" stroke-width="0.75" stroke-miterlimit="10" stroke-linecap="round"/>
<path d="M8.34375 23.3295L8.84898 22.8242" stroke="#04091E" stroke-width="0.75" stroke-miterlimit="10" stroke-linecap="round"/>
<path d="M3.39844 25.944L3.90367 25.4365" stroke="#04091E" stroke-width="0.75" stroke-miterlimit="10" stroke-linecap="round"/>
<path d="M5.87305 25.944L6.37828 25.4365" stroke="#04091E" stroke-width="0.75" stroke-miterlimit="10" stroke-linecap="round"/>
<path d="M8.34375 25.944L8.84898 25.4365" stroke="#04091E" stroke-width="0.75" stroke-miterlimit="10" stroke-linecap="round"/>
<path d="M18.1746 46.1758H8.56836" stroke="#04091E" stroke-width="0.75" stroke-miterlimit="10" stroke-linecap="round"/>
<path d="M23.7852 46.1758H20.3438" stroke="#04091E" stroke-width="0.75" stroke-miterlimit="10" stroke-linecap="round"/>
<path d="M41.8674 42.4199C41.224 44.5927 39.2121 46.1763 36.8309 46.1763H26.1055" stroke="#04091E" stroke-width="0.75" stroke-miterlimit="10" stroke-linecap="round"/>
<path d="M42.082 11.541V23.6213" stroke="#04091E" stroke-width="0.75" stroke-miterlimit="10" stroke-linecap="round"/>
<path d="M10.2587 33.2213H7.2907C5.35133 33.2213 3.78125 34.7936 3.78125 36.7307V42.1003C3.78125 44.3546 5.60961 46.1829 7.86391 46.1829C10.1182 46.1829 11.9466 44.3546 11.9466 42.1003V9.5659C11.9466 7.07824 13.963 5.05957 16.4529 5.05957H42.0794" stroke="#04091E" stroke-width="0.75" stroke-miterlimit="10" stroke-linecap="round"/>
<path d="M44.3365 5.05957H17.8627C17.5727 5.05957 17.2917 5.08902 17.0176 5.1434C18.9456 5.53535 20.3979 7.2391 20.3979 9.2827V11.5234H48.5596V9.2827C48.5596 6.95137 46.6678 5.05957 44.3365 5.05957Z" fill="#FF3F00" stroke="#04091E" stroke-width="0.75" stroke-miterlimit="10" stroke-linecap="round"/>
<path d="M18.3967 33.1596C19.3126 33.1596 20.0552 32.4171 20.0552 31.5012C20.0552 30.5853 19.3126 29.8428 18.3967 29.8428C17.4808 29.8428 16.7383 30.5853 16.7383 31.5012C16.7383 32.4171 17.4808 33.1596 18.3967 33.1596Z" fill="#FF5C00" stroke="#04091E" stroke-width="0.75" stroke-miterlimit="10" stroke-linecap="round"/>
<path d="M23.5256 38.2895C24.4416 38.2895 25.1841 37.547 25.1841 36.6311C25.1841 35.7152 24.4416 34.9727 23.5256 34.9727C22.6097 34.9727 21.8672 35.7152 21.8672 36.6311C21.8672 37.547 22.6097 38.2895 23.5256 38.2895Z" fill="#FF5C00" stroke="#04091E" stroke-width="0.75" stroke-miterlimit="10" stroke-linecap="round"/>
<path d="M25.1848 29.8408L16.7363 38.2916" stroke="#04091E" stroke-width="0.75" stroke-miterlimit="10" stroke-linecap="round"/>
<path d="M16.7363 18.2949H28.001" stroke="#04091E" stroke-width="0.75" stroke-miterlimit="10" stroke-linecap="round"/>
<path d="M16.7363 21.3916H22.6519" stroke="#04091E" stroke-width="0.75" stroke-miterlimit="10" stroke-linecap="round"/>
<path d="M16.7363 24.4912H25.1848" stroke="#04091E" stroke-width="0.75" stroke-miterlimit="10" stroke-linecap="round"/>
<path d="M22.5332 9.49805H31.8268" stroke="white" stroke-width="0.75" stroke-miterlimit="10" stroke-linecap="round"/>
<path d="M33.5176 9.49805H36.0528" stroke="white" stroke-width="0.75" stroke-miterlimit="10" stroke-linecap="round"/>
<path d="M51.834 23.1455V24.6839" stroke="#04091E" stroke-width="0.75" stroke-miterlimit="10" stroke-linecap="round"/>
<path d="M51.834 19.1514V20.6875" stroke="#04091E" stroke-width="0.75" stroke-miterlimit="10" stroke-linecap="round"/>
<path d="M50.6045 21.918H49.0684" stroke="#04091E" stroke-width="0.75" stroke-miterlimit="10" stroke-linecap="round"/>
<path d="M54.6005 21.918H53.0645" stroke="#04091E" stroke-width="0.75" stroke-miterlimit="10" stroke-linecap="round"/>
</svg>
