<svg width="58" height="58" viewBox="0 0 58 58" fill="none" xmlns="http://www.w3.org/2000/svg">
<path d="M16.1704 41.4472C22.6632 41.4472 27.9267 36.1837 27.9267 29.6909C27.9267 23.1981 22.6632 17.9346 16.1704 17.9346C9.67755 17.9346 4.41406 23.1981 4.41406 29.6909C4.41406 36.1837 9.67755 41.4472 16.1704 41.4472Z" fill="#E1E6ED"/>
<path d="M39.9105 37.825C43.0325 37.825 45.5633 35.2942 45.5633 32.1723C45.5633 29.0503 43.0325 26.5195 39.9105 26.5195C36.7886 26.5195 34.2578 29.0503 34.2578 32.1723C34.2578 35.2942 36.7886 37.825 39.9105 37.825Z" fill="#E1E6ED"/>
<path d="M46.8034 28.558C48.9882 28.558 50.7592 26.787 50.7592 24.6023C50.7592 22.4175 48.9882 20.6465 46.8034 20.6465C44.6187 20.6465 42.8477 22.4175 42.8477 24.6023C42.8477 26.787 44.6187 28.558 46.8034 28.558Z" fill="#FF3F00" stroke="#010101" stroke-width="0.75" stroke-miterlimit="10" stroke-linecap="round"/>
<path d="M7.1875 25.4642L7.69273 24.959" stroke="#010101" stroke-width="0.75" stroke-miterlimit="10" stroke-linecap="round"/>
<path d="M9.66211 25.4642L10.1673 24.959" stroke="#010101" stroke-width="0.75" stroke-miterlimit="10" stroke-linecap="round"/>
<path d="M12.1328 25.4642L12.638 24.959" stroke="#010101" stroke-width="0.75" stroke-miterlimit="10" stroke-linecap="round"/>
<path d="M7.1875 27.9359L7.69273 27.4307" stroke="#010101" stroke-width="0.75" stroke-miterlimit="10" stroke-linecap="round"/>
<path d="M9.66211 27.9359L10.1673 27.4307" stroke="#010101" stroke-width="0.75" stroke-miterlimit="10" stroke-linecap="round"/>
<path d="M12.1328 27.9359L12.638 27.4307" stroke="#010101" stroke-width="0.75" stroke-miterlimit="10" stroke-linecap="round"/>
<path d="M7.1875 30.5502L7.69273 30.0449" stroke="#010101" stroke-width="0.75" stroke-miterlimit="10" stroke-linecap="round"/>
<path d="M9.66211 30.5502L10.1673 30.0449" stroke="#010101" stroke-width="0.75" stroke-miterlimit="10" stroke-linecap="round"/>
<path d="M12.1328 30.5502L12.638 30.0449" stroke="#010101" stroke-width="0.75" stroke-miterlimit="10" stroke-linecap="round"/>
<path d="M40.8125 16.124V17.2523" stroke="#010101" stroke-width="0.75" stroke-miterlimit="10" stroke-linecap="round"/>
<path d="M40.8125 13.1836V14.3141" stroke="#010101" stroke-width="0.75" stroke-miterlimit="10" stroke-linecap="round"/>
<path d="M39.9079 15.2178H38.7773" stroke="#010101" stroke-width="0.75" stroke-miterlimit="10" stroke-linecap="round"/>
<path d="M42.847 15.2178H41.7188" stroke="#010101" stroke-width="0.75" stroke-miterlimit="10" stroke-linecap="round"/>
<path d="M32.8561 33.5275C32.8561 33.5275 34.1067 32.4921 34.0206 31.212C33.8054 30.3647 33.6173 30.4644 33.6173 30.4644C33.6173 30.4644 33.4746 28.8535 31.2747 28.3505C29.0748 27.8476 27.8966 29.6873 27.6814 30.4055L28.0122 30.3488C28.0122 30.3488 27.4095 30.7951 27.5817 31.7852C27.5817 31.7852 28.5446 30.6637 29.1201 30.8359L28.8029 31.3683C28.8029 31.3683 30.7717 32.116 32.267 31.3117L31.6191 31.9008C31.6191 31.9008 32.5253 32.0163 32.9422 31.6697C32.9422 31.6742 32.5389 32.4921 32.8561 33.5275Z" fill="#FF3F00"/>
<path d="M32.7871 40.1973C34.6902 41.321 35.0278 42.3927 35.0822 42.6396" stroke="#010101" stroke-width="0.75" stroke-miterlimit="10" stroke-linecap="round" stroke-linejoin="round"/>
<path d="M30.6504 38.4072C30.9495 38.8037 31.3233 39.3248 32.2409 39.8844" stroke="#010101" stroke-width="0.75" stroke-miterlimit="10" stroke-linecap="round" stroke-linejoin="round"/>
<path d="M26.8257 37.2598C26.3137 37.4433 25.643 37.7016 24.3607 37.5973C21.9297 37.4025 20.9849 38.1705 20.7969 38.3518" stroke="#010101" stroke-width="0.75" stroke-miterlimit="10" stroke-linecap="round" stroke-linejoin="round"/>
<path d="M27.8652 38.2536C28.5336 38.632 29.492 38.8653 30.6293 38.3918C30.5908 37.9817 30.7403 37.4969 30.8944 37.123" stroke="#010101" stroke-width="0.75" stroke-miterlimit="10" stroke-linecap="round" stroke-linejoin="round"/>
<path d="M27.3454 35.916C27.282 36.3329 27.1438 36.922 26.8493 37.2595C26.8266 37.3343 27.0464 37.6605 27.4519 37.98" stroke="#010101" stroke-width="0.75" stroke-miterlimit="10" stroke-linecap="round" stroke-linejoin="round"/>
<path d="M32.348 28.8196C33.9362 29.6851 33.5782 30.469 33.5782 30.469C33.5782 30.469 34.2398 30.8949 33.9362 31.7604C33.6326 32.6259 33.5238 33.0586 33.048 33.3667C32.8532 33.3803 32.8328 33.446 32.8328 33.446C32.8328 33.446 32.5791 32.4061 33.0299 31.6312C33.0299 31.6312 32.6425 32.0051 31.7952 31.8238C31.7952 31.8238 32.3095 31.5723 32.4114 31.3752C32.4114 31.3752 30.3361 32.0504 28.8249 31.3073C28.8249 31.3073 29.2214 31.1373 29.3211 30.8066C29.3211 30.8066 28.6459 30.7477 27.8235 31.8714L27.5879 31.7287C27.5879 31.7287 27.5902 30.793 28.0252 30.2741C27.8983 30.2356 27.7102 30.3965 27.7102 30.3965C27.7102 30.3965 28.1112 29.2909 28.945 28.8219C28.945 28.8219 29.5227 28.4209 30.4018 28.3574" stroke="#010101" stroke-width="0.75" stroke-miterlimit="10" stroke-linecap="round" stroke-linejoin="round"/>
<path d="M30.8887 28.3594C31.2263 28.3866 31.5955 28.4704 31.983 28.6403" stroke="#010101" stroke-width="0.75" stroke-miterlimit="10" stroke-linecap="round" stroke-linejoin="round"/>
<path d="M27.7727 31.8128C27.3989 31.7381 27.0342 32.087 26.9322 32.5877C26.8506 32.9932 26.9662 33.3738 27.2109 33.5438C26.8144 35.354 27.6209 37.0917 28.8376 37.4588C30.1313 37.8462 31.6742 36.8063 32.3538 35.0753C32.6416 35.0504 32.9293 34.8012 33.0788 34.4342C33.2692 33.9606 33.1559 33.469 32.8047 33.3263" stroke="#010101" stroke-width="0.75" stroke-miterlimit="10" stroke-linecap="round" stroke-linejoin="round"/>
<path d="M47.7212 38.5317C47.7212 38.5317 48.274 37.4918 47.8616 36.6558C47.4833 36.146 47.3858 36.2661 47.3858 36.2661C47.3858 36.2661 46.8444 35.2262 45.229 35.4958C43.6136 35.7677 43.3326 37.3264 43.387 37.8702L43.5932 37.741C43.5932 37.741 43.3123 38.2078 43.7019 38.824C43.7019 38.824 44.0373 37.8045 44.4723 37.7614L44.4065 38.2055C44.4065 38.2055 45.9358 38.1624 46.7152 37.2086L46.4433 37.7841C46.4433 37.7841 47.0823 37.6096 47.268 37.263C47.2658 37.263 47.2227 37.9246 47.7212 38.5317Z" fill="#FF3F00"/>
<path d="M49.5176 43.0264C50.7795 43.2076 51.3686 43.6404 51.611 43.885" stroke="#010101" stroke-width="0.75" stroke-miterlimit="10" stroke-linecap="round" stroke-linejoin="round"/>
<path d="M47.5898 42.417C47.9002 42.6005 48.2945 42.8475 49.0648 42.9675" stroke="#010101" stroke-width="0.75" stroke-miterlimit="10" stroke-linecap="round" stroke-linejoin="round"/>
<path d="M45.6797 43.0855C46.2325 43.1535 46.9416 43.047 47.5738 42.4127C47.4333 42.1476 47.3993 41.7828 47.3993 41.4883" stroke="#010101" stroke-width="0.75" stroke-miterlimit="10" stroke-linecap="round" stroke-linejoin="round"/>
<path d="M44.6836 41.6582C44.7561 41.955 44.8263 42.3877 44.7221 42.6959C44.7289 42.7525 44.9645 42.9111 45.3248 43.013" stroke="#010101" stroke-width="0.75" stroke-miterlimit="10" stroke-linecap="round" stroke-linejoin="round"/>
<path d="M46.0765 35.5137C47.3815 35.6564 47.3589 36.2817 47.3589 36.2817C47.3589 36.2817 47.9208 36.3837 47.957 37.0498C47.9933 37.7136 48.0386 38.0353 47.8052 38.3729C47.6783 38.4363 47.6829 38.4862 47.6829 38.4862C47.6829 38.4862 47.2252 37.8586 47.3136 37.2129C47.3136 37.2129 47.1504 37.5323 46.5319 37.6434C46.5319 37.6434 46.8129 37.3715 46.8287 37.2106C46.8287 37.2106 45.6234 38.237 44.4022 38.1577C44.4022 38.1577 44.622 37.9334 44.5971 37.6841C44.5971 37.6841 44.1281 37.8314 43.8857 38.8124L43.6886 38.7807C43.6886 38.7807 43.4325 38.1509 43.5798 37.6841C43.4847 37.6932 43.4031 37.8518 43.4031 37.8518C43.4031 37.8518 43.3668 36.9999 43.7973 36.4516C43.7973 36.4516 44.0737 36.0234 44.6469 35.7357" stroke="#010101" stroke-width="0.75" stroke-miterlimit="10" stroke-linecap="round" stroke-linejoin="round"/>
<path d="M44.9707 35.6064C45.2063 35.5317 45.4759 35.4841 45.7841 35.4909" stroke="#010101" stroke-width="0.75" stroke-miterlimit="10" stroke-linecap="round" stroke-linejoin="round"/>
<path d="M43.8351 38.7869C43.5632 38.839 43.4159 39.1743 43.4862 39.5391C43.5428 39.8336 43.7263 40.0579 43.9393 40.1032C44.1749 41.4286 45.1967 42.3711 46.1143 42.2805C47.0908 42.1831 47.8384 41.0593 47.8135 39.7067C47.9993 39.6093 48.1239 39.3646 48.1216 39.0746C48.1194 38.7031 47.9064 38.404 47.63 38.4063" stroke="#010101" stroke-width="0.75" stroke-miterlimit="10" stroke-linecap="round" stroke-linejoin="round"/>
<path d="M44.7041 42.7051C44.4118 42.9702 44.0334 43.3281 43.143 43.6136C41.4574 44.1551 41.036 44.9322 40.959 45.1066" stroke="#010101" stroke-width="0.75" stroke-miterlimit="10" stroke-linecap="round" stroke-linejoin="round"/>
<path d="M12.7379 37.9918C12.7379 37.9918 12.1353 39.0974 11.1951 39.5075C10.2548 39.9176 10.7714 41.2249 10.7714 41.2249C10.7714 41.2249 10.3908 41.7346 10.8144 42.2738C10.8915 42.3713 11.2698 42.659 11.3604 42.7768C11.6595 43.1574 11.7162 43.4293 11.8929 43.6808C11.8929 43.6808 12.022 44.5712 11.5349 44.7162C11.5349 44.7162 11.5281 43.7896 10.2775 42.6975C9.02685 41.6055 9.37123 38.7191 9.8017 37.9284C10.2322 37.1377 11.3378 35.486 13.2137 35.9935C15.0897 36.501 15.8373 38.1391 16.1545 40.5678C16.4717 42.9966 16.7368 43.4474 16.7368 43.4474C16.7368 43.4474 15.6153 43.2458 15.3502 42.7949C15.3502 42.7949 15.6946 42.1628 15.4431 41.3087C15.4431 41.3087 15.8962 41.0436 15.5587 40.3458C15.2211 39.648 14.8903 39.8791 14.8903 39.8791C14.8903 39.8791 14.7498 38.0643 12.7379 37.9918Z" fill="#FF3F00"/>
<path d="M15.4668 42.8315C15.6979 43.2801 16.6472 43.3685 16.6472 43.3685C16.0151 41.9207 16.3595 41.0032 15.8542 39.1182" stroke="#010101" stroke-width="0.75" stroke-miterlimit="10" stroke-linecap="round" stroke-linejoin="round"/>
<path d="M15.2285 37.5254C15.4324 37.8448 15.6001 38.2164 15.7292 38.6378" stroke="#010101" stroke-width="0.75" stroke-miterlimit="10" stroke-linecap="round" stroke-linejoin="round"/>
<path d="M11.8853 43.6154C12.0031 44.1705 11.473 44.7573 11.473 44.7573C11.473 44.7573 11.7086 44.2203 10.6438 43.0943C9.71486 42.1133 9.20736 40.6837 9.47244 38.8916C9.73525 37.0995 11.4277 35.6767 12.8188 35.9259C13.6367 36.0732 14.3617 36.4492 14.9167 37.0972" stroke="#010101" stroke-width="0.75" stroke-miterlimit="10" stroke-linecap="round" stroke-linejoin="round"/>
<path d="M14.9758 39.9452C14.7447 38.8759 14.133 38.0308 12.717 38.0421C12.717 38.0421 12.0917 38.903 11.1968 39.5714C10.6893 39.952 10.6417 40.5116 10.7912 41.112" stroke="#010101" stroke-width="0.75" stroke-miterlimit="10" stroke-linecap="round" stroke-linejoin="round"/>
<path d="M12.7168 38.0416C12.7168 38.0416 12.9796 37.559 12.8323 37.0605L12.7168 38.0416Z" fill="white"/>
<path d="M12.7168 38.0416C12.7168 38.0416 12.9796 37.559 12.8323 37.0605" stroke="#010101" stroke-width="0.75" stroke-miterlimit="10" stroke-linecap="round" stroke-linejoin="round"/>
<path d="M14.712 46.817L12.5664 45.1562" stroke="#010101" stroke-width="0.75" stroke-miterlimit="10" stroke-linecap="round" stroke-linejoin="round"/>
<path d="M15.2888 43.2441C15.3499 43.5727 15.4655 43.9714 15.6762 44.2365L14.8379 46.9258" stroke="#010101" stroke-width="0.75" stroke-miterlimit="10" stroke-linecap="round" stroke-linejoin="round"/>
<path d="M12.3027 44.0078C12.4455 44.3227 12.6154 44.7917 12.5655 45.1542" stroke="#010101" stroke-width="0.75" stroke-miterlimit="10" stroke-linecap="round" stroke-linejoin="round"/>
<path d="M10.8745 41.1776C10.5845 41.2932 10.4894 41.6964 10.6434 42.0884C10.768 42.4056 11.0195 42.614 11.2665 42.6208C11.8057 44.0459 13.2761 44.6372 14.0894 44.3971C14.8416 44.175 15.8068 42.861 15.4941 41.3634C15.6799 41.2161 15.7683 40.9171 15.7048 40.5953C15.6233 40.183 15.3242 39.8953 15.0184 39.9564" stroke="#010101" stroke-width="0.75" stroke-miterlimit="10" stroke-linecap="round" stroke-linejoin="round"/>
<path d="M12.5363 45.1357C12.2576 45.5028 11.8996 45.9967 10.9435 46.5178C9.12648 47.5056 8.81156 48.4889 8.76172 48.7064" stroke="#010101" stroke-width="0.75" stroke-miterlimit="10" stroke-linecap="round" stroke-linejoin="round"/>
<path d="M15.8223 44.2998C16.255 44.4584 16.8237 44.6782 17.9112 44.5966C19.9729 44.4425 20.7727 45.095 20.9312 45.2514" stroke="#010101" stroke-width="0.75" stroke-miterlimit="10" stroke-linecap="round" stroke-linejoin="round"/>
<path d="M29.8359 49.9258V51.1492" stroke="#010101" stroke-width="0.75" stroke-miterlimit="10" stroke-linecap="round"/>
<path d="M29.8359 46.749V47.9702" stroke="#010101" stroke-width="0.75" stroke-miterlimit="10" stroke-linecap="round"/>
<path d="M28.8579 48.9492H27.6367" stroke="#010101" stroke-width="0.75" stroke-miterlimit="10" stroke-linecap="round"/>
<path d="M32.0337 48.9492H30.8125" stroke="#010101" stroke-width="0.75" stroke-miterlimit="10" stroke-linecap="round"/>
<path d="M19.3828 36.5313L22.7291 25.3798C22.7722 25.2371 22.8266 25.1034 22.8923 24.9766" stroke="#010101" stroke-width="0.75" stroke-miterlimit="10" stroke-linecap="round"/>
<path d="M38.2233 37.8906L36.3927 43.9942C36.0324 45.1927 34.7705 45.8724 33.572 45.5122L21 41.7399" stroke="#010101" stroke-width="0.75" stroke-miterlimit="10" stroke-linecap="round"/>
<path d="M26.1641 24.0449L38.8674 27.8557C40.0659 28.2159 40.7456 29.4779 40.3854 30.6764L39.529 33.5311" stroke="#010101" stroke-width="0.75" stroke-miterlimit="10" stroke-linecap="round"/>
<path d="M51.5465 46.9853L41.5324 47.9867C40.2864 48.1113 39.1762 47.2028 39.0539 45.9567L38.0524 35.9426C37.9278 34.6965 38.8364 33.5864 40.0824 33.464L50.0965 32.4626C51.3426 32.338 52.4528 33.2465 52.5751 34.4926L53.5765 44.5067C53.7011 45.7505 52.7926 46.8606 51.5465 46.9853Z" stroke="#010101" stroke-width="0.75" stroke-miterlimit="10" stroke-linecap="round"/>
<path d="M20.2028 47.3561L10.5489 50.2018C9.34817 50.5552 8.08848 49.8687 7.73504 48.6679L4.89168 39.0141C4.53824 37.8133 5.22473 36.5536 6.42551 36.2002L16.0793 33.3546C17.2801 33.0011 18.5398 33.6876 18.8932 34.8884L21.7389 44.5422C22.09 45.743 21.4036 47.0027 20.2028 47.3561Z" stroke="#010101" stroke-width="0.75" stroke-miterlimit="10" stroke-linecap="round"/>
<path d="M45.5625 24.4919L46.4665 25.3959L48.501 23.3613" fill="#FF3F00"/>
<path d="M45.5625 24.4919L46.4665 25.3959L48.501 23.3613" stroke="white" stroke-width="0.75" stroke-miterlimit="10" stroke-linecap="round"/>
<path d="M10.2499 17.3078C10.8209 17.2511 11.3941 17.3259 11.9333 17.523C12.1077 17.8085 12.2459 18.1121 12.3479 18.4292C12.468 18.7985 12.6243 19.1542 12.8169 19.4918C13.2496 20.1149 13.8024 20.645 14.4459 21.0483C14.7291 21.2522 14.9919 21.4448 15.232 21.6487C15.5605 21.9591 15.8709 22.2899 16.1564 22.641C16.7364 23.4589 17.5248 24.1069 18.4402 24.5147C19.0043 24.7254 22.1354 24.8387 23.4381 24.8387H23.7689C24.034 24.8319 24.2628 24.6552 24.333 24.3992C24.333 24.3267 24.333 24.2496 24.3761 24.1771C24.5143 24.3176 24.6684 24.4422 24.8337 24.5487C24.9312 24.6121 25.0422 24.6439 25.1577 24.6439C25.3367 24.6416 25.5066 24.56 25.6199 24.4218C26.6372 23.3592 27.7405 22.3828 28.9187 21.5014C29.032 21.4267 29.1158 21.3179 29.1588 21.1888C29.1588 21.1888 29.4103 20.3052 29.6641 19.3332C30.7584 20.0174 31.9161 20.5906 33.1237 21.046C33.3208 21.0891 33.5224 21.1117 33.7241 21.1117C34.517 21.1865 35.2579 20.713 35.5275 19.9653C35.7745 19.0047 34.8727 18.0599 34.073 17.4369C33.6334 17.0948 33.1531 16.7572 32.6615 16.4264C33.2505 16.0979 33.6198 15.4794 33.6289 14.8042C33.5859 13.6035 30.7878 12.5092 30.7561 12.4978C29.843 12.1852 28.3523 11.6573 26.8932 11.1271C25.4341 10.5992 24.111 10.1303 23.1798 9.8244C22.4594 9.16284 21.9791 8.7369 21.9791 8.72557C21.7684 8.65307 21.5214 8.64854 18.243 8.75502C15.7214 8.83659 12.3456 8.94987 10.2363 8.89549L10.2499 17.3078ZM23.5084 21.2953L23.4608 21.2409C22.7879 20.5861 21.868 20.2485 20.9323 20.3165C20.8077 19.8045 20.5698 19.3287 20.2345 18.9231C20.8848 18.3953 21.4897 17.8085 22.038 17.1741C22.8151 17.8447 23.7485 18.3046 24.7545 18.5131C24.7454 18.7827 24.7726 19.05 24.8383 19.3128C24.1745 19.7999 23.7055 20.5 23.5084 21.2953Z" stroke="#010101" stroke-width="0.75" stroke-miterlimit="10" stroke-linecap="round"/>
<path d="M22.0605 17.2195C22.0605 17.2195 22.3619 16.9181 22.6609 15.416" stroke="#010101" stroke-width="0.75" stroke-miterlimit="10" stroke-linecap="round"/>
<path d="M29.5627 19.2261L29.873 16.7656L22.9629 9.85547" stroke="#010101" stroke-width="0.75" stroke-miterlimit="10" stroke-linecap="round"/>
<path d="M32.5743 16.4646L26.8672 13.7617" stroke="#010101" stroke-width="0.75" stroke-miterlimit="10" stroke-linecap="round"/>
<path d="M6.1543 19.4688H9.17438C9.67508 19.4688 10.0806 19.0633 10.0806 18.5626V7.75781C10.0806 7.25711 9.67508 6.85156 9.17438 6.85156H6.1543C5.65359 6.85156 5.24805 7.25711 5.24805 7.75781V18.5626C5.24805 19.0633 5.65586 19.4688 6.1543 19.4688Z" fill="#FF3F00"/>
<path d="M5.93359 19.4688H9.3932C9.89391 19.4688 10.2995 19.0633 10.2995 18.5626V7.75781C10.2995 7.25711 9.89391 6.85156 9.3932 6.85156H5.93359C5.43289 6.85156 5.02734 7.25711 5.02734 7.75781V18.5626C5.02734 19.0633 5.43516 19.4688 5.93359 19.4688Z" stroke="#010101" stroke-width="0.75" stroke-miterlimit="10"/>
<path d="M23.8628 20.9707C23.8628 20.9707 23.5615 21.8724 24.4632 24.5753" stroke="#010101" stroke-width="0.75" stroke-miterlimit="10"/>
<path d="M7.62 17.2664C8.19433 17.2664 8.65992 16.8008 8.65992 16.2264C8.65992 15.6521 8.19433 15.1865 7.62 15.1865C7.04567 15.1865 6.58008 15.6521 6.58008 16.2264C6.58008 16.8008 7.04567 17.2664 7.62 17.2664Z" fill="white" stroke="#010101" stroke-width="0.75" stroke-miterlimit="10"/>
<path d="M16.1704 41.4472C22.6632 41.4472 27.9267 36.1837 27.9267 29.6909C27.9267 23.1981 22.6632 17.9346 16.1704 17.9346C9.67755 17.9346 4.41406 23.1981 4.41406 29.6909C4.41406 36.1837 9.67755 41.4472 16.1704 41.4472Z" fill="#E1E6ED"/>
<path d="M39.9105 37.825C43.0325 37.825 45.5633 35.2942 45.5633 32.1723C45.5633 29.0503 43.0325 26.5195 39.9105 26.5195C36.7886 26.5195 34.2578 29.0503 34.2578 32.1723C34.2578 35.2942 36.7886 37.825 39.9105 37.825Z" fill="#E1E6ED"/>
<path d="M46.8034 28.558C48.9882 28.558 50.7592 26.787 50.7592 24.6023C50.7592 22.4175 48.9882 20.6465 46.8034 20.6465C44.6187 20.6465 42.8477 22.4175 42.8477 24.6023C42.8477 26.787 44.6187 28.558 46.8034 28.558Z" fill="#FF3F00" stroke="#010101" stroke-width="0.75" stroke-miterlimit="10" stroke-linecap="round"/>
<path d="M7.1875 25.4642L7.69273 24.959" stroke="#010101" stroke-width="0.75" stroke-miterlimit="10" stroke-linecap="round"/>
<path d="M9.66211 25.4642L10.1673 24.959" stroke="#010101" stroke-width="0.75" stroke-miterlimit="10" stroke-linecap="round"/>
<path d="M12.1328 25.4642L12.638 24.959" stroke="#010101" stroke-width="0.75" stroke-miterlimit="10" stroke-linecap="round"/>
<path d="M7.1875 27.9359L7.69273 27.4307" stroke="#010101" stroke-width="0.75" stroke-miterlimit="10" stroke-linecap="round"/>
<path d="M9.66211 27.9359L10.1673 27.4307" stroke="#010101" stroke-width="0.75" stroke-miterlimit="10" stroke-linecap="round"/>
<path d="M12.1328 27.9359L12.638 27.4307" stroke="#010101" stroke-width="0.75" stroke-miterlimit="10" stroke-linecap="round"/>
<path d="M7.1875 30.5502L7.69273 30.0449" stroke="#010101" stroke-width="0.75" stroke-miterlimit="10" stroke-linecap="round"/>
<path d="M9.66211 30.5502L10.1673 30.0449" stroke="#010101" stroke-width="0.75" stroke-miterlimit="10" stroke-linecap="round"/>
<path d="M12.1328 30.5502L12.638 30.0449" stroke="#010101" stroke-width="0.75" stroke-miterlimit="10" stroke-linecap="round"/>
<path d="M40.8125 16.124V17.2523" stroke="#010101" stroke-width="0.75" stroke-miterlimit="10" stroke-linecap="round"/>
<path d="M40.8125 13.1836V14.3141" stroke="#010101" stroke-width="0.75" stroke-miterlimit="10" stroke-linecap="round"/>
<path d="M39.9079 15.2178H38.7773" stroke="#010101" stroke-width="0.75" stroke-miterlimit="10" stroke-linecap="round"/>
<path d="M42.847 15.2178H41.7188" stroke="#010101" stroke-width="0.75" stroke-miterlimit="10" stroke-linecap="round"/>
<path d="M32.8561 33.5275C32.8561 33.5275 34.1067 32.4921 34.0206 31.212C33.8054 30.3647 33.6173 30.4644 33.6173 30.4644C33.6173 30.4644 33.4746 28.8535 31.2747 28.3505C29.0748 27.8476 27.8966 29.6873 27.6814 30.4055L28.0122 30.3488C28.0122 30.3488 27.4095 30.7951 27.5817 31.7852C27.5817 31.7852 28.5446 30.6637 29.1201 30.8359L28.8029 31.3683C28.8029 31.3683 30.7717 32.116 32.267 31.3117L31.6191 31.9008C31.6191 31.9008 32.5253 32.0163 32.9422 31.6697C32.9422 31.6742 32.5389 32.4921 32.8561 33.5275Z" fill="#FF3F00"/>
<path d="M32.7871 40.1973C34.6902 41.321 35.0278 42.3927 35.0822 42.6396" stroke="#010101" stroke-width="0.75" stroke-miterlimit="10" stroke-linecap="round" stroke-linejoin="round"/>
<path d="M30.6504 38.4072C30.9495 38.8037 31.3233 39.3248 32.2409 39.8844" stroke="#010101" stroke-width="0.75" stroke-miterlimit="10" stroke-linecap="round" stroke-linejoin="round"/>
<path d="M26.8257 37.2598C26.3137 37.4433 25.643 37.7016 24.3607 37.5973C21.9297 37.4025 20.9849 38.1705 20.7969 38.3518" stroke="#010101" stroke-width="0.75" stroke-miterlimit="10" stroke-linecap="round" stroke-linejoin="round"/>
<path d="M27.8652 38.2536C28.5336 38.632 29.492 38.8653 30.6293 38.3918C30.5908 37.9817 30.7403 37.4969 30.8944 37.123" stroke="#010101" stroke-width="0.75" stroke-miterlimit="10" stroke-linecap="round" stroke-linejoin="round"/>
<path d="M27.3454 35.916C27.282 36.3329 27.1438 36.922 26.8493 37.2595C26.8266 37.3343 27.0464 37.6605 27.4519 37.98" stroke="#010101" stroke-width="0.75" stroke-miterlimit="10" stroke-linecap="round" stroke-linejoin="round"/>
<path d="M32.348 28.8196C33.9362 29.6851 33.5782 30.469 33.5782 30.469C33.5782 30.469 34.2398 30.8949 33.9362 31.7604C33.6326 32.6259 33.5238 33.0586 33.048 33.3667C32.8532 33.3803 32.8328 33.446 32.8328 33.446C32.8328 33.446 32.5791 32.4061 33.0299 31.6312C33.0299 31.6312 32.6425 32.0051 31.7952 31.8238C31.7952 31.8238 32.3095 31.5723 32.4114 31.3752C32.4114 31.3752 30.3361 32.0504 28.8249 31.3073C28.8249 31.3073 29.2214 31.1373 29.3211 30.8066C29.3211 30.8066 28.6459 30.7477 27.8235 31.8714L27.5879 31.7287C27.5879 31.7287 27.5902 30.793 28.0252 30.2741C27.8983 30.2356 27.7102 30.3965 27.7102 30.3965C27.7102 30.3965 28.1112 29.2909 28.945 28.8219C28.945 28.8219 29.5227 28.4209 30.4018 28.3574" stroke="#010101" stroke-width="0.75" stroke-miterlimit="10" stroke-linecap="round" stroke-linejoin="round"/>
<path d="M30.8887 28.3594C31.2263 28.3866 31.5955 28.4704 31.983 28.6403" stroke="#010101" stroke-width="0.75" stroke-miterlimit="10" stroke-linecap="round" stroke-linejoin="round"/>
<path d="M27.7727 31.8128C27.3989 31.7381 27.0342 32.087 26.9322 32.5877C26.8506 32.9932 26.9662 33.3738 27.2109 33.5438C26.8144 35.354 27.6209 37.0917 28.8376 37.4588C30.1313 37.8462 31.6742 36.8063 32.3538 35.0753C32.6416 35.0504 32.9293 34.8012 33.0788 34.4342C33.2692 33.9606 33.1559 33.469 32.8047 33.3263" stroke="#010101" stroke-width="0.75" stroke-miterlimit="10" stroke-linecap="round" stroke-linejoin="round"/>
<path d="M47.7212 38.5317C47.7212 38.5317 48.274 37.4918 47.8616 36.6558C47.4833 36.146 47.3858 36.2661 47.3858 36.2661C47.3858 36.2661 46.8444 35.2262 45.229 35.4958C43.6136 35.7677 43.3326 37.3264 43.387 37.8702L43.5932 37.741C43.5932 37.741 43.3123 38.2078 43.7019 38.824C43.7019 38.824 44.0373 37.8045 44.4723 37.7614L44.4065 38.2055C44.4065 38.2055 45.9358 38.1624 46.7152 37.2086L46.4433 37.7841C46.4433 37.7841 47.0823 37.6096 47.268 37.263C47.2658 37.263 47.2227 37.9246 47.7212 38.5317Z" fill="#FF3F00"/>
<path d="M49.5176 43.0264C50.7795 43.2076 51.3686 43.6404 51.611 43.885" stroke="#010101" stroke-width="0.75" stroke-miterlimit="10" stroke-linecap="round" stroke-linejoin="round"/>
<path d="M47.5898 42.417C47.9002 42.6005 48.2945 42.8475 49.0648 42.9675" stroke="#010101" stroke-width="0.75" stroke-miterlimit="10" stroke-linecap="round" stroke-linejoin="round"/>
<path d="M45.6797 43.0855C46.2325 43.1535 46.9416 43.047 47.5738 42.4127C47.4333 42.1476 47.3993 41.7828 47.3993 41.4883" stroke="#010101" stroke-width="0.75" stroke-miterlimit="10" stroke-linecap="round" stroke-linejoin="round"/>
<path d="M44.6836 41.6582C44.7561 41.955 44.8263 42.3877 44.7221 42.6959C44.7289 42.7525 44.9645 42.9111 45.3248 43.013" stroke="#010101" stroke-width="0.75" stroke-miterlimit="10" stroke-linecap="round" stroke-linejoin="round"/>
<path d="M46.0765 35.5137C47.3815 35.6564 47.3589 36.2817 47.3589 36.2817C47.3589 36.2817 47.9208 36.3837 47.957 37.0498C47.9933 37.7136 48.0386 38.0353 47.8052 38.3729C47.6783 38.4363 47.6829 38.4862 47.6829 38.4862C47.6829 38.4862 47.2252 37.8586 47.3136 37.2129C47.3136 37.2129 47.1504 37.5323 46.5319 37.6434C46.5319 37.6434 46.8129 37.3715 46.8287 37.2106C46.8287 37.2106 45.6234 38.237 44.4022 38.1577C44.4022 38.1577 44.622 37.9334 44.5971 37.6841C44.5971 37.6841 44.1281 37.8314 43.8857 38.8124L43.6886 38.7807C43.6886 38.7807 43.4325 38.1509 43.5798 37.6841C43.4847 37.6932 43.4031 37.8518 43.4031 37.8518C43.4031 37.8518 43.3668 36.9999 43.7973 36.4516C43.7973 36.4516 44.0737 36.0234 44.6469 35.7357" stroke="#010101" stroke-width="0.75" stroke-miterlimit="10" stroke-linecap="round" stroke-linejoin="round"/>
<path d="M44.9707 35.6064C45.2063 35.5317 45.4759 35.4841 45.7841 35.4909" stroke="#010101" stroke-width="0.75" stroke-miterlimit="10" stroke-linecap="round" stroke-linejoin="round"/>
<path d="M43.8351 38.7869C43.5632 38.839 43.4159 39.1743 43.4862 39.5391C43.5428 39.8336 43.7263 40.0579 43.9393 40.1032C44.1749 41.4286 45.1967 42.3711 46.1143 42.2805C47.0908 42.1831 47.8384 41.0593 47.8135 39.7067C47.9993 39.6093 48.1239 39.3646 48.1216 39.0746C48.1194 38.7031 47.9064 38.404 47.63 38.4063" stroke="#010101" stroke-width="0.75" stroke-miterlimit="10" stroke-linecap="round" stroke-linejoin="round"/>
<path d="M44.7041 42.7051C44.4118 42.9702 44.0334 43.3281 43.143 43.6136C41.4574 44.1551 41.036 44.9322 40.959 45.1066" stroke="#010101" stroke-width="0.75" stroke-miterlimit="10" stroke-linecap="round" stroke-linejoin="round"/>
<path d="M12.7379 37.9918C12.7379 37.9918 12.1353 39.0974 11.1951 39.5075C10.2548 39.9176 10.7714 41.2249 10.7714 41.2249C10.7714 41.2249 10.3908 41.7346 10.8144 42.2738C10.8915 42.3713 11.2698 42.659 11.3604 42.7768C11.6595 43.1574 11.7162 43.4293 11.8929 43.6808C11.8929 43.6808 12.022 44.5712 11.5349 44.7162C11.5349 44.7162 11.5281 43.7896 10.2775 42.6975C9.02685 41.6055 9.37123 38.7191 9.8017 37.9284C10.2322 37.1377 11.3378 35.486 13.2137 35.9935C15.0897 36.501 15.8373 38.1391 16.1545 40.5678C16.4717 42.9966 16.7368 43.4474 16.7368 43.4474C16.7368 43.4474 15.6153 43.2458 15.3502 42.7949C15.3502 42.7949 15.6946 42.1628 15.4431 41.3087C15.4431 41.3087 15.8962 41.0436 15.5587 40.3458C15.2211 39.648 14.8903 39.8791 14.8903 39.8791C14.8903 39.8791 14.7498 38.0643 12.7379 37.9918Z" fill="#FF3F00"/>
<path d="M15.4668 42.8315C15.6979 43.2801 16.6472 43.3685 16.6472 43.3685C16.0151 41.9207 16.3595 41.0032 15.8542 39.1182" stroke="#010101" stroke-width="0.75" stroke-miterlimit="10" stroke-linecap="round" stroke-linejoin="round"/>
<path d="M15.2285 37.5254C15.4324 37.8448 15.6001 38.2164 15.7292 38.6378" stroke="#010101" stroke-width="0.75" stroke-miterlimit="10" stroke-linecap="round" stroke-linejoin="round"/>
<path d="M11.8853 43.6154C12.0031 44.1705 11.473 44.7573 11.473 44.7573C11.473 44.7573 11.7086 44.2203 10.6438 43.0943C9.71486 42.1133 9.20736 40.6837 9.47244 38.8916C9.73525 37.0995 11.4277 35.6767 12.8188 35.9259C13.6367 36.0732 14.3617 36.4492 14.9167 37.0972" stroke="#010101" stroke-width="0.75" stroke-miterlimit="10" stroke-linecap="round" stroke-linejoin="round"/>
<path d="M14.9758 39.9452C14.7447 38.8759 14.133 38.0308 12.717 38.0421C12.717 38.0421 12.0917 38.903 11.1968 39.5714C10.6893 39.952 10.6417 40.5116 10.7912 41.112" stroke="#010101" stroke-width="0.75" stroke-miterlimit="10" stroke-linecap="round" stroke-linejoin="round"/>
<path d="M12.7168 38.0416C12.7168 38.0416 12.9796 37.559 12.8323 37.0605L12.7168 38.0416Z" fill="white"/>
<path d="M12.7168 38.0416C12.7168 38.0416 12.9796 37.559 12.8323 37.0605" stroke="#010101" stroke-width="0.75" stroke-miterlimit="10" stroke-linecap="round" stroke-linejoin="round"/>
<path d="M14.712 46.817L12.5664 45.1562" stroke="#010101" stroke-width="0.75" stroke-miterlimit="10" stroke-linecap="round" stroke-linejoin="round"/>
<path d="M15.2888 43.2441C15.3499 43.5727 15.4655 43.9714 15.6762 44.2365L14.8379 46.9258" stroke="#010101" stroke-width="0.75" stroke-miterlimit="10" stroke-linecap="round" stroke-linejoin="round"/>
<path d="M12.3027 44.0078C12.4455 44.3227 12.6154 44.7917 12.5655 45.1542" stroke="#010101" stroke-width="0.75" stroke-miterlimit="10" stroke-linecap="round" stroke-linejoin="round"/>
<path d="M10.8745 41.1776C10.5845 41.2932 10.4894 41.6964 10.6434 42.0884C10.768 42.4056 11.0195 42.614 11.2665 42.6208C11.8057 44.0459 13.2761 44.6372 14.0894 44.3971C14.8416 44.175 15.8068 42.861 15.4941 41.3634C15.6799 41.2161 15.7683 40.9171 15.7048 40.5953C15.6233 40.183 15.3242 39.8953 15.0184 39.9564" stroke="#010101" stroke-width="0.75" stroke-miterlimit="10" stroke-linecap="round" stroke-linejoin="round"/>
<path d="M12.5363 45.1357C12.2576 45.5028 11.8996 45.9967 10.9435 46.5178C9.12648 47.5056 8.81156 48.4889 8.76172 48.7064" stroke="#010101" stroke-width="0.75" stroke-miterlimit="10" stroke-linecap="round" stroke-linejoin="round"/>
<path d="M15.8223 44.2998C16.255 44.4584 16.8237 44.6782 17.9112 44.5966C19.9729 44.4425 20.7727 45.095 20.9312 45.2514" stroke="#010101" stroke-width="0.75" stroke-miterlimit="10" stroke-linecap="round" stroke-linejoin="round"/>
<path d="M29.8359 49.9258V51.1492" stroke="#010101" stroke-width="0.75" stroke-miterlimit="10" stroke-linecap="round"/>
<path d="M29.8359 46.749V47.9702" stroke="#010101" stroke-width="0.75" stroke-miterlimit="10" stroke-linecap="round"/>
<path d="M28.8579 48.9492H27.6367" stroke="#010101" stroke-width="0.75" stroke-miterlimit="10" stroke-linecap="round"/>
<path d="M32.0337 48.9492H30.8125" stroke="#010101" stroke-width="0.75" stroke-miterlimit="10" stroke-linecap="round"/>
<path d="M19.3828 36.5313L22.7291 25.3798C22.7722 25.2371 22.8266 25.1034 22.8923 24.9766" stroke="#010101" stroke-width="0.75" stroke-miterlimit="10" stroke-linecap="round"/>
<path d="M38.2233 37.8906L36.3927 43.9942C36.0324 45.1927 34.7705 45.8724 33.572 45.5122L21 41.7399" stroke="#010101" stroke-width="0.75" stroke-miterlimit="10" stroke-linecap="round"/>
<path d="M26.1641 24.0449L38.8674 27.8557C40.0659 28.2159 40.7456 29.4779 40.3854 30.6764L39.529 33.5311" stroke="#010101" stroke-width="0.75" stroke-miterlimit="10" stroke-linecap="round"/>
<path d="M51.5465 46.9853L41.5324 47.9867C40.2864 48.1113 39.1762 47.2028 39.0539 45.9567L38.0524 35.9426C37.9278 34.6965 38.8364 33.5864 40.0824 33.464L50.0965 32.4626C51.3426 32.338 52.4528 33.2465 52.5751 34.4926L53.5765 44.5067C53.7011 45.7505 52.7926 46.8606 51.5465 46.9853Z" stroke="#010101" stroke-width="0.75" stroke-miterlimit="10" stroke-linecap="round"/>
<path d="M20.2028 47.3561L10.5489 50.2018C9.34817 50.5552 8.08848 49.8687 7.73504 48.6679L4.89168 39.0141C4.53824 37.8133 5.22473 36.5536 6.42551 36.2002L16.0793 33.3546C17.2801 33.0011 18.5398 33.6876 18.8932 34.8884L21.7389 44.5422C22.09 45.743 21.4036 47.0027 20.2028 47.3561Z" stroke="#010101" stroke-width="0.75" stroke-miterlimit="10" stroke-linecap="round"/>
<path d="M45.5625 24.4919L46.4665 25.3959L48.501 23.3613" fill="#FF3F00"/>
<path d="M45.5625 24.4919L46.4665 25.3959L48.501 23.3613" stroke="white" stroke-width="0.75" stroke-miterlimit="10" stroke-linecap="round"/>
<path d="M10.2499 17.3078C10.8209 17.2511 11.3941 17.3259 11.9333 17.523C12.1077 17.8085 12.2459 18.1121 12.3479 18.4292C12.468 18.7985 12.6243 19.1542 12.8169 19.4918C13.2496 20.1149 13.8024 20.645 14.4459 21.0483C14.7291 21.2522 14.9919 21.4448 15.232 21.6487C15.5605 21.9591 15.8709 22.2899 16.1564 22.641C16.7364 23.4589 17.5248 24.1069 18.4402 24.5147C19.0043 24.7254 22.1354 24.8387 23.4381 24.8387H23.7689C24.034 24.8319 24.2628 24.6552 24.333 24.3992C24.333 24.3267 24.333 24.2496 24.3761 24.1771C24.5143 24.3176 24.6684 24.4422 24.8337 24.5487C24.9312 24.6121 25.0422 24.6439 25.1577 24.6439C25.3367 24.6416 25.5066 24.56 25.6199 24.4218C26.6372 23.3592 27.7405 22.3828 28.9187 21.5014C29.032 21.4267 29.1158 21.3179 29.1588 21.1888C29.1588 21.1888 29.4103 20.3052 29.6641 19.3332C30.7584 20.0174 31.9161 20.5906 33.1237 21.046C33.3208 21.0891 33.5224 21.1117 33.7241 21.1117C34.517 21.1865 35.2579 20.713 35.5275 19.9653C35.7745 19.0047 34.8727 18.0599 34.073 17.4369C33.6334 17.0948 33.1531 16.7572 32.6615 16.4264C33.2505 16.0979 33.6198 15.4794 33.6289 14.8042C33.5859 13.6035 30.7878 12.5092 30.7561 12.4978C29.843 12.1852 28.3523 11.6573 26.8932 11.1271C25.4341 10.5992 24.111 10.1303 23.1798 9.8244C22.4594 9.16284 21.9791 8.7369 21.9791 8.72557C21.7684 8.65307 21.5214 8.64854 18.243 8.75502C15.7214 8.83659 12.3456 8.94987 10.2363 8.89549L10.2499 17.3078ZM23.5084 21.2953L23.4608 21.2409C22.7879 20.5861 21.868 20.2485 20.9323 20.3165C20.8077 19.8045 20.5698 19.3287 20.2345 18.9231C20.8848 18.3953 21.4897 17.8085 22.038 17.1741C22.8151 17.8447 23.7485 18.3046 24.7545 18.5131C24.7454 18.7827 24.7726 19.05 24.8383 19.3128C24.1745 19.7999 23.7055 20.5 23.5084 21.2953Z" stroke="#010101" stroke-width="0.75" stroke-miterlimit="10" stroke-linecap="round"/>
<path d="M22.0605 17.2195C22.0605 17.2195 22.3619 16.9181 22.6609 15.416" stroke="#010101" stroke-width="0.75" stroke-miterlimit="10" stroke-linecap="round"/>
<path d="M29.5627 19.2261L29.873 16.7656L22.9629 9.85547" stroke="#010101" stroke-width="0.75" stroke-miterlimit="10" stroke-linecap="round"/>
<path d="M32.5743 16.4646L26.8672 13.7617" stroke="#010101" stroke-width="0.75" stroke-miterlimit="10" stroke-linecap="round"/>
<path d="M6.1543 19.4688H9.17438C9.67508 19.4688 10.0806 19.0633 10.0806 18.5626V7.75781C10.0806 7.25711 9.67508 6.85156 9.17438 6.85156H6.1543C5.65359 6.85156 5.24805 7.25711 5.24805 7.75781V18.5626C5.24805 19.0633 5.65586 19.4688 6.1543 19.4688Z" fill="#FF3F00"/>
<path d="M5.93359 19.4688H9.3932C9.89391 19.4688 10.2995 19.0633 10.2995 18.5626V7.75781C10.2995 7.25711 9.89391 6.85156 9.3932 6.85156H5.93359C5.43289 6.85156 5.02734 7.25711 5.02734 7.75781V18.5626C5.02734 19.0633 5.43516 19.4688 5.93359 19.4688Z" stroke="#010101" stroke-width="0.75" stroke-miterlimit="10"/>
<path d="M23.8628 20.9707C23.8628 20.9707 23.5615 21.8724 24.4632 24.5753" stroke="#010101" stroke-width="0.75" stroke-miterlimit="10"/>
<path d="M7.62 17.2664C8.19433 17.2664 8.65992 16.8008 8.65992 16.2264C8.65992 15.6521 8.19433 15.1865 7.62 15.1865C7.04567 15.1865 6.58008 15.6521 6.58008 16.2264C6.58008 16.8008 7.04567 17.2664 7.62 17.2664Z" fill="white" stroke="#010101" stroke-width="0.75" stroke-miterlimit="10"/>
</svg>
