<svg width="58" height="58" viewBox="0 0 58 58" fill="none" xmlns="http://www.w3.org/2000/svg">
<path d="M18.668 52.9338C27.4194 52.9338 34.5138 45.8394 34.5138 37.088C34.5138 28.3366 27.4194 21.2422 18.668 21.2422C9.91666 21.2422 2.82227 28.3366 2.82227 37.088C2.82227 45.8394 9.91666 52.9338 18.668 52.9338Z" fill="#E1E6ED"/>
<path d="M45.202 31.2789C50.4761 31.2789 54.7516 27.0034 54.7516 21.7293C54.7516 16.4552 50.4761 12.1797 45.202 12.1797C39.9278 12.1797 35.6523 16.4552 35.6523 21.7293C35.6523 27.0034 39.9278 31.2789 45.202 31.2789Z" fill="#E1E6ED"/>
<path d="M12.9746 49.9328V48.8408" stroke="#04091E" stroke-width="0.75" stroke-miterlimit="10" stroke-linecap="round"/>
<path d="M10.6699 51.1445H11.6079" stroke="#04091E" stroke-width="0.75" stroke-miterlimit="10" stroke-linecap="round"/>
<path d="M14.3418 51.1445H15.2798" stroke="#04091E" stroke-width="0.75" stroke-miterlimit="10" stroke-linecap="round"/>
<path d="M12.9746 53.4518V52.2012" stroke="#04091E" stroke-width="0.75" stroke-miterlimit="10" stroke-linecap="round"/>
<path d="M48.6445 26.6894V25.8896" stroke="#04091E" stroke-width="0.75" stroke-miterlimit="10" stroke-linecap="round"/>
<path d="M46.9609 27.5732H47.6452" stroke="#04091E" stroke-width="0.75" stroke-miterlimit="10" stroke-linecap="round"/>
<path d="M49.6406 27.5732H50.3248" stroke="#04091E" stroke-width="0.75" stroke-miterlimit="10" stroke-linecap="round"/>
<path d="M48.6445 29.2568V28.3438" stroke="#04091E" stroke-width="0.75" stroke-miterlimit="10" stroke-linecap="round"/>
<path d="M21.9563 55.055L21.3242 54.4229" stroke="#04091E" stroke-width="0.75" stroke-miterlimit="10" stroke-linecap="round"/>
<path d="M21.9563 51.9641L21.3242 51.332" stroke="#04091E" stroke-width="0.75" stroke-miterlimit="10" stroke-linecap="round"/>
<path d="M21.9563 48.8743L21.3242 48.2422" stroke="#04091E" stroke-width="0.75" stroke-miterlimit="10" stroke-linecap="round"/>
<path d="M25.0462 55.055L24.4141 54.4229" stroke="#04091E" stroke-width="0.75" stroke-miterlimit="10" stroke-linecap="round"/>
<path d="M25.0462 51.9641L24.4141 51.332" stroke="#04091E" stroke-width="0.75" stroke-miterlimit="10" stroke-linecap="round"/>
<path d="M25.0462 48.8743L24.4141 48.2422" stroke="#04091E" stroke-width="0.75" stroke-miterlimit="10" stroke-linecap="round"/>
<path d="M28.3138 55.055L27.6816 54.4229" stroke="#04091E" stroke-width="0.75" stroke-miterlimit="10" stroke-linecap="round"/>
<path d="M28.3138 51.9641L27.6816 51.332" stroke="#04091E" stroke-width="0.75" stroke-miterlimit="10" stroke-linecap="round"/>
<path d="M28.3138 48.8743L27.6816 48.2422" stroke="#04091E" stroke-width="0.75" stroke-miterlimit="10" stroke-linecap="round"/>
<path d="M15.294 25.8619C15.294 25.8619 16.3384 24.3122 15.8264 22.9256C15.3121 22.0579 15.1377 22.2301 15.1377 22.2301C15.1377 22.2301 14.4557 20.4991 11.8616 20.6577C9.26742 20.8186 8.56508 23.2337 8.56055 24.0992L8.90719 23.927C8.90719 23.927 8.38609 24.6158 8.89813 25.6557C8.89813 25.6557 9.59594 24.1037 10.2892 24.106L10.1125 24.797C10.1125 24.797 12.5322 24.9805 13.921 23.6053L13.3977 24.4662C13.3977 24.4662 14.4353 24.2986 14.7842 23.782C14.7865 23.7866 14.6075 24.8219 15.294 25.8619Z" fill="#FF3F00"/>
<path d="M9.84828 31.9502C9.34305 32.3195 8.68602 32.8225 7.23602 33.1261C5.65008 33.4591 4.71664 33.9847 4.17969 34.4197" stroke="#04091E" stroke-width="0.75" stroke-miterlimit="10" stroke-linecap="round" stroke-linejoin="round"/>
<path d="M14.4473 31.9697C14.9502 32.3436 15.6027 32.8533 17.0482 33.1705C18.4189 33.4718 19.3002 33.9136 19.8576 34.3124" stroke="#04091E" stroke-width="0.75" stroke-miterlimit="10" stroke-linecap="round" stroke-linejoin="round"/>
<path d="M11.3203 32.7108C12.1812 32.9102 13.3186 32.858 14.4197 31.9631C14.243 31.5213 14.2498 30.9391 14.2996 30.4746" stroke="#04091E" stroke-width="0.75" stroke-miterlimit="10" stroke-linecap="round" stroke-linejoin="round"/>
<path d="M9.9818 30.2959C10.0475 30.7785 10.086 31.4718 9.87305 31.9407C9.87305 32.0314 10.2197 32.3191 10.7725 32.5389" stroke="#04091E" stroke-width="0.75" stroke-miterlimit="10" stroke-linecap="round" stroke-linejoin="round"/>
<path d="M13.1998 20.8252C15.2343 21.2647 15.0961 22.248 15.0961 22.248C15.0961 22.248 15.9661 22.504 15.9117 23.5575C15.8573 24.6133 15.8777 25.1254 15.4541 25.6215C15.2434 25.7008 15.2434 25.7801 15.2434 25.7801C15.2434 25.7801 14.6248 24.7153 14.8718 23.7116C14.8718 23.7116 14.5637 24.1874 13.5691 24.2621C13.5691 24.2621 14.0584 23.8793 14.1083 23.6278C14.1083 23.6278 12.0352 25.0483 10.123 24.7221C10.123 24.7221 10.5082 24.4049 10.5082 24.0084C10.5082 24.0084 9.74242 24.1647 9.19867 25.6714L8.89281 25.5898C8.89281 25.5898 8.59148 24.5544 8.90188 23.8407C8.74781 23.8407 8.59375 24.0786 8.59375 24.0786C8.59375 24.0786 8.67758 22.7283 9.44563 21.9354C9.44563 21.9354 9.95313 21.3032 10.9047 20.9475" stroke="#04091E" stroke-width="0.75" stroke-miterlimit="10" stroke-linecap="round" stroke-linejoin="round"/>
<path d="M11.4395 20.7938C11.8223 20.7122 12.2573 20.6851 12.7399 20.7462" stroke="#04091E" stroke-width="0.75" stroke-miterlimit="10" stroke-linecap="round" stroke-linejoin="round"/>
<path d="M9.12065 25.6221C8.68339 25.6606 8.39339 26.1636 8.4455 26.7504C8.48628 27.2261 8.74003 27.609 9.06628 27.7178C9.21807 29.8475 10.6749 31.5036 12.1385 31.5127C13.6949 31.5195 15.0611 29.8679 15.2469 27.7336C15.555 27.6113 15.7952 27.2443 15.8382 26.7889C15.8949 26.2021 15.6094 25.6968 15.1744 25.6538" stroke="#04091E" stroke-width="0.75" stroke-miterlimit="10" stroke-linecap="round" stroke-linejoin="round"/>
<path d="M13.2109 17.6445C18.3494 18.1656 22.3618 22.5066 22.3618 27.7832C22.3618 33.0553 18.3584 37.394 13.2245 37.9219" stroke="#04091E" stroke-width="0.75" stroke-miterlimit="10" stroke-linecap="round" stroke-linejoin="round"/>
<path d="M10.6471 37.8632C5.73977 37.1291 1.97656 32.897 1.97656 27.7834C1.97656 22.6269 5.80547 18.3652 10.774 17.6855" stroke="#04091E" stroke-width="0.75" stroke-miterlimit="10" stroke-linecap="round" stroke-linejoin="round"/>
<path d="M43.6822 7.76412C43.6822 7.76412 42.6446 8.80177 41.4597 8.94904C40.2747 9.0963 40.422 10.7276 40.422 10.7276C40.422 10.7276 39.8284 11.1716 40.1252 11.9125C40.1773 12.0461 40.5058 12.4925 40.5693 12.6533C40.7777 13.179 40.7528 13.4984 40.8661 13.8383C40.8661 13.8383 40.7188 14.8759 40.1252 14.8759C40.1252 14.8759 40.422 13.8383 39.3843 12.207C38.3467 10.5758 39.6811 7.46505 40.422 6.72193C41.1629 5.9788 42.9414 4.49935 44.8694 5.68427C46.7975 6.8692 47.092 8.94451 46.6479 11.7607C46.2039 14.5769 46.3511 15.1704 46.3511 15.1704C46.3511 15.1704 45.1662 14.5769 45.0167 13.9855C45.0167 13.9855 45.6103 13.3919 45.6103 12.3543C45.6103 12.3543 46.2039 12.207 46.0543 11.3166C45.9071 10.4262 45.4608 10.5758 45.4608 10.5758C45.4608 10.5758 45.9048 8.50498 43.6822 7.76412Z" fill="#FF3F00"/>
<path d="M45.1406 14.0784C45.2539 14.6539 46.2848 15.064 46.2848 15.064C46.0491 13.2402 46.7311 12.3248 46.7787 10.0547" stroke="#04091E" stroke-width="0.75" stroke-miterlimit="10" stroke-linecap="round" stroke-linejoin="round"/>
<path d="M46.5957 8.06641C46.718 8.49008 46.7883 8.95906 46.7951 9.47336" stroke="#04091E" stroke-width="0.75" stroke-miterlimit="10" stroke-linecap="round" stroke-linejoin="round"/>
<path d="M40.8787 13.7911C40.8289 14.4504 40.0472 14.9352 40.0472 14.9352C40.0472 14.9352 40.4868 14.4096 39.6598 12.8078C38.9393 11.4099 38.8374 9.64501 39.7142 7.72603C40.591 5.80704 42.945 4.76712 44.4199 5.49892C45.2854 5.92712 45.9764 6.58642 46.3842 7.48814" stroke="#04091E" stroke-width="0.75" stroke-miterlimit="10" stroke-linecap="round" stroke-linejoin="round"/>
<path d="M45.5279 10.6916C45.6163 9.42055 45.2084 8.27641 43.6202 7.83008C43.6202 7.83008 42.6415 8.58906 41.4226 9.04672C40.7316 9.30727 40.4959 9.91898 40.4688 10.6372" stroke="#04091E" stroke-width="0.75" stroke-miterlimit="10" stroke-linecap="round" stroke-linejoin="round"/>
<path d="M43.6191 7.82758C43.6191 7.82758 44.07 7.37219 44.0677 6.76953L43.6191 7.82758Z" fill="white"/>
<path d="M43.6191 7.82758C43.6191 7.82758 44.07 7.37219 44.0677 6.76953" stroke="#04091E" stroke-width="0.75" stroke-miterlimit="10" stroke-linecap="round" stroke-linejoin="round"/>
<path d="M41.807 16.8109L41.1387 15.7324" stroke="#04091E" stroke-width="0.75" stroke-miterlimit="10" stroke-linecap="round" stroke-linejoin="round"/>
<path d="M44.807 14.4814C44.7708 14.8689 44.7685 15.3537 44.918 15.7185L44.1387 16.9691" stroke="#04091E" stroke-width="0.75" stroke-miterlimit="10" stroke-linecap="round" stroke-linejoin="round"/>
<path d="M41.218 14.3662C41.2746 14.765 41.3131 15.3427 41.1387 15.7346" stroke="#04091E" stroke-width="0.75" stroke-miterlimit="10" stroke-linecap="round" stroke-linejoin="round"/>
<path d="M40.5413 10.7349C40.1788 10.7689 39.9409 11.1903 39.9885 11.6774C40.027 12.0716 40.2399 12.3888 40.5118 12.4772C40.6523 14.2466 42.1023 15.384 43.0924 15.3795C44.0054 15.3749 45.5098 14.2217 45.6503 12.4455C45.9063 12.3413 46.1011 12.0354 46.1351 11.6548C46.1782 11.1677 45.938 10.7485 45.5755 10.7168" stroke="#04091E" stroke-width="0.75" stroke-miterlimit="10" stroke-linecap="round" stroke-linejoin="round"/>
<path d="M40.9687 15.8799C40.5359 16.1993 39.9741 16.6321 38.7325 16.8994C36.3785 17.4046 35.7011 18.3993 35.5742 18.6258" stroke="#04091E" stroke-width="0.75" stroke-miterlimit="10" stroke-linecap="round" stroke-linejoin="round"/>
<path d="M44.9141 15.8799C45.3468 16.1993 45.9087 16.6321 47.1502 16.8994C49.5042 17.4046 50.1816 18.3993 50.3085 18.6258" stroke="#04091E" stroke-width="0.75" stroke-miterlimit="10" stroke-linecap="round" stroke-linejoin="round"/>
<path d="M52.5432 13.5122C52.047 18.3357 47.9712 22.0989 43.0163 22.0989C37.7283 22.0989 33.4395 17.8123 33.4395 12.5221C33.4395 7.23187 37.7283 2.94531 43.0185 2.94531C46.1202 2.94531 48.8774 4.42023 50.6265 6.70398" stroke="#04091E" stroke-width="0.75" stroke-miterlimit="10" stroke-linecap="round"/>
<path d="M45.9359 41.8415C45.9359 41.8415 46.9464 40.3122 46.4344 38.9597C45.9223 38.1146 45.7547 38.2845 45.7547 38.2845C45.7547 38.2845 45.0705 36.5921 42.5284 36.7711C39.9864 36.9501 39.3181 39.3244 39.3203 40.1718L39.6579 40.0019C39.6579 40.0019 39.1527 40.6815 39.6647 41.6965C39.6647 41.6965 40.3376 40.1695 41.015 40.1672L40.8473 40.8447C40.8473 40.8447 43.2195 41.0055 44.572 39.6439L44.0668 40.4935C44.0668 40.4935 45.0841 40.3213 45.4194 39.8115C45.4194 39.8093 45.254 40.8265 45.9359 41.8415Z" fill="#FF3F00"/>
<path d="M48.0527 49.0693C49.0745 49.3186 49.795 49.6471 50.2957 49.9643" stroke="#04091E" stroke-width="0.75" stroke-miterlimit="10" stroke-linecap="round" stroke-linejoin="round"/>
<path d="M45.1582 47.8369C45.6113 48.1677 46.1868 48.6072 47.3627 48.9108" stroke="#04091E" stroke-width="0.75" stroke-miterlimit="10" stroke-linecap="round" stroke-linejoin="round"/>
<path d="M42.0957 48.5891C42.9408 48.7772 44.0555 48.716 45.1271 47.8302C44.9504 47.3997 44.9527 46.8287 44.9957 46.3711" stroke="#04091E" stroke-width="0.75" stroke-miterlimit="10" stroke-linecap="round" stroke-linejoin="round"/>
<path d="M40.7667 46.2305C40.8347 46.7017 40.8777 47.3837 40.6738 47.8436C40.6761 47.932 41.0182 48.2129 41.5597 48.4236" stroke="#04091E" stroke-width="0.75" stroke-miterlimit="10" stroke-linecap="round" stroke-linejoin="round"/>
<path d="M43.8381 36.9209C45.8364 37.3355 45.7095 38.3007 45.7095 38.3007C45.7095 38.3007 46.5637 38.5431 46.5206 39.5785C46.4776 40.6139 46.5002 41.1168 46.0879 41.6062C45.8817 41.6855 45.8817 41.7625 45.8817 41.7625C45.8817 41.7625 45.2655 40.7226 45.4988 39.7371C45.4988 39.7371 45.1998 40.2061 44.2255 40.2876C44.2255 40.2876 44.7013 39.9093 44.7489 39.6623C44.7489 39.6623 42.728 41.0738 40.852 40.7679C40.852 40.7679 41.2259 40.4553 41.2236 40.0656C41.2236 40.0656 40.4737 40.2242 39.9548 41.7082L39.6535 41.6311C39.6535 41.6311 39.3499 40.6184 39.6467 39.9161C39.4972 39.9161 39.3477 40.1517 39.3477 40.1517C39.3477 40.1517 39.4179 38.8263 40.1655 38.0446C40.1655 38.0446 40.6572 37.4216 41.5884 37.0636" stroke="#04091E" stroke-width="0.75" stroke-miterlimit="10" stroke-linecap="round" stroke-linejoin="round"/>
<path d="M42.1113 36.9027C42.4852 36.8211 42.9111 36.7894 43.3869 36.846" stroke="#04091E" stroke-width="0.75" stroke-miterlimit="10" stroke-linecap="round" stroke-linejoin="round"/>
<path d="M39.88 41.6584C39.4518 41.6992 39.1731 42.1954 39.2275 42.7708C39.2728 43.2353 39.522 43.6091 39.8437 43.7133C40.0091 45.8 41.4523 47.4131 42.8887 47.4063C44.4135 47.3995 45.7389 45.7705 45.9043 43.6748C46.2056 43.5525 46.4367 43.19 46.4752 42.7436C46.525 42.1682 46.2418 41.6743 45.8136 41.6357" stroke="#04091E" stroke-width="0.75" stroke-miterlimit="10" stroke-linecap="round" stroke-linejoin="round"/>
<path d="M40.6077 47.7939C40.1138 48.161 39.4749 48.6594 38.0566 48.9698C36.9873 49.2032 36.2215 49.5249 35.6777 49.8421" stroke="#04091E" stroke-width="0.75" stroke-miterlimit="10" stroke-linecap="round" stroke-linejoin="round"/>
<path d="M52.5678 44.4994C52.1962 49.4498 48.0637 53.3489 43.0182 53.3489C37.7302 53.3489 33.4414 49.0623 33.4414 43.7721C33.4414 38.4819 37.728 34.1953 43.0182 34.1953C46.2059 34.1953 49.0289 35.7518 50.7712 38.1488" stroke="#04091E" stroke-width="0.75" stroke-miterlimit="10" stroke-linecap="round"/>
<path d="M51.5566 39.4336C52.1163 40.5324 52.4697 41.7513 52.5671 43.0427" stroke="#04091E" stroke-width="0.75" stroke-miterlimit="10" stroke-linecap="round"/>
<path d="M35.708 22.8873C36.2563 23.302 36.6097 23.959 36.6097 24.6976V31.2656C36.6097 32.5185 35.5947 33.5335 34.3418 33.5335H27.7738C26.5209 33.5335 25.5059 32.5185 25.5059 31.2656V24.6976C25.5059 23.4447 26.5209 22.4297 27.7738 22.4297H28.7434" fill="#FF3F00"/>
<path d="M35.708 22.8873C36.2563 23.302 36.6097 23.959 36.6097 24.6976V31.2656C36.6097 32.5185 35.5947 33.5335 34.3418 33.5335H27.7738C26.5209 33.5335 25.5059 32.5185 25.5059 31.2656V24.6976C25.5059 23.4447 26.5209 22.4297 27.7738 22.4297H28.7434" stroke="#04091E" stroke-width="0.75" stroke-miterlimit="10" stroke-linecap="round" stroke-linejoin="round"/>
<path d="M34.3418 22.4297C34.4755 22.4297 34.6046 22.441 34.7315 22.4637L34.3418 22.4297Z" fill="#FF3F00"/>
<path d="M34.3418 22.4297C34.4755 22.4297 34.6046 22.441 34.7315 22.4637" stroke="#04091E" stroke-width="0.75" stroke-miterlimit="10" stroke-linecap="round" stroke-linejoin="round"/>
<path d="M29.8809 22.4297H33.2838" stroke="#04091E" stroke-width="0.75" stroke-miterlimit="10" stroke-linecap="round" stroke-linejoin="round"/>
<path d="M29.5254 28.0034L30.7126 29.1906L33.6828 26.2227" stroke="#04091E" stroke-width="0.75" stroke-miterlimit="10" stroke-linecap="round"/>
<path d="M54.6654 6.74512H50.7617C50.0118 6.74512 49.4023 7.35457 49.4023 8.10449V12.0082C49.4023 12.7581 50.0118 13.3675 50.7617 13.3675H54.6654C55.4153 13.3675 56.0248 12.7581 56.0248 12.0082V8.10449C56.0248 7.35457 55.4176 6.74512 54.6654 6.74512Z" stroke="#04091E" stroke-width="0.75" stroke-miterlimit="10" stroke-linecap="round"/>
<path d="M51.6562 10.1929L52.3518 10.8884L54.0895 9.14844" stroke="#04091E" stroke-width="0.75" stroke-miterlimit="10" stroke-linecap="round"/>
<path d="M12.0039 16.2811V14.5819C12.0039 13.1908 13.1322 12.0625 14.5233 12.0625H29.4062" stroke="#04091E" stroke-width="0.75" stroke-miterlimit="10" stroke-linecap="round"/>
<path d="M29.4082 13.7205L31.8234 12.0598L29.4082 10.4014V13.7205Z" stroke="#04091E" stroke-width="0.75" stroke-miterlimit="10" stroke-linecap="round" stroke-linejoin="round"/>
<path d="M12.0199 18.6102C12.5767 18.6102 13.0281 18.1588 13.0281 17.602C13.0281 17.0451 12.5767 16.5938 12.0199 16.5938C11.4631 16.5938 11.0117 17.0451 11.0117 17.602C11.0117 18.1588 11.4631 18.6102 12.0199 18.6102Z" stroke="#04091E" stroke-width="0.75" stroke-miterlimit="10" stroke-linecap="round"/>
<path d="M12.0039 39.4033V41.1025C12.0039 42.4936 13.1322 43.6219 14.5233 43.6219H29.4062" stroke="#04091E" stroke-width="0.75" stroke-miterlimit="10" stroke-linecap="round"/>
<path d="M12.0199 38.8396C12.5767 38.8396 13.0281 38.3883 13.0281 37.8314C13.0281 37.2746 12.5767 36.8232 12.0199 36.8232C11.4631 36.8232 11.0117 37.2746 11.0117 37.8314C11.0117 38.3883 11.4631 38.8396 12.0199 38.8396Z" stroke="#04091E" stroke-width="0.75" stroke-miterlimit="10" stroke-linecap="round"/>
<path d="M29.4082 45.1808L31.8234 43.5201L29.4082 41.8594V45.1808Z" stroke="#04091E" stroke-width="0.75" stroke-miterlimit="10" stroke-linecap="round" stroke-linejoin="round"/>
</svg>
