<svg width="58" height="58" viewBox="0 0 58 58" fill="none" xmlns="http://www.w3.org/2000/svg">
<path d="M37.5642 41.6167C46.3944 41.6167 53.5527 34.4584 53.5527 25.6282C53.5527 16.798 46.3944 9.63965 37.5642 9.63965C28.734 9.63965 21.5757 16.798 21.5757 25.6282C21.5757 34.4584 28.734 41.6167 37.5642 41.6167Z" fill="#E1E6ED"/>
<path d="M12.708 45.9736C18.0296 45.9736 22.3437 41.6595 22.3437 36.3379C22.3437 31.0162 18.0296 26.7021 12.708 26.7021C7.38632 26.7021 3.07227 31.0162 3.07227 36.3379C3.07227 41.6595 7.38632 45.9736 12.708 45.9736Z" fill="#E1E6ED"/>
<path d="M24.8607 11.0222C22.9757 8.09499 21.9743 5.89054 26.143 5.20858C26.143 5.20858 28.8686 2.16132 31.5171 3.2035C34.1656 4.24569 31.4378 8.37593 28.9116 11.7449C28.9116 11.7449 26.5508 11.908 25.8644 12.1369C25.1779 12.3657 24.8607 11.0222 24.8607 11.0222Z" fill="#FF3F00"/>
<path d="M32.444 5.77725C32.4983 5.50311 34.764 6.25076 35.0857 7.13209C35.4074 8.01342 35.0064 9.13717 33.4816 9.53818C31.9569 9.9392 29.9133 11.9443 29.9133 11.9443L28.8394 11.908C28.8371 11.908 32.0294 7.86162 32.444 5.77725Z" fill="#FF3F00"/>
<path d="M24.4891 34.9926C24.4891 34.9926 20.5129 36.6737 17.3977 34.0093C14.2825 31.3449 15.0188 25.5223 17.3161 22.6948C19.6135 19.8673 22.2348 15.5603 27.3596 15.3564C32.4845 15.1525 36.3791 21.4238 38.0194 24.2535C39.6597 27.0833 40.2329 34.5848 33.7555 34.8317C33.7555 34.8272 29.0045 38.4794 24.4891 34.9926Z" fill="#FF3F00"/>
<path d="M51.2079 46.1829C51.8355 45.2291 51.5727 43.9467 50.6188 43.3169L46.7537 41.0762L39.5626 50.7073C38.8512 51.6612 39.0891 53.0183 40.0814 53.673L42.8138 55.1661C43.7676 55.7937 45.0499 55.5309 45.6798 54.577L48.4325 50.3992" fill="#FF3F00"/>
<path d="M51.2079 46.1829C51.8355 45.2291 51.5727 43.9467 50.6188 43.3169L46.7537 41.0762L39.5626 50.7073C38.8512 51.6612 39.0891 53.0183 40.0814 53.673L42.8138 55.1661C43.7676 55.7937 45.0499 55.5309 45.6798 54.577L48.4325 50.3992" stroke="#010101" stroke-width="0.75" stroke-miterlimit="10" stroke-linecap="round"/>
<path d="M49.1118 49.3635L50.5799 47.1318" stroke="#010101" stroke-width="0.75" stroke-miterlimit="10" stroke-linecap="round"/>
<path d="M43.3891 53.1717C44.1023 53.1717 44.6805 52.5935 44.6805 51.8803C44.6805 51.1671 44.1023 50.5889 43.3891 50.5889C42.6758 50.5889 42.0977 51.1671 42.0977 51.8803C42.0977 52.5935 42.6758 53.1717 43.3891 53.1717Z" stroke="white" stroke-width="0.75" stroke-miterlimit="10" stroke-linecap="round"/>
<path d="M42.0544 44.8145L39.6846 48.1064" stroke="#010101" stroke-width="0.75" stroke-miterlimit="10" stroke-linecap="round"/>
<path d="M42.8022 43.7559L42.374 44.3948" stroke="#010101" stroke-width="0.75" stroke-miterlimit="10" stroke-linecap="round"/>
<path d="M36.8347 38.1504L36.0282 38.1844C35.3711 38.2116 34.7209 38.3384 34.1001 38.565L30.6994 39.802C29.4737 40.2484 28.1868 40.4976 26.8841 40.5406L23.864 40.6403C22.4276 40.6879 21.2472 41.7912 21.1045 43.2231L23.71 44.0297C25.459 44.5712 27.2874 44.8091 29.1157 44.7343L34.0344 44.5349" stroke="#010101" stroke-width="0.75" stroke-miterlimit="10" stroke-linecap="round"/>
<path d="M42.802 41.0875L42.2356 40.4146C41.4109 39.4359 40.3121 38.7245 39.0796 38.3779C38.7919 38.2963 38.4996 38.2351 38.2051 38.1943" stroke="#010101" stroke-width="0.75" stroke-miterlimit="10" stroke-linecap="round"/>
<path d="M21.5031 41.9752L13.1973 37.9718C12.6195 37.6977 11.9263 37.9106 11.6023 38.4612C11.2874 38.9959 11.4188 39.6824 11.9104 40.0653L16.9899 44.0142C17.8169 44.6554 18.7277 45.1788 19.6996 45.5685L24.0428 47.3062C25.3637 47.8341 26.7729 48.106 28.1957 48.106H34.9292C35.9759 48.106 36.9977 48.4254 37.8563 49.0213L39.7821 50.3557L45.2604 43.0264L43.4864 41.6489" stroke="#010101" stroke-width="0.75" stroke-miterlimit="10" stroke-linecap="round"/>
<path d="M28.5446 11.9149C28.5446 11.9149 27.7653 11.0925 26.032 10.918C24.2988 10.7436 24.9491 12.5651 24.9491 12.5651C24.9491 12.5651 27.5523 11.9421 28.5446 11.9149Z" fill="#FF3F00"/>
<path d="M24.8064 14.9483C24.8064 14.9483 23.6079 13.9718 24.7634 12.8684C25.7602 11.9146 30.5271 11.1783 32.3487 13.0859C33.3886 14.255 32.1742 15.0797 32.1742 15.0797C32.1742 15.0797 28.0553 13.3714 24.8064 14.9483Z" fill="#FF3F00"/>
<path d="M25.0125 34.9058C25.0125 34.9058 20.8075 36.682 17.5156 33.8658C14.2236 31.0497 15.003 24.894 17.4295 21.9033C19.856 18.9127 22.6291 14.3633 28.0485 14.1458C33.4656 13.9283 37.5822 20.5598 39.3177 23.5505C41.0509 26.5411 41.6581 34.4708 34.8114 34.7313" stroke="#010101" stroke-width="0.75" stroke-miterlimit="10" stroke-linecap="round"/>
<path d="M24.2104 34.0609C24.2104 34.0609 25.8983 36.655 29.9742 36.5304C34.2222 36.4013 36.6057 32.9326 36.6057 32.9326" stroke="#010101" stroke-width="0.75" stroke-miterlimit="10" stroke-linecap="round"/>
<path d="M24.5574 14.9483C24.5574 14.9483 23.3589 13.9718 24.5143 12.8684C25.5112 11.9146 30.2781 11.1783 32.0996 13.0859C33.1396 14.255 31.9252 15.0797 31.9252 15.0797" stroke="#010101" stroke-width="0.75" stroke-miterlimit="10" stroke-linecap="round"/>
<path d="M24.9491 12.5649C24.9491 12.5649 24.2988 10.7456 26.032 10.9177C27.7653 11.0922 28.5446 11.9146 28.5446 11.9146" stroke="#010101" stroke-width="0.75" stroke-miterlimit="10" stroke-linecap="round"/>
<path d="M24.9922 11.1784C22.9554 8.01555 21.8724 5.63211 26.3788 4.89352C26.3788 4.89352 29.3263 1.5993 32.1855 2.72758C35.0448 3.85586 32.0995 8.31914 29.3694 11.9577" stroke="#010101" stroke-width="0.75" stroke-miterlimit="10" stroke-linecap="round"/>
<path d="M30.4521 12.1752C30.4521 12.1752 32.6634 10.0092 34.3082 9.57421C35.9553 9.14148 36.3881 7.9271 36.0414 6.97328C35.6948 6.01945 34.1882 5.25593 33.1868 5.50742" stroke="#010101" stroke-width="0.75" stroke-miterlimit="10" stroke-linecap="round"/>
<path d="M28.4788 24.1604L26.7524 24.0993C25.8099 24.0653 25.0736 23.2587 25.1076 22.2981C25.1416 21.3375 25.9345 20.5853 26.877 20.6193L29.9334 20.728" stroke="#010101" stroke-width="0.75" stroke-miterlimit="10" stroke-linecap="round"/>
<path d="M26.8815 24.1045L28.6079 24.1657C29.5504 24.1996 30.2867 25.0062 30.2528 25.9668C30.2188 26.9275 29.4258 27.6796 28.4833 27.6457L25.3794 27.5346" stroke="#010101" stroke-width="0.75" stroke-miterlimit="10" stroke-linecap="round"/>
<path d="M28.1142 19.7971C28.1324 19.3191 28.146 18.9316 28.146 18.9316C28.146 18.9316 28.1301 19.3191 28.1142 19.7971ZM28.1142 19.7971C28.0961 20.2752 28.0825 20.6626 28.0825 20.6626C28.0825 20.6626 28.0961 20.2729 28.1142 19.7971Z" stroke="#010101" stroke-width="0.75" stroke-miterlimit="10" stroke-linecap="round"/>
<path d="M27.8037 28.4905C27.8218 28.0124 27.8354 27.625 27.8354 27.625C27.8354 27.625 27.8196 28.0124 27.8037 28.4905ZM27.8037 28.4905C27.7856 28.9685 27.772 29.3559 27.772 29.3559C27.772 29.3559 27.7856 28.9662 27.8037 28.4905Z" stroke="#010101" stroke-width="0.75" stroke-miterlimit="10" stroke-linecap="round"/>
<path d="M47.4469 36.0321L46.7378 35.3252" stroke="#010101" stroke-width="0.75" stroke-miterlimit="10" stroke-linecap="round"/>
<path d="M47.4469 32.5633L46.7378 31.8564" stroke="#010101" stroke-width="0.75" stroke-miterlimit="10" stroke-linecap="round"/>
<path d="M47.4469 29.0946L46.7378 28.3877" stroke="#010101" stroke-width="0.75" stroke-miterlimit="10" stroke-linecap="round"/>
<path d="M50.9157 36.0321L50.2065 35.3252" stroke="#010101" stroke-width="0.75" stroke-miterlimit="10" stroke-linecap="round"/>
<path d="M50.9157 32.5633L50.2065 31.8564" stroke="#010101" stroke-width="0.75" stroke-miterlimit="10" stroke-linecap="round"/>
<path d="M50.9157 29.0946L50.2065 28.3877" stroke="#010101" stroke-width="0.75" stroke-miterlimit="10" stroke-linecap="round"/>
<path d="M54.5812 36.0321L53.8721 35.3252" stroke="#010101" stroke-width="0.75" stroke-miterlimit="10" stroke-linecap="round"/>
<path d="M54.5812 32.5633L53.8721 31.8564" stroke="#010101" stroke-width="0.75" stroke-miterlimit="10" stroke-linecap="round"/>
<path d="M54.5812 29.0946L53.8721 28.3877" stroke="#010101" stroke-width="0.75" stroke-miterlimit="10" stroke-linecap="round"/>
<path d="M10.0596 27.1647V21.2129" stroke="#010101" stroke-width="0.75" stroke-miterlimit="10" stroke-linecap="round" stroke-linejoin="round"/>
<path d="M10.0596 19.5003V18.2451" stroke="#010101" stroke-width="0.75" stroke-miterlimit="10" stroke-linecap="round" stroke-linejoin="round"/>
<path d="M11.4869 27.5654L10.1049 28.9475L8.81348 27.6561" stroke="#010101" stroke-width="0.75" stroke-miterlimit="10" stroke-linecap="round" stroke-linejoin="round"/>
<path d="M43.1919 18.2633V12.3115" stroke="#010101" stroke-width="0.75" stroke-miterlimit="10" stroke-linecap="round" stroke-linejoin="round"/>
<path d="M43.1919 10.3517V8.10645" stroke="#010101" stroke-width="0.75" stroke-miterlimit="10" stroke-linecap="round" stroke-linejoin="round"/>
<path d="M44.6217 18.6641L43.2374 20.0461L41.9482 18.7547" stroke="#010101" stroke-width="0.75" stroke-miterlimit="10" stroke-linecap="round" stroke-linejoin="round"/>
<path d="M43.1919 6.39602V5.63477" stroke="#010101" stroke-width="0.75" stroke-miterlimit="10" stroke-linecap="round" stroke-linejoin="round"/>
<path d="M16.7339 12.617V7.02539" stroke="#010101" stroke-width="0.75" stroke-miterlimit="10" stroke-linecap="round" stroke-linejoin="round"/>
<path d="M18.1637 12.7686L16.7816 14.1529L15.4902 12.8614" stroke="#010101" stroke-width="0.75" stroke-miterlimit="10" stroke-linecap="round" stroke-linejoin="round"/>
<path d="M13.7593 51.001V52.7296" stroke="#010101" stroke-width="0.75" stroke-miterlimit="10" stroke-linecap="round"/>
<path d="M13.7593 46.5039V48.2348" stroke="#010101" stroke-width="0.75" stroke-miterlimit="10" stroke-linecap="round"/>
<path d="M12.3752 49.6172H10.6465" stroke="#010101" stroke-width="0.75" stroke-miterlimit="10" stroke-linecap="round"/>
<path d="M16.8725 49.6172H15.1416" stroke="#010101" stroke-width="0.75" stroke-miterlimit="10" stroke-linecap="round"/>
<path d="M51.1851 10.7754V11.9377" stroke="#010101" stroke-width="0.75" stroke-miterlimit="10" stroke-linecap="round"/>
<path d="M51.1851 7.75488V8.91715" stroke="#010101" stroke-width="0.75" stroke-miterlimit="10" stroke-linecap="round"/>
<path d="M50.2562 9.8457H49.0962" stroke="#010101" stroke-width="0.75" stroke-miterlimit="10" stroke-linecap="round"/>
<path d="M53.276 9.8457H52.1138" stroke="#010101" stroke-width="0.75" stroke-miterlimit="10" stroke-linecap="round"/>
<path d="M51.8556 21.698L51.0173 20.8598C50.5053 20.3477 50.5053 19.5185 51.0173 19.0065L51.8556 18.1682C52.3676 17.6562 53.1969 17.6562 53.7089 18.1682L54.5472 19.0065C55.0592 19.5185 55.0592 20.3477 54.5472 20.8598L53.7089 21.698C53.1969 22.2101 52.3654 22.2101 51.8556 21.698Z" stroke="#010101" stroke-width="0.75" stroke-miterlimit="10" stroke-linecap="round"/>
</svg>
