<svg width="58" height="58" viewBox="0 0 58 58" fill="none" xmlns="http://www.w3.org/2000/svg">
<path d="M13.5146 21.7045C13.8771 20.762 13.4058 19.7017 12.4633 19.3392C12.2549 19.2599 12.0328 19.2169 11.8085 19.2169C11.446 19.2169 11.0949 19.3233 10.7935 19.525C9.95299 18.0659 8.09064 17.5652 6.63385 18.4058C5.69135 18.9495 5.10908 19.9555 5.10908 21.0452C5.10908 21.0973 5.11135 21.1472 5.11361 21.1993C3.684 21.7023 2.93408 23.2701 3.43932 24.6974C3.82674 25.794 4.86213 26.528 6.02439 26.528H10.5738" stroke="black" stroke-width="0.75" stroke-miterlimit="10" stroke-linecap="round" stroke-linejoin="round"/>
<path d="M38.1936 44.7661C47.0238 44.7661 54.1821 37.6078 54.1821 28.7776C54.1821 19.9474 47.0238 12.7891 38.1936 12.7891C29.3634 12.7891 22.2051 19.9474 22.2051 28.7776C22.2051 37.6078 29.3634 44.7661 38.1936 44.7661Z" fill="#E1E6ED"/>
<path d="M42.9697 29.2898L46.1303 26.1292L48.9238 28.9227L55.7977 22.0488" stroke="#010101" stroke-width="0.75" stroke-miterlimit="10" stroke-linecap="round" stroke-linejoin="round"/>
<path d="M53.6997 20.6514H57.1956V23.9116" stroke="#010101" stroke-width="0.75" stroke-miterlimit="10" stroke-linecap="round" stroke-linejoin="round"/>
<path d="M13.3379 49.123C18.6595 49.123 22.9736 44.8089 22.9736 39.4873C22.9736 34.1656 18.6595 29.8516 13.3379 29.8516C8.0162 29.8516 3.70215 34.1656 3.70215 39.4873C3.70215 44.8089 8.0162 49.123 13.3379 49.123Z" fill="#E1E6ED"/>
<path d="M10.9023 52.8977C10.5488 52.5442 10.5488 51.971 10.9023 51.6153L18.5918 43.9258L19.8742 45.2081L12.1846 52.8977C11.8289 53.2534 11.2557 53.2534 10.9023 52.8977Z" fill="#FF3F00" stroke="#010101" stroke-width="0.75" stroke-miterlimit="10" stroke-linecap="round"/>
<path d="M42.2629 52.8977C42.6163 52.5442 42.6163 51.971 42.2629 51.6153L34.5734 43.9258L33.291 45.2081L40.9805 52.8977C41.3363 53.2534 41.9095 53.2534 42.2629 52.8977Z" fill="#FF3F00" stroke="#010101" stroke-width="0.75" stroke-miterlimit="10" stroke-linecap="round"/>
<path d="M26.3945 13.1631C25.8938 13.1631 25.4883 13.5686 25.4883 14.0693V24.9443H27.3008V14.0693C27.3008 13.5686 26.8952 13.1631 26.3945 13.1631Z" fill="#FF3F00" stroke="#010101" stroke-width="0.75" stroke-miterlimit="10" stroke-linecap="round"/>
<path d="M26.2812 48.5068C34.9776 48.5068 42.0273 41.4571 42.0273 32.7607C42.0273 24.0644 34.9776 17.0146 26.2812 17.0146C17.5849 17.0146 10.5352 24.0644 10.5352 32.7607C10.5352 41.4571 17.5849 48.5068 26.2812 48.5068Z" fill="#FF3F00" stroke="#010101" stroke-width="0.75" stroke-miterlimit="10" stroke-linecap="round"/>
<path d="M26.2812 43.0693C31.8494 43.0693 36.3633 38.5555 36.3633 32.9873C36.3633 27.4192 31.8494 22.9053 26.2812 22.9053C20.7131 22.9053 16.1992 27.4192 16.1992 32.9873C16.1992 38.5555 20.7131 43.0693 26.2812 43.0693Z" fill="white" stroke="#010101" stroke-width="0.75" stroke-miterlimit="10" stroke-linecap="round"/>
<path d="M26.2812 36.9521C28.471 36.9521 30.2461 35.177 30.2461 32.9873C30.2461 30.7976 28.471 29.0225 26.2812 29.0225C24.0915 29.0225 22.3164 30.7976 22.3164 32.9873C22.3164 35.177 24.0915 36.9521 26.2812 36.9521Z" fill="#FF3F00" stroke="#010101" stroke-width="0.75" stroke-miterlimit="10" stroke-linecap="round"/>
<path d="M50.5234 8.98301L49.7395 4.83691L43.8194 10.757C42.7229 11.8536 42.0522 13.3081 41.9299 14.8555L41.7917 16.6091L25.9595 32.4413C25.6854 32.7154 25.6854 33.1618 25.9595 33.4382C26.2337 33.7123 26.68 33.7123 26.9564 33.4382L42.8203 17.5697L44.5105 17.4496C46.076 17.3386 47.5487 16.6657 48.6565 15.5556L54.5585 9.65363L50.5234 8.98301Z" fill="#FF3F00" stroke="#010101" stroke-width="0.75" stroke-miterlimit="10" stroke-linecap="round"/>
<path d="M51.7402 34.5625V35.462" stroke="#010101" stroke-width="0.75" stroke-miterlimit="10" stroke-linecap="round"/>
<path d="M51.7402 32.2285V33.1257" stroke="#010101" stroke-width="0.75" stroke-miterlimit="10" stroke-linecap="round"/>
<path d="M51.022 33.8438H50.1226" stroke="#010101" stroke-width="0.75" stroke-miterlimit="10" stroke-linecap="round"/>
<path d="M53.3557 33.8438H52.4585" stroke="#010101" stroke-width="0.75" stroke-miterlimit="10" stroke-linecap="round"/>
<path d="M34.9902 11.7197V13.2581" stroke="#010101" stroke-width="0.75" stroke-miterlimit="10" stroke-linecap="round"/>
<path d="M34.9902 7.72559V9.26168" stroke="#010101" stroke-width="0.75" stroke-miterlimit="10" stroke-linecap="round"/>
<path d="M33.7625 10.4922H32.2241" stroke="#010101" stroke-width="0.75" stroke-miterlimit="10" stroke-linecap="round"/>
<path d="M37.7568 10.4922H36.2207" stroke="#010101" stroke-width="0.75" stroke-miterlimit="10" stroke-linecap="round"/>
<path d="M1.51334 43.8651L0.804199 43.1582" stroke="#010101" stroke-width="0.75" stroke-miterlimit="10" stroke-linecap="round"/>
<path d="M1.51334 40.3963L0.804199 39.6895" stroke="#010101" stroke-width="0.75" stroke-miterlimit="10" stroke-linecap="round"/>
<path d="M1.51334 36.9276L0.804199 36.2207" stroke="#010101" stroke-width="0.75" stroke-miterlimit="10" stroke-linecap="round"/>
<path d="M4.98209 43.8651L4.27295 43.1582" stroke="#010101" stroke-width="0.75" stroke-miterlimit="10" stroke-linecap="round"/>
<path d="M4.98209 40.3963L4.27295 39.6895" stroke="#010101" stroke-width="0.75" stroke-miterlimit="10" stroke-linecap="round"/>
<path d="M4.98209 36.9276L4.27295 36.2207" stroke="#010101" stroke-width="0.75" stroke-miterlimit="10" stroke-linecap="round"/>
<path d="M8.64762 43.8651L7.93848 43.1582" stroke="#010101" stroke-width="0.75" stroke-miterlimit="10" stroke-linecap="round"/>
<path d="M8.64762 40.3963L7.93848 39.6895" stroke="#010101" stroke-width="0.75" stroke-miterlimit="10" stroke-linecap="round"/>
<path d="M8.64762 36.9276L7.93848 36.2207" stroke="#010101" stroke-width="0.75" stroke-miterlimit="10" stroke-linecap="round"/>
<path d="M43.6133 15.8818L49.1641 10.3311" stroke="#010101" stroke-width="0.75" stroke-miterlimit="10" stroke-linecap="round"/>
<path d="M51.1827 43.6013L47.1498 39.5685C46.6197 39.0384 45.7587 39.0384 45.2263 39.5685L41.1935 43.6013C40.6634 44.1315 40.6634 44.9924 41.1935 45.5248L45.2263 49.5577C45.7565 50.0878 46.6174 50.0878 47.1498 49.5577L51.1827 45.5248C51.7128 44.9924 51.7128 44.1315 51.1827 43.6013Z" stroke="#010101" stroke-width="0.75" stroke-miterlimit="10" stroke-linecap="round"/>
<path d="M46.5607 44.5596L45.7519 44.5687C45.3101 44.5732 44.9499 44.213 44.9454 43.7621C44.9408 43.3112 45.2943 42.9442 45.7361 42.9397L47.1657 42.9238" stroke="#010101" stroke-width="0.75" stroke-miterlimit="10" stroke-linecap="round"/>
<path d="M45.8156 44.5667L46.6244 44.5577C47.0662 44.5531 47.4264 44.9134 47.431 45.3642C47.4355 45.8151 47.0821 46.1821 46.6403 46.1866L45.188 46.2025" stroke="#010101" stroke-width="0.75" stroke-miterlimit="10" stroke-linecap="round"/>
<path d="M46.2955 42.5276C46.2933 42.3033 46.291 42.1221 46.291 42.1221C46.291 42.1221 46.2933 42.3056 46.2955 42.5276ZM46.2955 42.5276C46.2978 42.7519 46.3001 42.9332 46.3001 42.9332C46.3001 42.9332 46.2978 42.7519 46.2955 42.5276Z" stroke="#010101" stroke-width="0.75" stroke-miterlimit="10" stroke-linecap="round"/>
<path d="M46.341 46.597C46.3387 46.3727 46.3364 46.1914 46.3364 46.1914C46.3364 46.1914 46.3387 46.3727 46.341 46.597ZM46.341 46.597C46.3432 46.8212 46.3455 47.0025 46.3455 47.0025C46.3455 47.0025 46.3432 46.819 46.341 46.597Z" stroke="#010101" stroke-width="0.75" stroke-miterlimit="10" stroke-linecap="round"/>
</svg>
