<svg width="58" height="58" viewBox="0 0 58 58" fill="none" xmlns="http://www.w3.org/2000/svg">
<path d="M18.6666 52.9338C27.418 52.9338 34.5124 45.8394 34.5124 37.088C34.5124 28.3366 27.418 21.2422 18.6666 21.2422C9.9152 21.2422 2.8208 28.3366 2.8208 37.088C2.8208 45.8394 9.9152 52.9338 18.6666 52.9338Z" fill="#E1E6ED"/>
<path d="M45.2015 31.2789C50.4756 31.2789 54.7511 27.0034 54.7511 21.7293C54.7511 16.4552 50.4756 12.1797 45.2015 12.1797C39.9274 12.1797 35.6519 16.4552 35.6519 21.7293C35.6519 27.0034 39.9274 31.2789 45.2015 31.2789Z" fill="#E1E6ED"/>
<path d="M12.9731 49.9328V48.8408" stroke="#010101" stroke-width="0.75" stroke-miterlimit="10" stroke-linecap="round"/>
<path d="M10.6689 51.1445H11.6069" stroke="#010101" stroke-width="0.75" stroke-miterlimit="10" stroke-linecap="round"/>
<path d="M14.3413 51.1445H15.2793" stroke="#010101" stroke-width="0.75" stroke-miterlimit="10" stroke-linecap="round"/>
<path d="M12.9731 53.4518V52.2012" stroke="#010101" stroke-width="0.75" stroke-miterlimit="10" stroke-linecap="round"/>
<path d="M48.6436 26.6894V25.8896" stroke="#010101" stroke-width="0.75" stroke-miterlimit="10" stroke-linecap="round"/>
<path d="M46.96 27.5732H47.6442" stroke="#010101" stroke-width="0.75" stroke-miterlimit="10" stroke-linecap="round"/>
<path d="M49.6401 27.5732H50.3244" stroke="#010101" stroke-width="0.75" stroke-miterlimit="10" stroke-linecap="round"/>
<path d="M48.6436 29.2568V28.3438" stroke="#010101" stroke-width="0.75" stroke-miterlimit="10" stroke-linecap="round"/>
<path d="M21.9563 55.055L21.3242 54.4229" stroke="#010101" stroke-width="0.75" stroke-miterlimit="10" stroke-linecap="round"/>
<path d="M21.9563 51.9641L21.3242 51.332" stroke="#010101" stroke-width="0.75" stroke-miterlimit="10" stroke-linecap="round"/>
<path d="M21.9563 48.8743L21.3242 48.2422" stroke="#010101" stroke-width="0.75" stroke-miterlimit="10" stroke-linecap="round"/>
<path d="M25.0467 55.055L24.4146 54.4229" stroke="#010101" stroke-width="0.75" stroke-miterlimit="10" stroke-linecap="round"/>
<path d="M25.0467 51.9641L24.4146 51.332" stroke="#010101" stroke-width="0.75" stroke-miterlimit="10" stroke-linecap="round"/>
<path d="M25.0467 48.8743L24.4146 48.2422" stroke="#010101" stroke-width="0.75" stroke-miterlimit="10" stroke-linecap="round"/>
<path d="M28.3138 55.055L27.6816 54.4229" stroke="#010101" stroke-width="0.75" stroke-miterlimit="10" stroke-linecap="round"/>
<path d="M28.3138 51.9641L27.6816 51.332" stroke="#010101" stroke-width="0.75" stroke-miterlimit="10" stroke-linecap="round"/>
<path d="M28.3138 48.8743L27.6816 48.2422" stroke="#010101" stroke-width="0.75" stroke-miterlimit="10" stroke-linecap="round"/>
<path d="M15.293 25.8619C15.293 25.8619 16.3375 24.3122 15.8254 22.9256C15.3111 22.0579 15.1367 22.2301 15.1367 22.2301C15.1367 22.2301 14.4547 20.4991 11.8606 20.6577C9.26645 20.8186 8.5641 23.2337 8.55957 24.0992L8.90621 23.927C8.90621 23.927 8.38512 24.6158 8.89715 25.6557C8.89715 25.6557 9.59496 24.1037 10.2882 24.106L10.1115 24.797C10.1115 24.797 12.5312 24.9805 13.92 23.6053L13.3967 24.4662C13.3967 24.4662 14.4343 24.2986 14.7832 23.782C14.7855 23.7866 14.6065 24.8219 15.293 25.8619Z" fill="#FF3F00"/>
<path d="M9.84633 31.9502C9.34109 32.3195 8.68406 32.8225 7.23406 33.1261C5.64812 33.4591 4.71469 33.9847 4.17773 34.4197" stroke="#010101" stroke-width="0.75" stroke-miterlimit="10" stroke-linecap="round" stroke-linejoin="round"/>
<path d="M14.4453 31.9697C14.9483 32.3436 15.6008 32.8533 17.0462 33.1705C18.417 33.4718 19.2983 33.9136 19.8556 34.3124" stroke="#010101" stroke-width="0.75" stroke-miterlimit="10" stroke-linecap="round" stroke-linejoin="round"/>
<path d="M11.3188 32.7108C12.1798 32.9102 13.3171 32.858 14.4182 31.9631C14.2415 31.5213 14.2483 30.9391 14.2981 30.4746" stroke="#010101" stroke-width="0.75" stroke-miterlimit="10" stroke-linecap="round" stroke-linejoin="round"/>
<path d="M9.97984 30.2959C10.0455 30.7785 10.0841 31.4718 9.87109 31.9407C9.87109 32.0314 10.2177 32.3191 10.7705 32.5389" stroke="#010101" stroke-width="0.75" stroke-miterlimit="10" stroke-linecap="round" stroke-linejoin="round"/>
<path d="M13.1973 20.8252C15.2319 21.2647 15.0937 22.248 15.0937 22.248C15.0937 22.248 15.9637 22.504 15.9093 23.5575C15.8549 24.6133 15.8753 25.1254 15.4516 25.6215C15.2409 25.7008 15.2409 25.7801 15.2409 25.7801C15.2409 25.7801 14.6224 24.7153 14.8694 23.7116C14.8694 23.7116 14.5612 24.1874 13.5666 24.2621C13.5666 24.2621 14.056 23.8793 14.1058 23.6278C14.1058 23.6278 12.0328 25.0483 10.1206 24.7221C10.1206 24.7221 10.5058 24.4049 10.5058 24.0084C10.5058 24.0084 9.73998 24.1647 9.19623 25.6714L8.89037 25.5898C8.89037 25.5898 8.58904 24.5544 8.89943 23.8407C8.74537 23.8407 8.59131 24.0786 8.59131 24.0786C8.59131 24.0786 8.67514 22.7283 9.44318 21.9354C9.44318 21.9354 9.95068 21.3032 10.9022 20.9475" stroke="#010101" stroke-width="0.75" stroke-miterlimit="10" stroke-linecap="round" stroke-linejoin="round"/>
<path d="M11.437 20.7938C11.8199 20.7122 12.2549 20.6851 12.7375 20.7462" stroke="#010101" stroke-width="0.75" stroke-miterlimit="10" stroke-linecap="round" stroke-linejoin="round"/>
<path d="M9.11919 25.6221C8.68192 25.6606 8.39192 26.1636 8.44403 26.7504C8.48481 27.2261 8.73856 27.609 9.06481 27.7178C9.21661 29.8475 10.6734 31.5036 12.137 31.5127C13.6935 31.5195 15.0597 29.8679 15.2454 27.7336C15.5536 27.6113 15.7937 27.2443 15.8368 26.7889C15.8934 26.2021 15.6079 25.6968 15.1729 25.6538" stroke="#010101" stroke-width="0.75" stroke-miterlimit="10" stroke-linecap="round" stroke-linejoin="round"/>
<path d="M13.2085 17.6445C18.3469 18.1656 22.3594 22.5066 22.3594 27.7832C22.3594 33.0553 18.356 37.394 13.2221 37.9219" stroke="#010101" stroke-width="0.75" stroke-miterlimit="10" stroke-linecap="round" stroke-linejoin="round"/>
<path d="M10.6461 37.8632C5.73879 37.1291 1.97559 32.897 1.97559 27.7834C1.97559 22.6269 5.80449 18.3652 10.773 17.6855" stroke="#010101" stroke-width="0.75" stroke-miterlimit="10" stroke-linecap="round" stroke-linejoin="round"/>
<path d="M43.6813 7.76412C43.6813 7.76412 42.6436 8.80177 41.4587 8.94904C40.2738 9.0963 40.421 10.7276 40.421 10.7276C40.421 10.7276 39.8274 11.1716 40.1242 11.9125C40.1763 12.0461 40.5049 12.4925 40.5683 12.6533C40.7767 13.179 40.7518 13.4984 40.8651 13.8383C40.8651 13.8383 40.7178 14.8759 40.1242 14.8759C40.1242 14.8759 40.421 13.8383 39.3834 12.207C38.3457 10.5758 39.6802 7.46505 40.421 6.72193C41.1619 5.9788 42.9404 4.49935 44.8684 5.68427C46.7965 6.8692 47.091 8.94451 46.647 11.7607C46.2029 14.5769 46.3502 15.1704 46.3502 15.1704C46.3502 15.1704 45.1652 14.5769 45.0157 13.9855C45.0157 13.9855 45.6093 13.3919 45.6093 12.3543C45.6093 12.3543 46.2029 12.207 46.0534 11.3166C45.9061 10.4262 45.4598 10.5758 45.4598 10.5758C45.4598 10.5758 45.9038 8.50498 43.6813 7.76412Z" fill="#FF3F00"/>
<path d="M45.1382 14.0784C45.2515 14.6539 46.2823 15.064 46.2823 15.064C46.0467 13.2402 46.7287 12.3248 46.7762 10.0547" stroke="#010101" stroke-width="0.75" stroke-miterlimit="10" stroke-linecap="round" stroke-linejoin="round"/>
<path d="M46.5952 8.06543C46.7176 8.4891 46.7878 8.95809 46.7946 9.47238" stroke="#010101" stroke-width="0.75" stroke-miterlimit="10" stroke-linecap="round" stroke-linejoin="round"/>
<path d="M40.8768 13.7911C40.8269 14.4504 40.0453 14.9352 40.0453 14.9352C40.0453 14.9352 40.4848 14.4096 39.6579 12.8078C38.9374 11.4099 38.8354 9.64501 39.7122 7.72603C40.589 5.80704 42.943 4.76712 44.4179 5.49892C45.2834 5.92712 45.9744 6.58642 46.3822 7.48814" stroke="#010101" stroke-width="0.75" stroke-miterlimit="10" stroke-linecap="round" stroke-linejoin="round"/>
<path d="M45.5254 10.6916C45.6138 9.42055 45.206 8.27641 43.6178 7.83008C43.6178 7.83008 42.639 8.58906 41.4201 9.04672C40.7291 9.30727 40.4935 9.91898 40.4663 10.6372" stroke="#010101" stroke-width="0.75" stroke-miterlimit="10" stroke-linecap="round" stroke-linejoin="round"/>
<path d="M43.6182 7.82758C43.6182 7.82758 44.069 7.37219 44.0668 6.76953L43.6182 7.82758Z" fill="white"/>
<path d="M43.6182 7.82758C43.6182 7.82758 44.069 7.37219 44.0668 6.76953" stroke="#010101" stroke-width="0.75" stroke-miterlimit="10" stroke-linecap="round" stroke-linejoin="round"/>
<path d="M41.8056 16.8109L41.1372 15.7324" stroke="#010101" stroke-width="0.75" stroke-miterlimit="10" stroke-linecap="round" stroke-linejoin="round"/>
<path d="M44.8051 14.4814C44.7688 14.8689 44.7666 15.3537 44.9161 15.7185L44.1367 16.9691" stroke="#010101" stroke-width="0.75" stroke-miterlimit="10" stroke-linecap="round" stroke-linejoin="round"/>
<path d="M41.2165 14.3662C41.2731 14.765 41.3117 15.3427 41.1372 15.7346" stroke="#010101" stroke-width="0.75" stroke-miterlimit="10" stroke-linecap="round" stroke-linejoin="round"/>
<path d="M40.5388 10.7349C40.1763 10.7689 39.9384 11.1903 39.986 11.6774C40.0245 12.0716 40.2375 12.3888 40.5094 12.4772C40.6499 14.2466 42.0999 15.384 43.0899 15.3795C44.003 15.3749 45.5074 14.2217 45.6478 12.4455C45.9038 12.3413 46.0987 12.0354 46.1327 11.6548C46.1757 11.1677 45.9356 10.7485 45.5731 10.7168" stroke="#010101" stroke-width="0.75" stroke-miterlimit="10" stroke-linecap="round" stroke-linejoin="round"/>
<path d="M40.9672 15.8799C40.5345 16.1993 39.9726 16.6321 38.731 16.8994C36.3771 17.4046 35.6996 18.3993 35.5728 18.6258" stroke="#010101" stroke-width="0.75" stroke-miterlimit="10" stroke-linecap="round" stroke-linejoin="round"/>
<path d="M44.9116 15.8799C45.3444 16.1993 45.9062 16.6321 47.1478 16.8994C49.5018 17.4046 50.1792 18.3993 50.3061 18.6258" stroke="#010101" stroke-width="0.75" stroke-miterlimit="10" stroke-linecap="round" stroke-linejoin="round"/>
<path d="M52.5422 13.5122C52.0461 18.3357 47.9702 22.0989 43.0153 22.0989C37.7273 22.0989 33.4385 17.8123 33.4385 12.5221C33.4385 7.23187 37.7273 2.94531 43.0175 2.94531C46.1192 2.94531 48.8764 4.42023 50.6255 6.70398" stroke="black" stroke-width="0.75" stroke-miterlimit="10" stroke-linecap="round"/>
<path d="M45.9355 41.8415C45.9355 41.8415 46.9459 40.3122 46.4339 38.9597C45.9219 38.1146 45.7542 38.2845 45.7542 38.2845C45.7542 38.2845 45.07 36.5921 42.528 36.7711C39.9859 36.9501 39.3176 39.3244 39.3198 40.1718L39.6574 40.0019C39.6574 40.0019 39.1522 40.6815 39.6642 41.6965C39.6642 41.6965 40.3371 40.1695 41.0145 40.1672L40.8469 40.8447C40.8469 40.8447 43.219 41.0055 44.5715 39.6439L44.0663 40.4935C44.0663 40.4935 45.0836 40.3213 45.4189 39.8115C45.4189 39.8093 45.2535 40.8265 45.9355 41.8415Z" fill="#FF3F00"/>
<path d="M48.0518 49.0693C49.0736 49.3186 49.794 49.6471 50.2947 49.9643" stroke="#010101" stroke-width="0.75" stroke-miterlimit="10" stroke-linecap="round" stroke-linejoin="round"/>
<path d="M45.1562 47.8369C45.6094 48.1677 46.1848 48.6072 47.3607 48.9108" stroke="#010101" stroke-width="0.75" stroke-miterlimit="10" stroke-linecap="round" stroke-linejoin="round"/>
<path d="M42.0952 48.5891C42.9403 48.7772 44.055 48.716 45.1266 47.8302C44.9499 47.3997 44.9522 46.8287 44.9952 46.3711" stroke="#010101" stroke-width="0.75" stroke-miterlimit="10" stroke-linecap="round" stroke-linejoin="round"/>
<path d="M40.7653 46.2305C40.8332 46.7017 40.8763 47.3837 40.6724 47.8436C40.6746 47.932 41.0167 48.2129 41.5582 48.4236" stroke="#010101" stroke-width="0.75" stroke-miterlimit="10" stroke-linecap="round" stroke-linejoin="round"/>
<path d="M43.8376 36.9209C45.8359 37.3355 45.709 38.3007 45.709 38.3007C45.709 38.3007 46.5632 38.5431 46.5201 39.5785C46.4771 40.6139 46.4997 41.1168 46.0874 41.6062C45.8812 41.6855 45.8812 41.7625 45.8812 41.7625C45.8812 41.7625 45.265 40.7226 45.4983 39.7371C45.4983 39.7371 45.1993 40.2061 44.2251 40.2876C44.2251 40.2876 44.7008 39.9093 44.7484 39.6623C44.7484 39.6623 42.7275 41.0738 40.8515 40.7679C40.8515 40.7679 41.2254 40.4553 41.2231 40.0656C41.2231 40.0656 40.4732 40.2242 39.9544 41.7082L39.653 41.6311C39.653 41.6311 39.3494 40.6184 39.6462 39.9161C39.4967 39.9161 39.3472 40.1517 39.3472 40.1517C39.3472 40.1517 39.4174 38.8263 40.1651 38.0446C40.1651 38.0446 40.6567 37.4216 41.5879 37.0636" stroke="#010101" stroke-width="0.75" stroke-miterlimit="10" stroke-linecap="round" stroke-linejoin="round"/>
<path d="M42.1113 36.9027C42.4852 36.8211 42.9111 36.7894 43.3869 36.846" stroke="#010101" stroke-width="0.75" stroke-miterlimit="10" stroke-linecap="round" stroke-linejoin="round"/>
<path d="M39.8795 41.6584C39.4513 41.6992 39.1726 42.1954 39.227 42.7708C39.2723 43.2353 39.5215 43.6091 39.8432 43.7133C40.0086 45.8 41.4518 47.4131 42.8882 47.4063C44.413 47.3995 45.7384 45.7705 45.9038 43.6748C46.2051 43.5525 46.4362 43.19 46.4747 42.7436C46.5246 42.1682 46.2414 41.6743 45.8131 41.6357" stroke="#010101" stroke-width="0.75" stroke-miterlimit="10" stroke-linecap="round" stroke-linejoin="round"/>
<path d="M40.6068 47.7939C40.1129 48.161 39.4739 48.6594 38.0557 48.9698C36.9863 49.2032 36.2205 49.5249 35.6768 49.8421" stroke="#010101" stroke-width="0.75" stroke-miterlimit="10" stroke-linecap="round" stroke-linejoin="round"/>
<path d="M52.5668 44.4994C52.1953 49.4498 48.0628 53.3489 43.0172 53.3489C37.7293 53.3489 33.4404 49.0623 33.4404 43.7721C33.4404 38.4819 37.727 34.1953 43.0172 34.1953C46.205 34.1953 49.0279 35.7518 50.7702 38.1488" stroke="black" stroke-width="0.75" stroke-miterlimit="10" stroke-linecap="round"/>
<path d="M51.5562 39.4336C52.1158 40.5324 52.4692 41.7513 52.5666 43.0427" stroke="black" stroke-width="0.75" stroke-miterlimit="10" stroke-linecap="round"/>
<path d="M35.706 22.8873C36.2543 23.302 36.6077 23.959 36.6077 24.6976V31.2656C36.6077 32.5185 35.5927 33.5335 34.3398 33.5335H27.7718C26.5189 33.5335 25.5039 32.5185 25.5039 31.2656V24.6976C25.5039 23.4447 26.5189 22.4297 27.7718 22.4297H28.7415" fill="#FF3F00"/>
<path d="M35.706 22.8873C36.2543 23.302 36.6077 23.959 36.6077 24.6976V31.2656C36.6077 32.5185 35.5927 33.5335 34.3398 33.5335H27.7718C26.5189 33.5335 25.5039 32.5185 25.5039 31.2656V24.6976C25.5039 23.4447 26.5189 22.4297 27.7718 22.4297H28.7415" stroke="#010101" stroke-width="0.75" stroke-miterlimit="10" stroke-linecap="round" stroke-linejoin="round"/>
<path d="M34.3398 22.4297C34.4735 22.4297 34.6027 22.441 34.7295 22.4637L34.3398 22.4297Z" fill="#FF3F00"/>
<path d="M34.3398 22.4297C34.4735 22.4297 34.6027 22.441 34.7295 22.4637" stroke="#010101" stroke-width="0.75" stroke-miterlimit="10" stroke-linecap="round" stroke-linejoin="round"/>
<path d="M29.8789 22.4297H33.2819" stroke="#010101" stroke-width="0.75" stroke-miterlimit="10" stroke-linecap="round" stroke-linejoin="round"/>
<path d="M29.5229 28.0034L30.7101 29.1906L33.6804 26.2227" stroke="black" stroke-width="0.75" stroke-miterlimit="10" stroke-linecap="round"/>
<path d="M54.6649 6.74512H50.7612C50.0113 6.74512 49.4019 7.35457 49.4019 8.10449V12.0082C49.4019 12.7581 50.0113 13.3675 50.7612 13.3675H54.6649C55.4148 13.3675 56.0243 12.7581 56.0243 12.0082V8.10449C56.0243 7.35457 55.4171 6.74512 54.6649 6.74512Z" stroke="#010101" stroke-width="0.75" stroke-miterlimit="10" stroke-linecap="round"/>
<path d="M51.6562 10.1939L52.3518 10.8894L54.0895 9.14941" stroke="black" stroke-width="0.75" stroke-miterlimit="10" stroke-linecap="round"/>
<path d="M12.0029 16.2811V14.5819C12.0029 13.1908 13.1312 12.0625 14.5223 12.0625H29.4052" stroke="#010101" stroke-width="0.75" stroke-miterlimit="10" stroke-linecap="round"/>
<path d="M29.4077 13.7205L31.8229 12.0598L29.4077 10.4014V13.7205Z" stroke="#010101" stroke-width="0.75" stroke-miterlimit="10" stroke-linecap="round" stroke-linejoin="round"/>
<path d="M12.0189 18.6102C12.5758 18.6102 13.0271 18.1588 13.0271 17.602C13.0271 17.0451 12.5758 16.5938 12.0189 16.5938C11.4621 16.5938 11.0107 17.0451 11.0107 17.602C11.0107 18.1588 11.4621 18.6102 12.0189 18.6102Z" stroke="#010101" stroke-width="0.75" stroke-miterlimit="10" stroke-linecap="round"/>
<path d="M12.0029 39.4033V41.1025C12.0029 42.4936 13.1312 43.6219 14.5223 43.6219H29.4052" stroke="#010101" stroke-width="0.75" stroke-miterlimit="10" stroke-linecap="round"/>
<path d="M12.0189 38.8396C12.5758 38.8396 13.0271 38.3883 13.0271 37.8314C13.0271 37.2746 12.5758 36.8232 12.0189 36.8232C11.4621 36.8232 11.0107 37.2746 11.0107 37.8314C11.0107 38.3883 11.4621 38.8396 12.0189 38.8396Z" stroke="#010101" stroke-width="0.75" stroke-miterlimit="10" stroke-linecap="round"/>
<path d="M29.4077 45.1808L31.8229 43.5201L29.4077 41.8594V45.1808Z" stroke="#010101" stroke-width="0.75" stroke-miterlimit="10" stroke-linecap="round" stroke-linejoin="round"/>
</svg>
