<svg width="58" height="58" viewBox="0 0 58 58" fill="none" xmlns="http://www.w3.org/2000/svg">
<path d="M38.1893 34.7433C46.056 34.7433 52.4333 28.3661 52.4333 20.4994C52.4333 12.6326 46.056 6.25537 38.1893 6.25537C30.3226 6.25537 23.9453 12.6326 23.9453 20.4994C23.9453 28.3661 30.3226 34.7433 38.1893 34.7433Z" fill="#E1E6ED"/>
<path d="M14.6922 50.3941C19.4345 50.3941 23.2789 46.5497 23.2789 41.8074C23.2789 37.0651 19.4345 33.2207 14.6922 33.2207C9.94987 33.2207 6.10547 37.0651 6.10547 41.8074C6.10547 46.5497 9.94987 50.3941 14.6922 50.3941Z" fill="#E1E6ED"/>
<path d="M27.6945 36.8686C32.2429 36.8686 35.9301 33.1814 35.9301 28.633C35.9301 24.0846 32.2429 20.3975 27.6945 20.3975C23.1462 20.3975 19.459 24.0846 19.459 28.633C19.459 33.1814 23.1462 36.8686 27.6945 36.8686Z" fill="#FF3F00" stroke="#010101" stroke-width="0.75" stroke-miterlimit="10"/>
<path d="M28.1882 28.4766L26.9919 28.0892C26.3394 27.8785 25.986 27.1671 26.2012 26.501C26.4165 25.8349 27.1211 25.4679 27.7736 25.6786L29.8919 26.3651" stroke="#010101" stroke-width="0.75" stroke-miterlimit="10" stroke-linecap="round"/>
<path d="M27.0826 28.1187L28.2789 28.5061C28.9314 28.7168 29.2848 29.4282 29.0696 30.0943C28.8544 30.7604 28.1497 31.1274 27.4972 30.9167L25.3472 30.2189" stroke="#010101" stroke-width="0.75" stroke-miterlimit="10" stroke-linecap="round"/>
<path d="M28.8047 25.3501C28.9112 25.0193 28.9996 24.752 28.9996 24.752C28.9996 24.752 28.9112 25.0193 28.8047 25.3501ZM28.8047 25.3501C28.6982 25.6809 28.6099 25.9482 28.6099 25.9482C28.6099 25.9482 28.6982 25.6809 28.8047 25.3501Z" stroke="#010101" stroke-width="0.75" stroke-miterlimit="10" stroke-linecap="round"/>
<path d="M26.854 31.3696C26.9605 31.0388 27.0489 30.7715 27.0489 30.7715C27.0489 30.7715 26.9605 31.0388 26.854 31.3696ZM26.854 31.3696C26.7475 31.7004 26.6592 31.9677 26.6592 31.9677C26.6592 31.9677 26.7453 31.7004 26.854 31.3696Z" stroke="#010101" stroke-width="0.75" stroke-miterlimit="10" stroke-linecap="round"/>
<path d="M39.3309 18.551C39.3309 18.551 35.1644 20.0667 30.6422 16.9832C28.5873 15.5445 27.4047 14.6201 27.4047 14.6201L22.2934 17.3842C21.5525 17.7059 20.6961 17.5904 20.0663 17.0829L19.7514 16.8291L19.1487 17.1372C18.3036 17.57 17.2796 17.4408 16.5682 16.8132L16.4118 16.675L15.7208 17.0693C15.091 17.4295 14.2889 17.2573 13.863 16.6705C13.4076 16.0452 13.539 15.1797 14.1349 14.713" stroke="#010101" stroke-width="0.75" stroke-miterlimit="10" stroke-linecap="round" stroke-linejoin="round"/>
<path d="M21.6025 8.27846L25.3159 5.92674C26.75 5.01822 28.592 5.07486 29.9672 6.07174L36.1456 10.4489" stroke="#010101" stroke-width="0.75" stroke-miterlimit="10" stroke-linecap="round" stroke-linejoin="round"/>
<path d="M20.0345 12.7464L15.9473 15.1162C15.3469 15.4629 14.5834 15.3111 14.162 14.7605C14.1507 14.7446 14.1393 14.7288 14.128 14.7129C13.6817 14.074 13.8561 13.1859 14.52 12.7645L18.2288 10.415" stroke="#010101" stroke-width="0.75" stroke-miterlimit="10" stroke-linecap="round" stroke-linejoin="round"/>
<path d="M27.7423 9.30256L19.4365 7.85936C18.6368 7.72116 17.8801 8.26491 17.7555 9.06694C17.649 9.76702 18.0613 10.4399 18.7319 10.6619L23.7843 12.3317C23.7843 12.3317 26.2765 13.3331 27.407 14.6177" stroke="#010101" stroke-width="0.75" stroke-miterlimit="10" stroke-linecap="round" stroke-linejoin="round"/>
<path d="M16.4639 16.625L21.9603 13.5415" stroke="#010101" stroke-width="0.75" stroke-miterlimit="10" stroke-linecap="round" stroke-linejoin="round"/>
<path d="M19.7515 16.8288L24.5818 14.0557" stroke="#010101" stroke-width="0.75" stroke-miterlimit="10" stroke-linecap="round" stroke-linejoin="round"/>
<path d="M40.6056 7.37981L36.5879 8.96289L40.8546 19.7914L44.8723 18.2083L40.6056 7.37981Z" fill="#FF3F00" stroke="#010101" stroke-width="0.75" stroke-miterlimit="10" stroke-linecap="round" stroke-linejoin="round"/>
<path d="M42.1179 17.8529C42.4745 17.8529 42.7636 17.5638 42.7636 17.2072C42.7636 16.8506 42.4745 16.5615 42.1179 16.5615C41.7613 16.5615 41.4722 16.8506 41.4722 17.2072C41.4722 17.5638 41.7613 17.8529 42.1179 17.8529Z" stroke="white" stroke-width="0.75" stroke-miterlimit="10" stroke-linecap="round" stroke-linejoin="round"/>
<path d="M15.8115 39.4492C15.8115 39.4492 19.978 37.9335 24.5002 41.017C26.5551 42.4556 27.7378 43.38 27.7378 43.38L32.8536 40.616C33.5944 40.2942 34.4508 40.4098 35.0807 40.9173L35.3956 41.171L35.9982 40.8629C36.8433 40.4302 37.8674 40.5593 38.5788 41.1869L38.7351 41.3251L39.4261 40.9309C40.056 40.5706 40.858 40.7428 41.2839 41.3296C41.7393 41.9549 41.6079 42.8204 41.0121 43.2871" stroke="#010101" stroke-width="0.75" stroke-miterlimit="10" stroke-linecap="round" stroke-linejoin="round"/>
<path d="M33.5426 49.7213L29.8292 52.073C28.3951 52.9815 26.5531 52.9248 25.1779 51.928L18.9995 47.5508" stroke="#010101" stroke-width="0.75" stroke-miterlimit="10" stroke-linecap="round" stroke-linejoin="round"/>
<path d="M35.1104 45.2536L39.1998 42.8815C39.8002 42.5349 40.5637 42.6867 40.9851 43.2372C40.9964 43.2531 41.0078 43.2689 41.0191 43.2848C41.4654 43.9237 41.291 44.8118 40.6271 45.2332L36.9183 47.5827" stroke="#010101" stroke-width="0.75" stroke-miterlimit="10" stroke-linecap="round" stroke-linejoin="round"/>
<path d="M27.4028 48.697L35.7086 50.1402C36.5084 50.2784 37.2651 49.7346 37.3897 48.9326C37.4962 48.2325 37.0838 47.5596 36.4132 47.3376L31.3609 45.6679C31.3609 45.6679 28.8687 44.6664 27.7381 43.3818" stroke="#010101" stroke-width="0.75" stroke-miterlimit="10" stroke-linecap="round" stroke-linejoin="round"/>
<path d="M38.6808 41.3745L33.1821 44.458" stroke="#010101" stroke-width="0.75" stroke-miterlimit="10" stroke-linecap="round" stroke-linejoin="round"/>
<path d="M35.391 41.1709L30.563 43.944" stroke="#010101" stroke-width="0.75" stroke-miterlimit="10" stroke-linecap="round" stroke-linejoin="round"/>
<path d="M14.5389 50.8536L18.5566 49.2705L14.29 38.442L10.2722 40.0251L14.5389 50.8536Z" fill="#FF3F00" stroke="#010101" stroke-width="0.75" stroke-miterlimit="10" stroke-linecap="round" stroke-linejoin="round"/>
<path d="M12.9365 41.8525C13.3432 41.8525 13.6729 41.5229 13.6729 41.1162C13.6729 40.7095 13.3432 40.3799 12.9365 40.3799C12.5299 40.3799 12.2002 40.7095 12.2002 41.1162C12.2002 41.5229 12.5299 41.8525 12.9365 41.8525Z" stroke="white" stroke-width="0.75" stroke-miterlimit="10" stroke-linecap="round" stroke-linejoin="round"/>
<path d="M51.4702 32.813H45.7676C45.0177 32.813 44.4082 33.4224 44.4082 34.1724V39.8749C44.4082 40.6249 45.0177 41.2343 45.7676 41.2343H51.4702C52.2201 41.2343 52.8295 40.6249 52.8295 39.8749V34.1724C52.8295 33.4202 52.2201 32.813 51.4702 32.813Z" stroke="#010101" stroke-width="0.75" stroke-miterlimit="10" stroke-linecap="round"/>
<path d="M47.272 37.1968L48.1578 38.0804L50.3668 35.8691" stroke="black" stroke-width="0.75" stroke-miterlimit="10" stroke-linecap="round"/>
<path d="M11.9599 33.6283C13.9657 33.6283 15.5917 32.0023 15.5917 29.9965C15.5917 27.9908 13.9657 26.3647 11.9599 26.3647C9.95414 26.3647 8.32812 27.9908 8.32812 29.9965C8.32812 32.0023 9.95414 33.6283 11.9599 33.6283Z" stroke="#010101" stroke-width="0.75" stroke-miterlimit="10"/>
<path d="M11.96 28.5962V31.3965" stroke="#010101" stroke-width="0.75" stroke-miterlimit="10" stroke-linecap="round"/>
<path d="M13.3599 29.9966H10.5596" stroke="#010101" stroke-width="0.75" stroke-miterlimit="10" stroke-linecap="round"/>
<path d="M43.8168 29.7566C45.6249 29.7566 47.0906 28.2909 47.0906 26.4828C47.0906 24.6747 45.6249 23.209 43.8168 23.209C42.0087 23.209 40.543 24.6747 40.543 26.4828C40.543 28.2909 42.0087 29.7566 43.8168 29.7566Z" stroke="#010101" stroke-width="0.75" stroke-miterlimit="10"/>
<path d="M43.8169 25.3159V27.6495" stroke="#010101" stroke-width="0.75" stroke-miterlimit="10" stroke-linecap="round"/>
<path d="M44.9837 26.4829H42.6523" stroke="#010101" stroke-width="0.75" stroke-miterlimit="10" stroke-linecap="round"/>
<path d="M7.24316 44.0526V43.0693" stroke="#010101" stroke-width="0.75" stroke-miterlimit="10" stroke-linecap="round"/>
<path d="M5.16992 45.1426H6.01273" stroke="#010101" stroke-width="0.75" stroke-miterlimit="10" stroke-linecap="round"/>
<path d="M8.47314 45.1426H9.31596" stroke="#010101" stroke-width="0.75" stroke-miterlimit="10" stroke-linecap="round"/>
<path d="M7.24316 47.2155V46.0918" stroke="#010101" stroke-width="0.75" stroke-miterlimit="10" stroke-linecap="round"/>
<path d="M47.0364 15.1273L46.4678 14.5586" stroke="#010101" stroke-width="0.75" stroke-miterlimit="10" stroke-linecap="round"/>
<path d="M47.0364 12.3499L46.4678 11.7812" stroke="#010101" stroke-width="0.75" stroke-miterlimit="10" stroke-linecap="round"/>
<path d="M47.0364 9.56982L46.4678 9.00342" stroke="#010101" stroke-width="0.75" stroke-miterlimit="10" stroke-linecap="round"/>
<path d="M49.814 15.1273L49.2476 14.5586" stroke="#010101" stroke-width="0.75" stroke-miterlimit="10" stroke-linecap="round"/>
<path d="M49.814 12.3499L49.2476 11.7812" stroke="#010101" stroke-width="0.75" stroke-miterlimit="10" stroke-linecap="round"/>
<path d="M49.814 9.56982L49.2476 9.00342" stroke="#010101" stroke-width="0.75" stroke-miterlimit="10" stroke-linecap="round"/>
<path d="M52.7528 15.1273L52.1841 14.5586" stroke="#010101" stroke-width="0.75" stroke-miterlimit="10" stroke-linecap="round"/>
<path d="M52.7528 12.3499L52.1841 11.7812" stroke="#010101" stroke-width="0.75" stroke-miterlimit="10" stroke-linecap="round"/>
<path d="M52.7528 9.56982L52.1841 9.00342" stroke="#010101" stroke-width="0.75" stroke-miterlimit="10" stroke-linecap="round"/>
</svg>
