<svg width="58" height="58" viewBox="0 0 58 58" fill="none" xmlns="http://www.w3.org/2000/svg">
<path d="M20.1074 39.2676C28.1156 39.2676 34.6074 32.7757 34.6074 24.7676C34.6074 16.7594 28.1156 10.2676 20.1074 10.2676C12.0993 10.2676 5.60742 16.7594 5.60742 24.7676C5.60742 32.7757 12.0993 39.2676 20.1074 39.2676Z" fill="#E1E6ED"/>
<path d="M44.7481 48.2531C48.4769 48.2531 51.4997 45.2303 51.4997 41.5016C51.4997 37.7728 48.4769 34.75 44.7481 34.75C41.0194 34.75 37.9966 37.7728 37.9966 41.5016C37.9966 45.2303 41.0194 48.2531 44.7481 48.2531Z" fill="#E1E6ED"/>
<path d="M33.9276 27.6699L26.3695 27.6835C25.7487 27.6858 25.2435 27.1806 25.2412 26.5598V26.4895C25.239 25.8688 25.7442 25.3635 26.365 25.3613L33.9231 25.3477C34.5439 25.3454 35.0491 25.8506 35.0514 26.4714V26.5416C35.0514 27.1647 34.5484 27.6699 33.9276 27.6699Z" fill="#FF3F00" stroke="#010101" stroke-width="0.75" stroke-miterlimit="10" stroke-linecap="round"/>
<path d="M32.2895 30.0124L28.0075 30.0214C27.3845 30.0237 26.877 29.5184 26.877 28.8954V28.8252C26.8747 28.2021 27.3799 27.6946 28.003 27.6946L32.285 27.6856C32.9081 27.6833 33.4156 28.1885 33.4156 28.8116V28.8818C33.4156 29.5049 32.9126 30.0101 32.2895 30.0124Z" stroke="#010101" stroke-width="0.75" stroke-miterlimit="10" stroke-linecap="round"/>
<path d="M30.1486 31.8974C29.2446 31.8996 28.5106 31.1747 28.5106 30.282L28.5083 30.0214L31.7799 30.0146L31.7821 30.2752C31.7844 31.1679 31.0526 31.8951 30.1486 31.8974Z" fill="#FF3F00" stroke="#010101" stroke-width="0.75" stroke-miterlimit="10" stroke-linecap="round"/>
<path d="M35.3189 10.2811C34.8046 9.68299 34.0365 9.00783 32.9468 8.52979" stroke="#010101" stroke-width="0.75" stroke-miterlimit="10" stroke-linecap="round"/>
<path d="M36.4062 11.9145C36.3427 11.7446 36.2612 11.5271 36.1094 11.2778" stroke="#010101" stroke-width="0.75" stroke-miterlimit="10" stroke-linecap="round"/>
<path d="M38.5541 14.8373C38.5541 9.99117 34.4533 6.10109 29.5347 6.45C25.4067 6.74226 22.0649 10.0727 21.759 14.1984C21.5211 17.4156 23.0958 20.2839 25.5653 21.8902C26.0886 22.2301 26.4081 22.8055 26.4081 23.4286V25.3498H33.8824V23.4309C33.8824 22.801 34.2132 22.2255 34.7411 21.8789C37.0361 20.3768 38.5541 17.7849 38.5541 14.8373Z" stroke="black" stroke-width="0.75" stroke-miterlimit="10" stroke-linecap="round"/>
<path d="M30.2757 25.1136V20.5755C30.2757 19.8075 29.6527 19.1845 28.8846 19.1845H27.8221C27.0042 19.1845 26.3403 18.5206 26.3403 17.7027C26.3403 16.8848 27.0042 16.221 27.8221 16.2188H28.0531" stroke="#010101" stroke-width="0.75" stroke-miterlimit="10" stroke-linecap="round"/>
<path d="M25.9144 17.5894C25.9144 17.5894 23.4788 17.236 23.608 15.2513C23.7371 13.2643 25.7535 13.04 26.1704 13.04" stroke="#010101" stroke-width="0.75" stroke-miterlimit="10" stroke-linecap="round"/>
<path d="M26.1705 14.1934C26.1705 14.1934 25.6585 11.5676 27.9966 11.0533C30.3348 10.539 31.0394 12.5259 31.0394 12.5259C31.8459 12.39 32.6661 12.6959 33.1849 13.328C34.1455 14.4177 33.2801 15.8904 33.2801 15.8904" stroke="#010101" stroke-width="0.75" stroke-miterlimit="10" stroke-linecap="round"/>
<path d="M27.498 14.2118C27.7722 13.4845 28.5855 13.1175 29.3128 13.3916C30.0401 13.6658 30.4071 14.4791 30.133 15.2064C30.1262 15.2245 30.1194 15.2427 30.1126 15.2608" stroke="#010101" stroke-width="0.75" stroke-miterlimit="10" stroke-linecap="round"/>
<path d="M31.7323 14.9683C32.0359 15.6842 31.6983 16.5112 30.9824 16.8125C30.2665 17.1161 29.4395 16.7785 29.1382 16.0626" stroke="#010101" stroke-width="0.75" stroke-miterlimit="10" stroke-linecap="round"/>
<path d="M33.5199 15.188C34.4579 15.6434 34.8475 16.7739 34.3921 17.7119C33.9368 18.6499 32.8062 19.0396 31.8682 18.5842C31.218 18.267 30.8057 17.6077 30.8057 16.8872" stroke="#010101" stroke-width="0.75" stroke-miterlimit="10" stroke-linecap="round"/>
<path d="M38.2371 19.0174C38.4433 19.0922 38.6404 19.2078 38.8103 19.3664C39.1637 19.6926 39.3608 20.1525 39.354 20.6328C40.0564 20.7348 40.7723 20.7257 41.4724 20.6034C41.4362 19.6699 42.1612 18.886 43.0923 18.8475C43.3302 18.8385 43.5681 18.8792 43.7879 18.9676C44.0076 19.0537 44.2093 19.1874 44.3724 19.3596C44.9411 18.9336 45.4395 18.4193 45.8496 17.8393C45.1631 17.2049 45.1201 16.1333 45.7544 15.4468C46.0784 15.0956 46.5383 14.8985 47.0164 14.9031C47.1183 14.2007 47.1093 13.4848 46.9869 12.7847C46.0535 12.821 45.2696 12.0937 45.2333 11.1603C45.2152 10.6822 45.401 10.22 45.7408 9.88698C45.3172 9.31604 44.8051 8.8176 44.2251 8.40752C43.5908 9.09174 42.5237 9.13252 41.8394 8.50042C41.4883 8.17643 41.2912 7.71651 41.2979 7.23846C40.5956 7.13651 39.8797 7.14557 39.1796 7.26792C39.2113 8.20135 38.4818 8.98526 37.5483 9.01698M38.9779 11.5273C39.6712 11.1467 40.5208 11.0674 41.3115 11.3846H41.3138C42.6913 11.9351 43.3778 13.478 42.8748 14.8623C42.3696 16.2602 40.7814 17.0124 39.3812 16.5139" stroke="black" stroke-width="0.75" stroke-miterlimit="10" stroke-linecap="round" stroke-linejoin="round"/>
<path d="M49.5132 28.3134V26.7637" stroke="#010101" stroke-width="0.75" stroke-miterlimit="10" stroke-linecap="round"/>
<path d="M46.6357 29.6431H47.9634" stroke="#010101" stroke-width="0.75" stroke-miterlimit="10" stroke-linecap="round"/>
<path d="M51.063 29.6431H52.3906" stroke="#010101" stroke-width="0.75" stroke-miterlimit="10" stroke-linecap="round"/>
<path d="M49.5132 32.5207V30.749" stroke="#010101" stroke-width="0.75" stroke-miterlimit="10" stroke-linecap="round"/>
<path d="M17.7217 21.7425C16.9808 21.2758 16.1448 20.8793 15.1978 20.5825" stroke="black" stroke-width="0.75" stroke-miterlimit="10" stroke-linecap="round" stroke-linejoin="round"/>
<path d="M23.3883 32.0924C23.3883 32.0924 23.1187 26.571 19.3237 22.9868" stroke="black" stroke-width="0.75" stroke-miterlimit="10" stroke-linecap="round" stroke-linejoin="round"/>
<path d="M11.6567 17.3361V16.3755" stroke="#010101" stroke-width="0.75" stroke-miterlimit="10" stroke-linecap="round"/>
<path d="M9.44092 18.5889H10.2543" stroke="#010101" stroke-width="0.75" stroke-miterlimit="10" stroke-linecap="round"/>
<path d="M12.9844 18.5889H13.8702" stroke="#010101" stroke-width="0.75" stroke-miterlimit="10" stroke-linecap="round"/>
<path d="M11.6567 20.8024V19.6968" stroke="#010101" stroke-width="0.75" stroke-miterlimit="10" stroke-linecap="round"/>
<path d="M45.2692 38.4312V51.5718H15.5918V38.6577" stroke="black" stroke-width="0.75" stroke-miterlimit="10" stroke-linecap="round" stroke-linejoin="round"/>
<path d="M28.1094 38.6534H13.6479L15.8116 34.1289H30.2754L28.1094 38.6534Z" fill="#FF3F00" stroke="black" stroke-width="0.75" stroke-miterlimit="10" stroke-linecap="round" stroke-linejoin="round"/>
<path d="M32.5297 38.6534H47.1634L44.9997 34.1289H30.3638L32.5297 38.6534Z" fill="#FF3F00" stroke="black" stroke-width="0.75" stroke-miterlimit="10" stroke-linecap="round" stroke-linejoin="round"/>
<path d="M30.3159 34.3555V45.4548" stroke="black" stroke-width="0.75" stroke-miterlimit="10" stroke-linecap="round" stroke-linejoin="round"/>
<path d="M30.3159 46.814V51.3452" stroke="black" stroke-width="0.75" stroke-miterlimit="10" stroke-linecap="round" stroke-linejoin="round"/>
<path d="M19.6699 46.1343H22.613" stroke="#010101" stroke-width="0.75" stroke-miterlimit="10" stroke-linecap="round"/>
<path d="M19.6699 47.9468H22.613" stroke="#010101" stroke-width="0.75" stroke-miterlimit="10" stroke-linecap="round"/>
<path d="M23.9722 47.9468H24.4253" stroke="#010101" stroke-width="0.75" stroke-miterlimit="10" stroke-linecap="round"/>
<path d="M39.605 39.3374V41.1499" stroke="#010101" stroke-width="0.75" stroke-miterlimit="10" stroke-linecap="round"/>
<path d="M40.5112 44.3038L39.3308 43.325L38.2003 44.5485L36.9157 43.325L35.5269 44.3038V38.6533H40.5112V44.3038Z" stroke="#010101" stroke-width="0.75" stroke-miterlimit="10" stroke-linecap="round"/>
<path d="M9.88281 29.0312L10.4538 29.5999" stroke="#010101" stroke-width="0.75" stroke-miterlimit="10" stroke-linecap="round"/>
<path d="M12.6738 29.0312L13.2425 29.5999" stroke="#010101" stroke-width="0.75" stroke-miterlimit="10" stroke-linecap="round"/>
<path d="M15.4629 29.0312L16.0338 29.5999" stroke="#010101" stroke-width="0.75" stroke-miterlimit="10" stroke-linecap="round"/>
<path d="M9.88281 26.0815L10.4538 26.6525" stroke="#010101" stroke-width="0.75" stroke-miterlimit="10" stroke-linecap="round"/>
<path d="M12.6738 26.0815L13.2425 26.6525" stroke="#010101" stroke-width="0.75" stroke-miterlimit="10" stroke-linecap="round"/>
<path d="M15.4629 26.0815L16.0338 26.6525" stroke="#010101" stroke-width="0.75" stroke-miterlimit="10" stroke-linecap="round"/>
<path d="M36.8911 32.0922C36.8911 32.0922 37.095 27.9212 40.6543 26.8042" stroke="black" stroke-width="0.75" stroke-miterlimit="10" stroke-linecap="round" stroke-linejoin="round"/>
<path d="M43.6429 26.5573C44.3148 26.5573 44.8596 26.0126 44.8596 25.3407C44.8596 24.6687 44.3148 24.124 43.6429 24.124C42.971 24.124 42.4263 24.6687 42.4263 25.3407C42.4263 26.0126 42.971 26.5573 43.6429 26.5573Z" fill="#FF3F00" stroke="#010101" stroke-width="0.75" stroke-miterlimit="10" stroke-linecap="round"/>
</svg>
