<svg width="58" height="58" viewBox="0 0 58 58" fill="none" xmlns="http://www.w3.org/2000/svg">
<path d="M11.6409 45.7837C14.9655 45.7837 17.6606 43.0885 17.6606 39.7639C17.6606 36.4393 14.9655 33.7441 11.6409 33.7441C8.31624 33.7441 5.62109 36.4393 5.62109 39.7639C5.62109 43.0885 8.31624 45.7837 11.6409 45.7837Z" fill="#E1E6ED"/>
<path d="M30.2189 37.3308C37.1347 37.3308 42.741 31.7245 42.741 24.8087C42.741 17.893 37.1347 12.2866 30.2189 12.2866C23.3031 12.2866 17.6968 17.893 17.6968 24.8087C17.6968 31.7245 23.3031 37.3308 30.2189 37.3308Z" fill="#E1E6ED"/>
<path d="M30.8147 36.973C30.8147 36.973 28.2704 38.0038 24.7882 38.6201C24.2263 36.5063 24.6908 33.8124 24.6908 33.8124L20.7848 34.1024L16.8789 33.8124C16.8789 33.8124 17.3728 36.6852 16.7248 38.824C14.8512 38.5204 13.0137 37.9064 11.3802 36.837C11.3802 36.837 12.6762 35.6 12.4813 33.1259C12.3794 31.864 10.764 27.0042 11.1061 24.0567C11.4414 21.1725 12.4813 18.012 16.7407 17.7356C16.7407 17.7356 21.4124 13.338 27.4594 18.4243C33.504 23.5084 28.2047 31.2024 29.4418 34.2248C30.1283 36.0101 30.8147 36.973 30.8147 36.973Z" fill="#FF3F00" stroke="#010101" stroke-width="0.75" stroke-miterlimit="10"/>
<path d="M23.2545 44.0641L20.7872 48.149L16.1562 40.4867C16.4055 40.1378 16.5913 39.2701 16.7249 38.8237" stroke="#010101" stroke-width="0.75" stroke-miterlimit="10" stroke-linecap="round" stroke-linejoin="round"/>
<path d="M24.7881 38.6201C24.924 39.1435 25.1257 40.0837 25.4134 40.487L24.0518 42.7413" stroke="#010101" stroke-width="0.75" stroke-miterlimit="10" stroke-linecap="round" stroke-linejoin="round"/>
<path d="M18.5869 22.9987C18.4487 23.9616 15.8387 25.3346 15.8387 25.3346C19.2779 24.9562 22.2459 21.9883 22.2459 21.9883C21.4212 24.1859 19.5475 25.3346 19.5475 25.3346C22.1507 24.7342 23.5509 22.7314 24.0991 21.6167C26.1609 23.1075 27.5157 25.8353 27.5157 29.1137C27.5157 33.9326 22.5698 37.9768 20.7823 37.9768C18.8588 37.9768 14.0488 33.9326 14.0488 29.1137C14.0488 28.1938 14.1598 27.3057 14.3638 26.4719C15.1522 23.6852 18.5869 22.9987 18.5869 22.9987Z" fill="white" stroke="#010101" stroke-width="0.75" stroke-miterlimit="10" stroke-linecap="round" stroke-linejoin="round"/>
<path d="M33.1847 20.7083L32.6455 20.1714" stroke="#010101" stroke-width="0.75" stroke-miterlimit="10" stroke-linecap="round"/>
<path d="M33.1847 18.0754L32.6455 17.5361" stroke="#010101" stroke-width="0.75" stroke-miterlimit="10" stroke-linecap="round"/>
<path d="M33.1847 15.4406L32.6455 14.9014" stroke="#010101" stroke-width="0.75" stroke-miterlimit="10" stroke-linecap="round"/>
<path d="M35.8172 20.7083L35.2803 20.1714" stroke="#010101" stroke-width="0.75" stroke-miterlimit="10" stroke-linecap="round"/>
<path d="M35.8172 18.0754L35.2803 17.5361" stroke="#010101" stroke-width="0.75" stroke-miterlimit="10" stroke-linecap="round"/>
<path d="M35.8172 15.4406L35.2803 14.9014" stroke="#010101" stroke-width="0.75" stroke-miterlimit="10" stroke-linecap="round"/>
<path d="M38.6019 20.7083L38.0649 20.1714" stroke="#010101" stroke-width="0.75" stroke-miterlimit="10" stroke-linecap="round"/>
<path d="M38.6019 18.0754L38.0649 17.5361" stroke="#010101" stroke-width="0.75" stroke-miterlimit="10" stroke-linecap="round"/>
<path d="M38.6019 15.4406L38.0649 14.9014" stroke="#010101" stroke-width="0.75" stroke-miterlimit="10" stroke-linecap="round"/>
<path d="M6.16943 38.6133V39.9138" stroke="#010101" stroke-width="0.75" stroke-miterlimit="10" stroke-linecap="round"/>
<path d="M6.16943 35.2285V36.5312" stroke="#010101" stroke-width="0.75" stroke-miterlimit="10" stroke-linecap="round"/>
<path d="M5.12939 37.5713H3.82666" stroke="#010101" stroke-width="0.75" stroke-miterlimit="10" stroke-linecap="round"/>
<path d="M8.51189 37.5713H7.21143" stroke="#010101" stroke-width="0.75" stroke-miterlimit="10" stroke-linecap="round"/>
<path d="M25.7354 12.9412C25.7354 12.155 26.372 11.5161 27.1604 11.5161C27.9466 11.5161 28.5855 12.1528 28.5855 12.9412C28.5855 13.7274 27.9489 14.3663 27.1604 14.3663C26.3743 14.364 25.7354 13.7274 25.7354 12.9412Z" stroke="#010101" stroke-width="0.75" stroke-miterlimit="10" stroke-linecap="round"/>
<path d="M13.5664 12.7964C13.2493 11.1198 11.7743 9.85107 10.0049 9.85107H7.96582" stroke="black" stroke-width="0.75" stroke-miterlimit="10" stroke-linecap="round"/>
<path d="M6.49316 9.85352C4.42918 9.85352 2.75488 11.5278 2.75488 13.5918C2.75488 15.6558 4.42918 17.3301 6.49316 17.3301H7.05957L10.0049 19.1426V17.3301C12.0077 17.3301 13.6299 15.7079 13.6299 13.7051" stroke="black" stroke-width="0.75" stroke-miterlimit="10" stroke-linecap="round"/>
<path d="M8.19238 14.1582C8.44264 14.1582 8.64551 13.9553 8.64551 13.7051C8.64551 13.4548 8.44264 13.252 8.19238 13.252C7.94213 13.252 7.73926 13.4548 7.73926 13.7051C7.73926 13.9553 7.94213 14.1582 8.19238 14.1582Z" fill="black"/>
<path d="M10.458 14.1582C10.7083 14.1582 10.9111 13.9553 10.9111 13.7051C10.9111 13.4548 10.7083 13.252 10.458 13.252C10.2078 13.252 10.0049 13.4548 10.0049 13.7051C10.0049 13.9553 10.2078 14.1582 10.458 14.1582Z" fill="black"/>
<path d="M5.92676 14.1582C6.17701 14.1582 6.37988 13.9553 6.37988 13.7051C6.37988 13.4548 6.17701 13.252 5.92676 13.252C5.6765 13.252 5.47363 13.4548 5.47363 13.7051C5.47363 13.9553 5.6765 14.1582 5.92676 14.1582Z" fill="black"/>
<path d="M25.502 40.6025C26.5668 41.3864 27.9511 42.4558 31.0074 43.1151C36.8074 44.3612 38.4749 46.8104 38.7853 47.3677" stroke="#010101" stroke-width="0.75" stroke-miterlimit="10" stroke-linecap="round" stroke-linejoin="round"/>
<path d="M9.77809 43.3076C4.64418 44.599 3.12395 46.8375 2.82715 47.3676" stroke="#010101" stroke-width="0.75" stroke-miterlimit="10" stroke-linecap="round" stroke-linejoin="round"/>
<path d="M16.1128 40.6025C15.1408 41.3185 13.9083 42.27 11.3799 42.9293" stroke="#010101" stroke-width="0.75" stroke-miterlimit="10" stroke-linecap="round" stroke-linejoin="round"/>
<path d="M38.9299 46.3297C39.1021 46.2233 39.2675 46.1054 39.4238 45.9763C39.1202 45.496 39.263 44.8594 39.7433 44.5535C39.9902 44.3972 40.2916 44.3541 40.5725 44.4312C40.7424 44.0347 40.8489 43.611 40.8874 43.1805C40.3323 43.0559 39.9857 42.5031 40.1103 41.9503C40.1737 41.6671 40.355 41.4224 40.6088 41.2797C40.4479 40.8787 40.2259 40.5048 39.9495 40.1718C39.4691 40.4754 38.8348 40.3326 38.5312 39.8523C38.3748 39.6054 38.3318 39.3063 38.4111 39.0254C38.0146 38.8554 37.5909 38.749 37.1605 38.7104C37.0336 39.2655 36.4808 39.6122 35.9257 39.483C35.6448 39.4173 35.4023 39.2383 35.2596 38.9869C34.8586 39.1477 34.4848 39.3697 34.1517 39.6462C34.3783 40.0087 34.3579 40.4708 34.1041 40.8129C33.8481 41.1551 33.4109 41.3046 32.9985 41.189C32.8286 41.5855 32.7221 42.0092 32.6836 42.4397C32.8241 42.4714 32.9577 42.5326 33.0733 42.6187M35.3095 43.611C35.0013 43.0559 35.0285 42.3468 35.4318 41.8053C35.9823 41.0667 37.0268 40.9126 37.7654 41.4632C38.4904 42.0024 38.6513 43.0174 38.1392 43.7537C37.8605 44.1547 37.4233 44.3972 36.9656 44.4515" stroke="black" stroke-width="0.75" stroke-miterlimit="10" stroke-linecap="round"/>
<path d="M44.3224 38.2325C43.9758 38.8034 43.312 39.1002 42.6549 38.9801C42.4465 39.6258 42.3423 40.2987 42.3468 40.9761C42.5711 41.0056 42.7864 41.0804 42.9812 41.1982C43.7424 41.6604 43.9849 42.6504 43.5227 43.4117C43.4049 43.6065 43.2485 43.7719 43.0605 43.9011C43.3686 44.5037 43.7696 45.0543 44.2499 45.53C44.9546 44.984 45.9673 45.1132 46.5133 45.8178C46.7942 46.1803 46.9075 46.6447 46.8237 47.0956C47.4694 47.304 48.1423 47.4082 48.8197 47.4037C48.933 46.5201 49.7396 45.8971 50.6209 46.0104C50.8452 46.0398 51.0627 46.1146 51.2575 46.2324C51.4524 46.3502 51.6178 46.5065 51.7469 46.6923C52.3496 46.3819 52.8978 45.9786 53.3759 45.4983C52.8299 44.7937 52.9613 43.781 53.6659 43.235C54.0261 42.9563 54.4906 42.843 54.9392 42.9246C55.1476 42.2789 55.2518 41.606 55.2473 40.9286C54.3637 40.8153 53.7429 40.0064 53.8562 39.1229C53.9151 38.672 54.1621 38.2642 54.5359 38.0059C54.2278 37.4032 53.8245 36.8527 53.3442 36.3747C52.6396 36.9184 51.6291 36.787 51.0853 36.0847C50.8067 35.7244 50.6934 35.2622 50.7749 34.8136C50.1292 34.6052 49.4564 34.501 48.7789 34.5055C48.6611 35.3891 47.85 36.0099 46.9687 35.8921C46.5201 35.8332 46.1168 35.5862 45.8585 35.2169C45.2559 35.525 44.7053 35.9283 44.2273 36.4086C44.6306 36.9388 44.6691 37.6615 44.3224 38.2325ZM50.127 38.7105C51.3346 39.4446 51.7356 41.0033 51.0446 42.2268C50.3467 43.4615 48.7359 43.9169 47.4966 43.2259C46.1939 42.5009 45.7656 40.8447 46.5337 39.5828C47.2859 38.3503 48.8922 37.9606 50.127 38.7105Z" fill="#FF3F00" stroke="black" stroke-width="0.75" stroke-miterlimit="10"/>
<path d="M32.4346 39.3066V33.6426H30.6221L33.9072 29.4512L37.1924 33.6426H35.1533V37.4941" stroke="black" stroke-width="0.75" stroke-miterlimit="10" stroke-linecap="round"/>
<path d="M41.6534 36.1348V27.1493H38.7783L43.9893 20.502L49.2002 27.1493H45.9671V33.2597" stroke="black" stroke-width="0.75" stroke-miterlimit="10" stroke-linecap="round"/>
</svg>
