<svg width="146" height="39" viewBox="0 0 146 39" fill="none" xmlns="http://www.w3.org/2000/svg">
<g opacity="0.5">
<path d="M3.05583 23.8738C1.01861 26.7033 0 29.8723 0 32.3056C0 35.6444 1.81086 38.0778 5.14964 38.0778C7.41322 38.0778 9.95975 36.3235 11.6008 34.739C12.0536 36.8328 13.6947 38.3041 16.5241 38.3041C19.9761 38.3041 23.5978 35.3049 25.0691 32.1925C25.8614 30.5514 25.5219 29.0234 25.2955 28.5141C24.7296 27.3258 24.2203 27.3824 23.5978 28.5141C21.7304 32.1925 18.9009 36.0405 16.8637 36.0405C16.2978 36.0405 16.0714 35.5312 16.0714 34.6824C16.0714 30.8909 20.8249 24.7226 22.2962 21.6102C23.7676 18.6676 23.2583 16.1776 22.2962 15.0459C21.6172 14.2536 20.6552 14.3102 19.9761 15.442L18.9009 17.1963C18.3916 15.7249 17.1466 14.7063 15.1094 14.7063C12.2233 14.7063 7.58299 17.366 3.05583 23.8738ZM5.8853 35.5878C5.31941 35.5878 5.09305 34.9088 5.09305 33.8901C5.09305 32.0793 6.05507 29.08 7.75276 26.4203C10.6388 21.78 14.5435 18.2149 15.6753 18.2149C16.2412 18.2149 16.3544 18.611 16.3544 19.2901C16.3544 20.7614 15.3357 23.5343 13.1288 27.3824C10.3559 32.1359 7.75276 35.5878 5.8853 35.5878Z" fill="#FF3F00"/>
<path d="M30.0052 35.5312C28.7603 35.5312 27.5719 33.5506 26.8928 30.8909C28.5905 28.4576 30.175 26.0242 31.5332 23.8738C31.6463 25.4017 31.7029 27.2126 31.7029 29.0235C31.7029 32.7018 31.1936 35.5312 30.0052 35.5312ZM22.2525 30.0986C22.2525 31.4002 22.592 32.7584 23.2145 33.8336C25.1385 37.3987 28.5339 38.3041 31.9293 38.1909C36.1735 38.0212 40.1348 35.8708 42.2852 31.9095C43.3038 30.1552 43.134 28.5707 42.8511 28.0048C42.4549 27.0994 41.6061 26.7033 41.0968 28.0048C40.0782 30.7777 38.4937 32.6452 36.1735 34.2297C36.796 32.9847 37.0789 31.4002 37.1355 29.9855C37.2487 26.9296 36.513 23.2513 36.513 19.2335C36.513 18.4978 36.5696 17.5358 36.6262 16.8567C38.3805 13.9707 38.0409 12.7257 36.513 12.7257C35.6642 12.7257 34.6456 13.1218 33.7401 13.9141C32.4386 14.9893 31.7595 16.2908 31.5332 18.328C30.0618 20.7614 28.0812 23.704 26.2137 26.3637C26.044 25.0056 25.1951 24.7227 24.0633 25.6847C22.8184 26.7599 22.2525 28.401 22.2525 30.0986Z" fill="#FF3F00"/>
<path d="M58.456 3.10548C58.456 2.31322 58.2297 1.57756 57.8901 0.898489C57.2677 -0.289892 56.3622 -0.289892 55.4568 0.841896C50.4769 7.68922 42.328 23.6474 39.7815 30.8909C39.2156 32.532 39.0458 33.777 39.0458 34.6824C39.0458 35.8708 39.3854 36.663 39.9513 37.2855C40.6304 38.1344 41.5358 37.8514 41.9319 37.0592C43.7428 32.8149 45.2707 29.363 46.7986 26.6467C46.7986 34.5692 50.194 37.8514 54.3816 37.908C59.1917 37.9646 62.0778 33.8901 63.153 31.9095C64.0018 30.4382 64.115 29.0234 63.832 28.2878C63.3227 26.8731 62.5871 26.9862 61.908 28.3444C60.3235 31.6266 57.2111 35.5878 55.287 35.5878C53.5893 35.5878 52.2312 32.4754 52.0048 28.2312C55.3436 27.0994 57.6638 25.5149 59.4746 23.7606C60.8894 22.4025 61.4553 20.9877 61.4553 19.6296C61.4553 18.6676 61.2289 17.7621 60.7762 16.9133C59.5312 14.3102 58.0033 13.4048 55.4568 14.3102C54.4948 14.6497 53.5328 15.0459 52.5141 15.7815C55.9095 9.61327 58.456 5.31247 58.456 3.10548ZM57.6638 17.0831C58.1731 17.8187 57.1545 19.6862 54.8909 21.5536C53.0234 23.0816 49.0622 24.8358 47.4211 25.4017C49.1188 22.5722 50.7033 20.535 52.6273 19.0637C55.2304 17.0831 57.2111 16.404 57.6638 17.0831Z" fill="#FF3F00"/>
<path d="M70.453 12.3296C70.453 14.0838 71.9809 15.7815 73.7918 15.7815C75.2065 15.7815 76.0554 14.48 76.0554 12.952C76.0554 11.3109 74.5274 9.27373 72.9429 9.27373C71.6414 9.27373 70.453 10.7451 70.453 12.3296ZM74.6406 32.1925C75.3763 30.7211 75.4329 29.3064 74.9236 28.3444C74.4143 27.3258 73.6786 27.2126 73.2259 28.2312C71.4716 32.0793 68.529 35.8708 66.2654 35.8708C65.6429 35.8708 65.4165 35.3615 65.4165 34.456C65.4165 33.5506 65.6995 32.3622 66.2088 31.0607C67.1708 28.7971 69.7739 24.5529 70.8491 22.1195C72.3205 19.2901 71.8677 16.8567 70.7925 15.7249C70.0569 14.8761 69.3778 14.9893 68.529 16.1211C66.4352 19.0637 62.8134 25.6281 61.3987 29.5893C60.946 31.0607 60.7196 32.249 60.7196 33.3242C60.7196 36.1537 62.2475 38.1344 65.6995 38.1344C69.0383 38.1344 72.9429 35.7576 74.6406 32.1925Z" fill="#FF3F00"/>
<path d="M82.6295 15.159C82.0636 14.1404 81.2147 14.0838 80.4791 15.159C77.0271 20.4219 72.9527 28.2878 71.7643 31.6832C71.3116 32.9847 71.1418 33.9467 71.1418 34.739C71.1418 36.0405 71.7077 37.0592 72.5 37.7382C73.462 38.5871 74.0845 38.2475 74.4806 37.3421C76.6876 32.1359 79.2907 26.9862 82.4597 23.5909C85.8551 19.856 88.0621 18.611 88.5148 18.611C89.0241 18.611 87.4396 20.7614 85.9117 23.3079C84.3837 25.6847 82.5163 28.7405 81.724 30.7777C81.1581 32.1925 80.7054 34.0033 80.7054 34.9653C80.7054 36.4367 81.1015 37.2289 81.9504 38.0778C82.8558 38.9832 83.6481 38.8134 84.214 37.7382C86.5907 32.4754 89.307 27.0994 93.721 22.6854C97.0598 19.3467 98.2482 18.7808 98.7009 18.7808C99.1536 18.7808 97.7954 20.4784 96.5505 22.3459C95.2489 24.3831 93.3815 27.4389 92.476 29.363C91.8535 30.7777 91.6272 32.0227 91.6272 33.0413C91.6272 36.0971 93.721 38.1909 97.5691 38.1909C101.078 38.1909 105.095 35.3615 106.68 32.0793C107.359 30.7777 107.302 28.6273 106.68 28.0048C106.171 27.4955 105.605 27.5521 105.095 28.401C103.002 31.8529 100.229 35.8142 98.4745 35.8142C97.5691 35.8142 97.0032 34.9088 97.0032 33.6072C97.0032 31.6266 98.4745 29.1366 100.059 26.7033C102.379 23.1381 103.568 20.535 103.568 18.611C103.568 16.7435 102.662 15.2156 101.021 15.159C99.2102 15.1024 96.2109 17.0265 93.6644 19.2901C93.6644 16.9133 92.476 14.8761 90.6652 14.8761C88.8543 14.8761 85.6853 17.0265 83.2519 19.4032C83.3651 18.8373 83.4217 18.328 83.4217 17.8753C83.4217 16.9699 83.1388 16.0079 82.6295 15.159Z" fill="#FF3F00"/>
<path d="M107.779 23.8738C105.742 26.7033 104.724 29.8723 104.724 32.3056C104.724 35.6444 106.535 38.0778 109.873 38.0778C112.137 38.0778 114.683 36.3235 116.325 34.739C116.777 36.8328 118.418 38.3041 121.248 38.3041C124.7 38.3041 128.321 35.3049 129.793 32.1925C130.585 30.5514 130.246 29.0234 130.019 28.5141C129.453 27.3258 128.944 27.3824 128.321 28.5141C126.454 32.1925 123.625 36.0405 121.587 36.0405C121.021 36.0405 120.795 35.5312 120.795 34.6824C120.795 30.8909 125.549 24.7226 127.02 21.6102C128.491 18.6676 127.982 16.1776 127.02 15.0459C126.341 14.2536 125.379 14.3102 124.7 15.442L123.625 17.1963C123.115 15.7249 121.87 14.7063 119.833 14.7063C116.947 14.7063 112.307 17.366 107.779 23.8738ZM110.609 35.5878C110.043 35.5878 109.817 34.9088 109.817 33.8901C109.817 32.0793 110.779 29.08 112.476 26.4203C115.362 21.78 119.267 18.2149 120.399 18.2149C120.965 18.2149 121.078 18.611 121.078 19.2901C121.078 20.7614 120.059 23.5343 117.852 27.3824C115.08 32.1359 112.476 35.5878 110.609 35.5878Z" fill="#FF3F00"/>
<path d="M127.712 31.7963C127.712 35.701 130.315 38.1344 133.314 38.1344C138.068 38.1344 141.859 33.2677 142.651 31.57C143.274 30.2684 143.5 29.4196 143.217 28.2312C142.821 26.7033 141.52 26.8165 140.897 28.1746C138.917 32.4188 135.974 35.984 133.767 35.984C132.805 35.984 132.239 34.7956 132.239 33.0979C132.239 31.8529 132.579 30.3816 133.258 28.8537C135.238 24.5529 138.464 18.9505 140.614 15.2722C141.859 15.1024 143.331 14.9893 144.349 15.1024C145.707 15.2722 146.103 14.5931 145.538 13.5745C145.141 12.8955 144.179 11.99 142.425 11.7637C143.104 10.1792 143.331 8.8776 143.331 7.85899C143.331 7.17992 143.104 6.2179 142.708 5.53882C142.086 4.46362 141.406 4.40703 140.558 5.652C139.256 7.51945 138.068 9.38691 136.313 12.4427C135.068 12.5559 133.541 12.6125 132.239 12.5559C130.937 12.4993 130.372 13.0652 131.164 14.2536C131.616 14.9327 132.635 15.5552 134.389 15.7815C132.126 19.856 129.975 24.3265 128.844 27.0994C128.051 28.9669 127.712 30.5514 127.712 31.7963Z" fill="#FF3F00"/>
</g>
</svg>
