<svg width="54" height="54" viewBox="0 0 54 54" fill="none" xmlns="http://www.w3.org/2000/svg">
<path d="M34.9718 38.7463C43.193 38.7463 49.8577 32.0817 49.8577 23.8605C49.8577 15.6392 43.193 8.97461 34.9718 8.97461C26.7506 8.97461 20.0859 15.6392 20.0859 23.8605C20.0859 32.0817 26.7506 38.7463 34.9718 38.7463Z" fill="#F5F5F5"/>
<path d="M11.8305 42.8037C16.7852 42.8037 20.8017 38.7871 20.8017 33.8325C20.8017 28.8779 16.7852 24.8613 11.8305 24.8613C6.87591 24.8613 2.85938 28.8779 2.85938 33.8325C2.85938 38.7871 6.87591 42.8037 11.8305 42.8037Z" fill="#F5F5F5"/>
<path d="M23.1467 10.2609C21.3917 7.53564 20.4593 5.48321 24.3406 4.84829C24.3406 4.84829 26.8782 2.01118 29.344 2.9815C31.8099 3.95181 29.2702 7.7972 26.9183 10.9338C26.9183 10.9338 24.7203 11.0857 24.0811 11.2988C23.442 11.5118 23.1467 10.2609 23.1467 10.2609Z" fill="#FFB711"/>
<path d="M30.2037 5.37777C30.2543 5.12254 32.3637 5.81863 32.6632 6.63918C32.9627 7.45972 32.5894 8.50597 31.1698 8.87933C29.7502 9.25269 27.8475 11.1195 27.8475 11.1195L26.8477 11.0857C26.8455 11.0857 29.8177 7.3184 30.2037 5.37777Z" fill="#FFB711"/>
<path d="M22.7986 32.5794C22.7986 32.5794 19.0967 34.1446 16.1963 31.664C13.2959 29.1833 13.9814 23.7623 16.1203 21.1298C18.2592 18.4973 20.6998 14.4873 25.4712 14.2975C30.2426 14.1076 33.8686 19.9464 35.3958 22.581C36.923 25.2156 37.4567 32.1998 31.426 32.4297C31.426 32.4255 27.0026 35.8258 22.7986 32.5794Z" fill="#FFB711"/>
<path d="M47.6738 42.9967C48.2581 42.1087 48.0134 40.9148 47.1254 40.3284L43.5268 38.2422L36.8316 47.2091C36.1693 48.0972 36.3908 49.3607 37.3147 49.9703L39.8586 51.3604C40.7466 51.9447 41.9405 51.7 42.5269 50.812L45.0898 46.9223" fill="#2662FA"/>
<path d="M47.6738 42.9967C48.2581 42.1087 48.0134 40.9148 47.1254 40.3284L43.5268 38.2422L36.8316 47.2091C36.1693 48.0972 36.3908 49.3607 37.3147 49.9703L39.8586 51.3604C40.7466 51.9447 41.9405 51.7 42.5269 50.812L45.0898 46.9223" stroke="#010101" stroke-width="0.75" stroke-miterlimit="10" stroke-linecap="round"/>
<path d="M45.7227 45.9586L47.0895 43.8809" stroke="#010101" stroke-width="0.75" stroke-miterlimit="10" stroke-linecap="round"/>
<path d="M40.3937 49.5043C41.0578 49.5043 41.5961 48.966 41.5961 48.302C41.5961 47.6379 41.0578 47.0996 40.3937 47.0996C39.7297 47.0996 39.1914 47.6379 39.1914 48.302C39.1914 48.966 39.7297 49.5043 40.3937 49.5043Z" stroke="white" stroke-width="0.75" stroke-miterlimit="10" stroke-linecap="round"/>
<path d="M39.1517 41.7227L36.9453 44.7876" stroke="#010101" stroke-width="0.75" stroke-miterlimit="10" stroke-linecap="round"/>
<path d="M39.8479 40.7383L39.4492 41.3331" stroke="#010101" stroke-width="0.75" stroke-miterlimit="10" stroke-linecap="round"/>
<path d="M34.2899 35.5195L33.539 35.5512C32.9273 35.5765 32.3219 35.6946 31.7439 35.9055L28.5777 37.0573C27.4366 37.4728 26.2384 37.7048 25.0255 37.7449L22.2138 37.8377C20.8764 37.882 19.7774 38.9093 19.6445 40.2424L22.0703 40.9934C23.6987 41.4975 25.401 41.719 27.1033 41.6494L31.6827 41.4638" stroke="#010101" stroke-width="0.75" stroke-miterlimit="10" stroke-linecap="round"/>
<path d="M39.8463 38.2542L39.319 37.6277C38.5512 36.7165 37.5281 36.0541 36.3806 35.7314C36.1127 35.6555 35.8406 35.5985 35.5664 35.5605" stroke="#010101" stroke-width="0.75" stroke-miterlimit="10" stroke-linecap="round"/>
<path d="M20.0175 39.0805L12.2845 35.3532C11.7466 35.098 11.1011 35.2963 10.7995 35.8089C10.5063 36.3067 10.6286 36.9458 11.0864 37.3023L15.8156 40.9789C16.5855 41.5759 17.4335 42.0632 18.3384 42.426L22.3821 44.0439C23.6118 44.5354 24.9239 44.7885 26.2486 44.7885H32.5176C33.4922 44.7885 34.4435 45.0859 35.2429 45.6407L37.0359 46.8831L42.1364 40.0593L40.4847 38.7768" stroke="#010101" stroke-width="0.75" stroke-miterlimit="10" stroke-linecap="round"/>
<path d="M26.5721 11.0934C26.5721 11.0934 25.8465 10.3277 24.2328 10.1653C22.6191 10.0028 23.2245 11.6988 23.2245 11.6988C23.2245 11.6988 25.6482 11.1187 26.5721 11.0934Z" fill="#2662FA"/>
<path d="M23.094 13.9184C23.094 13.9184 21.9781 13.0093 23.0539 11.982C23.982 11.0939 28.4201 10.4084 30.1161 12.1845C31.0843 13.2729 29.9537 14.0407 29.9537 14.0407C29.9537 14.0407 26.1188 12.4503 23.094 13.9184Z" fill="#2662FA"/>
<path d="M23.2855 32.4991C23.2855 32.4991 19.3705 34.1528 16.3056 31.5309C13.2407 28.9089 13.9663 23.1778 16.2254 20.3934C18.4846 17.609 21.0665 13.3734 26.1121 13.1709C31.1556 12.9684 34.9883 19.1425 36.6041 21.9269C38.2178 24.7113 38.7831 32.0941 32.4086 32.3367" stroke="#010101" stroke-width="0.75" stroke-miterlimit="10" stroke-linecap="round"/>
<path d="M22.5391 31.7126C22.5391 31.7126 24.1105 34.1278 27.9053 34.0118C31.8604 33.8916 34.0795 30.6621 34.0795 30.6621" stroke="#010101" stroke-width="0.75" stroke-miterlimit="10" stroke-linecap="round"/>
<path d="M22.8596 13.9184C22.8596 13.9184 21.7437 13.0093 22.8195 11.982C23.7476 11.0939 28.1858 10.4084 29.8817 12.1845C30.8499 13.2729 29.7193 14.0407 29.7193 14.0407" stroke="#010101" stroke-width="0.75" stroke-miterlimit="10" stroke-linecap="round"/>
<path d="M23.2245 11.6985C23.2245 11.6985 22.6191 10.0047 24.2328 10.165C25.8465 10.3274 26.5721 11.0931 26.5721 11.0931" stroke="#010101" stroke-width="0.75" stroke-miterlimit="10" stroke-linecap="round"/>
<path d="M23.2652 10.4074C21.3689 7.46275 20.3606 5.24369 24.5562 4.55603C24.5562 4.55603 27.3005 1.489 29.9625 2.53947C32.6245 3.58994 29.8823 7.74541 27.3405 11.1331" stroke="#010101" stroke-width="0.75" stroke-miterlimit="10" stroke-linecap="round"/>
<path d="M28.3516 11.335C28.3516 11.335 30.4103 9.31845 31.9417 8.91345C33.4752 8.51056 33.8781 7.37994 33.5554 6.49189C33.2327 5.60384 31.8299 4.89298 30.8976 5.12712" stroke="#010101" stroke-width="0.75" stroke-miterlimit="10" stroke-linecap="round"/>
<path d="M26.5148 22.4933L24.9075 22.4363C24.03 22.4047 23.3444 21.6538 23.3761 20.7594C23.4077 19.865 24.146 19.1647 25.0235 19.1963L27.869 19.2976" stroke="#010101" stroke-width="0.75" stroke-miterlimit="10" stroke-linecap="round"/>
<path d="M25.0274 22.4414L26.6348 22.4984C27.5123 22.53 28.1978 23.2809 28.1662 24.1753C28.1345 25.0697 27.3963 25.77 26.5188 25.7384L23.6289 25.635" stroke="#010101" stroke-width="0.75" stroke-miterlimit="10" stroke-linecap="round"/>
<path d="M26.1741 18.4308C26.1909 17.9857 26.2036 17.625 26.2036 17.625C26.2036 17.625 26.1888 17.9857 26.1741 18.4308ZM26.1741 18.4308C26.1572 18.8759 26.1445 19.2366 26.1445 19.2366C26.1445 19.2366 26.1572 18.8737 26.1741 18.4308Z" stroke="#010101" stroke-width="0.75" stroke-miterlimit="10" stroke-linecap="round"/>
<path d="M25.885 26.5245C25.9019 26.0795 25.9145 25.7188 25.9145 25.7188C25.9145 25.7188 25.8998 26.0795 25.885 26.5245ZM25.885 26.5245C25.8681 26.9696 25.8555 27.3303 25.8555 27.3303C25.8555 27.3303 25.8681 26.9675 25.885 26.5245Z" stroke="#010101" stroke-width="0.75" stroke-miterlimit="10" stroke-linecap="round"/>
<path d="M44.172 33.5468L43.5117 32.8887" stroke="#010101" stroke-width="0.75" stroke-miterlimit="10" stroke-linecap="round"/>
<path d="M44.172 30.3163L43.5117 29.6582" stroke="#010101" stroke-width="0.75" stroke-miterlimit="10" stroke-linecap="round"/>
<path d="M44.172 27.0878L43.5117 26.4297" stroke="#010101" stroke-width="0.75" stroke-miterlimit="10" stroke-linecap="round"/>
<path d="M47.4024 33.5468L46.7422 32.8887" stroke="#010101" stroke-width="0.75" stroke-miterlimit="10" stroke-linecap="round"/>
<path d="M47.4024 30.3163L46.7422 29.6582" stroke="#010101" stroke-width="0.75" stroke-miterlimit="10" stroke-linecap="round"/>
<path d="M47.4024 27.0878L46.7422 26.4297" stroke="#010101" stroke-width="0.75" stroke-miterlimit="10" stroke-linecap="round"/>
<path d="M50.8126 33.5468L50.1523 32.8887" stroke="#010101" stroke-width="0.75" stroke-miterlimit="10" stroke-linecap="round"/>
<path d="M50.8126 30.3163L50.1523 29.6582" stroke="#010101" stroke-width="0.75" stroke-miterlimit="10" stroke-linecap="round"/>
<path d="M50.8126 27.0878L50.1523 26.4297" stroke="#010101" stroke-width="0.75" stroke-miterlimit="10" stroke-linecap="round"/>
<path d="M9.36328 25.2913V19.75" stroke="#010101" stroke-width="0.75" stroke-miterlimit="10" stroke-linecap="round" stroke-linejoin="round"/>
<path d="M9.36328 18.1549V16.9863" stroke="#010101" stroke-width="0.75" stroke-miterlimit="10" stroke-linecap="round" stroke-linejoin="round"/>
<path d="M10.6922 25.6641L9.40547 26.9508L8.20312 25.7484" stroke="#010101" stroke-width="0.75" stroke-miterlimit="10" stroke-linecap="round" stroke-linejoin="round"/>
<path d="M40.2109 17.0042V11.4629" stroke="#010101" stroke-width="0.75" stroke-miterlimit="10" stroke-linecap="round" stroke-linejoin="round"/>
<path d="M40.2109 9.63727V7.54688" stroke="#010101" stroke-width="0.75" stroke-miterlimit="10" stroke-linecap="round" stroke-linejoin="round"/>
<path d="M41.5438 17.377L40.2549 18.6637L39.0547 17.4613" stroke="#010101" stroke-width="0.75" stroke-miterlimit="10" stroke-linecap="round" stroke-linejoin="round"/>
<path d="M40.2109 5.95484V5.24609" stroke="#010101" stroke-width="0.75" stroke-miterlimit="10" stroke-linecap="round" stroke-linejoin="round"/>
<path d="M15.5781 11.747V6.54102" stroke="#010101" stroke-width="0.75" stroke-miterlimit="10" stroke-linecap="round" stroke-linejoin="round"/>
<path d="M16.9109 11.8887L15.6242 13.1775L14.4219 11.9752" stroke="#010101" stroke-width="0.75" stroke-miterlimit="10" stroke-linecap="round" stroke-linejoin="round"/>
<path d="M12.8086 47.4844V49.0938" stroke="#010101" stroke-width="0.75" stroke-miterlimit="10" stroke-linecap="round"/>
<path d="M12.8086 43.2969V44.9084" stroke="#010101" stroke-width="0.75" stroke-miterlimit="10" stroke-linecap="round"/>
<path d="M11.5196 46.1953H9.91016" stroke="#010101" stroke-width="0.75" stroke-miterlimit="10" stroke-linecap="round"/>
<path d="M15.7053 46.1953H14.0938" stroke="#010101" stroke-width="0.75" stroke-miterlimit="10" stroke-linecap="round"/>
<path d="M47.6562 10.0332V11.1153" stroke="#010101" stroke-width="0.75" stroke-miterlimit="10" stroke-linecap="round"/>
<path d="M47.6562 7.2207V8.30281" stroke="#010101" stroke-width="0.75" stroke-miterlimit="10" stroke-linecap="round"/>
<path d="M46.7909 9.16797H45.7109" stroke="#010101" stroke-width="0.75" stroke-miterlimit="10" stroke-linecap="round"/>
<path d="M49.6016 9.16797H48.5195" stroke="#010101" stroke-width="0.75" stroke-miterlimit="10" stroke-linecap="round"/>
<path d="M48.2786 20.2006L47.4982 19.4201C47.0214 18.9434 47.0214 18.1714 47.4982 17.6946L48.2786 16.9142C48.7554 16.4375 49.5274 16.4375 50.0041 16.9142L50.7846 17.6946C51.2613 18.1714 51.2613 18.9434 50.7846 19.4201L50.0041 20.2006C49.5274 20.6773 48.7532 20.6773 48.2786 20.2006Z" stroke="#010101" stroke-width="0.75" stroke-miterlimit="10" stroke-linecap="round"/>
</svg>
