<svg width="54" height="54" viewBox="0 0 54 54" fill="none" xmlns="http://www.w3.org/2000/svg">
<path d="M12.5818 20.2087C12.9193 19.3312 12.4805 18.344 11.603 18.0065C11.409 17.9326 11.2023 17.8926 10.9934 17.8926C10.6559 17.8926 10.329 17.9917 10.0484 18.1794C9.26585 16.821 7.53194 16.3548 6.17562 17.1374C5.29812 17.6437 4.75601 18.5802 4.75601 19.5948C4.75601 19.6434 4.75812 19.6898 4.76023 19.7383C3.42921 20.2066 2.73101 21.6662 3.2014 22.9951C3.5621 24.0161 4.52609 24.6995 5.60819 24.6995H9.84382" stroke="black" stroke-width="0.75" stroke-miterlimit="10" stroke-linecap="round" stroke-linejoin="round"/>
<path d="M35.5616 41.6799C43.7829 41.6799 50.4475 35.0153 50.4475 26.7941C50.4475 18.5728 43.7829 11.9082 35.5616 11.9082C27.3404 11.9082 20.6758 18.5728 20.6758 26.7941C20.6758 35.0153 27.3404 41.6799 35.5616 41.6799Z" fill="#F5F5F5"/>
<path d="M40.0078 27.2689L42.9504 24.3263L45.5512 26.9272L51.9511 20.5273" stroke="#010101" stroke-width="0.75" stroke-miterlimit="10" stroke-linecap="round" stroke-linejoin="round"/>
<path d="M49.9961 19.2266H53.2509V22.262" stroke="#010101" stroke-width="0.75" stroke-miterlimit="10" stroke-linecap="round" stroke-linejoin="round"/>
<path d="M12.4204 45.7353C17.375 45.7353 21.3916 41.7188 21.3916 36.7641C21.3916 31.8095 17.375 27.793 12.4204 27.793C7.46575 27.793 3.44922 31.8095 3.44922 36.7641C3.44922 41.7188 7.46575 45.7353 12.4204 45.7353Z" fill="#F5F5F5"/>
<path d="M10.153 49.2496C9.82398 48.9205 9.82398 48.3869 10.153 48.0557L17.3123 40.8965L18.5062 42.0904L11.347 49.2496C11.0158 49.5808 10.4821 49.5808 10.153 49.2496Z" fill="#FFB711" stroke="#010101" stroke-width="0.75" stroke-miterlimit="10" stroke-linecap="round"/>
<path d="M39.3492 49.2496C39.6783 48.9205 39.6783 48.3869 39.3492 48.0557L32.19 40.8965L30.9961 42.0904L38.1553 49.2496C38.4865 49.5808 39.0202 49.5808 39.3492 49.2496Z" fill="#FFB711" stroke="#010101" stroke-width="0.75" stroke-miterlimit="10" stroke-linecap="round"/>
<path d="M24.5742 12.2559C24.108 12.2559 23.7305 12.6334 23.7305 13.0996V23.2246H25.418V13.0996C25.418 12.6334 25.0404 12.2559 24.5742 12.2559Z" fill="#FFB711" stroke="#010101" stroke-width="0.75" stroke-miterlimit="10" stroke-linecap="round"/>
<path d="M24.4688 45.1621C32.5653 45.1621 39.1289 38.5985 39.1289 30.502C39.1289 22.4054 32.5653 15.8418 24.4688 15.8418C16.3722 15.8418 9.80859 22.4054 9.80859 30.502C9.80859 38.5985 16.3722 45.1621 24.4688 45.1621Z" fill="#2662FA" stroke="#010101" stroke-width="0.75" stroke-miterlimit="10" stroke-linecap="round"/>
<path d="M24.4688 40.0996C29.6529 40.0996 33.8555 35.897 33.8555 30.7129C33.8555 25.5288 29.6529 21.3262 24.4688 21.3262C19.2846 21.3262 15.082 25.5288 15.082 30.7129C15.082 35.897 19.2846 40.0996 24.4688 40.0996Z" fill="white" stroke="#010101" stroke-width="0.75" stroke-miterlimit="10" stroke-linecap="round"/>
<path d="M24.4688 34.4043C26.5075 34.4043 28.1602 32.7516 28.1602 30.7129C28.1602 28.6742 26.5075 27.0215 24.4688 27.0215C22.43 27.0215 20.7773 28.6742 20.7773 30.7129C20.7773 32.7516 22.43 34.4043 24.4688 34.4043Z" fill="#2662FA" stroke="#010101" stroke-width="0.75" stroke-miterlimit="10" stroke-linecap="round"/>
<path d="M47.0417 8.36406L46.3119 4.50391L40.8001 10.0157C39.7792 11.0366 39.1548 12.3909 39.0409 13.8316L38.9122 15.4642L24.1719 30.2045C23.9167 30.4598 23.9167 30.8753 24.1719 31.1327C24.4271 31.3879 24.8427 31.3879 25.1 31.1327L39.8699 16.3586L41.4435 16.2468C42.901 16.1434 44.2721 15.517 45.3036 14.4834L50.7985 8.98844L47.0417 8.36406Z" fill="#FFB711" stroke="#010101" stroke-width="0.75" stroke-miterlimit="10" stroke-linecap="round"/>
<path d="M48.1758 32.1777V33.0152" stroke="#010101" stroke-width="0.75" stroke-miterlimit="10" stroke-linecap="round"/>
<path d="M48.1758 30.0059V30.8412" stroke="#010101" stroke-width="0.75" stroke-miterlimit="10" stroke-linecap="round"/>
<path d="M47.5054 31.5098H46.668" stroke="#010101" stroke-width="0.75" stroke-miterlimit="10" stroke-linecap="round"/>
<path d="M49.6791 31.5098H48.8438" stroke="#010101" stroke-width="0.75" stroke-miterlimit="10" stroke-linecap="round"/>
<path d="M32.5781 10.9121V12.3444" stroke="#010101" stroke-width="0.75" stroke-miterlimit="10" stroke-linecap="round"/>
<path d="M32.5781 7.19336V8.62352" stroke="#010101" stroke-width="0.75" stroke-miterlimit="10" stroke-linecap="round"/>
<path d="M31.4362 9.76953H30.0039" stroke="#010101" stroke-width="0.75" stroke-miterlimit="10" stroke-linecap="round"/>
<path d="M35.1567 9.76953H33.7266" stroke="#010101" stroke-width="0.75" stroke-miterlimit="10" stroke-linecap="round"/>
<path d="M1.41023 40.8398L0.75 40.1816" stroke="#010101" stroke-width="0.75" stroke-miterlimit="10" stroke-linecap="round"/>
<path d="M1.41023 37.6093L0.75 36.9512" stroke="#010101" stroke-width="0.75" stroke-miterlimit="10" stroke-linecap="round"/>
<path d="M1.41023 34.3808L0.75 33.7227" stroke="#010101" stroke-width="0.75" stroke-miterlimit="10" stroke-linecap="round"/>
<path d="M4.6407 40.8398L3.98047 40.1816" stroke="#010101" stroke-width="0.75" stroke-miterlimit="10" stroke-linecap="round"/>
<path d="M4.6407 37.6093L3.98047 36.9512" stroke="#010101" stroke-width="0.75" stroke-miterlimit="10" stroke-linecap="round"/>
<path d="M4.6407 34.3808L3.98047 33.7227" stroke="#010101" stroke-width="0.75" stroke-miterlimit="10" stroke-linecap="round"/>
<path d="M8.05086 40.8398L7.39062 40.1816" stroke="#010101" stroke-width="0.75" stroke-miterlimit="10" stroke-linecap="round"/>
<path d="M8.05086 37.6093L7.39062 36.9512" stroke="#010101" stroke-width="0.75" stroke-miterlimit="10" stroke-linecap="round"/>
<path d="M8.05086 34.3808L7.39062 33.7227" stroke="#010101" stroke-width="0.75" stroke-miterlimit="10" stroke-linecap="round"/>
<path d="M40.6055 14.7871L45.7734 9.61914" stroke="#010101" stroke-width="0.75" stroke-miterlimit="10" stroke-linecap="round"/>
<path d="M47.6548 40.5956L43.9001 36.8409C43.4065 36.3473 42.605 36.3473 42.1093 36.8409L38.3546 40.5956C37.861 41.0892 37.861 41.8907 38.3546 42.3864L42.1093 46.1411C42.6028 46.6347 43.4044 46.6347 43.9001 46.1411L47.6548 42.3864C48.1484 41.8907 48.1484 41.0892 47.6548 40.5956Z" stroke="#010101" stroke-width="0.75" stroke-miterlimit="10" stroke-linecap="round"/>
<path d="M43.3517 41.4878L42.5986 41.4962C42.1873 41.5005 41.8519 41.1651 41.8477 40.7453C41.8435 40.3255 42.1725 39.9838 42.5839 39.9796L43.9149 39.9648" stroke="#010101" stroke-width="0.75" stroke-miterlimit="10" stroke-linecap="round"/>
<path d="M42.6585 41.4948L43.4116 41.4864C43.8229 41.4821 44.1583 41.8175 44.1625 42.2373C44.1667 42.6571 43.8377 42.9988 43.4263 43.003L42.0742 43.0178" stroke="#010101" stroke-width="0.75" stroke-miterlimit="10" stroke-linecap="round"/>
<path d="M43.1058 39.5963C43.1037 39.3875 43.1016 39.2188 43.1016 39.2188C43.1016 39.2188 43.1037 39.3896 43.1058 39.5963ZM43.1058 39.5963C43.1079 39.8052 43.11 39.9739 43.11 39.9739C43.11 39.9739 43.1079 39.8052 43.1058 39.5963Z" stroke="#010101" stroke-width="0.75" stroke-miterlimit="10" stroke-linecap="round"/>
<path d="M43.1487 43.3854C43.1466 43.1766 43.1445 43.0078 43.1445 43.0078C43.1445 43.0078 43.1466 43.1766 43.1487 43.3854ZM43.1487 43.3854C43.1509 43.5942 43.153 43.763 43.153 43.763C43.153 43.763 43.1509 43.5921 43.1487 43.3854Z" stroke="#010101" stroke-width="0.75" stroke-miterlimit="10" stroke-linecap="round"/>
</svg>
