<svg width="54" height="54" viewBox="0 0 54 54" fill="none" xmlns="http://www.w3.org/2000/svg">
<path d="M17.378 49.2833C25.5258 49.2833 32.1309 42.6782 32.1309 34.5303C32.1309 26.3825 25.5258 19.7773 17.378 19.7773C9.23013 19.7773 2.625 26.3825 2.625 34.5303C2.625 42.6782 9.23013 49.2833 17.378 49.2833Z" fill="#F5F5F5"/>
<path d="M42.0863 29.1219C46.9967 29.1219 50.9773 25.1412 50.9773 20.2309C50.9773 15.3205 46.9967 11.3398 42.0863 11.3398C37.176 11.3398 33.1953 15.3205 33.1953 20.2309C33.1953 25.1412 37.176 29.1219 42.0863 29.1219Z" fill="#F5F5F5"/>
<path d="M12.0781 46.4874V45.4707" stroke="#010101" stroke-width="0.75" stroke-miterlimit="10" stroke-linecap="round"/>
<path d="M9.93359 47.6152H10.8069" stroke="#010101" stroke-width="0.75" stroke-miterlimit="10" stroke-linecap="round"/>
<path d="M13.3516 47.6152H14.2248" stroke="#010101" stroke-width="0.75" stroke-miterlimit="10" stroke-linecap="round"/>
<path d="M12.0781 49.764V48.5996" stroke="#010101" stroke-width="0.75" stroke-miterlimit="10" stroke-linecap="round"/>
<path d="M45.2891 24.8481V24.1035" stroke="#010101" stroke-width="0.75" stroke-miterlimit="10" stroke-linecap="round"/>
<path d="M43.7227 25.6699H44.3597" stroke="#010101" stroke-width="0.75" stroke-miterlimit="10" stroke-linecap="round"/>
<path d="M46.2188 25.6699H46.8558" stroke="#010101" stroke-width="0.75" stroke-miterlimit="10" stroke-linecap="round"/>
<path d="M45.2891 27.2388V26.3887" stroke="#010101" stroke-width="0.75" stroke-miterlimit="10" stroke-linecap="round"/>
<path d="M20.444 51.2565L19.8555 50.668" stroke="#010101" stroke-width="0.75" stroke-miterlimit="10" stroke-linecap="round"/>
<path d="M20.444 48.3795L19.8555 47.791" stroke="#010101" stroke-width="0.75" stroke-miterlimit="10" stroke-linecap="round"/>
<path d="M20.444 45.5026L19.8555 44.9141" stroke="#010101" stroke-width="0.75" stroke-miterlimit="10" stroke-linecap="round"/>
<path d="M23.3229 51.2565L22.7344 50.668" stroke="#010101" stroke-width="0.75" stroke-miterlimit="10" stroke-linecap="round"/>
<path d="M23.3229 48.3795L22.7344 47.791" stroke="#010101" stroke-width="0.75" stroke-miterlimit="10" stroke-linecap="round"/>
<path d="M23.3229 45.5026L22.7344 44.9141" stroke="#010101" stroke-width="0.75" stroke-miterlimit="10" stroke-linecap="round"/>
<path d="M26.362 51.2565L25.7734 50.668" stroke="#010101" stroke-width="0.75" stroke-miterlimit="10" stroke-linecap="round"/>
<path d="M26.362 48.3795L25.7734 47.791" stroke="#010101" stroke-width="0.75" stroke-miterlimit="10" stroke-linecap="round"/>
<path d="M26.362 45.5026L25.7734 44.9141" stroke="#010101" stroke-width="0.75" stroke-miterlimit="10" stroke-linecap="round"/>
<path d="M14.2378 24.0794C14.2378 24.0794 15.2102 22.6366 14.7335 21.3457C14.2547 20.5378 14.0923 20.6981 14.0923 20.6981C14.0923 20.6981 13.4573 19.0865 11.0421 19.2342C8.62687 19.3839 7.97297 21.6325 7.96875 22.4383L8.29148 22.278C8.29148 22.278 7.80633 22.9192 8.28305 23.8875C8.28305 23.8875 8.93273 22.4425 9.5782 22.4446L9.41367 23.088C9.41367 23.088 11.6665 23.2589 12.9595 21.9785L12.4723 22.78C12.4723 22.78 13.4384 22.6239 13.7632 22.143C13.7653 22.1472 13.5987 23.1112 14.2378 24.0794Z" fill="#FFB711"/>
<path d="M9.16828 29.7461C8.69789 30.0899 8.08617 30.5582 6.73617 30.8409C5.25961 31.1509 4.39055 31.6403 3.89062 32.0453" stroke="#010101" stroke-width="0.75" stroke-miterlimit="10" stroke-linecap="round" stroke-linejoin="round"/>
<path d="M13.4492 29.7656C13.9175 30.1137 14.525 30.5883 15.8708 30.8836C17.147 31.1641 17.9675 31.5755 18.4864 31.9467" stroke="#010101" stroke-width="0.75" stroke-miterlimit="10" stroke-linecap="round" stroke-linejoin="round"/>
<path d="M10.5391 30.455C11.3406 30.6406 12.3995 30.5921 13.4247 29.7589C13.2602 29.3476 13.2665 28.8055 13.3129 28.373" stroke="#010101" stroke-width="0.75" stroke-miterlimit="10" stroke-linecap="round" stroke-linejoin="round"/>
<path d="M9.29266 28.207C9.35383 28.6563 9.38969 29.3018 9.19141 29.7384C9.19141 29.8228 9.51414 30.0907 10.0288 30.2953" stroke="#010101" stroke-width="0.75" stroke-miterlimit="10" stroke-linecap="round" stroke-linejoin="round"/>
<path d="M12.2884 19.3906C14.1826 19.7998 14.0539 20.7153 14.0539 20.7153C14.0539 20.7153 14.8639 20.9537 14.8133 21.9345C14.7627 22.9175 14.7816 23.3942 14.3872 23.8562C14.191 23.93 14.191 24.0038 14.191 24.0038C14.191 24.0038 13.6152 23.0124 13.8451 22.078C13.8451 22.078 13.5582 22.5209 12.6322 22.5905C12.6322 22.5905 13.0878 22.2341 13.1342 21.9999C13.1342 21.9999 11.2041 23.3225 9.42383 23.0188C9.42383 23.0188 9.78242 22.7234 9.78242 22.3543C9.78242 22.3543 9.06945 22.4998 8.5632 23.9026L8.27844 23.8266C8.27844 23.8266 7.99789 22.8627 8.28688 22.1982C8.14344 22.1982 8 22.4197 8 22.4197C8 22.4197 8.07805 21.1625 8.79313 20.4242C8.79313 20.4242 9.26563 19.8357 10.1516 19.5045" stroke="#010101" stroke-width="0.75" stroke-miterlimit="10" stroke-linecap="round" stroke-linejoin="round"/>
<path d="M10.6484 19.3605C11.0049 19.2846 11.4099 19.2592 11.8592 19.3162" stroke="#010101" stroke-width="0.75" stroke-miterlimit="10" stroke-linecap="round" stroke-linejoin="round"/>
<path d="M8.48969 23.8555C8.08258 23.8913 7.81258 24.3596 7.86109 24.9059C7.89906 25.3489 8.13531 25.7054 8.43906 25.8066C8.58039 27.7895 9.93672 29.3314 11.2994 29.3398C12.7485 29.3462 14.0205 27.8084 14.1934 25.8214C14.4803 25.7075 14.7039 25.3658 14.744 24.9418C14.7967 24.3955 14.5309 23.9251 14.1259 23.885" stroke="#010101" stroke-width="0.75" stroke-miterlimit="10" stroke-linecap="round" stroke-linejoin="round"/>
<path d="M12.2969 16.4277C17.0809 16.9129 20.8166 20.9545 20.8166 25.8672C20.8166 30.7757 17.0894 34.8152 12.3095 35.3066" stroke="#010101" stroke-width="0.75" stroke-miterlimit="10" stroke-linecap="round" stroke-linejoin="round"/>
<path d="M9.91242 35.2509C5.34352 34.5675 1.83984 30.6272 1.83984 25.8663C1.83984 21.0654 5.40469 17.0977 10.0305 16.4648" stroke="#010101" stroke-width="0.75" stroke-miterlimit="10" stroke-linecap="round" stroke-linejoin="round"/>
<path d="M40.6721 7.22873C40.6721 7.22873 39.706 8.19482 38.6028 8.33193C37.4996 8.46904 37.6367 9.98779 37.6367 9.98779C37.6367 9.98779 37.0841 10.4012 37.3604 11.091C37.4089 11.2154 37.7148 11.631 37.7738 11.7808C37.9679 12.2701 37.9447 12.5676 38.0501 12.884C38.0501 12.884 37.913 13.8501 37.3604 13.8501C37.3604 13.8501 37.6367 12.884 36.6706 11.3652C35.7045 9.84646 36.9469 6.95029 37.6367 6.25842C38.3265 5.56654 39.9823 4.18912 41.7774 5.29232C43.5725 6.39552 43.8467 8.32771 43.4333 10.9497C43.0198 13.5716 43.1569 14.1243 43.1569 14.1243C43.1569 14.1243 42.0537 13.5716 41.9145 13.0211C41.9145 13.0211 42.4672 12.4684 42.4672 11.5023C42.4672 11.5023 43.0198 11.3652 42.8806 10.5362C42.7435 9.70724 42.328 9.84646 42.328 9.84646C42.328 9.84646 42.7414 7.91849 40.6721 7.22873Z" fill="#2662FA"/>
<path d="M42.0273 13.1076C42.1328 13.6434 43.0926 14.0252 43.0926 14.0252C42.8732 12.3271 43.5081 11.4749 43.5524 9.36133" stroke="#010101" stroke-width="0.75" stroke-miterlimit="10" stroke-linecap="round" stroke-linejoin="round"/>
<path d="M43.3828 7.50977C43.4967 7.90422 43.5621 8.34086 43.5684 8.81969" stroke="#010101" stroke-width="0.75" stroke-miterlimit="10" stroke-linecap="round" stroke-linejoin="round"/>
<path d="M38.0579 12.8397C38.0115 13.4536 37.2838 13.905 37.2838 13.905C37.2838 13.905 37.693 13.4156 36.9231 11.9243C36.2523 10.6228 36.1574 8.97957 36.9737 7.19293C37.7901 5.40629 39.9817 4.43809 41.3549 5.11941C42.1607 5.51809 42.804 6.13191 43.1837 6.97144" stroke="#010101" stroke-width="0.75" stroke-miterlimit="10" stroke-linecap="round" stroke-linejoin="round"/>
<path d="M42.386 9.9532C42.4683 8.76984 42.0886 7.70461 40.6099 7.28906C40.6099 7.28906 39.6987 7.9957 38.5638 8.4218C37.9205 8.66437 37.7011 9.23391 37.6758 9.90258" stroke="#010101" stroke-width="0.75" stroke-miterlimit="10" stroke-linecap="round" stroke-linejoin="round"/>
<path d="M40.6133 7.28781C40.6133 7.28781 41.033 6.86383 41.0309 6.30273L40.6133 7.28781Z" fill="white"/>
<path d="M40.6133 7.28781C40.6133 7.28781 41.033 6.86383 41.0309 6.30273" stroke="#010101" stroke-width="0.75" stroke-miterlimit="10" stroke-linecap="round" stroke-linejoin="round"/>
<path d="M38.923 15.6505L38.3008 14.6465" stroke="#010101" stroke-width="0.75" stroke-miterlimit="10" stroke-linecap="round" stroke-linejoin="round"/>
<path d="M41.716 13.4824C41.6823 13.8431 41.6802 14.2945 41.8194 14.6341L41.0938 15.7985" stroke="#010101" stroke-width="0.75" stroke-miterlimit="10" stroke-linecap="round" stroke-linejoin="round"/>
<path d="M38.3746 13.375C38.4273 13.7462 38.4632 14.2841 38.3008 14.6491" stroke="#010101" stroke-width="0.75" stroke-miterlimit="10" stroke-linecap="round" stroke-linejoin="round"/>
<path d="M37.743 9.99344C37.4055 10.0251 37.184 10.4174 37.2283 10.8709C37.2641 11.238 37.4624 11.5333 37.7155 11.6155C37.8463 13.263 39.1963 14.3219 40.1181 14.3177C40.9682 14.3134 42.3688 13.2398 42.4996 11.586C42.738 11.489 42.9194 11.2042 42.951 10.8498C42.9911 10.3963 42.7675 10.0061 42.43 9.97656" stroke="#010101" stroke-width="0.75" stroke-miterlimit="10" stroke-linecap="round" stroke-linejoin="round"/>
<path d="M38.1435 14.7852C37.7406 15.0826 37.2175 15.4855 36.0616 15.7344C33.8699 16.2048 33.2392 17.1308 33.1211 17.3417" stroke="#010101" stroke-width="0.75" stroke-miterlimit="10" stroke-linecap="round" stroke-linejoin="round"/>
<path d="M41.8164 14.7852C42.2193 15.0826 42.7424 15.4855 43.8984 15.7344C46.09 16.2048 46.7207 17.1308 46.8388 17.3417" stroke="#010101" stroke-width="0.75" stroke-miterlimit="10" stroke-linecap="round" stroke-linejoin="round"/>
<path d="M48.9191 12.5803C48.4571 17.0712 44.6623 20.5748 40.0491 20.5748C35.1259 20.5748 31.1328 16.5839 31.1328 11.6585C31.1328 6.73312 35.1259 2.74219 40.0512 2.74219C42.939 2.74219 45.5061 4.11539 47.1345 6.24164" stroke="black" stroke-width="0.75" stroke-miterlimit="10" stroke-linecap="round"/>
<path d="M42.7688 38.9558C42.7688 38.9558 43.7095 37.532 43.2328 36.2727C42.7561 35.4859 42.6 35.6441 42.6 35.6441C42.6 35.6441 41.963 34.0684 39.5963 34.235C37.2295 34.4016 36.6073 36.6123 36.6094 37.4012L36.9237 37.243C36.9237 37.243 36.4533 37.8758 36.93 38.8208C36.93 38.8208 37.5565 37.3991 38.1872 37.397L38.0311 38.0277C38.0311 38.0277 40.2396 38.1774 41.4989 36.9097L41.0285 37.7007C41.0285 37.7007 41.9756 37.5404 42.2878 37.0658C42.2878 37.0637 42.1338 38.0108 42.7688 38.9558Z" fill="#2662FA"/>
<path d="M44.7422 45.6855C45.6935 45.9176 46.3643 46.2234 46.8305 46.5187" stroke="#010101" stroke-width="0.75" stroke-miterlimit="10" stroke-linecap="round" stroke-linejoin="round"/>
<path d="M42.0469 44.5371C42.4687 44.8451 43.0045 45.2543 44.0993 45.537" stroke="#010101" stroke-width="0.75" stroke-miterlimit="10" stroke-linecap="round" stroke-linejoin="round"/>
<path d="M39.1953 45.237C39.9821 45.412 41.0199 45.3551 42.0177 44.5303C41.8531 44.1295 41.8552 43.598 41.8953 43.1719" stroke="#010101" stroke-width="0.75" stroke-miterlimit="10" stroke-linecap="round" stroke-linejoin="round"/>
<path d="M37.9576 43.041C38.0209 43.4798 38.0609 44.1147 37.8711 44.5429C37.8732 44.6252 38.1917 44.8867 38.6959 45.0829" stroke="#010101" stroke-width="0.75" stroke-miterlimit="10" stroke-linecap="round" stroke-linejoin="round"/>
<path d="M40.8175 34.373C42.678 34.7591 42.5598 35.6577 42.5598 35.6577C42.5598 35.6577 43.3551 35.8834 43.315 36.8473C43.2749 37.8113 43.296 38.2796 42.9121 38.7352C42.7202 38.8091 42.7202 38.8808 42.7202 38.8808C42.7202 38.8808 42.1464 37.9126 42.3637 36.995C42.3637 36.995 42.0852 37.4316 41.1782 37.5076C41.1782 37.5076 41.6212 37.1553 41.6655 36.9254C41.6655 36.9254 39.7839 38.2395 38.0373 37.9548C38.0373 37.9548 38.3854 37.6637 38.3833 37.3009C38.3833 37.3009 37.6851 37.4485 37.202 38.8302L36.9215 38.7584C36.9215 38.7584 36.6388 37.8155 36.9152 37.1616C36.7759 37.1616 36.6367 37.381 36.6367 37.381C36.6367 37.381 36.7021 36.147 37.3982 35.4193C37.3982 35.4193 37.8559 34.8392 38.7229 34.5059" stroke="#010101" stroke-width="0.75" stroke-miterlimit="10" stroke-linecap="round" stroke-linejoin="round"/>
<path d="M39.2109 34.3568C39.559 34.2808 39.9555 34.2513 40.3985 34.304" stroke="#010101" stroke-width="0.75" stroke-miterlimit="10" stroke-linecap="round" stroke-linejoin="round"/>
<path d="M37.1333 38.7848C36.7347 38.8227 36.4752 39.2847 36.5258 39.8205C36.568 40.2529 36.8 40.6009 37.0996 40.698C37.2536 42.6407 38.5972 44.1426 39.9346 44.1363C41.3542 44.1299 42.5882 42.6133 42.7422 40.6621C43.0227 40.5482 43.2379 40.2107 43.2737 39.7952C43.3201 39.2594 43.0565 38.7995 42.6578 38.7637" stroke="#010101" stroke-width="0.75" stroke-miterlimit="10" stroke-linecap="round" stroke-linejoin="round"/>
<path d="M37.8087 44.4961C37.3489 44.8378 36.7541 45.3019 35.4336 45.5909C34.438 45.8081 33.725 46.1077 33.2188 46.403" stroke="#010101" stroke-width="0.75" stroke-miterlimit="10" stroke-linecap="round" stroke-linejoin="round"/>
<path d="M48.9441 41.4294C48.5981 46.0384 44.7506 49.6686 40.053 49.6686C35.1298 49.6686 31.1367 45.6777 31.1367 40.7523C31.1367 35.8269 35.1277 31.8359 40.053 31.8359C43.0209 31.8359 45.6492 33.2851 47.2713 35.5168" stroke="black" stroke-width="0.75" stroke-miterlimit="10" stroke-linecap="round"/>
<path d="M48.0039 36.7129C48.5249 37.7359 48.854 38.8708 48.9447 40.0731" stroke="black" stroke-width="0.75" stroke-miterlimit="10" stroke-linecap="round"/>
<path d="M33.2446 21.3089C33.7551 21.6949 34.0841 22.3066 34.0841 22.9943V29.1094C34.0841 30.2759 33.1391 31.2209 31.9727 31.2209H25.8576C24.6911 31.2209 23.7461 30.2759 23.7461 29.1094V22.9943C23.7461 21.8278 24.6911 20.8828 25.8576 20.8828H26.7604" fill="#FFB711"/>
<path d="M33.2446 21.3089C33.7551 21.6949 34.0841 22.3066 34.0841 22.9943V29.1094C34.0841 30.2759 33.1391 31.2209 31.9727 31.2209H25.8576C24.6911 31.2209 23.7461 30.2759 23.7461 29.1094V22.9943C23.7461 21.8278 24.6911 20.8828 25.8576 20.8828H26.7604" stroke="#010101" stroke-width="0.75" stroke-miterlimit="10" stroke-linecap="round" stroke-linejoin="round"/>
<path d="M31.9727 20.8828C32.0971 20.8828 32.2173 20.8934 32.3355 20.9145L31.9727 20.8828Z" fill="#FFB711"/>
<path d="M31.9727 20.8828C32.0971 20.8828 32.2173 20.8934 32.3355 20.9145" stroke="#010101" stroke-width="0.75" stroke-miterlimit="10" stroke-linecap="round" stroke-linejoin="round"/>
<path d="M27.8203 20.8828H30.9886" stroke="#010101" stroke-width="0.75" stroke-miterlimit="10" stroke-linecap="round" stroke-linejoin="round"/>
<path d="M27.4883 26.072L28.5936 27.1773L31.359 24.4141" stroke="black" stroke-width="0.75" stroke-miterlimit="10" stroke-linecap="round"/>
<path d="M50.8962 6.2793H47.2617C46.5635 6.2793 45.9961 6.84672 45.9961 7.54492V11.1794C45.9961 11.8776 46.5635 12.445 47.2617 12.445H50.8962C51.5944 12.445 52.1618 11.8776 52.1618 11.1794V7.54492C52.1618 6.84672 51.5965 6.2793 50.8962 6.2793Z" stroke="#010101" stroke-width="0.75" stroke-miterlimit="10" stroke-linecap="round"/>
<path d="M48.0938 9.49L48.7413 10.1376L50.3592 8.51758" stroke="black" stroke-width="0.75" stroke-miterlimit="10" stroke-linecap="round"/>
<path d="M11.1797 15.1581V13.5761C11.1797 12.2809 12.2302 11.2305 13.5253 11.2305H27.3818" stroke="#010101" stroke-width="0.75" stroke-miterlimit="10" stroke-linecap="round"/>
<path d="M27.3828 12.7738L29.6314 11.2277L27.3828 9.68359V12.7738Z" stroke="#010101" stroke-width="0.75" stroke-miterlimit="10" stroke-linecap="round" stroke-linejoin="round"/>
<path d="M11.1926 17.3266C11.711 17.3266 12.1313 16.9063 12.1313 16.3879C12.1313 15.8695 11.711 15.4492 11.1926 15.4492C10.6742 15.4492 10.2539 15.8695 10.2539 16.3879C10.2539 16.9063 10.6742 17.3266 11.1926 17.3266Z" stroke="#010101" stroke-width="0.75" stroke-miterlimit="10" stroke-linecap="round"/>
<path d="M11.1797 36.6855V38.2676C11.1797 39.5627 12.2302 40.6132 13.5253 40.6132H27.3818" stroke="#010101" stroke-width="0.75" stroke-miterlimit="10" stroke-linecap="round"/>
<path d="M11.1926 36.1605C11.711 36.1605 12.1313 35.7403 12.1313 35.2219C12.1313 34.7035 11.711 34.2832 11.1926 34.2832C10.6742 34.2832 10.2539 34.7035 10.2539 35.2219C10.2539 35.7403 10.6742 36.1605 11.1926 36.1605Z" stroke="#010101" stroke-width="0.75" stroke-miterlimit="10" stroke-linecap="round"/>
<path d="M27.3828 42.065L29.6314 40.5188L27.3828 38.9727V42.065Z" stroke="#010101" stroke-width="0.75" stroke-miterlimit="10" stroke-linecap="round" stroke-linejoin="round"/>
</svg>
