<svg width="54" height="54" viewBox="0 0 54 54" fill="none" xmlns="http://www.w3.org/2000/svg">
<path d="M35.5546 32.3475C42.8788 32.3475 48.8162 26.4101 48.8162 19.0859C48.8162 11.7617 42.8788 5.82422 35.5546 5.82422C28.2304 5.82422 22.293 11.7617 22.293 19.0859C22.293 26.4101 28.2304 32.3475 35.5546 32.3475Z" fill="#F5F5F5"/>
<path d="M13.6781 46.9187C18.0934 46.9187 21.6727 43.3395 21.6727 38.9242C21.6727 34.509 18.0934 30.9297 13.6781 30.9297C9.26287 30.9297 5.68359 34.509 5.68359 38.9242C5.68359 43.3395 9.26287 46.9187 13.6781 46.9187Z" fill="#F5F5F5"/>
<path d="M25.7848 34.3254C30.0195 34.3254 33.4523 30.8925 33.4523 26.6578C33.4523 22.4231 30.0195 18.9902 25.7848 18.9902C21.5501 18.9902 18.1172 22.4231 18.1172 26.6578C18.1172 30.8925 21.5501 34.3254 25.7848 34.3254Z" fill="#FFB711" stroke="#010101" stroke-width="0.75" stroke-miterlimit="10"/>
<path d="M26.2446 26.512L25.1308 26.1513C24.5233 25.9551 24.1943 25.2928 24.3946 24.6726C24.595 24.0525 25.2511 23.7107 25.8586 23.9069L27.8308 24.5461" stroke="#010101" stroke-width="0.75" stroke-miterlimit="10" stroke-linecap="round"/>
<path d="M25.2134 26.1797L26.3272 26.5404C26.9347 26.7366 27.2638 27.3989 27.0634 28.0191C26.863 28.6392 26.207 28.9809 25.5995 28.7848L23.5977 28.1351" stroke="#010101" stroke-width="0.75" stroke-miterlimit="10" stroke-linecap="round"/>
<path d="M26.8181 23.6018C26.9173 23.2938 26.9995 23.0449 26.9995 23.0449C26.9995 23.0449 26.9173 23.2938 26.8181 23.6018ZM26.8181 23.6018C26.719 23.9098 26.6367 24.1587 26.6367 24.1587C26.6367 24.1587 26.719 23.9098 26.8181 23.6018Z" stroke="#010101" stroke-width="0.75" stroke-miterlimit="10" stroke-linecap="round"/>
<path d="M25.0017 29.2073C25.1009 28.8993 25.1831 28.6504 25.1831 28.6504C25.1831 28.6504 25.1009 28.8993 25.0017 29.2073ZM25.0017 29.2073C24.9026 29.5152 24.8203 29.7641 24.8203 29.7641C24.8203 29.7641 24.9005 29.5152 25.0017 29.2073Z" stroke="#010101" stroke-width="0.75" stroke-miterlimit="10" stroke-linecap="round"/>
<path d="M36.6177 17.2711C36.6177 17.2711 32.7386 18.6823 28.5282 15.8114C26.615 14.472 25.514 13.6113 25.514 13.6113L20.7552 16.1848C20.0654 16.4843 19.2681 16.3767 18.6817 15.9042L18.3885 15.668L17.8274 15.9548C17.0406 16.3577 16.0872 16.2375 15.4248 15.6532L15.2793 15.5245L14.6359 15.8916C14.0495 16.227 13.3028 16.0666 12.9062 15.5203C12.4822 14.9381 12.6046 14.1323 13.1593 13.6978" stroke="#010101" stroke-width="0.75" stroke-miterlimit="10" stroke-linecap="round" stroke-linejoin="round"/>
<path d="M20.1133 7.70711L23.5705 5.51758C24.9058 4.67172 26.6207 4.72445 27.9011 5.65257L33.6534 9.72789" stroke="#010101" stroke-width="0.75" stroke-miterlimit="10" stroke-linecap="round" stroke-linejoin="round"/>
<path d="M18.6511 11.8659L14.8458 14.0723C14.2868 14.395 13.576 14.2537 13.1836 13.7411C13.1731 13.7263 13.1625 13.7116 13.152 13.6968C12.7364 13.102 12.8989 12.2751 13.5169 11.8827L16.97 9.69531" stroke="#010101" stroke-width="0.75" stroke-miterlimit="10" stroke-linecap="round" stroke-linejoin="round"/>
<path d="M25.8293 8.66054L18.0963 7.31686C17.3517 7.18819 16.6472 7.69444 16.5312 8.44116C16.432 9.09296 16.8159 9.71944 17.4403 9.92616L22.1442 11.4808C22.1442 11.4808 24.4645 12.4131 25.5171 13.6091" stroke="#010101" stroke-width="0.75" stroke-miterlimit="10" stroke-linecap="round" stroke-linejoin="round"/>
<path d="M15.3281 15.4783L20.4455 12.6074" stroke="#010101" stroke-width="0.75" stroke-miterlimit="10" stroke-linecap="round" stroke-linejoin="round"/>
<path d="M18.3867 15.6678L22.8839 13.0859" stroke="#010101" stroke-width="0.75" stroke-miterlimit="10" stroke-linecap="round" stroke-linejoin="round"/>
<path d="M37.8031 6.8718L34.0625 8.3457L38.0349 18.4274L41.7756 16.9535L37.8031 6.8718Z" fill="#2662FA" stroke="#010101" stroke-width="0.75" stroke-miterlimit="10" stroke-linecap="round" stroke-linejoin="round"/>
<path d="M39.2105 16.6223C39.5426 16.6223 39.8117 16.3531 39.8117 16.0211C39.8117 15.6891 39.5426 15.4199 39.2105 15.4199C38.8785 15.4199 38.6094 15.6891 38.6094 16.0211C38.6094 16.3531 38.8785 16.6223 39.2105 16.6223Z" stroke="white" stroke-width="0.75" stroke-miterlimit="10" stroke-linecap="round" stroke-linejoin="round"/>
<path d="M14.7188 36.7277C14.7188 36.7277 18.5979 35.3165 22.8082 38.1874C24.7214 39.5268 25.8225 40.3874 25.8225 40.3874L30.5855 37.814C31.2752 37.5145 32.0726 37.622 32.659 38.0945L32.9522 38.3308L33.5133 38.0439C34.3001 37.641 35.2535 37.7613 35.9159 38.3456L36.0614 38.4742L36.7048 38.1072C37.2912 37.7718 38.0379 37.9321 38.4345 38.4784C38.8584 39.0606 38.7361 39.8664 38.1813 40.3009" stroke="#010101" stroke-width="0.75" stroke-miterlimit="10" stroke-linecap="round" stroke-linejoin="round"/>
<path d="M31.2276 46.2923L27.7703 48.4818C26.4351 49.3277 24.7202 49.2749 23.4398 48.3468L17.6875 44.2715" stroke="#010101" stroke-width="0.75" stroke-miterlimit="10" stroke-linecap="round" stroke-linejoin="round"/>
<path d="M32.6875 42.1329L36.4949 39.9244C37.0539 39.6017 37.7648 39.743 38.1571 40.2556C38.1677 40.2703 38.1782 40.2851 38.1888 40.2999C38.6043 40.8947 38.4419 41.7216 37.8238 42.1139L34.3708 44.3014" stroke="#010101" stroke-width="0.75" stroke-miterlimit="10" stroke-linecap="round" stroke-linejoin="round"/>
<path d="M25.5117 45.3392L33.2447 46.6829C33.9893 46.8116 34.6938 46.3053 34.8098 45.5586C34.909 44.9068 34.5251 44.2803 33.9007 44.0736L29.1968 42.519C29.1968 42.519 26.8765 41.5866 25.8239 40.3906" stroke="#010101" stroke-width="0.75" stroke-miterlimit="10" stroke-linecap="round" stroke-linejoin="round"/>
<path d="M36.0101 38.5215L30.8906 41.3923" stroke="#010101" stroke-width="0.75" stroke-miterlimit="10" stroke-linecap="round" stroke-linejoin="round"/>
<path d="M32.9482 38.332L28.4531 40.9139" stroke="#010101" stroke-width="0.75" stroke-miterlimit="10" stroke-linecap="round" stroke-linejoin="round"/>
<path d="M13.5367 47.347L17.2773 45.873L13.3049 35.7914L9.56427 37.2653L13.5367 47.347Z" fill="#2662FA" stroke="#010101" stroke-width="0.75" stroke-miterlimit="10" stroke-linecap="round" stroke-linejoin="round"/>
<path d="M12.041 38.9668C12.4196 38.9668 12.7266 38.6599 12.7266 38.2812C12.7266 37.9026 12.4196 37.5957 12.041 37.5957C11.6624 37.5957 11.3555 37.9026 11.3555 38.2812C11.3555 38.6599 11.6624 38.9668 12.041 38.9668Z" stroke="white" stroke-width="0.75" stroke-miterlimit="10" stroke-linecap="round" stroke-linejoin="round"/>
<path d="M47.9187 30.5488H42.6094C41.9112 30.5488 41.3438 31.1163 41.3438 31.8145V37.1237C41.3438 37.822 41.9112 38.3894 42.6094 38.3894H47.9187C48.6169 38.3894 49.1843 37.822 49.1843 37.1237V31.8145C49.1843 31.1141 48.6169 30.5488 47.9187 30.5488Z" stroke="#010101" stroke-width="0.75" stroke-miterlimit="10" stroke-linecap="round"/>
<path d="M44.0117 34.6306L44.8365 35.4533L46.8931 33.3945" stroke="black" stroke-width="0.75" stroke-miterlimit="10" stroke-linecap="round"/>
<path d="M11.1352 31.3095C13.0027 31.3095 14.5166 29.7957 14.5166 27.9282C14.5166 26.0607 13.0027 24.5469 11.1352 24.5469C9.26778 24.5469 7.75391 26.0607 7.75391 27.9282C7.75391 29.7957 9.26778 31.3095 11.1352 31.3095Z" stroke="#010101" stroke-width="0.75" stroke-miterlimit="10"/>
<path d="M11.1367 26.625V29.2322" stroke="#010101" stroke-width="0.75" stroke-miterlimit="10" stroke-linecap="round"/>
<path d="M12.4392 27.9277H9.83203" stroke="#010101" stroke-width="0.75" stroke-miterlimit="10" stroke-linecap="round"/>
<path d="M40.7941 27.7035C42.4775 27.7035 43.8422 26.3389 43.8422 24.6555C43.8422 22.9721 42.4775 21.6074 40.7941 21.6074C39.1108 21.6074 37.7461 22.9721 37.7461 24.6555C37.7461 26.3389 39.1108 27.7035 40.7941 27.7035Z" stroke="#010101" stroke-width="0.75" stroke-miterlimit="10"/>
<path d="M40.7969 23.5684V25.741" stroke="#010101" stroke-width="0.75" stroke-miterlimit="10" stroke-linecap="round"/>
<path d="M41.8815 24.6543H39.7109" stroke="#010101" stroke-width="0.75" stroke-miterlimit="10" stroke-linecap="round"/>
<path d="M6.74219 41.0151V40.0996" stroke="#010101" stroke-width="0.75" stroke-miterlimit="10" stroke-linecap="round"/>
<path d="M4.8125 42.0293H5.59719" stroke="#010101" stroke-width="0.75" stroke-miterlimit="10" stroke-linecap="round"/>
<path d="M7.88672 42.0293H8.67141" stroke="#010101" stroke-width="0.75" stroke-miterlimit="10" stroke-linecap="round"/>
<path d="M6.74219 43.9603V42.9141" stroke="#010101" stroke-width="0.75" stroke-miterlimit="10" stroke-linecap="round"/>
<path d="M43.7912 14.0841L43.2617 13.5547" stroke="#010101" stroke-width="0.75" stroke-miterlimit="10" stroke-linecap="round"/>
<path d="M43.7912 11.4982L43.2617 10.9688" stroke="#010101" stroke-width="0.75" stroke-miterlimit="10" stroke-linecap="round"/>
<path d="M43.7912 8.91016L43.2617 8.38281" stroke="#010101" stroke-width="0.75" stroke-miterlimit="10" stroke-linecap="round"/>
<path d="M46.3789 14.0841L45.8516 13.5547" stroke="#010101" stroke-width="0.75" stroke-miterlimit="10" stroke-linecap="round"/>
<path d="M46.3789 11.4982L45.8516 10.9688" stroke="#010101" stroke-width="0.75" stroke-miterlimit="10" stroke-linecap="round"/>
<path d="M46.3789 8.91016L45.8516 8.38281" stroke="#010101" stroke-width="0.75" stroke-miterlimit="10" stroke-linecap="round"/>
<path d="M49.1115 14.0841L48.582 13.5547" stroke="#010101" stroke-width="0.75" stroke-miterlimit="10" stroke-linecap="round"/>
<path d="M49.1115 11.4982L48.582 10.9688" stroke="#010101" stroke-width="0.75" stroke-miterlimit="10" stroke-linecap="round"/>
<path d="M49.1115 8.91016L48.582 8.38281" stroke="#010101" stroke-width="0.75" stroke-miterlimit="10" stroke-linecap="round"/>
</svg>
