<svg width="54" height="54" viewBox="0 0 54 54" fill="none" xmlns="http://www.w3.org/2000/svg">
<path d="M18.7188 36.5586C26.1746 36.5586 32.2188 30.5144 32.2188 23.0586C32.2188 15.6027 26.1746 9.55859 18.7188 9.55859C11.2629 9.55859 5.21875 15.6027 5.21875 23.0586C5.21875 30.5144 11.2629 36.5586 18.7188 36.5586Z" fill="#F5F5F5"/>
<path d="M41.6609 44.9254C45.1326 44.9254 47.9469 42.1111 47.9469 38.6395C47.9469 35.1678 45.1326 32.3535 41.6609 32.3535C38.1893 32.3535 35.375 35.1678 35.375 38.6395C35.375 42.1111 38.1893 44.9254 41.6609 44.9254Z" fill="#F5F5F5"/>
<path d="M31.5873 25.7617L24.5505 25.7744C23.9725 25.7765 23.5021 25.3061 23.5 24.7281V24.6627C23.4979 24.0848 23.9683 23.6144 24.5463 23.6123L31.5831 23.5996C32.1611 23.5975 32.6315 24.0679 32.6336 24.6459V24.7113C32.6336 25.2913 32.1653 25.7617 31.5873 25.7617Z" fill="#FFB711" stroke="#010101" stroke-width="0.75" stroke-miterlimit="10" stroke-linecap="round"/>
<path d="M30.0627 27.9417L26.076 27.9502C25.4959 27.9523 25.0234 27.4819 25.0234 26.9018V26.8364C25.0213 26.2563 25.4917 25.7838 26.0718 25.7838L30.0585 25.7754C30.6386 25.7733 31.1111 26.2437 31.1111 26.8238V26.8891C31.1111 27.4692 30.6428 27.9396 30.0627 27.9417Z" stroke="#010101" stroke-width="0.75" stroke-miterlimit="10" stroke-linecap="round"/>
<path d="M28.0663 29.6962C27.2246 29.6984 26.5412 29.0234 26.5412 28.1923L26.5391 27.9497L29.585 27.9434L29.5871 28.1859C29.5892 29.017 28.9079 29.6941 28.0663 29.6962Z" fill="#FFB711" stroke="#010101" stroke-width="0.75" stroke-miterlimit="10" stroke-linecap="round"/>
<path d="M32.8804 9.57195C32.4016 9.01508 31.6865 8.38648 30.6719 7.94141" stroke="#010101" stroke-width="0.75" stroke-miterlimit="10" stroke-linecap="round"/>
<path d="M33.8935 11.0927C33.8345 10.9345 33.7585 10.732 33.6172 10.5" stroke="#010101" stroke-width="0.75" stroke-miterlimit="10" stroke-linecap="round"/>
<path d="M35.8932 13.8136C35.8932 9.3016 32.0753 5.6798 27.4958 6.00465C23.6525 6.27676 20.5412 9.37754 20.2564 13.2187C20.0349 16.214 21.501 18.8845 23.8002 20.38C24.2874 20.6964 24.5849 21.2322 24.5849 21.8123V23.6011H31.5437V21.8144C31.5437 21.228 31.8517 20.6922 32.3431 20.3695C34.4799 18.971 35.8932 16.5578 35.8932 13.8136Z" stroke="black" stroke-width="0.75" stroke-miterlimit="10" stroke-linecap="round"/>
<path d="M28.1835 23.381V19.1559C28.1835 18.4409 27.6034 17.8608 26.8884 17.8608H25.8991C25.1376 17.8608 24.5195 17.2427 24.5195 16.4812C24.5195 15.7198 25.1376 15.1017 25.8991 15.0996H26.1142" stroke="#010101" stroke-width="0.75" stroke-miterlimit="10" stroke-linecap="round"/>
<path d="M24.1246 16.3762C24.1246 16.3762 21.857 16.0472 21.9773 14.1994C22.0975 12.3495 23.9749 12.1406 24.363 12.1406" stroke="#010101" stroke-width="0.75" stroke-miterlimit="10" stroke-linecap="round"/>
<path d="M24.3645 13.2137C24.3645 13.2137 23.8878 10.7689 26.0647 10.2901C28.2416 9.81127 28.8976 11.6612 28.8976 11.6612C29.6485 11.5346 30.4121 11.8194 30.8952 12.4079C31.7895 13.4225 30.9838 14.7936 30.9838 14.7936" stroke="#010101" stroke-width="0.75" stroke-miterlimit="10" stroke-linecap="round"/>
<path d="M25.5977 13.231C25.8529 12.5539 26.6102 12.2122 27.2873 12.4674C27.9644 12.7226 28.3061 13.4799 28.0509 14.157C28.0445 14.1739 28.0382 14.1908 28.0319 14.2076" stroke="#010101" stroke-width="0.75" stroke-miterlimit="10" stroke-linecap="round"/>
<path d="M29.5402 13.9355C29.8229 14.6021 29.5086 15.372 28.842 15.6526C28.1755 15.9352 27.4055 15.6209 27.125 14.9544" stroke="#010101" stroke-width="0.75" stroke-miterlimit="10" stroke-linecap="round"/>
<path d="M31.2067 14.1406C32.08 14.5646 32.4428 15.6172 32.0188 16.4905C31.5948 17.3637 30.5423 17.7266 29.669 17.3026C29.0636 17.0073 28.6797 16.3934 28.6797 15.7227" stroke="#010101" stroke-width="0.75" stroke-miterlimit="10" stroke-linecap="round"/>
<path d="M35.5983 17.7056C35.7902 17.7753 35.9738 17.8828 36.132 18.0305C36.461 18.3342 36.6445 18.7624 36.6382 19.2096C37.2921 19.3046 37.9587 19.2961 38.6105 19.1822C38.5767 18.3131 39.2517 17.5833 40.1187 17.5474C40.3402 17.539 40.5616 17.577 40.7663 17.6592C40.9709 17.7394 41.1586 17.8638 41.3105 18.0242C41.8399 17.6276 42.304 17.1488 42.6858 16.6088C42.0466 16.0181 42.0066 15.0204 42.5972 14.3813C42.8988 14.0543 43.327 13.8708 43.7721 13.875C43.867 13.2211 43.8586 12.5546 43.7447 11.9028C42.8756 11.9365 42.1458 11.2594 42.112 10.3903C42.0952 9.94525 42.2681 9.51494 42.5845 9.20486C42.1901 8.6733 41.7134 8.20924 41.1734 7.82744C40.5827 8.46447 39.5892 8.50244 38.9522 7.91393C38.6252 7.61229 38.4417 7.18408 38.448 6.73901C37.7941 6.64408 37.1276 6.65252 36.4758 6.76643C36.5053 7.63549 35.8261 8.36533 34.957 8.39486M36.288 10.7321C36.9335 10.3777 37.7245 10.3038 38.4607 10.5992H38.4628C39.7453 11.1117 40.3845 12.5482 39.9162 13.8371C39.4458 15.1385 37.9671 15.8388 36.6635 15.3748" stroke="black" stroke-width="0.75" stroke-miterlimit="10" stroke-linecap="round" stroke-linejoin="round"/>
<path d="M46.0977 26.3608V24.918" stroke="#010101" stroke-width="0.75" stroke-miterlimit="10" stroke-linecap="round"/>
<path d="M43.418 27.5996H44.6541" stroke="#010101" stroke-width="0.75" stroke-miterlimit="10" stroke-linecap="round"/>
<path d="M47.5391 27.5996H48.7752" stroke="#010101" stroke-width="0.75" stroke-miterlimit="10" stroke-linecap="round"/>
<path d="M46.0977 30.2784V28.6289" stroke="#010101" stroke-width="0.75" stroke-miterlimit="10" stroke-linecap="round"/>
<path d="M16.4983 20.2441C15.8085 19.8095 15.0302 19.4404 14.1484 19.1641" stroke="black" stroke-width="0.75" stroke-miterlimit="10" stroke-linecap="round" stroke-linejoin="round"/>
<path d="M21.7725 29.878C21.7725 29.878 21.5215 24.7374 17.9883 21.4004" stroke="black" stroke-width="0.75" stroke-miterlimit="10" stroke-linecap="round" stroke-linejoin="round"/>
<path d="M10.8516 16.1405V15.2461" stroke="#010101" stroke-width="0.75" stroke-miterlimit="10" stroke-linecap="round"/>
<path d="M8.78906 17.3066H9.54633" stroke="#010101" stroke-width="0.75" stroke-miterlimit="10" stroke-linecap="round"/>
<path d="M12.0898 17.3066H12.9146" stroke="#010101" stroke-width="0.75" stroke-miterlimit="10" stroke-linecap="round"/>
<path d="M10.8516 19.3673V18.3379" stroke="#010101" stroke-width="0.75" stroke-miterlimit="10" stroke-linecap="round"/>
<path d="M42.1424 35.7812V48.0156H14.5117V35.9922" stroke="black" stroke-width="0.75" stroke-miterlimit="10" stroke-linecap="round" stroke-linejoin="round"/>
<path d="M26.1673 35.9878H12.7031L14.7176 31.7754H28.1838L26.1673 35.9878Z" fill="#2662FA" stroke="black" stroke-width="0.75" stroke-miterlimit="10" stroke-linecap="round" stroke-linejoin="round"/>
<path d="M30.2822 35.9878H43.9066L41.8922 31.7754H28.2656L30.2822 35.9878Z" fill="#2662FA" stroke="black" stroke-width="0.75" stroke-miterlimit="10" stroke-linecap="round" stroke-linejoin="round"/>
<path d="M28.2227 31.9863V42.3202" stroke="black" stroke-width="0.75" stroke-miterlimit="10" stroke-linecap="round" stroke-linejoin="round"/>
<path d="M28.2227 43.5859V47.8047" stroke="black" stroke-width="0.75" stroke-miterlimit="10" stroke-linecap="round" stroke-linejoin="round"/>
<path d="M18.3086 42.9531H21.0487" stroke="#010101" stroke-width="0.75" stroke-miterlimit="10" stroke-linecap="round"/>
<path d="M18.3086 44.6406H21.0487" stroke="#010101" stroke-width="0.75" stroke-miterlimit="10" stroke-linecap="round"/>
<path d="M22.3125 44.6406H22.7344" stroke="#010101" stroke-width="0.75" stroke-miterlimit="10" stroke-linecap="round"/>
<path d="M36.8711 36.625V38.3125" stroke="#010101" stroke-width="0.75" stroke-miterlimit="10" stroke-linecap="round"/>
<path d="M37.7148 41.2491L36.6159 40.3378L35.5633 41.4769L34.3673 40.3378L33.0742 41.2491V35.9883H37.7148V41.2491Z" stroke="#010101" stroke-width="0.75" stroke-miterlimit="10" stroke-linecap="round"/>
<path d="M9.19922 27.0293L9.73078 27.5587" stroke="#010101" stroke-width="0.75" stroke-miterlimit="10" stroke-linecap="round"/>
<path d="M11.7969 27.0293L12.3263 27.5587" stroke="#010101" stroke-width="0.75" stroke-miterlimit="10" stroke-linecap="round"/>
<path d="M14.3945 27.0293L14.9261 27.5587" stroke="#010101" stroke-width="0.75" stroke-miterlimit="10" stroke-linecap="round"/>
<path d="M9.19922 24.2832L9.73078 24.8148" stroke="#010101" stroke-width="0.75" stroke-miterlimit="10" stroke-linecap="round"/>
<path d="M11.7969 24.2832L12.3263 24.8148" stroke="#010101" stroke-width="0.75" stroke-miterlimit="10" stroke-linecap="round"/>
<path d="M14.3945 24.2832L14.9261 24.8148" stroke="#010101" stroke-width="0.75" stroke-miterlimit="10" stroke-linecap="round"/>
<path d="M34.3438 29.8784C34.3438 29.8784 34.5336 25.995 37.8474 24.9551" stroke="black" stroke-width="0.75" stroke-miterlimit="10" stroke-linecap="round" stroke-linejoin="round"/>
<path d="M40.6288 24.7245C41.2544 24.7245 41.7616 24.2173 41.7616 23.5917C41.7616 22.9661 41.2544 22.459 40.6288 22.459C40.0032 22.459 39.4961 22.9661 39.4961 23.5917C39.4961 24.2173 40.0032 24.7245 40.6288 24.7245Z" fill="#FFB711" stroke="#010101" stroke-width="0.75" stroke-miterlimit="10" stroke-linecap="round"/>
</svg>
