<svg width="146" height="38" viewBox="0 0 146 38" fill="none" xmlns="http://www.w3.org/2000/svg">
<g opacity="0.5">
<path d="M46.3251 23.4706V12.9144L53.8843 23.4706H58.0468L51.6698 14.9957C52.9574 14.8181 53.9897 14.535 54.7667 14.1465C55.5437 13.758 56.2153 13.1975 56.7814 12.4649C57.7249 11.255 58.1967 9.76755 58.1967 8.00263C58.1967 5.74931 57.5029 3.9622 56.1154 2.64128C54.7723 1.37587 52.7521 0.743164 50.0547 0.743164H43.0117V23.4706H46.3251ZM48.6062 12.4649H46.3251V3.79014H49.8383C51.359 3.79014 52.58 4.17587 53.5013 4.94733C54.4226 5.71879 54.8833 6.74277 54.8833 8.01928C54.8833 9.6177 54.2117 10.8054 52.8686 11.5824C51.8585 12.1707 50.4377 12.4649 48.6062 12.4649ZM69.7593 23.9202C72.1902 23.9202 74.2659 23.121 75.9864 21.5226C76.8966 20.679 77.6181 19.6688 78.151 18.4922C78.6838 17.3156 78.9502 16.1446 78.9502 14.9791C78.9502 12.2373 77.9179 9.97845 75.8532 8.20244C74.1216 6.71502 72.0847 5.97131 69.7426 5.97131C68.1997 5.99351 66.7706 6.34039 65.4552 7.01195C64.1398 7.68351 63.0604 8.61314 62.2168 9.80085C61.1289 11.3327 60.585 13.0143 60.585 14.8458C60.585 16.2001 60.9014 17.5154 61.5341 18.7919C62.0447 19.8353 62.7163 20.7456 63.5488 21.5226C65.2693 23.121 67.3395 23.9202 69.7593 23.9202ZM69.7593 21.0064C68.1609 21.0064 66.79 20.457 65.6467 19.358C64.3924 18.137 63.7652 16.6607 63.7652 14.9291C63.7652 13.1975 64.3924 11.7323 65.6467 10.5335C66.79 9.43455 68.1609 8.88509 69.7593 8.88509C71.3577 8.90729 72.7397 9.45675 73.9052 10.5335C75.1484 11.699 75.77 13.1864 75.77 14.9957C75.77 15.7838 75.6007 16.5664 75.2622 17.3434C74.9236 18.1204 74.4657 18.7919 73.8885 19.358C72.7452 20.457 71.3688 21.0064 69.7593 21.0064ZM90.313 23.9202C92.4775 23.9202 94.3534 23.2542 95.9407 21.9222C97.2283 20.8344 98.1496 19.4801 98.7047 17.8595H95.1582C94.692 18.8252 94.0149 19.5911 93.1268 20.1573C92.2388 20.7234 91.2787 21.0064 90.2464 21.0064C88.6369 21.0064 87.3104 20.3571 86.267 19.0583C85.2791 17.8262 84.7851 16.4443 84.7851 14.9125C84.7851 13.5249 85.1792 12.2484 85.9673 11.0829C86.9774 9.6177 88.4482 8.88509 90.3796 8.88509C91.4563 8.88509 92.3637 9.13207 93.1019 9.62602C93.84 10.12 94.5255 10.9442 95.1582 12.0986H98.7047C98.4715 11.1773 98.0775 10.3448 97.5225 9.60105C95.6799 7.18123 93.2933 5.97131 90.3629 5.97131C87.7877 5.97131 85.6509 6.90927 83.9526 8.78519C82.3875 10.5057 81.6049 12.5481 81.6049 14.9125C81.6049 17.4322 82.4596 19.58 84.1691 21.3561C85.8008 23.0655 87.8487 23.9202 90.313 23.9202ZM105.239 14.6627L112.132 23.4706H116.111L108.969 14.4629L115.146 6.42087H111.366L105.239 14.6627ZM105.239 14.6627V0.743164H102.059V23.4706H105.239V14.6627ZM125.56 23.9202C128.002 23.9202 130.083 23.0377 131.803 21.2728C132.636 20.4181 133.28 19.3691 133.735 18.1259H130.521C129.977 19.0583 129.292 19.7715 128.465 20.2655C127.638 20.7594 126.719 21.0064 125.709 21.0064C124.011 21.0064 122.579 20.3349 121.414 18.9917C120.792 18.2813 120.354 17.3933 120.098 16.3277H134.184C134.251 15.6062 134.284 15.0623 134.284 14.696C134.284 13.253 133.962 11.9015 133.318 10.6417C132.675 9.38182 131.77 8.32454 130.605 7.46983C129.117 6.39312 127.463 5.85476 125.643 5.85476C124.411 5.85476 123.217 6.11562 122.063 6.63732C120.409 7.39213 119.121 8.54654 118.2 10.1006C117.323 11.5991 116.885 13.203 116.885 14.9125C116.885 17.4322 117.773 19.5856 119.549 21.3727C121.236 23.071 123.24 23.9202 125.56 23.9202ZM131.121 13.8801H120.082C120.204 13.0587 120.359 12.4205 120.548 11.9654C120.737 11.5103 121.031 11.0607 121.43 10.6167C122.54 9.3846 123.933 8.76854 125.609 8.76854C127.53 8.76854 129.056 9.60105 130.188 11.2661C130.754 12.0875 131.065 12.9588 131.121 13.8801ZM141.052 23.4706V14.1465C141.018 11.0607 142.411 9.43455 145.231 9.26805V5.97131C143.31 5.98241 141.84 6.64287 140.818 7.95268V6.42087H137.871V23.4706H141.052Z" fill="#FF3F00"/>
<path opacity="0.8" d="M45.6454 35.7837C45.9693 35.7837 46.2649 35.7468 46.532 35.6729C46.7991 35.599 47.0278 35.4924 47.2182 35.3532C47.4086 35.214 47.555 35.042 47.6573 34.8374C47.7595 34.6329 47.8107 34.4027 47.8107 34.1469C47.8107 33.9423 47.7766 33.7605 47.7084 33.6013C47.6402 33.4422 47.5493 33.3058 47.4356 33.1921C47.3219 33.0785 47.187 32.9804 47.0307 32.898C46.8744 32.8156 46.7081 32.7489 46.532 32.6977C46.6513 32.6466 46.7664 32.5826 46.8772 32.5059C46.988 32.4292 47.0889 32.334 47.1799 32.2203C47.2708 32.1066 47.3433 31.9759 47.3972 31.8282C47.4512 31.6804 47.4782 31.5071 47.4782 31.3081C47.4782 31.0808 47.4328 30.8748 47.3418 30.6901C47.2509 30.5054 47.1202 30.3491 46.9497 30.2212C46.7792 30.0934 46.5746 29.9939 46.3359 29.9229C46.0972 29.8518 45.8301 29.8163 45.5346 29.8163H42.9941V35.7837H45.6454ZM45.4237 32.4761H43.6591V30.4216H45.4749C45.9011 30.4216 46.2279 30.5097 46.4552 30.6858C46.6826 30.862 46.7962 31.1007 46.7962 31.4019C46.7962 31.7543 46.6684 32.0214 46.4126 32.2033C46.1569 32.3851 45.8272 32.4761 45.4237 32.4761ZM45.6624 35.1784H43.6591V33.0728H45.5431C46.0659 33.0728 46.4609 33.1623 46.728 33.3413C46.9952 33.5204 47.1287 33.7747 47.1287 34.1043C47.1287 34.4453 46.998 34.7096 46.7366 34.8971C46.4751 35.0847 46.1171 35.1784 45.6624 35.1784ZM50.658 35.8775C51.0388 35.8775 51.3485 35.7937 51.5872 35.626C51.8259 35.4583 52.0191 35.2552 52.1669 35.0165V35.7837H52.8148V31.3763H52.1669V33.8997C52.1669 34.1043 52.1328 34.2919 52.0646 34.4624C51.9964 34.6329 51.9041 34.7792 51.7876 34.9014C51.671 35.0236 51.5318 35.1173 51.3698 35.1827C51.2079 35.2481 51.0331 35.2807 50.8456 35.2807C50.4534 35.2807 50.1522 35.1614 49.9419 34.9227C49.7316 34.684 49.6265 34.3601 49.6265 33.9509V31.3763H48.9701V34.1128C48.9701 34.3743 49.0084 34.613 49.0852 34.8289C49.1619 35.0449 49.2727 35.231 49.4176 35.3873C49.5626 35.5436 49.7387 35.6644 49.9462 35.7496C50.1536 35.8349 50.3909 35.8775 50.658 35.8775ZM55.0568 30.413V29.6884H54.3067V30.413H55.0568ZM55.0057 35.7837V31.3763H54.3493V35.7837H55.0057ZM57.2477 35.7837V29.5605H56.5913V35.7837H57.2477ZM60.6236 35.8775C60.8282 35.8775 61.0143 35.8519 61.182 35.8008C61.3496 35.7496 61.5017 35.6786 61.6381 35.5876C61.7745 35.4967 61.8981 35.3916 62.0089 35.2722C62.1197 35.1529 62.2206 35.0278 62.3115 34.8971V35.7837H62.9679V29.5605H62.3115V32.2203C62.2263 32.0953 62.1282 31.9759 62.0174 31.8623C61.9066 31.7486 61.783 31.6491 61.6466 31.5639C61.5102 31.4786 61.3567 31.4104 61.1862 31.3593C61.0157 31.3081 60.8282 31.2826 60.6236 31.2826C60.3565 31.2826 60.0979 31.3351 59.8478 31.4403C59.5978 31.5454 59.3733 31.696 59.1744 31.8921C58.9755 32.0882 58.8163 32.3283 58.697 32.6125C58.5776 32.8966 58.5179 33.2206 58.5179 33.5843C58.5179 33.948 58.5776 34.272 58.697 34.5561C58.8163 34.8403 58.9755 35.0804 59.1744 35.2765C59.3733 35.4726 59.5978 35.6217 59.8478 35.724C60.0979 35.8263 60.3565 35.8775 60.6236 35.8775ZM60.7429 35.2893C60.5327 35.2893 60.3337 35.2495 60.1462 35.1699C59.9587 35.0904 59.7938 34.9753 59.6518 34.8247C59.5097 34.6741 59.3974 34.4936 59.315 34.2833C59.2326 34.0731 59.1914 33.8372 59.1914 33.5758C59.1914 33.3087 59.2326 33.0685 59.315 32.8554C59.3974 32.6423 59.5083 32.4633 59.6475 32.3183C59.7867 32.1734 59.9501 32.0626 60.1377 31.9859C60.3252 31.9092 60.527 31.8708 60.7429 31.8708C60.9475 31.8708 61.145 31.912 61.3354 31.9944C61.5258 32.0768 61.6963 32.1919 61.8469 32.3397C61.9975 32.4874 62.1169 32.6664 62.205 32.8767C62.2931 33.087 62.3371 33.32 62.3371 33.5758C62.3371 33.8315 62.2931 34.0659 62.205 34.2791C62.1169 34.4922 61.9975 34.6726 61.8469 34.8204C61.6963 34.9682 61.5258 35.0832 61.3354 35.1657C61.145 35.2481 60.9475 35.2893 60.7429 35.2893ZM67.6737 37.1733C68.0033 37.1733 68.2832 37.0795 68.5134 36.8919C68.7435 36.7044 68.9524 36.3833 69.14 35.9286L70.9898 31.3763H70.2908L68.8757 35.0506L67.273 31.3763H66.5484L68.5517 35.7667C68.421 36.0792 68.2875 36.2952 68.1511 36.4146C68.0147 36.5339 67.847 36.5936 67.6481 36.5936C67.506 36.5936 67.3824 36.5808 67.2773 36.5552C67.1721 36.5296 67.0656 36.4884 66.9576 36.4316L66.7359 36.9516C66.8837 37.0255 67.0315 37.0809 67.1792 37.1179C67.327 37.1548 67.4918 37.1733 67.6737 37.1733ZM74.0418 35.886C74.3714 35.886 74.6783 35.8249 74.9624 35.7027C75.2466 35.5805 75.491 35.4143 75.6956 35.204C75.9002 34.9937 76.0607 34.7479 76.1772 34.4666C76.2937 34.1853 76.352 33.8883 76.352 33.5758C76.352 33.2632 76.2952 32.9677 76.1815 32.6892C76.0678 32.4107 75.9087 32.1677 75.7041 31.9603C75.4995 31.7529 75.2566 31.588 74.9752 31.4659C74.6939 31.3437 74.3884 31.2826 74.0588 31.2826C73.7235 31.2826 73.4152 31.3437 73.1339 31.4659C72.8525 31.588 72.6096 31.7543 72.405 31.9646C72.2004 32.1748 72.0412 32.4206 71.9276 32.702C71.8139 32.9833 71.7571 33.2802 71.7571 33.5928C71.7571 33.9054 71.8139 34.2009 71.9276 34.4794C72.0412 34.7579 72.2004 35.0008 72.405 35.2083C72.6096 35.4157 72.8511 35.5805 73.1296 35.7027C73.4081 35.8249 73.7121 35.886 74.0418 35.886ZM74.0588 35.2978C73.8258 35.2978 73.6098 35.2523 73.4109 35.1614C73.212 35.0705 73.0401 34.9483 72.8952 34.7948C72.7502 34.6414 72.6366 34.4595 72.5542 34.2492C72.4718 34.039 72.4306 33.8145 72.4306 33.5758C72.4306 33.3371 72.4703 33.114 72.5499 32.9066C72.6295 32.6991 72.7389 32.5173 72.8781 32.361C73.0173 32.2047 73.1864 32.0825 73.3853 31.9944C73.5843 31.9063 73.8031 31.8623 74.0418 31.8623C74.2748 31.8623 74.4907 31.9077 74.6896 31.9987C74.8886 32.0896 75.0619 32.2132 75.2097 32.3695C75.3574 32.5258 75.4725 32.7091 75.5549 32.9194C75.6373 33.1296 75.6785 33.3541 75.6785 33.5928C75.6785 33.8315 75.6388 34.0546 75.5592 34.262C75.4796 34.4695 75.3688 34.6499 75.2267 34.8033C75.0846 34.9568 74.9141 35.0776 74.7152 35.1657C74.5163 35.2537 74.2975 35.2978 74.0588 35.2978ZM79.1567 35.8775C79.5375 35.8775 79.8472 35.7937 80.0859 35.626C80.3246 35.4583 80.5178 35.2552 80.6656 35.0165V35.7837H81.3135V31.3763H80.6656V33.8997C80.6656 34.1043 80.6315 34.2919 80.5633 34.4624C80.4951 34.6329 80.4027 34.7792 80.2862 34.9014C80.1697 35.0236 80.0305 35.1173 79.8685 35.1827C79.7065 35.2481 79.5318 35.2807 79.3442 35.2807C78.9521 35.2807 78.6509 35.1614 78.4406 34.9227C78.2303 34.684 78.1252 34.3601 78.1252 33.9509V31.3763H77.4688V34.1128C77.4688 34.3743 77.5071 34.613 77.5838 34.8289C77.6606 35.0449 77.7714 35.231 77.9163 35.3873C78.0612 35.5436 78.2374 35.6644 78.4449 35.7496C78.6523 35.8349 78.8896 35.8775 79.1567 35.8775ZM83.4447 35.7837V34.0276C83.4447 33.698 83.4902 33.4067 83.5811 33.1538C83.672 32.9009 83.7971 32.6892 83.9562 32.5187C84.1153 32.3482 84.3015 32.2203 84.5146 32.1351C84.7277 32.0498 84.9536 32.0072 85.1923 32.0072H85.2435V31.2996C85.0332 31.2939 84.8371 31.3195 84.6552 31.3763C84.4734 31.4332 84.3057 31.517 84.1523 31.6278C83.9988 31.7387 83.8624 31.8708 83.7431 32.0242C83.6237 32.1777 83.5243 32.3453 83.4447 32.5272V31.3763H82.7883V35.7837H83.4447ZM90.6482 35.8775C90.8528 35.8775 91.0389 35.8519 91.2066 35.8008C91.3743 35.7496 91.5263 35.6786 91.6627 35.5876C91.7991 35.4967 91.9227 35.3916 92.0335 35.2722C92.1443 35.1529 92.2452 35.0278 92.3362 34.8971V35.7837H92.9926V29.5605H92.3362V32.2203C92.2509 32.0953 92.1529 31.9759 92.042 31.8623C91.9312 31.7486 91.8076 31.6491 91.6712 31.5639C91.5348 31.4786 91.3814 31.4104 91.2109 31.3593C91.0404 31.3081 90.8528 31.2826 90.6482 31.2826C90.3811 31.2826 90.1225 31.3351 89.8725 31.4403C89.6224 31.5454 89.3979 31.696 89.199 31.8921C89.0001 32.0882 88.8409 32.3283 88.7216 32.6125C88.6023 32.8966 88.5426 33.2206 88.5426 33.5843C88.5426 33.948 88.6023 34.272 88.7216 34.5561C88.8409 34.8403 89.0001 35.0804 89.199 35.2765C89.3979 35.4726 89.6224 35.6217 89.8725 35.724C90.1225 35.8263 90.3811 35.8775 90.6482 35.8775ZM90.7676 35.2893C90.5573 35.2893 90.3584 35.2495 90.1708 35.1699C89.9833 35.0904 89.8185 34.9753 89.6764 34.8247C89.5343 34.6741 89.4221 34.4936 89.3397 34.2833C89.2573 34.0731 89.216 33.8372 89.216 33.5758C89.216 33.3087 89.2573 33.0685 89.3397 32.8554C89.4221 32.6423 89.5329 32.4633 89.6721 32.3183C89.8114 32.1734 89.9748 32.0626 90.1623 31.9859C90.3499 31.9092 90.5516 31.8708 90.7676 31.8708C90.9722 31.8708 91.1697 31.912 91.3601 31.9944C91.5504 32.0768 91.7209 32.1919 91.8715 32.3397C92.0222 32.4874 92.1415 32.6664 92.2296 32.8767C92.3177 33.087 92.3617 33.32 92.3617 33.5758C92.3617 33.8315 92.3177 34.0659 92.2296 34.2791C92.1415 34.4922 92.0222 34.6726 91.8715 34.8204C91.7209 34.9682 91.5504 35.0832 91.3601 35.1657C91.1697 35.2481 90.9722 35.2893 90.7676 35.2893ZM95.1153 35.7837V34.0276C95.1153 33.698 95.1607 33.4067 95.2517 33.1538C95.3426 32.9009 95.4676 32.6892 95.6268 32.5187C95.7859 32.3482 95.972 32.2203 96.1851 32.1351C96.3983 32.0498 96.6242 32.0072 96.8629 32.0072H96.914V31.2996C96.7037 31.2939 96.5077 31.3195 96.3258 31.3763C96.1439 31.4332 95.9763 31.517 95.8228 31.6278C95.6694 31.7387 95.533 31.8708 95.4136 32.0242C95.2943 32.1777 95.1948 32.3453 95.1153 32.5272V31.3763H94.4588V35.7837H95.1153ZM99.838 35.886C100.259 35.886 100.611 35.8107 100.895 35.6601C101.179 35.5095 101.432 35.3092 101.654 35.0591L101.245 34.6925C101.063 34.8801 100.862 35.0307 100.644 35.1443C100.425 35.258 100.162 35.3148 99.8551 35.3148C99.6619 35.3148 99.4772 35.2822 99.301 35.2168C99.1248 35.1514 98.9657 35.0548 98.8236 34.927C98.6815 34.7991 98.565 34.6428 98.4741 34.4581C98.3831 34.2734 98.3263 34.0617 98.3036 33.823H101.799C101.804 33.7832 101.807 33.7463 101.807 33.7122V33.6184C101.807 33.2944 101.762 32.9904 101.671 32.7062C101.58 32.4221 101.446 32.1748 101.27 31.9646C101.094 31.7543 100.878 31.588 100.622 31.4659C100.367 31.3437 100.077 31.2826 99.7528 31.2826C99.4459 31.2826 99.1632 31.3422 98.9046 31.4616C98.646 31.5809 98.4229 31.7443 98.2354 31.9518C98.0478 32.1592 97.9015 32.4036 97.7963 32.6849C97.6912 32.9662 97.6386 33.266 97.6386 33.5843C97.6386 33.9253 97.6969 34.2379 97.8134 34.522C97.9299 34.8062 98.0876 35.0491 98.2865 35.2509C98.4854 35.4527 98.7184 35.6089 98.9856 35.7198C99.2527 35.8306 99.5368 35.886 99.838 35.886ZM101.142 33.3371H98.3036C98.3263 33.1211 98.3774 32.9222 98.457 32.7403C98.5366 32.5585 98.6389 32.4008 98.7639 32.2672C98.8889 32.1336 99.0339 32.0285 99.1987 31.9518C99.3635 31.8751 99.5425 31.8367 99.7357 31.8367C99.9574 31.8367 100.152 31.8779 100.32 31.9603C100.487 32.0427 100.629 32.1521 100.746 32.2885C100.862 32.4249 100.953 32.584 101.019 32.7659C101.084 32.9478 101.125 33.1382 101.142 33.3371ZM104.271 35.8775C104.663 35.8775 104.988 35.8008 105.247 35.6473C105.506 35.4939 105.712 35.3177 105.865 35.1188V35.7837H106.496V33.0898C106.496 32.5045 106.334 32.0626 106.01 31.7642C105.686 31.4659 105.223 31.3167 104.621 31.3167C104.297 31.3167 104.01 31.3494 103.759 31.4147C103.509 31.4801 103.262 31.5696 103.018 31.6832L103.214 32.2203C103.418 32.1237 103.627 32.0456 103.84 31.9859C104.054 31.9262 104.291 31.8964 104.552 31.8964C104.967 31.8964 105.29 31.9972 105.52 32.199C105.75 32.4008 105.865 32.7005 105.865 33.0984V33.2518C105.666 33.195 105.462 33.1495 105.251 33.1154C105.041 33.0813 104.794 33.0643 104.51 33.0643C104.231 33.0643 103.977 33.0955 103.747 33.158C103.517 33.2206 103.318 33.3115 103.15 33.4308C102.982 33.5502 102.853 33.6994 102.762 33.8784C102.671 34.0574 102.626 34.2634 102.626 34.4965C102.626 34.7295 102.673 34.9312 102.766 35.1017C102.86 35.2722 102.985 35.4157 103.141 35.5322C103.298 35.6487 103.474 35.7354 103.67 35.7922C103.866 35.8491 104.066 35.8775 104.271 35.8775ZM104.399 35.3575C104.251 35.3575 104.11 35.3376 103.977 35.2978C103.843 35.258 103.725 35.1998 103.623 35.123C103.521 35.0463 103.44 34.954 103.38 34.846C103.32 34.738 103.291 34.613 103.291 34.4709C103.291 34.1867 103.401 33.9622 103.623 33.7974C103.845 33.6326 104.163 33.5502 104.578 33.5502C104.851 33.5502 105.094 33.5701 105.307 33.6099C105.52 33.6496 105.709 33.6923 105.874 33.7377V34.164C105.874 34.3402 105.835 34.5007 105.759 34.6456C105.682 34.7906 105.577 34.9156 105.443 35.0207C105.31 35.1259 105.153 35.2083 104.974 35.268C104.795 35.3276 104.603 35.3575 104.399 35.3575ZM108.55 35.7837V33.2689C108.55 33.0643 108.582 32.8781 108.644 32.7105C108.707 32.5428 108.793 32.3965 108.904 32.2715C109.015 32.1464 109.144 32.0498 109.292 31.9816C109.44 31.9134 109.602 31.8793 109.778 31.8793C110.13 31.8793 110.407 31.9944 110.609 32.2246C110.811 32.4547 110.912 32.7773 110.912 33.1921V35.7837H111.56V33.2433C111.56 33.0273 111.592 32.8341 111.658 32.6636C111.723 32.4931 111.811 32.3496 111.922 32.2331C112.033 32.1166 112.162 32.0285 112.31 31.9688C112.458 31.9092 112.614 31.8793 112.779 31.8793C113.137 31.8793 113.417 31.9944 113.619 32.2246C113.82 32.4547 113.921 32.783 113.921 33.2092V35.7837H114.578V33.0557C114.578 32.5045 114.433 32.0711 114.143 31.7557C113.853 31.4403 113.452 31.2826 112.941 31.2826C112.748 31.2826 112.573 31.3053 112.417 31.3508C112.26 31.3962 112.12 31.4588 111.995 31.5383C111.869 31.6179 111.757 31.7117 111.658 31.8196C111.558 31.9276 111.469 32.0413 111.389 32.1606C111.27 31.9106 111.094 31.7017 110.861 31.5341C110.628 31.3664 110.332 31.2826 109.974 31.2826C109.787 31.2826 109.622 31.3053 109.48 31.3508C109.338 31.3962 109.21 31.4573 109.096 31.5341C108.982 31.6108 108.882 31.7003 108.793 31.8026C108.705 31.9049 108.624 32.01 108.55 32.118V31.3763H107.894V35.7837H108.55ZM119.215 35.7837V33.2603C119.215 33.0557 119.248 32.8682 119.313 32.6977C119.378 32.5272 119.471 32.3809 119.59 32.2587C119.71 32.1365 119.85 32.0427 120.012 31.9773C120.174 31.912 120.349 31.8793 120.536 31.8793C120.929 31.8793 121.23 31.9987 121.44 32.2374C121.65 32.4761 121.756 32.8 121.756 33.2092V35.7837H122.412V33.0472C122.412 32.7858 122.374 32.5471 122.297 32.3311C122.22 32.1152 122.109 31.929 121.964 31.7728C121.819 31.6165 121.643 31.4957 121.436 31.4104C121.228 31.3252 120.991 31.2826 120.724 31.2826C120.343 31.2826 120.033 31.3664 119.795 31.5341C119.556 31.7017 119.363 31.9049 119.215 32.1436V29.5605H118.559V35.7837H119.215ZM125.822 35.886C126.152 35.886 126.458 35.8249 126.743 35.7027C127.027 35.5805 127.271 35.4143 127.476 35.204C127.68 34.9937 127.841 34.7479 127.957 34.4666C128.074 34.1853 128.132 33.8883 128.132 33.5758C128.132 33.2632 128.075 32.9677 127.962 32.6892C127.848 32.4107 127.689 32.1677 127.484 31.9603C127.28 31.7529 127.037 31.588 126.755 31.4659C126.474 31.3437 126.169 31.2826 125.839 31.2826C125.504 31.2826 125.195 31.3437 124.914 31.4659C124.633 31.588 124.39 31.7543 124.185 31.9646C123.981 32.1748 123.821 32.4206 123.708 32.702C123.594 32.9833 123.537 33.2802 123.537 33.5928C123.537 33.9054 123.594 34.2009 123.708 34.4794C123.821 34.7579 123.981 35.0008 124.185 35.2083C124.39 35.4157 124.631 35.5805 124.91 35.7027C125.188 35.8249 125.492 35.886 125.822 35.886ZM125.839 35.2978C125.606 35.2978 125.39 35.2523 125.191 35.1614C124.992 35.0705 124.82 34.9483 124.675 34.7948C124.53 34.6414 124.417 34.4595 124.334 34.2492C124.252 34.039 124.211 33.8145 124.211 33.5758C124.211 33.3371 124.25 33.114 124.33 32.9066C124.41 32.6991 124.519 32.5173 124.658 32.361C124.797 32.2047 124.967 32.0825 125.165 31.9944C125.364 31.9063 125.583 31.8623 125.822 31.8623C126.055 31.8623 126.271 31.9077 126.47 31.9987C126.669 32.0896 126.842 32.2132 126.99 32.3695C127.138 32.5258 127.253 32.7091 127.335 32.9194C127.417 33.1296 127.459 33.3541 127.459 33.5928C127.459 33.8315 127.419 34.0546 127.339 34.262C127.26 34.4695 127.149 34.6499 127.007 34.8033C126.865 34.9568 126.694 35.0776 126.495 35.1657C126.296 35.2537 126.078 35.2978 125.839 35.2978ZM129.973 35.7837V33.2689C129.973 33.0643 130.005 32.8781 130.067 32.7105C130.13 32.5428 130.216 32.3965 130.327 32.2715C130.438 32.1464 130.567 32.0498 130.715 31.9816C130.863 31.9134 131.025 31.8793 131.201 31.8793C131.553 31.8793 131.83 31.9944 132.032 32.2246C132.234 32.4547 132.335 32.7773 132.335 33.1921V35.7837H132.983V33.2433C132.983 33.0273 133.015 32.8341 133.081 32.6636C133.146 32.4931 133.234 32.3496 133.345 32.2331C133.456 32.1166 133.585 32.0285 133.733 31.9688C133.881 31.9092 134.037 31.8793 134.202 31.8793C134.56 31.8793 134.84 31.9944 135.042 32.2246C135.243 32.4547 135.344 32.783 135.344 33.2092V35.7837H136.001V33.0557C136.001 32.5045 135.856 32.0711 135.566 31.7557C135.276 31.4403 134.875 31.2826 134.364 31.2826C134.171 31.2826 133.996 31.3053 133.84 31.3508C133.683 31.3962 133.543 31.4588 133.418 31.5383C133.293 31.6179 133.18 31.7117 133.081 31.8196C132.981 31.9276 132.892 32.0413 132.812 32.1606C132.693 31.9106 132.517 31.7017 132.284 31.5341C132.051 31.3664 131.755 31.2826 131.397 31.2826C131.21 31.2826 131.045 31.3053 130.903 31.3508C130.761 31.3962 130.633 31.4573 130.519 31.5341C130.405 31.6108 130.305 31.7003 130.216 31.8026C130.128 31.9049 130.047 32.01 129.973 32.118V31.3763H129.317V35.7837H129.973ZM139.351 35.886C139.771 35.886 140.124 35.8107 140.408 35.6601C140.692 35.5095 140.945 35.3092 141.167 35.0591L140.757 34.6925C140.576 34.8801 140.375 35.0307 140.156 35.1443C139.938 35.258 139.675 35.3148 139.368 35.3148C139.175 35.3148 138.99 35.2822 138.814 35.2168C138.638 35.1514 138.478 35.0548 138.336 34.927C138.194 34.7991 138.078 34.6428 137.987 34.4581C137.896 34.2734 137.839 34.0617 137.816 33.823H141.312C141.317 33.7832 141.32 33.7463 141.32 33.7122V33.6184C141.32 33.2944 141.275 32.9904 141.184 32.7062C141.093 32.4221 140.959 32.1748 140.783 31.9646C140.607 31.7543 140.391 31.588 140.135 31.4659C139.879 31.3437 139.59 31.2826 139.266 31.2826C138.959 31.2826 138.676 31.3422 138.417 31.4616C138.159 31.5809 137.936 31.7443 137.748 31.9518C137.561 32.1592 137.414 32.4036 137.309 32.6849C137.204 32.9662 137.151 33.266 137.151 33.5843C137.151 33.9253 137.21 34.2379 137.326 34.522C137.443 34.8062 137.6 35.0491 137.799 35.2509C137.998 35.4527 138.231 35.6089 138.498 35.7198C138.765 35.8306 139.05 35.886 139.351 35.886ZM140.655 33.3371H137.816C137.839 33.1211 137.89 32.9222 137.97 32.7403C138.049 32.5585 138.152 32.4008 138.277 32.2672C138.402 32.1336 138.547 32.0285 138.711 31.9518C138.876 31.8751 139.055 31.8367 139.249 31.8367C139.47 31.8367 139.665 31.8779 139.833 31.9603C140 32.0427 140.142 32.1521 140.259 32.2885C140.375 32.4249 140.466 32.584 140.532 32.7659C140.597 32.9478 140.638 33.1382 140.655 33.3371Z" fill="#FF3F00"/>
<path fill-rule="evenodd" clip-rule="evenodd" d="M16.1026 20.1551V22.0439L0 37.2048V35.316L16.1026 20.1551ZM16.5762 20.1551L32.6787 35.316V37.2048L16.5762 22.0439V20.1551ZM16.1026 14.9454V16.834L0 31.9952V30.1066L16.1026 14.9454ZM16.5762 14.9454L32.6787 30.1066V31.9952L16.5762 16.8342V14.9454ZM16.1026 10.2094V12.0982L0 27.2591V25.3705L16.1026 10.2094ZM16.5762 10.2094L32.6787 25.3705V27.2591L16.5762 12.0982V10.2094ZM16.1026 5.47332V7.36197L0 22.5231V20.6344L16.1026 5.47332ZM16.5762 5.47332L32.6787 20.6344V22.5231L16.5762 7.36218V5.47332ZM16.1026 0.263672V2.15251L0 17.3134V15.4246L16.1026 0.263672ZM16.5762 0.263672L32.6787 15.4246V17.3134L16.5762 2.15253V0.263672Z" fill="#FF3F00"/>
</g>
</svg>
