<svg width="111" height="39" viewBox="0 0 111 39" fill="none" xmlns="http://www.w3.org/2000/svg">
<g opacity="0.5">
<path d="M58.4943 5.12288C58.2193 3.60093 56.9907 1.65723 53.7451 1.65723C51.2513 1.65723 49.0875 3.38089 49.0875 5.83802C49.0875 7.76338 50.4261 9.23033 52.6265 9.65208L54.4052 9.98214C55.267 10.1472 55.7988 10.6239 55.7988 11.2841C55.7988 12.0909 55.102 12.641 53.9651 12.641C52.1865 12.641 51.3796 11.5958 51.2696 10.4039L48.6108 11.0457C48.7941 12.8794 50.3344 15.2081 53.9285 15.2081C57.0274 15.2081 58.7327 13.1361 58.7327 11.1007C58.7327 9.24867 57.4491 7.65336 54.9737 7.19494L53.2317 6.86488C52.3332 6.69985 51.9481 6.24143 51.9481 5.61798C51.9481 4.90284 52.6449 4.22438 53.7267 4.22438C55.3037 4.22438 55.7988 5.25124 55.8905 5.85636L58.4943 5.12288Z" fill="#FF3F00"/>
<path d="M69.0897 14.9331H72.2436L67.4027 1.93228H64.0471L59.1511 14.9331H62.1951L63.1302 12.2926H68.1545L69.0897 14.9331ZM65.6791 5.15956L67.2377 9.65208H64.0838L65.6791 5.15956Z" fill="#FF3F00"/>
<path d="M82.5558 14.9331H85.7097L80.8688 1.93228H77.5132L72.6172 14.9331H75.6612L76.5963 12.2926H81.6206L82.5558 14.9331ZM79.1451 5.15956L80.7038 9.65208H77.5498L79.1451 5.15956Z" fill="#FF3F00"/>
<path d="M96.2424 5.12288C95.9673 3.60093 94.7387 1.65723 91.4931 1.65723C88.9993 1.65723 86.8356 3.38089 86.8356 5.83802C86.8356 7.76338 88.1742 9.23033 90.3746 9.65208L92.1532 9.98214C93.0151 10.1472 93.5468 10.6239 93.5468 11.2841C93.5468 12.0909 92.85 12.641 91.7132 12.641C89.9345 12.641 89.1277 11.5958 89.0177 10.4039L86.3588 11.0457C86.5422 12.8794 88.0825 15.2081 91.6765 15.2081C94.7754 15.2081 96.4807 13.1361 96.4807 11.1007C96.4807 9.24867 95.1972 7.65336 92.7217 7.19494L90.9797 6.86488C90.0812 6.69985 89.6961 6.24143 89.6961 5.61798C89.6961 4.90284 90.3929 4.22438 91.4748 4.22438C93.0518 4.22438 93.5468 5.25124 93.6385 5.85636L96.2424 5.12288Z" fill="#FF3F00"/>
<path d="M59.3928 27.6221V24.8533H48.4824V27.6221H52.4798V37.8541H55.3771V27.6221H59.3928Z" fill="#FF3F00"/>
<path d="M63.1186 31.3445C63.1186 28.6307 65.0623 27.4021 66.8777 27.4021C68.6747 27.4021 70.6184 28.6307 70.6184 31.3445C70.6184 34.0584 68.6747 35.2686 66.8777 35.2686C65.0623 35.2686 63.1186 34.0584 63.1186 31.3445ZM60.1114 31.3629C60.1114 35.4703 63.2103 38.1291 66.8777 38.1291C70.5267 38.1291 73.6256 35.4703 73.6256 31.3629C73.6256 27.2371 70.5267 24.5782 66.8777 24.5782C63.2103 24.5782 60.1114 27.2371 60.1114 31.3629Z" fill="#FF3F00"/>
<path d="M78.5874 35.1219V27.5855H80.2744C82.2731 27.5855 83.9051 28.759 83.9051 31.3629C83.9051 33.9667 82.2731 35.1219 80.2744 35.1219H78.5874ZM80.3845 37.8541C84.3085 37.8541 86.9307 35.3786 86.9307 31.3629C86.9307 27.3471 84.3085 24.8533 80.4028 24.8533H75.6902V37.8541H80.3845Z" fill="#FF3F00"/>
<path d="M96.9889 37.8541H100.143L95.3019 24.8533H91.9462L87.0503 37.8541H90.0942L91.0294 35.2136H96.0537L96.9889 37.8541ZM93.5782 28.0806L95.1368 32.5731H91.9829L93.5782 28.0806Z" fill="#FF3F00"/>
<path d="M103.416 32.4264V37.8541H106.313V32.4264L110.879 24.8533H107.651L104.956 29.6759L102.297 24.8533H98.9048L103.416 32.4264Z" fill="#FF3F00"/>
<path fill-rule="evenodd" clip-rule="evenodd" d="M19.4829 0.0341797C30.2429 0.0341797 38.9657 8.75695 38.9657 19.517C38.9657 30.2771 30.2429 38.9999 19.4829 38.9999C8.72277 38.9999 0 30.2771 0 19.517C0 8.75695 8.72277 0.0341797 19.4829 0.0341797ZM19.4829 9.20258C13.7863 9.20258 9.1684 13.8205 9.1684 19.517C9.1684 25.2136 13.7863 29.8315 19.4829 29.8315C25.1794 29.8315 29.7973 25.2136 29.7973 19.517C29.7973 13.8205 25.1794 9.20258 19.4829 9.20258Z" fill="#FF3F00"/>
</g>
</svg>
