<svg width="156" height="151" viewBox="0 0 156 151" fill="none" xmlns="http://www.w3.org/2000/svg">
<path d="M103.284 125.814C78.1563 138.51 49.2672 119.184 53.5577 90.8735C53.7158 89.4444 54.1756 87.9042 54.5402 86.5703C72.9754 90.5634 94.8999 85.9019 103.102 71.9105C110.432 59.269 98.8215 49.1602 86.5181 52.4998C71.8969 56.523 58.4689 66.1028 51.4731 79.6488C40.0717 76.1449 30.8754 68.4008 29.9488 55.2072C28.4307 32.98 52.4771 15.028 73.0545 16.0035C75.198 16.2407 75.7046 12.9698 73.5611 12.7325C46.4725 8.50537 18.6676 36.2391 25.8402 63.5763C28.7184 74.1655 37.8988 81.4012 49.205 85.1116C44.1783 99.8161 49.9805 116.008 60.9875 126.34C73.7739 138.242 90.9366 137.393 105.239 129.718C107.541 128.526 105.491 124.828 103.284 125.814ZM76.2659 62.7927C81.6628 59.7737 88.3775 56.6112 94.8081 57.3229C101.032 57.9392 99.464 66.228 98.1473 69.6261C96.4503 73.8502 91.8469 76.2338 87.8307 77.8868C79.3068 81.7167 67.4469 83.0082 56.8085 81.1072C61.1396 73.3414 68.6785 67.3051 76.2659 62.7927Z" fill="#DAED1A"/>
<path d="M118.367 123.505C112.587 120.84 106.41 118.493 100.169 117.368C97.6133 116.941 97.2176 120.513 99.6792 121.147C104.602 122.415 109.255 124.811 113.701 127.111C112.258 129.699 110.719 132.495 109.069 134.988C107.704 136.862 104.831 139.293 105.118 141.928C105.262 143.246 106.294 143.722 107.517 143.785C110.47 143.895 112.468 139.559 113.928 137.479C116.261 134.048 118.085 130.634 119.798 126.917C120.369 125.679 119.606 124.076 118.367 123.505Z" fill="#DAED1A"/>
</svg>
