<svg width="153" height="146" viewBox="0 0 153 146" fill="none" xmlns="http://www.w3.org/2000/svg">
<g opacity="0.2">
<path d="M4.91523 2.45575C4.91523 3.80895 3.8118 4.9116 2.45759 4.9116C1.10338 4.9116 0 3.80895 0 2.45575C0 1.10255 1.10338 0 2.45759 0C3.8118 0 4.91523 1.10255 4.91523 2.45575Z" fill="#04091E"/>
<path d="M41.8664 2.45575C41.8664 3.80895 40.763 4.9116 39.4088 4.9116C38.0546 4.9116 36.9512 3.80895 36.9512 2.45575C36.9512 1.10255 38.0546 0 39.4088 0C40.763 0 41.8664 1.10255 41.8664 2.45575Z" fill="#04091E"/>
<path d="M78.8118 2.45575C78.8118 3.80895 77.7083 4.9116 76.3541 4.9116C74.9999 4.9116 73.8965 3.80895 73.8965 2.45575C73.8965 1.10255 74.9999 0 76.3541 0C77.7083 0 78.8118 1.10255 78.8118 2.45575Z" fill="#04091E"/>
<path d="M115.763 2.45575C115.763 3.80895 114.66 4.9116 113.306 4.9116C111.952 4.9116 110.848 3.80895 110.848 2.45575C110.848 1.10255 111.952 0 113.306 0C114.66 0 115.763 1.10255 115.763 2.45575Z" fill="#04091E"/>
<path d="M152.692 2.45575C152.692 3.80895 151.588 4.9116 150.234 4.9116C148.88 4.9116 147.776 3.80895 147.776 2.45575C147.776 1.10255 148.88 0 150.234 0C151.605 0 152.692 1.10255 152.692 2.45575Z" fill="#04091E"/>
<path d="M23.3909 30.5721C23.3909 31.9253 22.2874 33.0278 20.9332 33.0278C19.579 33.0278 18.4756 31.9253 18.4756 30.5721C18.4756 29.2189 19.579 28.1162 20.9332 28.1162C22.2874 28.1162 23.3909 29.2189 23.3909 30.5721Z" fill="#04091E"/>
<path d="M60.342 30.5721C60.342 31.9253 59.2386 33.0278 57.8844 33.0278C56.5302 33.0278 55.4268 31.9253 55.4268 30.5721C55.4268 29.2189 56.5302 28.1162 57.8844 28.1162C59.2386 28.1162 60.342 29.2189 60.342 30.5721Z" fill="#04091E"/>
<path d="M97.2878 30.5721C97.2878 31.9253 96.1844 33.0278 94.8301 33.0278C93.4759 33.0278 92.3726 31.9253 92.3726 30.5721C92.3726 29.2189 93.4759 28.1162 94.8301 28.1162C96.1844 28.1162 97.2878 29.2189 97.2878 30.5721Z" fill="#04091E"/>
<path d="M134.239 30.5721C134.239 31.9253 133.136 33.0278 131.781 33.0278C130.427 33.0278 129.324 31.9253 129.324 30.5721C129.324 29.2189 130.427 28.1162 131.781 28.1162C133.136 28.1162 134.239 29.2189 134.239 30.5721Z" fill="#04091E"/>
<path d="M4.91523 58.8395C4.91523 60.1927 3.8118 61.2954 2.45759 61.2954C1.10338 61.2954 0 60.1927 0 58.8395C0 57.4863 1.10338 56.3838 2.45759 56.3838C3.8118 56.3838 4.91523 57.4863 4.91523 58.8395Z" fill="#04091E"/>
<path d="M41.8664 58.8395C41.8664 60.1927 40.763 61.2954 39.4088 61.2954C38.0546 61.2954 36.9512 60.1927 36.9512 58.8395C36.9512 57.4863 38.0546 56.3838 39.4088 56.3838C40.763 56.3838 41.8664 57.4863 41.8664 58.8395Z" fill="#04091E"/>
<path d="M78.8118 58.8395C78.8118 60.1927 77.7083 61.2954 76.3541 61.2954C74.9999 61.2954 73.8965 60.1927 73.8965 58.8395C73.8965 57.4863 74.9999 56.3838 76.3541 56.3838C77.7083 56.3838 78.8118 57.4863 78.8118 58.8395Z" fill="#04091E"/>
<path d="M115.763 58.8395C115.763 60.1927 114.66 61.2954 113.306 61.2954C111.952 61.2954 110.848 60.1927 110.848 58.8395C110.848 57.4863 111.952 56.3838 113.306 56.3838C114.66 56.3838 115.763 57.4863 115.763 58.8395Z" fill="#04091E"/>
<path d="M152.692 58.8395C152.692 60.1927 151.588 61.2954 150.234 61.2954C148.88 61.2954 147.776 60.1927 147.776 58.8395C147.776 57.4863 148.88 56.3838 150.234 56.3838C151.605 56.3838 152.692 57.4863 152.692 58.8395Z" fill="#04091E"/>
<path d="M23.3909 86.9559C23.3909 88.309 22.2874 89.4116 20.9332 89.4116C19.579 89.4116 18.4756 88.309 18.4756 86.9559C18.4756 85.6027 19.579 84.5 20.9332 84.5C22.2874 84.5167 23.3909 85.6027 23.3909 86.9559Z" fill="#04091E"/>
<path d="M60.342 86.9559C60.342 88.309 59.2386 89.4116 57.8844 89.4116C56.5302 89.4116 55.4268 88.309 55.4268 86.9559C55.4268 85.6027 56.5302 84.5 57.8844 84.5C59.2386 84.5167 60.342 85.6027 60.342 86.9559Z" fill="#04091E"/>
<path d="M97.2878 86.9559C97.2878 88.309 96.1844 89.4116 94.8301 89.4116C93.4759 89.4116 92.3726 88.309 92.3726 86.9559C92.3726 85.6027 93.4759 84.5 94.8301 84.5C96.1844 84.5 97.2878 85.6027 97.2878 86.9559Z" fill="#04091E"/>
<path d="M134.239 86.9559C134.239 88.309 133.136 89.4116 131.781 89.4116C130.427 89.4116 129.324 88.309 129.324 86.9559C129.324 85.6027 130.427 84.5 131.781 84.5C133.136 84.5167 134.239 85.6027 134.239 86.9559Z" fill="#04091E"/>
<path d="M4.91523 115.222C4.91523 116.576 3.8118 117.678 2.45759 117.678C1.10338 117.678 0 116.576 0 115.222C0 113.869 1.10338 112.767 2.45759 112.767C3.8118 112.767 4.91523 113.869 4.91523 115.222Z" fill="#04091E"/>
<path d="M41.8664 115.222C41.8664 116.576 40.763 117.678 39.4088 117.678C38.0546 117.678 36.9512 116.576 36.9512 115.222C36.9512 113.869 38.0546 112.767 39.4088 112.767C40.763 112.767 41.8664 113.869 41.8664 115.222Z" fill="#04091E"/>
<path d="M78.8118 115.222C78.8118 116.576 77.7083 117.678 76.3541 117.678C74.9999 117.678 73.8965 116.576 73.8965 115.222C73.8965 113.869 74.9999 112.767 76.3541 112.767C77.7083 112.767 78.8118 113.869 78.8118 115.222Z" fill="#04091E"/>
<path d="M115.763 115.222C115.763 116.576 114.66 117.678 113.306 117.678C111.952 117.678 110.848 116.576 110.848 115.222C110.848 113.869 111.952 112.767 113.306 112.767C114.66 112.767 115.763 113.869 115.763 115.222Z" fill="#04091E"/>
<path d="M152.692 115.222C152.692 116.576 151.588 117.678 150.234 117.678C148.88 117.678 147.776 116.576 147.776 115.222C147.776 113.869 148.88 112.767 150.234 112.767C151.605 112.767 152.692 113.869 152.692 115.222Z" fill="#04091E"/>
<path d="M23.3909 143.356C23.3909 144.709 22.2874 145.812 20.9332 145.812C19.579 145.812 18.4756 144.709 18.4756 143.356C18.4756 142.003 19.579 140.9 20.9332 140.9C22.2874 140.9 23.3909 141.986 23.3909 143.356Z" fill="#04091E"/>
<path d="M60.342 143.356C60.342 144.709 59.2386 145.812 57.8844 145.812C56.5302 145.812 55.4268 144.709 55.4268 143.356C55.4268 142.003 56.5302 140.9 57.8844 140.9C59.2386 140.9 60.342 141.986 60.342 143.356Z" fill="#04091E"/>
<path d="M97.2878 143.356C97.2878 144.709 96.1844 145.812 94.8301 145.812C93.4759 145.812 92.3726 144.709 92.3726 143.356C92.3726 142.003 93.4759 140.9 94.8301 140.9C96.1844 140.9 97.2878 141.986 97.2878 143.356Z" fill="#04091E"/>
<path d="M134.239 143.356C134.239 144.709 133.136 145.812 131.781 145.812C130.427 145.812 129.324 144.709 129.324 143.356C129.324 142.003 130.427 140.9 131.781 140.9C133.136 140.9 134.239 141.986 134.239 143.356Z" fill="#04091E"/>
</g>
</svg>
