<svg width="138" height="141" viewBox="0 0 138 141" fill="none" xmlns="http://www.w3.org/2000/svg">
<path d="M117.289 83.8351L119.522 112.83C119.705 115.354 123.805 115.713 123.602 113.14L121.349 84.1224C121.165 81.5988 117.065 81.2395 117.269 83.8128L117.289 83.8351Z" fill="#FFB711"/>
<path d="M64.1852 65.4289L46.3644 85.2124C44.695 87.0706 47.5073 89.7439 49.1767 87.8857L66.9973 68.0928C68.6574 66.2442 65.8546 63.5707 64.1756 65.429L64.1852 65.4289Z" fill="#FFB711"/>
<path d="M41.1383 26.1972L18.3619 31.5831C16.3394 32.0615 17.5716 34.9647 19.5659 34.4905L42.3423 29.1047C44.3648 28.6263 43.1326 25.7231 41.1383 26.1972Z" fill="#FFB711"/>
</svg>
