<svg width="138" height="144" viewBox="0 0 138 144" fill="none" xmlns="http://www.w3.org/2000/svg">
<path d="M117.103 85.7994L119.335 115.524C119.519 118.111 123.618 118.479 123.415 115.841L121.162 86.0939C120.978 83.5069 116.879 83.1386 117.082 85.7766L117.103 85.7994Z" fill="#47D990"/>
<path d="M63.9986 66.9301L46.1779 87.2112C44.5084 89.1161 47.3207 91.8567 48.9902 89.9517L66.8108 69.661C68.4708 67.7659 65.6681 65.0251 63.9891 66.9302L63.9986 66.9301Z" fill="#47D990"/>
<path d="M40.9518 26.7123L18.1754 32.2336C16.1529 32.724 17.3851 35.7003 19.3794 35.2142L42.1558 29.6929C44.1783 29.2025 42.9461 26.2262 40.9518 26.7123Z" fill="#47D990"/>
</svg>
