<svg width="156" height="151" viewBox="0 0 156 151" fill="none" xmlns="http://www.w3.org/2000/svg">
<path d="M103.286 125.814C78.1582 138.51 49.2692 119.184 53.5596 90.8735C53.7178 89.4444 54.1776 87.9042 54.5422 86.5703C72.9774 90.5634 94.9018 85.9019 103.104 71.9105C110.434 59.269 98.8235 49.1602 86.5201 52.4998C71.8989 56.523 58.4709 66.1028 51.475 79.6488C40.0736 76.1449 30.8774 68.4008 29.9508 55.2072C28.4327 32.98 52.4791 15.028 73.0564 16.0035C75.1999 16.2407 75.7066 12.9698 73.5631 12.7325C46.4745 8.50537 18.6696 36.2391 25.8422 63.5763C28.7204 74.1655 37.9007 81.4012 49.2069 85.1116C44.1802 99.8161 49.9824 116.008 60.9895 126.34C73.7758 138.242 90.9386 137.393 105.241 129.718C107.543 128.526 105.493 124.828 103.286 125.814ZM76.2678 62.7927C81.6648 59.7737 88.3795 56.6112 94.8101 57.3229C101.034 57.9392 99.466 66.228 98.1493 69.6261C96.4523 73.8502 91.8489 76.2338 87.8327 77.8868C79.3087 81.7167 67.4488 83.0082 56.8104 81.1072C61.1415 73.3414 68.6805 67.3051 76.2678 62.7927Z" fill="#FFB711"/>
<path d="M118.368 123.505C112.588 120.84 106.411 118.493 100.17 117.368C97.6143 116.941 97.2186 120.513 99.6801 121.147C104.603 122.415 109.256 124.811 113.702 127.111C112.259 129.699 110.72 132.495 109.07 134.988C107.705 136.862 104.832 139.293 105.119 141.928C105.263 143.246 106.295 143.722 107.518 143.785C110.471 143.895 112.469 139.559 113.929 137.479C116.262 134.048 118.086 130.634 119.799 126.917C120.37 125.679 119.607 124.076 118.368 123.505Z" fill="#FFB711"/>
</svg>
