<svg width="150" height="35" viewBox="0 0 150 35" fill="none" xmlns="http://www.w3.org/2000/svg">
<path d="M42.9067 25.3753H52.8404V22.5466H45.9358V9.33887H42.9067V25.3753Z" fill="#23216E"/>
<path d="M58.81 25.7091C60.0127 25.7091 61.0707 25.4418 61.9838 24.9073C62.9044 24.3653 63.6209 23.6192 64.1332 22.6689C64.6529 21.7112 64.9127 20.6087 64.9127 19.3614C64.9127 18.1216 64.6565 17.0265 64.1443 16.0762C63.632 15.1185 62.9155 14.3686 61.995 13.8266C61.0818 13.2847 60.0202 13.0137 58.81 13.0137C57.6221 13.0137 56.5715 13.281 55.6584 13.8155C54.7452 14.3501 54.0288 15.0962 53.509 16.0539C52.9894 17.0042 52.7295 18.1067 52.7295 19.3614C52.7295 20.6012 52.9819 21.7001 53.4868 22.6577C53.999 23.6081 54.7118 24.3542 55.625 24.8962C56.5382 25.4381 57.5998 25.7091 58.81 25.7091ZM58.81 22.8805C57.8671 22.8805 57.1507 22.565 56.6607 21.9339C56.178 21.2955 55.9368 20.438 55.9368 19.3614C55.9368 18.3146 56.1669 17.4682 56.6273 16.8223C57.095 16.169 57.8225 15.8423 58.81 15.8423C59.7677 15.8423 60.4879 16.1616 60.9704 16.8001C61.4604 17.4385 61.7054 18.2923 61.7054 19.3614C61.7054 20.3934 61.4642 21.2397 60.9815 21.9005C60.5064 22.5538 59.7825 22.8805 58.81 22.8805Z" fill="#23216E"/>
<path d="M70.9033 25.7091C71.4675 25.7091 71.9872 25.6423 72.4624 25.5087C72.945 25.3751 73.383 25.1857 73.7765 24.9407V26.1546C73.7914 26.6001 73.6762 26.9712 73.4312 27.2682C73.1937 27.5726 72.8745 27.7991 72.4735 27.9476C72.0726 28.1035 71.6457 28.1814 71.1929 28.1814C70.7696 28.1814 70.3762 28.0886 70.0124 27.903C69.656 27.7174 69.3813 27.4464 69.1883 27.0901L66.382 28.4487C66.8422 29.2282 67.4992 29.8556 68.3531 30.3307C69.2069 30.8133 70.146 31.0546 71.1706 31.0546C72.0541 31.0546 72.8745 30.9358 73.6317 30.6982C74.389 30.4681 75.0275 30.1155 75.5471 29.6402C76.0742 29.1651 76.4344 28.5601 76.6274 27.8251C76.6942 27.5652 76.7387 27.3016 76.761 27.0343C76.7907 26.7745 76.8056 26.4961 76.8056 26.1991V13.3477H74.1551V14.016C73.7467 13.6967 73.2827 13.4517 72.7631 13.281C72.2508 13.1027 71.6829 13.0137 71.0592 13.0137C69.9085 13.0137 68.9062 13.2884 68.0524 13.8377C67.1986 14.3872 66.5341 15.1407 66.059 16.0985C65.5912 17.0487 65.3574 18.1364 65.3574 19.3614C65.3574 20.5641 65.5875 21.6443 66.0479 22.6021C66.5156 23.5598 67.1652 24.3171 67.9967 24.8739C68.8282 25.4307 69.7971 25.7091 70.9033 25.7091ZM71.3933 23.0141C70.74 23.0141 70.2054 22.8508 69.7896 22.5241C69.3739 22.1975 69.0658 21.7595 68.8654 21.2101C68.6649 20.6532 68.5646 20.037 68.5646 19.3614C68.5646 18.6932 68.6686 18.0845 68.8765 17.5351C69.0844 16.9782 69.4036 16.5365 69.8342 16.2098C70.2722 15.8757 70.8291 15.7087 71.5046 15.7087C72.455 15.7087 73.1342 16.0465 73.5426 16.7221C73.951 17.3902 74.1551 18.2701 74.1551 19.3614C74.1551 20.4527 73.9472 21.3362 73.5315 22.0118C73.1231 22.6801 72.4104 23.0141 71.3933 23.0141Z" fill="#23216E"/>
<path d="M83.9999 25.7091C85.2027 25.7091 86.2606 25.4418 87.1738 24.9073C88.0942 24.3653 88.8108 23.6192 89.3227 22.6689C89.8424 21.7112 90.1023 20.6087 90.1023 19.3614C90.1023 18.1216 89.8468 17.0265 89.3341 16.0762C88.8222 15.1185 88.1056 14.3686 87.1849 13.8266C86.2717 13.2847 85.21 13.0137 83.9999 13.0137C82.812 13.0137 81.7615 13.281 80.8483 13.8155C79.9352 14.3501 79.2187 15.0962 78.699 16.0539C78.1793 17.0042 77.9194 18.1067 77.9194 19.3614C77.9194 20.6012 78.1719 21.7001 78.6767 22.6577C79.189 23.6081 79.9018 24.3542 80.8149 24.8962C81.7281 25.4381 82.7898 25.7091 83.9999 25.7091ZM83.9999 22.8805C83.057 22.8805 82.3406 22.565 81.8506 21.9339C81.368 21.2955 81.1267 20.438 81.1267 19.3614C81.1267 18.3146 81.3569 17.4682 81.8172 16.8223C82.2849 16.169 83.0125 15.8423 83.9999 15.8423C84.9577 15.8423 85.6778 16.1616 86.1604 16.8001C86.6504 17.4385 86.8954 18.2923 86.8954 19.3614C86.8954 20.3934 86.654 21.2397 86.1715 21.9005C85.6963 22.5538 84.9725 22.8805 83.9999 22.8805Z" fill="#23216E"/>
<path d="M91.4375 11.6776H94.4667V9.00488H91.4375V11.6776ZM91.4375 25.3753H94.4667V13.348H91.4375V25.3753Z" fill="#23216E"/>
<path d="M96.4473 30.7205H99.4984V24.9407C99.8921 25.1857 100.326 25.3751 100.801 25.5087C101.284 25.6423 101.808 25.7091 102.372 25.7091C103.478 25.7091 104.447 25.4307 105.279 24.8739C106.11 24.3171 106.756 23.5598 107.216 22.6021C107.684 21.6443 107.918 20.5641 107.918 19.3614C107.918 18.1364 107.681 17.0487 107.205 16.0985C106.737 15.1407 106.077 14.3872 105.223 13.8377C104.369 13.2884 103.367 13.0137 102.216 13.0137C101.592 13.0137 101.021 13.1027 100.501 13.281C99.9884 13.4517 99.5281 13.6967 99.1204 14.016V13.3477H96.4473V30.7205ZM101.882 23.0141C100.872 23.0141 100.16 22.6801 99.7434 22.0118C99.3278 21.3362 99.1204 20.4527 99.1204 19.3614C99.1204 18.2701 99.3243 17.3902 99.7329 16.7221C100.149 16.0465 100.828 15.7087 101.771 15.7087C102.446 15.7087 102.999 15.8757 103.43 16.2098C103.868 16.5365 104.191 16.9782 104.398 17.5351C104.607 18.0845 104.711 18.6932 104.711 19.3614C104.711 20.037 104.61 20.6532 104.41 21.2101C104.209 21.7595 103.901 22.1975 103.486 22.5241C103.07 22.8508 102.536 23.0141 101.882 23.0141Z" fill="#23216E"/>
<path d="M113.406 25.7091C114.979 25.7091 116.212 25.3565 117.103 24.6512C117.993 23.9458 118.439 22.977 118.439 21.7446C118.439 20.8091 118.149 20.0705 117.571 19.5285C116.998 18.9865 116.026 18.5373 114.653 18.181C113.717 17.9433 113.019 17.7503 112.559 17.6018C112.106 17.4534 111.805 17.3086 111.657 17.1676C111.516 17.0265 111.446 16.852 111.446 16.6441C111.446 16.2952 111.612 16.028 111.946 15.8423C112.288 15.6567 112.737 15.5825 113.294 15.6196C114.474 15.7087 115.121 16.2135 115.232 17.1341L118.328 16.5773C118.172 15.486 117.637 14.621 116.724 13.9826C115.811 13.3366 114.646 13.0137 113.227 13.0137C111.772 13.0137 110.61 13.3552 109.741 14.0382C108.873 14.7212 108.438 15.6418 108.438 16.8001C108.438 17.7206 108.739 18.4482 109.34 18.9827C109.942 19.5099 110.978 19.9627 112.448 20.3414C113.316 20.5716 113.954 20.7572 114.363 20.8982C114.779 21.0393 115.046 21.1841 115.164 21.3326C115.283 21.4736 115.343 21.663 115.343 21.9005C115.343 22.2791 115.194 22.5761 114.898 22.7914C114.601 22.9993 114.177 23.1032 113.628 23.1032C112.959 23.1032 112.406 22.9436 111.969 22.6243C111.538 22.3051 111.259 21.8634 111.133 21.2991L108.038 21.7668C108.238 23.0216 108.802 23.9941 109.731 24.6846C110.666 25.3676 111.891 25.7091 113.406 25.7091Z" fill="#23216E"/>
<path d="M124.026 25.7314C124.895 25.7314 125.652 25.5865 126.298 25.297C126.944 25.0075 127.486 24.6214 127.924 24.1389V25.375H130.596V13.3477H127.545V19.4504C127.545 20.1929 127.459 20.7942 127.289 21.2545C127.126 21.7074 126.914 22.0526 126.654 22.2902C126.394 22.5204 126.116 22.6762 125.819 22.7579C125.522 22.8396 125.244 22.8804 124.984 22.8804C124.338 22.8804 123.837 22.7356 123.481 22.4461C123.132 22.1565 122.879 21.7965 122.723 21.3659C122.567 20.9352 122.474 20.5084 122.445 20.0852C122.415 19.6546 122.4 19.3019 122.4 19.0272V13.3477H119.326V20.0964C119.326 20.2967 119.341 20.616 119.371 21.054C119.401 21.4921 119.486 21.9784 119.627 22.5129C119.768 23.04 120.002 23.5486 120.329 24.0386C120.663 24.5286 121.127 24.9332 121.721 25.2525C122.314 25.5717 123.083 25.7314 124.026 25.7314Z" fill="#23216E"/>
<path d="M132.351 25.3745H135.402V18.0912C135.402 17.4009 135.591 16.8403 135.97 16.4097C136.355 15.9716 136.864 15.7526 137.496 15.7526C138.156 15.7526 138.672 15.9754 139.043 16.4209C139.421 16.8589 139.611 17.4751 139.611 18.2695V25.3745H142.641V18.0912C142.641 17.4009 142.83 16.8403 143.208 16.4097C143.594 15.9716 144.103 15.7526 144.734 15.7526C145.395 15.7526 145.91 15.9754 146.281 16.4209C146.66 16.8589 146.85 17.4751 146.85 18.2695V25.3745H149.879V17.4676C149.879 16.1535 149.526 15.0919 148.821 14.2826C148.123 13.466 147.087 13.0576 145.714 13.0576C144.942 13.0576 144.233 13.2247 143.586 13.5587C142.941 13.8929 142.425 14.3495 142.039 14.9285C141.727 14.3643 141.282 13.9114 140.702 13.5699C140.123 13.2284 139.403 13.0576 138.542 13.0576C137.814 13.0576 137.146 13.2024 136.537 13.492C135.928 13.7741 135.424 14.1639 135.023 14.6612V13.3472H132.351V25.3745Z" fill="#23216E"/>
<path d="M17.5 0C7.83501 0 0 7.83501 0 17.5C9.66499 17.5 17.5 9.66499 17.5 0Z" fill="#45D2B0"/>
<path d="M17.5 35C27.165 35 35 27.165 35 17.5C25.335 17.5 17.5 25.335 17.5 35Z" fill="#45D2B0"/>
<path d="M17.5 0C27.165 0 35 7.83501 35 17.5C25.335 17.5 17.5 9.66499 17.5 0Z" fill="#23216E"/>
<path d="M17.5 35C7.83501 35 -8.44939e-07 27.165 0 17.5C9.66499 17.5 17.5 25.335 17.5 35Z" fill="#23216E"/>
</svg>
