<svg width="156" height="32" viewBox="0 0 156 32" fill="none" xmlns="http://www.w3.org/2000/svg">
<path d="M22.1553 25.8706L1.239 11.4425C-0.880612 9.98049 -0.160083 6.93629 2.48302 6.22043L24.7133 0.186873C25.1842 0.0169543 25.6888 -0.0382046 26.1854 0.0259784C26.6818 0.0901614 27.1559 0.271833 27.5682 0.555917C27.9803 0.840001 28.3189 1.2183 28.5556 1.65942C28.7922 2.10054 28.9204 2.59176 28.9292 3.09231L27.6118 23.5528C27.4555 25.9814 24.2749 27.3326 22.1553 25.8706Z" fill="#E9327C"/>
<path d="M15.5216 29.432L3.19913 5.334C2.91745 4.78272 2.7935 4.16433 2.84094 3.54707C2.88838 2.9298 3.10538 2.33763 3.46799 1.83586C3.83061 1.33409 4.32475 0.942206 4.89594 0.703429C5.46713 0.464651 6.09316 0.388262 6.705 0.482688L29.5416 4.0072C30.0673 4.08836 30.5663 4.29315 30.9976 4.60474C31.4287 4.91634 31.7798 5.32583 32.0219 5.79955C32.264 6.27327 32.3902 6.79768 32.3901 7.32968C32.39 7.86167 32.2636 8.38606 32.0215 8.8597L21.5015 29.4332C21.219 29.9829 20.7904 30.4442 20.2629 30.7661C19.7353 31.0881 19.1293 31.2583 18.5112 31.2582C17.8932 31.2581 17.2871 31.0876 16.7597 30.7655C16.2322 30.4432 15.8039 29.9819 15.5216 29.432Z" fill="#1DACE3"/>
<path d="M28.8734 3.9035L17.4896 2.14648L3.5127 5.9415L9.09155 16.8555L22.1555 25.8703C22.4437 26.067 22.7607 26.2176 23.0952 26.3168L28.0573 16.613L28.8734 3.9035Z" fill="#001A49"/>
<path d="M86.5352 6.72049C86.5352 6.29734 86.6606 5.88372 86.8957 5.53188C87.1308 5.18006 87.465 4.90584 87.8559 4.74391C88.2468 4.58198 88.6769 4.53962 89.092 4.62216C89.5069 4.70472 89.8882 4.90848 90.1874 5.20768C90.4866 5.50688 90.6903 5.8881 90.7729 6.3031C90.8554 6.71812 90.8131 7.14829 90.6512 7.53922C90.4892 7.93015 90.215 8.26428 89.8632 8.49936C89.5114 8.73445 89.0977 8.85992 88.6746 8.85992C88.1089 8.85416 87.5681 8.6269 87.1681 8.22693C86.7682 7.82694 86.5409 7.28611 86.5352 6.72049ZM86.8919 9.90571H90.4584V21.7909H86.8919V9.90571Z" fill="#001A49"/>
<path d="M105.86 15.849C105.901 16.6345 105.787 17.4206 105.524 18.1619C105.26 18.903 104.853 19.585 104.325 20.1683C103.797 20.7515 103.159 21.2246 102.448 21.5605C101.736 21.8963 100.965 22.0882 100.18 22.125C99.5187 22.1609 98.8579 22.0495 98.2453 21.7987C97.6327 21.5478 97.0836 21.1638 96.6376 20.6746V26.5461H93.0723V9.90634H96.6376V11.0233C97.0837 10.5342 97.6328 10.1505 98.2455 9.89982C98.8581 9.6492 99.5188 9.53791 100.18 9.57404C100.965 9.61075 101.736 9.80247 102.448 10.1381C103.159 10.4739 103.797 10.9469 104.325 11.5301C104.853 12.1133 105.26 12.795 105.524 13.5363C105.787 14.2774 105.901 15.0634 105.86 15.849ZM102.295 15.849C102.281 15.2925 102.103 14.7525 101.783 14.2966C101.464 13.8407 101.017 13.4891 100.499 13.2858C99.9809 13.0825 99.4143 13.0367 98.8702 13.1539C98.3261 13.271 97.8284 13.5461 97.4399 13.9446C97.0513 14.3431 96.7888 14.8474 96.6854 15.3944C96.582 15.9413 96.6423 16.5066 96.8585 17.0195C97.0748 17.5324 97.4375 17.9701 97.9013 18.2779C98.3652 18.5857 98.9095 18.7497 99.4661 18.7497C99.8484 18.767 100.23 18.7031 100.586 18.5625C100.942 18.4218 101.264 18.2073 101.531 17.9335C101.798 17.6595 102.004 17.3322 102.136 16.9729C102.267 16.6137 102.321 16.2306 102.295 15.849Z" fill="#001A49"/>
<path d="M116.865 18.2237C116.865 20.9577 114.488 22.1224 111.921 22.1224C110.884 22.2163 109.842 21.9968 108.931 21.4923C108.02 20.9879 107.281 20.2217 106.811 19.2928L109.9 17.5346C110.026 17.964 110.295 18.3372 110.663 18.5919C111.031 18.8465 111.475 18.9672 111.921 18.9337C112.776 18.9337 113.203 18.6714 113.203 18.1968C113.203 16.8887 107.356 17.5789 107.356 13.4656C107.356 10.875 109.542 9.56799 112.02 9.56799C112.949 9.53882 113.869 9.75933 114.684 10.2066C115.5 10.6538 116.18 11.3114 116.654 12.1108L113.612 13.7513C113.479 13.4393 113.257 13.1733 112.974 12.9868C112.691 12.8001 112.359 12.7011 112.02 12.7019C111.402 12.7019 111.022 12.9351 111.022 13.3677C111.018 14.7318 116.865 13.8282 116.865 18.2237Z" fill="#001A49"/>
<path d="M129.896 9.90625V21.7915H126.331V20.6722C125.919 21.1653 125.396 21.5537 124.805 21.8059C124.215 22.058 123.572 22.1665 122.931 22.1226C120.531 22.1226 118.487 20.411 118.487 17.2013V9.90625H122.052V16.6813C122.022 16.9646 122.054 17.2511 122.147 17.5207C122.239 17.7902 122.388 18.0366 122.585 18.2425C122.782 18.4484 123.021 18.6088 123.286 18.7127C123.552 18.8167 123.836 18.8614 124.12 18.8441C125.427 18.8441 126.336 18.0839 126.336 16.3957V9.90625H129.896Z" fill="#001A49"/>
<path d="M150.333 14.4931V21.7916H146.767V14.8032C146.767 13.6151 146.196 12.8538 145.056 12.8538C143.867 12.8538 143.202 13.6863 143.202 15.0889V21.7916H139.636V14.8032C139.636 13.6151 139.065 12.8538 137.924 12.8538C136.736 12.8538 136.07 13.6863 136.07 15.0889V21.7916H132.505V9.90641H136.076V10.9954C136.446 10.5105 136.931 10.1259 137.487 9.87679C138.043 9.62776 138.654 9.52208 139.261 9.56947C139.871 9.53964 140.48 9.6684 141.025 9.94325C141.571 10.2181 142.036 10.6295 142.375 11.1376C142.771 10.6061 143.294 10.1833 143.897 9.90909C144.5 9.63481 145.163 9.51797 145.823 9.56947C148.551 9.57414 150.333 11.5224 150.333 14.4931Z" fill="#001A49"/>
<path d="M153.354 9.83226C154.816 9.83226 156 8.64735 156 7.18566C156 5.72399 154.816 4.53906 153.354 4.53906C151.892 4.53906 150.707 5.72399 150.707 7.18566C150.707 8.64735 151.892 9.83226 153.354 9.83226Z" fill="#001A49"/>
<path d="M37.8564 4.43945H41.4229V21.7917H37.8564V4.43945ZM43.4423 15.8491C43.4384 14.6029 43.8043 13.3837 44.4937 12.3459C45.1831 11.3079 46.165 10.4978 47.3151 10.0182C48.4652 9.53869 49.7316 9.41117 50.9543 9.65186C52.1769 9.89256 53.3006 10.4906 54.1831 11.3703C55.0655 12.25 55.6671 13.3717 55.9116 14.5936C56.1561 15.8155 56.0327 17.0823 55.5567 18.2339C55.0808 19.3855 54.2739 20.37 53.2381 21.0626C52.2023 21.7553 50.9843 22.1251 49.7382 22.1251C48.9106 22.1339 48.0896 21.9777 47.323 21.6657C46.5565 21.3538 45.8598 20.8921 45.2737 20.3078C44.6875 19.7235 44.2237 19.0282 43.9092 18.2627C43.5948 17.4972 43.4361 16.6766 43.4423 15.8491ZM52.4757 15.8491C52.4617 15.3115 52.2896 14.7901 51.9808 14.3499C51.6721 13.9098 51.2403 13.5704 50.7397 13.3743C50.2389 13.1783 49.6917 13.1341 49.1661 13.2476C48.6405 13.3609 48.16 13.6268 47.7847 14.0118C47.4094 14.3969 47.156 14.884 47.0561 15.4123C46.9563 15.9407 47.0144 16.4867 47.2233 16.9822C47.4321 17.4776 47.7825 17.9005 48.2304 18.1979C48.6784 18.4953 49.2041 18.654 49.7417 18.6542C50.1099 18.6647 50.4763 18.5987 50.8177 18.4606C51.1592 18.3225 51.4683 18.1151 51.7256 17.8515C51.9829 17.588 52.1828 17.274 52.3127 16.9294C52.4426 16.5846 52.4997 16.2168 52.4804 15.8491H52.4757ZM70.2546 9.90294V21.1947C70.2546 25.1879 67.1405 26.875 63.9797 26.875C62.8672 26.959 61.7529 26.735 60.7591 26.2276C59.7654 25.7203 58.9305 24.949 58.346 23.9987L61.3879 22.2394C61.6334 22.7353 62.0246 23.1446 62.509 23.4124C62.9935 23.6801 63.548 23.7935 64.0986 23.7376C64.4501 23.7855 64.8078 23.754 65.1455 23.6452C65.4831 23.5364 65.792 23.3534 66.0494 23.1093C66.3067 22.8652 66.506 22.5665 66.6325 22.2351C66.759 21.9037 66.8095 21.5481 66.7802 21.1947V20.1011C66.3626 20.6118 65.831 21.0175 65.2284 21.2858C64.6256 21.5541 63.9684 21.6774 63.3093 21.6459C61.7406 21.5971 60.2523 20.9396 59.1598 19.8127C58.0674 18.6857 57.4565 17.1778 57.4565 15.6083C57.4565 14.0386 58.0674 12.5308 59.1598 11.4038C60.2523 10.2768 61.7406 9.61936 63.3093 9.5706C63.9684 9.53907 64.6256 9.66238 65.2284 9.93069C65.831 10.199 66.3626 10.6047 66.7802 11.1155V9.90294H70.2546ZM66.7849 15.6077C66.8084 15.0336 66.6596 14.4657 66.3578 13.9768C66.0559 13.488 65.6148 13.1005 65.0909 12.8645C64.5672 12.6284 63.9847 12.5543 63.4185 12.6519C62.8524 12.7495 62.3283 13.0142 61.9137 13.412C61.4991 13.8098 61.213 14.3224 61.0922 14.884C60.9713 15.4458 61.0212 16.0307 61.2355 16.5639C61.4497 17.0969 61.8186 17.5537 62.2945 17.8755C62.7704 18.1973 63.3318 18.3694 63.9062 18.3697C64.2808 18.396 64.6569 18.3436 65.01 18.216C65.3632 18.0883 65.6856 17.8881 65.9568 17.6282C66.2279 17.3685 66.4417 17.0547 66.5843 16.7074C66.7269 16.36 66.7952 15.9865 66.7849 15.6112V15.6077ZM72.2739 15.8409C72.2701 14.5948 72.6359 13.3756 73.3253 12.3377C74.0147 11.2997 74.9967 10.4896 76.1467 10.0101C77.2969 9.53053 78.5633 9.40301 79.786 9.6437C81.0085 9.8844 82.1321 10.4824 83.0147 11.3622C83.8972 12.2419 84.4988 13.3636 84.7433 14.5854C84.9878 15.8073 84.8643 17.0742 84.3884 18.2257C83.9125 19.3773 83.1055 20.3618 82.0697 21.0545C81.034 21.7471 79.8159 22.117 78.5698 22.117C77.743 22.1257 76.9226 21.9698 76.1566 21.6583C75.3906 21.3469 74.6942 20.8859 74.1083 20.3025C73.5222 19.719 73.0582 19.0249 72.7433 18.2601C72.4283 17.4955 72.2688 16.6759 72.2739 15.8491V15.8409ZM81.3074 15.8409C81.2936 15.3031 81.1215 14.7812 80.8128 14.3406C80.5039 13.9001 80.072 13.5605 79.5711 13.3642C79.0701 13.1678 78.5225 13.1236 77.9965 13.2371C77.4706 13.3504 76.9898 13.6165 76.6144 14.0017C76.2388 14.387 75.9852 14.8745 75.8854 15.4031C75.7855 15.9317 75.8438 16.4782 76.0529 16.9738C76.262 17.4695 76.6126 17.8925 77.0609 18.1901C77.5093 18.4875 78.0354 18.6461 78.5733 18.6461C78.9405 18.6557 79.3055 18.5896 79.6458 18.4517C79.9862 18.3138 80.2943 18.1069 80.551 17.8444C80.8077 17.5818 81.0074 17.269 81.1375 16.9256C81.2677 16.5823 81.3255 16.2157 81.3074 15.8491V15.8409Z" fill="#001A49"/>
</svg>
