<svg width="146" height="35" viewBox="0 0 146 35" fill="none" xmlns="http://www.w3.org/2000/svg">
<path d="M42.8213 24.5152H53.2747V21.3666H46.5367V9.50684H42.8213V24.5152Z" fill="#3C2B1F"/>
<path d="M59.4683 22.4157C57.9779 22.4157 57.2013 21.1143 57.2013 19.1621C57.2013 17.21 57.9779 15.8876 59.4683 15.8876C60.9586 15.8876 61.7563 17.21 61.7563 19.1621C61.7563 21.1143 60.9586 22.4157 59.4683 22.4157ZM59.4893 24.8506C62.9527 24.8506 65.2197 22.3947 65.2197 19.1621C65.2197 15.9296 62.9527 13.4736 59.4893 13.4736C56.0468 13.4736 53.7378 15.9296 53.7378 19.1621C53.7378 22.3947 56.0468 24.8506 59.4893 24.8506Z" fill="#3C2B1F"/>
<path d="M71.2149 28.2306C72.8102 28.2306 74.2166 27.8738 75.1612 27.0341C76.0218 26.2575 76.5886 25.082 76.5886 23.4657V13.768H73.314V14.9225H73.272C72.6423 14.0199 71.6767 13.4531 70.2493 13.4531C67.5835 13.4531 65.7363 15.6781 65.7363 18.8268C65.7363 22.1223 67.9823 23.9275 70.3963 23.9275C71.6977 23.9275 72.5163 23.4027 73.1461 22.6891H73.23V23.7596C73.23 25.061 72.6213 25.8167 71.1729 25.8167C70.0394 25.8167 69.4727 25.3339 69.2838 24.7671H65.9672C66.3031 27.0132 68.2552 28.2306 71.2149 28.2306ZM71.1939 21.3876C69.9135 21.3876 69.0739 20.3381 69.0739 18.7218C69.0739 17.0845 69.9135 16.035 71.1939 16.035C72.6213 16.035 73.377 17.2525 73.377 18.7008C73.377 20.2122 72.6843 21.3876 71.1939 21.3876Z" fill="#3C2B1F"/>
<path d="M83.3208 22.4157C81.8305 22.4157 81.0538 21.1143 81.0538 19.1621C81.0538 17.21 81.8305 15.8876 83.3208 15.8876C84.8112 15.8876 85.6088 17.21 85.6088 19.1621C85.6088 21.1143 84.8112 22.4157 83.3208 22.4157ZM83.3418 24.8506C86.8053 24.8506 89.0718 22.3947 89.0718 19.1621C89.0718 15.9296 86.8053 13.4736 83.3418 13.4736C79.8993 13.4736 77.5903 15.9296 77.5903 19.1621C77.5903 22.3947 79.8993 24.8506 83.3418 24.8506Z" fill="#3C2B1F"/>
<path d="M90.0718 24.5152H93.4933V13.768H90.0718V24.5152ZM90.0718 12.2776H93.4933V9.50684H90.0718V12.2776Z" fill="#3C2B1F"/>
<path d="M94.9775 28.0627H98.399V23.4027H98.441C99.1127 24.3053 100.099 24.8511 101.485 24.8511C104.297 24.8511 106.166 22.6261 106.166 19.1416C106.166 15.909 104.423 13.4531 101.569 13.4531C100.099 13.4531 99.0497 14.1038 98.3151 15.0694H98.2521V13.768H94.9775V28.0627ZM100.603 22.2063C99.1337 22.2063 98.2941 21.0098 98.2941 19.2676C98.2941 17.5253 99.0497 16.2029 100.54 16.2029C102.009 16.2029 102.702 17.4204 102.702 19.2676C102.702 21.0938 101.904 22.2063 100.603 22.2063Z" fill="#3C2B1F"/>
<path d="M111.736 24.8511C114.549 24.8511 116.627 23.6336 116.627 21.2827C116.627 18.5329 114.402 18.0501 112.513 17.7352C111.148 17.4834 109.931 17.3784 109.931 16.6227C109.931 15.951 110.581 15.6362 111.421 15.6362C112.366 15.6362 113.016 15.93 113.142 16.8956H116.291C116.123 14.7755 114.486 13.4531 111.442 13.4531C108.902 13.4531 106.803 14.6286 106.803 16.8956C106.803 19.4145 108.797 19.9183 110.665 20.2331C112.093 20.485 113.394 20.59 113.394 21.5556C113.394 22.2483 112.744 22.6261 111.715 22.6261C110.581 22.6261 109.868 22.1013 109.742 21.0308H106.509C106.614 23.4027 108.587 24.8511 111.736 24.8511Z" fill="#3C2B1F"/>
<path d="M121.275 24.8297C122.765 24.8297 123.71 24.242 124.486 23.1924H124.549V24.5148H127.824V13.7676H124.403V19.7709C124.403 21.0514 123.689 21.933 122.513 21.933C121.422 21.933 120.897 21.2823 120.897 20.1068V13.7676H117.497V20.8205C117.497 23.2134 118.798 24.8297 121.275 24.8297Z" fill="#3C2B1F"/>
<path d="M129.312 24.5153H132.734V18.4909C132.734 17.2105 133.364 16.3079 134.434 16.3079C135.463 16.3079 135.946 16.9796 135.946 18.1341V24.5153H139.367V18.4909C139.367 17.2105 139.976 16.3079 141.067 16.3079C142.096 16.3079 142.579 16.9796 142.579 18.1341V24.5153H146V17.5253C146 15.1114 144.783 13.4531 142.348 13.4531C140.962 13.4531 139.808 14.0409 138.968 15.3423H138.926C138.381 14.1878 137.31 13.4531 135.904 13.4531C134.35 13.4531 133.322 14.1878 132.65 15.3003H132.587V13.768H129.312V24.5153Z" fill="#3C2B1F"/>
<path d="M21.9463 0.921721L18.5064 0L15.6076 10.8186L12.9905 1.0515L9.55055 1.97322L12.3782 12.5259L5.33522 5.48294L2.81704 8.00113L10.5423 15.7264L0.921719 13.1486L0 16.5884L10.5117 19.4051C10.3913 18.886 10.3276 18.3451 10.3276 17.7894C10.3276 13.8557 13.5165 10.6669 17.4502 10.6669C21.3838 10.6669 24.5727 13.8557 24.5727 17.7894C24.5727 18.3415 24.5098 18.8791 24.3909 19.3951L33.9441 21.9548L34.8658 18.515L24.3123 15.6872L33.9335 13.1091L33.0117 9.66928L22.4587 12.4969L29.5017 5.45403L26.9835 2.93585L19.3654 10.554L21.9463 0.921721Z" fill="#F97316"/>
<path d="M24.3813 19.4346C24.0863 20.6814 23.4637 21.8015 22.6094 22.699L29.5302 29.6199L32.0484 27.1017L24.3813 19.4346Z" fill="#F97316"/>
<path d="M22.5396 22.7725C21.6749 23.6556 20.5823 24.3146 19.3569 24.6542L21.8753 34.0528L25.3152 33.1311L22.5396 22.7725Z" fill="#F97316"/>
<path d="M19.2286 24.6876C18.6601 24.8338 18.0642 24.9114 17.4502 24.9114C16.7923 24.9114 16.1552 24.8222 15.5504 24.6553L13.0298 34.0625L16.4696 34.9841L19.2286 24.6876Z" fill="#F97316"/>
<path d="M15.4285 24.6205C14.2219 24.264 13.1486 23.5966 12.3016 22.7109L5.36377 29.6488L7.88195 32.167L15.4285 24.6205Z" fill="#F97316"/>
<path d="M12.2444 22.6498C11.412 21.7586 10.8056 20.6534 10.517 19.4258L0.932617 21.9939L1.85433 25.4338L12.2444 22.6498Z" fill="#F97316"/>
</svg>
