<svg width="103" height="103" viewBox="0 0 103 103" fill="none" xmlns="http://www.w3.org/2000/svg">
<path fill-rule="evenodd" clip-rule="evenodd" d="M48.4704 39.2986C48.3949 39.5044 48.3613 39.5956 48.3111 39.7339C47.8926 39.4859 47.4828 39.2431 47.0677 38.9976C47.0244 39.1262 46.9919 39.2222 46.9513 39.344C46.5409 39.0926 46.1461 38.8508 45.7321 38.5967C45.6905 38.7111 45.6574 38.8027 45.6204 38.9048C45.3504 38.7898 45.0568 38.6991 44.814 38.5497C44.6449 38.4454 44.5538 38.2528 44.4144 38.1127C44.2659 37.9636 44.0286 38.3448 43.7679 38.2213C43.5199 38.1033 43.3057 37.9409 43.0604 37.7316C42.9916 37.9106 42.9575 37.9977 42.9003 38.1455C42.4804 37.8966 42.0722 37.6549 41.6589 37.4102C41.6199 37.5317 41.589 37.6301 41.5578 37.7275C41.0253 37.4469 40.4937 37.1671 39.927 36.8692C39.8679 37.036 39.8346 37.129 39.8013 37.2232C39.2621 36.9518 38.7192 36.6781 38.1511 36.3926C38.0792 36.5829 38.0455 36.6717 38.0193 36.7417C37.47 36.4608 36.9341 36.1868 36.3765 35.9013C36.3225 36.0726 36.2914 36.1708 36.2614 36.2654C35.7272 35.9855 35.1943 35.7072 34.628 35.4111C34.57 35.5777 34.5375 35.6716 34.4993 35.7814C33.9749 35.5023 33.4509 35.2229 32.9052 34.9327C32.8102 35.0936 32.7485 35.1983 32.6448 35.3733C32.3192 35.0253 32.0971 34.5812 31.4729 34.6167C31.4463 34.7011 31.4148 34.7995 31.3775 34.9167C31.0001 34.6497 30.6261 34.3865 30.2243 34.1029C30.107 34.3002 30.0445 34.4047 29.9302 34.5964C29.5701 33.9912 28.9796 33.7004 28.2411 33.5978C28.2088 33.6954 28.177 33.7921 28.1319 33.93C28.0432 33.8741 27.9323 33.8548 27.9143 33.7855C27.8137 33.3919 27.5594 33.2475 27.0242 33.297C26.9661 33.3023 26.91 33.25 26.8882 33.2018C26.8565 33.1295 26.8899 32.972 26.8362 32.9639C26.5889 32.9291 26.2874 32.9415 26.3174 32.6313C26.3483 32.3095 26.5995 31.9584 26.6381 31.6208C26.6468 31.5447 26.8644 31.4131 26.9506 31.3379C26.8908 31.0453 26.8404 30.7979 26.7644 30.4261C27.3361 30.6172 27.7711 30.7629 28.2541 30.9249C28.2331 30.5605 28.0155 30.5315 27.7472 30.496C27.5627 30.4712 27.4883 30.2343 27.3725 30.1016C27.8533 29.565 28.1392 29.8201 28.3579 29.9017C29.8291 30.4518 31.448 30.761 33.028 31.1307C34.7261 31.5278 36.5247 31.7613 38.1835 32.2178C39.2912 32.5223 40.4572 32.7288 41.5406 33.0626C42.7623 33.4393 44.0724 33.6757 45.2583 34.1023C46.0246 34.3776 46.8779 34.5075 47.6421 34.7946C48.3672 35.067 49.1397 35.3001 49.9145 35.4986C50.7538 35.7131 51.5714 35.9585 52.3715 36.2274C53.8669 36.7298 55.3819 37.2032 56.8655 37.7252C57.8405 38.0685 58.8566 38.3653 59.8535 38.683C61.3095 39.1472 62.7068 39.6957 64.18 40.1374C65.4592 40.5209 66.6107 41.0997 67.8639 41.5266C68.9042 41.8814 69.9048 42.2901 70.926 42.6708C72.7602 43.3537 74.5956 44.0352 76.4117 44.7438C77.5778 45.1992 78.7114 45.706 79.9107 46.1134C81.7028 46.7228 83.3514 47.5268 85.1012 48.1884C86.1477 48.5834 87.1886 48.9812 88.2001 49.4248C89.4367 49.9681 90.7728 50.3808 91.9842 50.9557C93.7955 51.8146 95.7044 52.538 97.5733 53.3171C98.9792 53.9035 100.325 54.5719 101.876 54.9551C102.09 55.008 102.211 55.2102 102.361 55.3314C101.906 56.0033 101.602 55.3451 101.134 55.795C101.29 55.8532 101.438 55.8818 101.545 55.9563C101.658 56.0347 101.73 56.157 101.879 56.3274C101.615 56.4596 101.435 56.5504 101.254 56.6418C101.243 56.8142 101.411 56.9655 101.067 57.2272C100.895 57.3583 100.512 57.2633 100.54 57.6546C100.508 57.6638 100.472 57.6831 100.446 57.6803C100.265 57.6587 100.075 57.6499 99.9087 57.6049C99.0503 57.3733 98.1365 57.2142 97.3594 56.8737C96.2953 56.4078 95.1332 56.0888 94.0529 55.6515C92.4307 54.9946 90.8139 54.3305 89.1796 53.6908C88.1435 53.2851 87.0805 52.917 86.0236 52.5298C85.9859 52.6486 85.954 52.7474 85.9222 52.8461C85.8849 52.8506 85.8341 52.8706 85.8168 52.8564C85.7858 52.8314 84.8707 52.1537 84.799 52.1201C84.3828 51.9242 83.9669 51.7272 83.5294 51.5201C83.4671 51.6995 83.4344 51.7938 83.3524 52.0309C83.2667 51.8558 83.2149 51.7747 83.1849 51.6811C83.1518 51.5783 83.1872 51.3955 83.1089 51.3664C82.5934 51.1721 82.0553 51.0098 81.5208 50.8366C81.4777 50.9592 81.4453 51.0523 81.3607 51.2929C81.2763 51.113 81.2269 51.0302 81.1967 50.9365C81.1634 50.8342 81.1969 50.6535 81.1184 50.6241C80.6033 50.4303 80.0664 50.2678 79.533 50.094C79.4888 50.218 79.4558 50.3112 79.3694 50.5546C79.2861 50.3697 79.2385 50.2861 79.2086 50.192C79.1759 50.0897 79.206 49.9115 79.1274 49.8819C78.6135 49.6881 78.0774 49.5259 77.5446 49.352C77.4994 49.4777 77.4665 49.5696 77.378 49.8169C77.2952 49.6269 77.2114 49.5477 77.2283 49.4466C77.2595 49.2597 77.2242 49.1897 77.0461 49.13C76.0572 48.7988 75.0954 48.4277 74.1063 48.0632C74.0638 48.1899 74.0319 48.2858 73.998 48.3872C73.4982 48.5342 74.0637 47.6698 73.4243 47.8626C73.1683 47.9398 72.9386 47.6427 72.6638 47.4989C72.6054 47.6588 72.5724 47.7499 72.5403 47.8378C72.4863 47.8457 72.4228 47.8631 72.3701 47.8583C72.3489 47.8566 71.8761 47.2765 71.847 47.2656C71.1393 47.0032 70.4321 46.7408 69.711 46.4736C69.6639 46.6203 69.632 46.7191 69.5998 46.8203C69.1632 46.3338 68.9007 46.1739 68.2394 45.9928C68.2073 46.0935 68.1756 46.1917 68.145 46.289C68.0874 46.2843 67.9879 46.3055 67.9712 46.2709C67.5749 45.4417 66.4827 45.4537 65.7379 45.0473C65.3453 44.8333 64.8301 44.7683 64.3695 44.6356C64.3289 44.7518 64.2961 44.8453 64.2616 44.9439C64.1908 44.9247 64.1003 44.9315 64.085 44.8915C63.8332 44.2372 63.105 44.0802 62.4721 43.9218C61.6557 43.718 61.0198 43.2476 60.09 43.2182C60.0665 43.2857 60.0342 43.3804 59.9697 43.5679L59.1942 42.6789C59.0281 42.7879 58.9308 42.8518 58.8074 42.933C58.3844 43.0266 58.5596 42.1818 57.7819 42.672C57.6764 42.551 57.566 42.3963 57.4238 42.2727C57.3521 42.211 57.1774 42.1453 57.1272 42.1863C56.9078 42.3653 56.828 42.3176 56.695 42.2144C56.5115 42.071 56.528 41.577 55.9633 42.0027C55.9328 42.0256 55.8226 41.933 55.7575 41.8858C55.5587 41.7426 55.5425 41.3005 55.0122 41.7058C54.8263 41.5413 54.6408 41.3766 54.461 41.2169C54.2969 41.2712 54.0666 41.4074 53.9856 41.3624C53.7882 41.2538 53.6589 41.0619 53.5028 40.9034C52.9456 41.3201 52.9186 40.8214 52.7033 40.7091C52.6281 40.7371 52.5831 40.7425 52.5712 40.7599C52.5505 40.7904 52.5534 40.8283 52.539 40.8632C52.5152 40.9211 52.4853 40.9785 52.4153 41.1272L51.7011 40.3085C51.6248 40.5142 51.5919 40.604 51.5568 40.6982C51.1347 40.8901 51.3366 40.1852 50.8333 40.4446C50.3317 40.703 50.4007 40.1896 50.1615 40.0852C49.9072 39.9748 49.6508 39.8669 49.3579 39.7418C49.3974 39.7264 49.353 39.7333 49.3417 39.7506C49.3211 39.7813 49.3239 39.819 49.3096 39.8533C49.2857 39.9105 49.2553 39.968 49.1837 40.1163L48.4704 39.2986Z" fill="white"/>
<path fill-rule="evenodd" clip-rule="evenodd" d="M45.7356 89.3618C47.2048 92.1326 47.2796 91.4052 46.9607 91.5751C47.0144 91.8177 47.0688 92.0626 47.1491 92.4259C46.7829 92.4077 46.5517 92.3964 46.3183 92.3845C46.2954 92.4527 46.2634 92.5484 46.2311 92.6447C46.1757 92.6431 46.0815 92.6683 46.0595 92.6367C45.5161 91.8553 44.5519 91.4827 43.9981 90.7C43.4426 89.9151 42.8426 89.1442 42.0907 88.543C41.4789 88.053 40.9437 87.5051 40.4055 86.9515C40.2399 86.7806 40.337 86.4383 39.9673 86.3773C39.6904 86.3319 39.5774 85.9846 39.3913 85.7713L38.7782 85.0684C38.5923 84.8553 38.4076 84.6415 38.2203 84.4297C38.0346 84.2181 37.8468 84.0078 37.6544 83.8021C37.6406 83.7869 37.5862 83.8084 37.4589 83.8245C37.5949 84.0579 37.71 84.2547 37.8257 84.4515C37.7844 84.4859 37.7435 84.5199 37.7027 84.5542C37.5005 84.3393 37.2951 84.1271 37.0979 83.9081C36.8892 83.6774 36.6867 83.4416 36.4849 83.2048C36.4505 83.1646 36.3956 83.108 36.4151 83.0605C36.6809 82.4134 36.3907 82.1984 35.8751 82.0949C35.6818 82.0558 35.6046 81.8144 35.4745 81.6653C33.7276 79.6628 31.9856 77.6559 30.227 75.664C30.0354 75.4472 29.9756 75.0559 29.477 75.1706C29.4546 75.1752 29.4164 75.1322 29.424 75.1099C29.582 74.6554 28.9335 74.8603 28.9752 74.5721C29.0287 74.2001 28.883 74.1084 28.5553 74.0879C28.455 74.0821 28.4306 73.859 28.4208 73.7153C28.4074 73.5139 28.5415 73.4105 28.751 73.4252C28.7708 73.369 28.816 73.2982 28.8042 73.2607C28.7875 73.2099 28.7293 73.1431 28.6851 73.1573C28.5514 73.2 28.4057 73.3176 28.2845 73.3329C28.1231 73.3536 27.9202 73.3585 27.8436 73.2742C27.712 73.1289 27.7361 72.7875 27.5647 72.7488C27.2888 72.6868 27.2104 72.5653 27.1653 72.305C27.1342 72.1277 26.815 72.1035 26.6827 71.9589C26.1492 71.3769 25.6389 70.7743 25.1321 70.1934C25.2227 70.0112 25.2992 69.8573 25.3751 69.704C25.2047 69.7122 25.0342 69.7211 24.7155 69.7369C24.405 69.5698 24.3815 68.8306 23.512 69.1317C23.5707 68.9459 23.6251 68.7738 23.6734 68.6206C23.022 68.2987 22.5651 67.8362 22.3879 67.1308C21.6005 66.9284 21.4463 66.1415 20.882 65.735C21.0669 65.5931 21.2888 65.4466 21.2826 65.424C21.2086 65.1384 20.9663 65.4059 20.7364 65.5082L20.1458 64.8311C19.9774 64.9178 19.8437 64.9865 19.7022 65.0596C19.6982 65.0106 19.6727 64.9602 19.6948 64.9137C19.8646 64.5517 19.7967 64.2456 19.5305 64.1892C18.9064 64.0578 18.7153 63.5294 18.3439 63.1692C18.0242 62.8591 17.753 62.5032 17.3168 62.2814C17.4648 62.5131 17.6125 62.7451 17.7609 62.9764C17.2912 62.5613 16.4635 62.4065 16.7895 61.5049C16.5224 61.3052 16.2771 61.1733 16.0996 60.9805C15.5491 60.3811 15.024 59.7588 14.5003 59.1584C14.3054 59.2619 14.1724 59.3321 13.974 59.4379C14.1156 59.1324 14.231 58.8835 14.3464 58.6346C14.0475 58.819 13.6887 58.9544 13.7163 58.6084C13.7454 58.2423 13.5131 58.2501 13.306 58.1191C12.9278 57.8793 12.6949 57.4735 12.2697 57.2348C12.3711 57.4257 12.4726 57.6167 12.5788 57.8181C12.4939 57.8455 12.4019 57.8951 12.3861 57.8776C11.9706 57.4147 11.5295 56.9718 11.1649 56.4671C10.896 56.0948 10.8354 55.5618 10.4422 55.2773C10.3781 55.2312 10.3038 55.1961 10.1456 55.2318C10.2678 55.4261 10.3904 55.6202 10.5131 55.8144C9.96484 55.3515 9.29108 55.0174 9.11849 54.2192C9.04209 53.866 8.67236 53.6634 8.32021 53.4641C8.37974 53.619 8.43947 53.7741 8.50108 53.9342C8.43297 53.9569 8.34097 54.0078 8.32507 53.9903C8.13316 53.7837 7.95311 53.5667 7.76992 53.3525C8.0717 52.8882 7.32668 53.2376 7.43921 52.8339C7.51201 52.5714 6.90376 52.6879 7.0173 52.1868C7.07833 51.9143 6.66407 51.7213 6.33329 51.5908C6.4386 51.7883 6.54322 51.9864 6.65509 52.1964C6.56184 52.2121 6.47206 52.2508 6.4507 52.2277C6.16518 51.9145 5.90886 51.5742 5.6056 51.2773C5.01452 50.6977 4.46783 50.0632 3.76553 49.6062C3.38699 49.3597 3.08761 49.0552 2.74635 48.7824C2.45389 48.5479 2.07158 48.4042 1.42927 48.7733C1.33254 48.6624 1.05234 48.473 1.10975 48.3845C1.36129 47.9979 1.14445 47.6788 1.3756 47.3632C1.59432 47.0651 1.59056 46.8917 1.585 46.6303C1.57407 46.1027 2.00474 45.6114 2.61503 45.3507C2.67445 45.151 2.73389 44.9493 2.79273 44.7519C2.86476 44.6956 2.93602 44.6103 2.9919 44.6004C3.60376 44.4873 4.05457 44.587 4.45801 44.9072C5.11897 45.4316 5.93727 45.794 6.45152 46.4737C7.10545 46.5498 7.25818 47.1328 7.65816 47.4659C7.97055 47.7268 8.33194 47.9396 8.62868 48.2149C8.91915 48.4838 9.06301 48.9404 9.43814 49.071C9.97744 49.2594 10.2704 49.6495 10.5458 50.0483C10.8997 50.5611 11.5551 50.7466 11.9377 51.2183C12.3302 51.7007 12.6428 52.288 13.184 52.5998C14.2288 53.2014 14.6892 54.3224 15.6085 55.0099C16.7484 55.8622 17.4531 57.1118 18.5528 57.9736C20.0344 59.1337 21.0422 60.6977 22.3451 62.0052C22.5045 62.1654 22.6408 62.3471 22.793 62.5144C22.921 62.6555 22.999 62.8648 23.3204 62.7533C23.0861 63.0914 23.5604 62.9679 23.5315 63.2272C23.5138 63.3859 23.8741 63.4283 24.0285 63.5595C24.2005 63.7066 24.3311 63.895 24.4797 64.0654L24.8699 64.5127L25.316 65.024L25.762 65.5353L26.1522 65.9826C26.3009 66.1531 26.4691 66.3085 26.5935 66.4977C26.7402 66.7215 27.0127 66.8317 26.9825 67.2226C26.9678 67.4108 27.3992 67.4424 27.5575 67.6091C28.043 68.1227 28.4808 68.6795 28.966 69.1934C29.1461 69.3851 29.1949 69.7348 29.6596 69.6271C29.9645 69.5559 29.4646 70.1377 29.9225 70.0335C30.067 70.0003 30.3151 70.2516 30.269 70.3418C30.0098 70.8515 30.7753 70.5045 30.6362 70.8417C30.4397 71.3196 30.9437 71.0702 31.0527 71.2219C31.1145 71.3076 31.1462 71.4179 31.1922 71.5164C31.272 71.6896 31.323 72.0306 31.4376 72.0063C31.905 71.9065 31.7748 72.3801 32.0628 72.4665C32.3617 72.5555 32.507 72.8849 32.7099 73.1174C36.353 77.2916 39.9861 81.4753 43.6487 85.633C44.1372 86.1873 44.4306 86.9436 45.287 87.1489C45.1714 87.7506 45.8202 87.6792 46.0527 87.9837C46.773 88.9271 47.5908 89.7899 48.4244 90.7454C48.248 90.8427 48.0178 91.0093 47.985 90.9809C47.5301 90.5834 46.9647 90.3072 46.585 89.8205C45.8194 88.84 44.966 87.9322 44.1439 86.9989C44.1141 86.9655 44.0256 86.9832 43.9642 86.9769C43.9697 87.0472 43.9602 87.1265 43.9827 87.1862C44.0395 87.3352 43.9189 87.6224 44.2751 87.5454C44.3675 87.5251 44.4265 87.6998 44.5007 87.7849C45.577 89.0188 46.6532 90.2524 45.7356 89.3618C43.7468 87.1764 43.7827 87.1492 43.8182 87.1224C43.7249 86.8554 43.6585 86.5694 43.5277 86.3285C43.4581 86.2009 42.8332 85.555 42.7688 85.4403C42.7141 85.3423 42.6487 85.1743 42.5578 85.1921C42.1075 85.279 42.0382 84.9501 41.8641 84.7519C39.2168 81.732 36.5761 78.7063 33.9471 75.6707C33.7924 75.4927 33.4754 75.4126 33.5979 75.0217C33.6214 74.9471 33.5486 74.8145 33.494 74.8229C33.0125 74.9016 32.9791 74.4984 32.7528 74.3086C32.2894 73.9198 32.0729 73.2975 31.3909 73.1047C31.1983 73.0502 31.1488 72.754 31.0637 72.55C30.8998 72.1571 30.7094 71.7915 30.2426 71.6764C30.0796 71.6361 30.2402 71.2706 29.9082 71.41C30.0719 70.979 29.7829 70.7477 29.5479 70.7025C29.1555 70.6274 29.3578 70.1492 29.0475 70.0682C28.9923 70.0535 28.9531 69.9931 28.8962 70.004C28.6255 70.0552 28.6005 69.944 28.5917 69.7098C28.583 69.4829 28.4314 69.2478 28.2317 69.1739C27.9725 69.0783 27.7029 68.9242 27.623 68.7467C27.4986 68.4708 27.2481 68.3641 27.0631 68.1745C25.6177 66.6896 24.4578 64.9548 22.8103 63.6425C21.5808 62.6629 20.839 61.2292 19.5519 60.2709C18.3818 59.3988 17.7134 58.0415 16.5024 57.1704C15.5475 56.4837 15.0565 55.3424 14.0096 54.7088C13.524 54.4149 13.2846 53.8418 12.864 53.4632C12.4776 53.1161 12.2801 52.6205 11.7139 52.3956C11.1862 52.1859 10.9333 51.5966 10.5529 51.1803C10.4939 51.1162 10.4009 51.0821 10.3236 51.0344C10.2695 51.2344 10.3351 51.3167 10.4082 51.392C11.1016 52.1087 11.7004 52.9008 12.5324 53.5043C13.5312 54.2294 14.076 55.3887 15.1307 56.0996C16.1094 56.7594 16.4955 58.0129 17.6475 58.5317C17.8095 58.6046 17.4786 59.0757 17.9332 58.8909C17.7407 59.3029 18.1867 59.1421 18.3077 59.2723C19.2549 60.2926 19.9858 61.5116 21.2227 62.268C21.3886 62.3693 21.607 62.5471 21.564 62.7254C21.4666 63.1295 21.9428 62.8701 21.9917 63.1044C22.0324 63.2989 22.2336 63.412 22.3637 63.5611C23.1075 64.4137 23.8408 65.2755 24.6016 66.1124C24.7974 66.3277 24.8618 66.7017 25.3409 66.6301C25.3943 66.6223 25.3834 66.8346 25.424 66.9304C25.4778 67.0577 25.5366 67.29 25.6215 67.2688C25.9565 67.1858 25.8158 67.4324 25.8806 67.5547C25.9454 67.6761 26.2307 67.634 26.3269 67.7442C26.4821 67.9221 26.7958 68.0147 26.6286 68.4107C26.9542 68.3442 27.0557 68.555 27.1928 68.7165C27.3321 68.8803 27.57 68.9902 27.4067 69.3358C27.7771 69.215 27.8506 69.4733 27.992 69.634C28.9266 70.6954 29.8174 71.7955 30.7934 72.8192C31.7543 73.8264 32.4131 75.1135 33.7163 75.8064C33.6451 76.0939 33.8885 76.1743 33.9966 76.3327C34.1355 76.5377 34.4173 76.6283 34.583 76.8161C34.7746 77.0336 35.0944 77.1754 34.9806 77.6066C35.5029 77.5183 35.5629 77.945 35.772 78.1819C38.2402 80.9824 40.6888 83.8006 43.145 86.612C43.3241 86.8173 43.522 87.0068 45.7356 89.3618" fill="white"/>
<path fill-rule="evenodd" clip-rule="evenodd" d="M34.0688 49.6079C33.6817 49.7504 33.5172 49.8113 33.3042 49.8898L33.8373 50.5009C33.8689 50.4821 33.9004 50.4633 33.9313 50.4445C33.9026 50.3651 33.8785 50.2825 33.8445 50.2069C33.8116 50.1333 33.7683 50.0674 33.7197 49.9806C33.8422 49.8907 33.9729 49.7573 34.0179 49.768C34.2437 49.819 34.4795 49.8723 34.6511 49.9908C35.0362 50.2568 35.3782 50.5699 35.7526 50.8477C35.9392 50.9855 36.1598 51.0869 36.356 51.1998C36.1025 51.7554 35.9223 51.2669 35.6811 51.4456C35.8297 52.0958 36.7135 51.9957 36.987 52.5142C36.8456 52.1351 36.7476 51.7198 36.2102 51.6139C36.3464 51.5636 36.5139 51.4568 36.6118 51.4746C36.8122 51.5107 36.9858 51.6012 37.1503 51.6939C37.4186 51.8458 37.4185 52.2719 37.8574 52.2557C38.2 52.2433 38.1636 52.6842 38.6014 52.6317C38.8217 52.6051 38.9349 52.9654 39.1163 53.1733C38.4371 53.4649 38.4004 52.9994 38.1347 52.8287C37.8953 52.6747 37.6104 52.5715 37.2463 52.5551C37.7121 52.965 38.1124 53.4542 38.6632 53.7622C39.1867 54.0544 39.7804 54.2636 40.2947 54.6009C40.058 54.2803 39.8209 53.9591 39.5841 53.6384L39.6993 53.5379C40.3978 54.0392 41.0967 54.5409 41.7948 55.0424C41.7515 55.0929 41.7076 55.1433 41.6641 55.1935C41.2924 54.9985 40.9203 54.8037 40.5489 54.6091C40.7385 54.9272 40.7559 55.4016 41.3199 55.3654C41.7862 55.9718 42.7158 56.1376 42.9847 56.9574L42.3526 57.5088C42.1905 57.4653 42.3215 57.1483 42.0013 57.2294C41.8496 57.2676 41.8996 56.8789 41.5553 57.093C41.4622 57.1511 41.2332 57.1486 41.2336 57.1152C41.2361 56.5643 40.6298 56.557 40.4244 56.2003C40.3604 56.0889 40.3578 55.933 40.3205 55.7691C40.1682 55.8714 39.9769 55.9995 39.7847 56.1279C39.8516 55.7529 39.1652 55.9483 39.3988 55.4544C39.2358 55.5395 39.103 55.6092 38.9223 55.7036C38.843 55.3682 38.8983 54.9406 38.4505 54.8697C38.4157 54.9636 38.3821 55.0541 38.298 55.2797C38.0307 54.814 37.7988 54.4115 37.5593 53.9953C37.1929 54.0417 36.852 54.0843 36.5852 54.1181C36.4132 53.9139 36.6908 53.524 36.2231 53.5698C35.8576 53.6059 35.5297 53.4379 35.2535 53.2792C35.0763 53.1774 34.9945 52.9449 34.9243 52.739C34.8748 52.5927 34.6251 52.6574 34.6805 52.363C34.7382 52.055 34.3641 52.4103 34.1956 52.4243C34.0388 52.4369 33.8373 52.4285 33.7729 52.3365C33.5161 51.966 32.9735 51.8795 32.7845 51.45C32.7749 51.4277 32.8005 51.3823 32.8099 51.3481C31.9413 51.4692 31.7177 50.7238 31.0736 50.5872C30.5358 50.473 30.5245 49.8091 29.8742 49.8802C28.7817 49.219 27.8052 48.4195 26.5333 47.9718C26.1548 47.3442 25.276 47.2893 24.7262 46.8408C24.2177 46.427 23.5965 46.0742 22.9433 45.8468C21.7616 45.4349 20.936 44.5759 19.6522 44.3112C19.4956 43.9449 19.0975 43.9838 18.668 44.0129C18.4306 44.0289 18.2608 43.8406 18.0943 43.7604C18.1763 43.2026 18.468 42.6661 18.3482 42.2273C18.7102 42.0074 19.0754 41.7849 19.5094 41.5207C20.4695 41.9287 21.5644 42.2588 22.4498 42.8792C22.86 43.1663 23.4575 43.2474 23.8732 43.5288C24.3906 43.8788 24.9975 44.1271 25.4792 44.5024C25.9947 44.9032 26.6262 45.1536 27.191 45.4854C27.5396 45.6899 27.9091 45.9006 28.2194 46.1302C28.7447 46.5196 29.4242 46.7144 29.9148 47.1415C30.2097 47.3986 30.6435 47.516 30.9978 47.7172C31.24 47.8539 31.2464 48.2347 31.6501 48.2149C31.9935 48.1978 31.9323 48.7292 32.4044 48.5532C32.6221 48.9923 33.1252 49.1385 33.5003 49.4157C33.5978 49.4879 33.7486 49.5029 34.0688 49.6079" fill="white"/>
</svg>
