<svg width="201" height="127" viewBox="0 0 201 127" fill="none" xmlns="http://www.w3.org/2000/svg">
<path d="M18.8686 116.041C19.8587 104.911 27.6217 93.4849 40.3272 92.6076C50.0523 91.9361 60.0907 97.4429 67.3838 102.888C68.5874 103.787 78.2415 111.498 71.9685 113.311C60.498 116.625 51.9595 108.027 49.1606 97.9617C45.002 83.0061 50.6453 68.2643 62.0721 57.7873C76.2475 44.7903 100.544 33.0695 119.522 42.3956C128.372 46.7443 132.692 52.6466 135.173 61.7672C137.149 69.0281 138.194 78.1156 131.914 84.0313C121.58 93.7671 109.284 84.1981 103.898 74.5557C92.9841 55.017 101.615 27.8412 121.75 17.5981C139.411 8.61348 159.797 5.55832 179.446 4.36826" stroke="white" stroke-width="3" stroke-linecap="round"/>
</svg>
