<svg width="165" height="120" viewBox="0 0 165 120" fill="none" xmlns="http://www.w3.org/2000/svg">
<path d="M2.11971 3.35728C13.2317 0.583299 26.8326 4.1156 31.8147 15.8381C35.628 24.8108 33.5537 36.1394 30.6466 44.8513C30.1668 46.2891 25.8301 57.9892 22.0332 52.6614C15.0903 42.9191 20.6487 31.9785 29.4966 25.9763C42.6428 17.0582 58.7692 17.4804 72.6417 24.7937C89.851 33.8661 109.114 52.935 106.244 73.9908C104.906 83.8091 100.589 89.8619 92.5542 95.2489C86.1575 99.5374 77.6877 103.555 69.9108 99.589C57.1122 93.0621 62.3904 78.2442 69.9866 69.9365C85.3791 53.1023 114.531 52.2051 131.008 67.8308C145.461 81.5368 155.052 99.7969 162.595 117.981" stroke="#47D990" stroke-width="3" stroke-linecap="round"/>
</svg>
