<svg width="150" height="27" viewBox="0 0 150 27" fill="none" xmlns="http://www.w3.org/2000/svg">
<path d="M11.8608 19.7936L5.04674 13.1436C3.89831 12.0186 2.00977 12.0186 0.861328 13.1436C-0.287109 14.2686 -0.287109 16.1186 0.861328 17.2436L9.7681 25.9436C10.9165 27.0686 12.8051 27.0686 13.9535 25.9436L22.3243 17.7436L18.1134 13.6436L11.8608 19.7936Z" fill="#1AAD94"/>
<path d="M37.4584 6.99414L24.3917 19.7941L11.3251 6.99414C10.1766 5.86914 8.28809 5.86914 7.13965 6.99414C5.99121 8.11914 5.99121 9.96914 7.13965 11.0941L22.299 25.9441C23.4475 27.0691 25.336 27.0691 26.4844 25.9441L41.6438 11.0941C42.7923 9.96914 42.7923 8.11914 41.6438 6.99414C40.4954 5.86914 38.6068 5.86914 37.4584 6.99414Z" fill="#F2AE20"/>
<path d="M47.9216 17.2437L39.0404 25.9438C37.892 27.0688 36.0034 27.0688 34.855 25.9438L13.4175 4.94375C12.269 3.81875 12.269 1.96875 13.4175 0.84375C14.5659 -0.28125 16.4545 -0.28125 17.6029 0.84375L36.9477 19.7938L43.7362 13.1438C44.8847 12.0188 46.7732 12.0188 47.9216 13.1438C49.0701 14.2688 49.0701 16.1187 47.9216 17.2437Z" fill="#E76450"/>
<path d="M35.3654 0.84375C34.2169 -0.28125 32.3284 -0.28125 31.1799 0.84375L18.1133 13.6438L22.2987 17.7437L35.3654 4.94375C36.5138 3.81875 36.5138 1.96875 35.3654 0.84375Z" fill="#1AAD94"/>
<path fill-rule="evenodd" clip-rule="evenodd" d="M117.169 3.22168C115.969 3.22168 115.069 4.10674 115.069 5.34582C115.069 6.5849 115.969 7.46996 117.169 7.46996C118.394 7.46996 119.294 6.5849 119.294 5.34582C119.294 4.10674 118.394 3.22168 117.169 3.22168ZM59.2188 3.34812H62.7687V21.3527H72.2688V24.5389H59.2188V3.34812ZM84.3937 11.7182C83.5938 10.6056 82.1437 9.72053 79.9688 9.72053C76.0688 9.72053 73.4187 12.8814 73.4187 17.2815C73.4187 21.6562 76.0688 24.8424 79.9688 24.8424C82.1437 24.8424 83.5938 23.932 84.3937 22.8447L84.5687 24.5389H87.6437V10.024H84.5687L84.3937 11.7182ZM80.7188 12.7803C78.4937 12.7803 76.8937 14.5504 76.8937 17.2815C76.8937 20.0125 78.4937 21.7826 80.7188 21.7826C82.4187 21.7826 83.4437 20.8723 84.2188 19.6332V14.955C83.4437 13.6906 82.4187 12.7803 80.7188 12.7803ZM92.8187 5.14352H96.2438V10.024H100.569V12.9573H96.2438V19.3803C96.2438 20.847 97.1437 21.7067 98.4938 21.7067C99.4188 21.7067 100.044 21.5044 100.469 21.2516L101.369 23.9573C100.644 24.4125 99.5938 24.8171 98.1688 24.8171C94.8937 24.8171 92.8187 22.9205 92.8187 19.4056V12.9573H90.1187V10.024H92.8187V5.14352ZM108.019 5.14352H104.594V10.024H101.894V12.9573H104.594V19.4056C104.594 22.9205 106.669 24.8171 109.944 24.8171C111.369 24.8171 112.419 24.4125 113.144 23.9573L112.244 21.2516C111.819 21.5044 111.194 21.7067 110.269 21.7067C108.919 21.7067 108.019 20.847 108.019 19.3803V12.9573H112.344V10.024H108.019V5.14352ZM115.444 9.99869H118.869V24.5136H115.444V9.99869ZM121.844 17.2815C121.844 12.8814 124.769 9.72053 129.194 9.72053C131.819 9.72053 133.719 10.909 135.019 12.9573L132.544 14.8539C131.894 13.6906 130.844 12.7803 129.244 12.7803C126.694 12.7803 125.344 14.7527 125.344 17.3067C125.344 19.8355 126.744 21.8332 129.269 21.8332C130.819 21.8332 131.944 20.8975 132.619 19.7343L135.069 21.6562C133.769 23.6539 131.819 24.8424 129.219 24.8424C124.819 24.8424 121.844 21.6309 121.844 17.2815ZM143.419 9.72053C147.844 9.72053 149.994 13.0585 149.994 17.1297V18.3435H139.844C139.919 20.6447 141.294 21.909 143.694 21.909C145.369 21.909 146.594 21.1504 147.244 20.2401L149.619 22.1872C148.194 23.9067 146.319 24.8171 143.669 24.8171C139.219 24.8171 136.369 21.6562 136.369 17.3067C136.394 12.9067 139.294 9.72053 143.419 9.72053ZM139.869 15.8401C139.969 13.8424 141.344 12.4769 143.369 12.4769C145.419 12.4769 146.569 13.8677 146.644 15.8401H139.869Z" fill="#2A2C2D"/>
</svg>
