<svg width="146" height="35" viewBox="0 0 146 35" fill="none" xmlns="http://www.w3.org/2000/svg">
<path d="M42.4634 24.9379H52.9214V21.7879H46.1804V9.92285H42.4634V24.9379Z" fill="#2F234F"/>
<path d="M59.1168 22.8376C57.6258 22.8376 56.8488 21.5356 56.8488 19.5826C56.8488 17.6296 57.6258 16.3066 59.1168 16.3066C60.6078 16.3066 61.4058 17.6296 61.4058 19.5826C61.4058 21.5356 60.6078 22.8376 59.1168 22.8376ZM59.1378 25.2736C62.6028 25.2736 64.8708 22.8166 64.8708 19.5826C64.8708 16.3486 62.6028 13.8916 59.1378 13.8916C55.6938 13.8916 53.3838 16.3486 53.3838 19.5826C53.3838 22.8166 55.6938 25.2736 59.1378 25.2736Z" fill="#2F234F"/>
<path d="M70.8687 28.6541C72.4647 28.6541 73.8717 28.2971 74.8167 27.4571C75.6777 26.6801 76.2447 25.5041 76.2447 23.8871V14.1851H72.9687V15.3401H72.9267C72.2967 14.4371 71.3307 13.8701 69.9027 13.8701C67.2357 13.8701 65.3877 16.0961 65.3877 19.2461C65.3877 22.5431 67.6347 24.3491 70.0497 24.3491C71.3517 24.3491 72.1707 23.8241 72.8007 23.1101H72.8847V24.1811C72.8847 25.4831 72.2757 26.2391 70.8267 26.2391C69.6927 26.2391 69.1257 25.7561 68.9367 25.1891H65.6187C65.9547 27.4361 67.9077 28.6541 70.8687 28.6541ZM70.8477 21.8081C69.5667 21.8081 68.7267 20.7581 68.7267 19.1411C68.7267 17.5031 69.5667 16.4531 70.8477 16.4531C72.2757 16.4531 73.0317 17.6711 73.0317 19.1201C73.0317 20.6321 72.3387 21.8081 70.8477 21.8081Z" fill="#2F234F"/>
<path d="M82.9811 22.8376C81.4901 22.8376 80.7131 21.5356 80.7131 19.5826C80.7131 17.6296 81.4901 16.3066 82.9811 16.3066C84.4721 16.3066 85.2701 17.6296 85.2701 19.5826C85.2701 21.5356 84.4721 22.8376 82.9811 22.8376ZM83.0021 25.2736C86.4671 25.2736 88.7353 22.8166 88.7353 19.5826C88.7353 16.3486 86.4671 13.8916 83.0021 13.8916C79.5581 13.8916 77.248 16.3486 77.248 19.5826C77.248 22.8166 79.5581 25.2736 83.0021 25.2736Z" fill="#2F234F"/>
<path d="M89.7344 24.9369H93.1574V14.1849H89.7344V24.9369ZM89.7344 12.6939H93.1574V9.92188H89.7344V12.6939Z" fill="#2F234F"/>
<path d="M94.6426 28.4861H98.0656V23.8241H98.1076C98.7796 24.7271 99.7666 25.2731 101.153 25.2731C103.967 25.2731 105.836 23.0471 105.836 19.5611C105.836 16.3271 104.093 13.8701 101.237 13.8701C99.7666 13.8701 98.7166 14.5211 97.9816 15.4871H97.9186V14.1851H94.6426V28.4861ZM100.271 22.6271C98.8006 22.6271 97.9606 21.4301 97.9606 19.6871C97.9606 17.9441 98.7166 16.6211 100.208 16.6211C101.678 16.6211 102.371 17.8391 102.371 19.6871C102.371 21.5141 101.573 22.6271 100.271 22.6271Z" fill="#2F234F"/>
<path d="M111.409 25.2731C114.223 25.2731 116.302 24.0551 116.302 21.7031C116.302 18.9521 114.076 18.4691 112.186 18.1541C110.821 17.9021 109.603 17.7971 109.603 17.0411C109.603 16.3691 110.254 16.0541 111.094 16.0541C112.039 16.0541 112.69 16.3481 112.816 17.3141H115.966C115.798 15.1931 114.16 13.8701 111.115 13.8701C108.574 13.8701 106.474 15.0461 106.474 17.3141C106.474 19.8341 108.469 20.3381 110.338 20.6531C111.766 20.9051 113.068 21.0101 113.068 21.9761C113.068 22.6691 112.417 23.0471 111.388 23.0471C110.254 23.0471 109.54 22.5221 109.414 21.4511H106.18C106.285 23.8241 108.259 25.2731 111.409 25.2731Z" fill="#2F234F"/>
<path d="M120.951 25.2526C122.442 25.2526 123.387 24.6646 124.164 23.6146H124.227V24.9376H127.503V14.1855H124.08V20.1916C124.08 21.4726 123.366 22.3546 122.19 22.3546C121.098 22.3546 120.573 21.7036 120.573 20.5276V14.1855H117.171V21.2416C117.171 23.6356 118.473 25.2526 120.951 25.2526Z" fill="#2F234F"/>
<path d="M128.992 24.9371H132.415V18.9101C132.415 17.6291 133.045 16.7261 134.116 16.7261C135.145 16.7261 135.628 17.3981 135.628 18.5531V24.9371H139.051V18.9101C139.051 17.6291 139.66 16.7261 140.752 16.7261C141.781 16.7261 142.264 17.3981 142.264 18.5531V24.9371H145.687V17.9441C145.687 15.5291 144.469 13.8701 142.033 13.8701C140.647 13.8701 139.492 14.4581 138.652 15.7601H138.61C138.064 14.6051 136.993 13.8701 135.586 13.8701C134.032 13.8701 133.003 14.6051 132.331 15.7181H132.268V14.1851H128.992V24.9371Z" fill="#2F234F"/>
<path fill-rule="evenodd" clip-rule="evenodd" d="M7.48364 3.14813C6.23181 4.02345 5.09983 5.05836 4.11716 6.22335C8.1328 5.85054 13.2345 6.45929 19.1576 9.42085C25.4826 12.5833 30.5758 12.6902 34.1204 12.0065C33.7988 11.0327 33.3938 10.0968 32.9142 9.20708C28.8566 9.63505 23.6547 9.06857 17.5924 6.03748C13.7427 4.11266 10.3493 3.31976 7.48364 3.14813ZM30.544 5.83332C27.3396 2.25312 22.683 0 17.5 0C15.9779 0 14.5011 0.194344 13.0932 0.559545C15 1.07983 17.0256 1.84099 19.1576 2.90698C23.5961 5.12621 27.4281 5.84076 30.544 5.83332ZM34.8783 15.4246C30.596 16.2702 24.6827 16.0965 17.5924 12.5513C10.9637 9.23701 5.68788 9.27875 2.12966 10.0695C1.946 10.1103 1.76666 10.1531 1.59165 10.1978C1.12579 11.2109 0.75393 12.2763 0.487115 13.3827C0.772088 13.3066 1.06656 13.2342 1.37039 13.1666C5.68713 12.2074 11.7863 12.249 19.1576 15.9347C25.7863 19.249 31.0621 19.2073 34.6204 18.4166C34.7423 18.3895 34.8624 18.3615 34.9806 18.3326C34.9935 18.0568 35 17.7791 35 17.5C35 16.7978 34.9587 16.1052 34.8783 15.4246ZM34.4092 22.0258C30.1685 22.7671 24.4274 22.4826 17.5924 19.0652C10.9637 15.7509 5.68788 15.7926 2.12966 16.5833C1.33984 16.7588 0.629335 16.9725 0.00256375 17.1982C0.000854876 17.2986 0 17.3992 0 17.5C0 27.165 7.83501 35 17.5 35C25.5999 35 32.4146 29.497 34.4092 22.0258Z" fill="#7F57F1"/>
</svg>
