<svg width="164" height="36" viewBox="0 0 164 36" fill="none" xmlns="http://www.w3.org/2000/svg">
<path fill-rule="evenodd" clip-rule="evenodd" d="M58.8499 16.5238L61.8141 17.169L61.8 17.1613C65.2257 17.9201 67.1894 20.0647 67.1894 23.05C67.1894 26.5851 64.1107 29.2523 60.0283 29.2523C55.1974 29.2523 52.9089 26.2715 52.3745 23.4771C52.3026 23.092 52.5309 22.7143 52.9044 22.6002L54.6208 22.0504C54.8333 21.9825 55.0646 22.0093 55.256 22.124C55.4474 22.2387 55.5806 22.4303 55.6217 22.6501C55.9433 24.3359 57.2612 26.1352 59.9966 26.1352C62.3245 26.1352 63.7692 25.0402 63.7692 23.2772C63.7692 21.8959 62.7529 20.8554 61.0519 20.4964L58.2258 19.8784C55.0434 19.1832 53.1444 17.0386 53.1444 14.1351C53.1444 10.7568 56.2829 7.90332 60.0012 7.90332C65.0237 7.90332 66.5047 11.2112 66.9077 12.6334C67.0223 13.0317 66.808 13.4507 66.4186 13.5894L64.8561 14.1424C64.6523 14.2137 64.4395 14.1992 64.2493 14.1015C64.0545 14.0038 63.9096 13.8266 63.8507 13.6176C63.665 12.9887 62.8453 10.9395 60.0691 10.9395C58.0628 10.9395 56.5502 12.229 56.5502 13.9384C56.5502 15.2833 57.3667 16.2012 58.8499 16.5238ZM79.3142 20.0102C79.3323 19.992 79.3595 19.9466 79.3504 19.8875L79.3472 19.8798C79.0913 18.2245 77.8445 17.2385 76.0117 17.2385C74.1458 17.2385 73.0204 18.5662 72.7328 19.883C72.7237 19.9266 72.7354 19.972 72.7645 20.0057C72.7957 20.0458 72.8437 20.0693 72.8945 20.0693H79.1896C79.2379 20.0697 79.2838 20.0479 79.3142 20.0102ZM75.9872 14.2896C72.6721 14.2896 69.2437 17.0704 69.2437 21.7278C69.2437 23.9724 69.9774 25.8899 71.3678 27.2666C72.6558 28.5434 74.4157 29.2477 76.3224 29.2477C79.162 29.2477 81.4627 27.7592 82.4771 25.2674C82.5587 25.0629 82.5541 24.8357 82.4663 24.6358C82.3787 24.4397 82.2138 24.2889 82.0111 24.2196L80.6253 23.7379C80.2407 23.6054 79.8191 23.792 79.6575 24.1664C79.0596 25.5795 77.9365 26.2929 76.3197 26.2929C74.3632 26.2929 72.8732 24.9707 72.615 23.0018C72.6084 22.9572 72.6226 22.912 72.6535 22.8792C72.6716 22.8564 72.7124 22.8201 72.7758 22.8201H81.9622C82.3743 22.8201 82.7185 22.4975 82.7412 22.0858C82.7502 21.954 82.7548 21.8086 82.7548 21.6651C82.7548 17.1122 80.1597 14.2846 75.9841 14.2846L75.9872 14.2896ZM88.0522 21.3325C88.0522 23.8043 89.4245 25.3401 91.63 25.3401L91.6296 25.3382C93.7351 25.3382 95.1508 23.727 95.1508 21.3306C95.1508 18.9315 93.736 17.323 91.63 17.323C89.4562 17.323 88.0522 18.897 88.0522 21.3325ZM97.5085 14.7076H95.8464C95.4162 14.7076 95.0652 15.0589 95.0652 15.5119C95.0649 15.5774 95.0257 15.6364 94.9656 15.6618C94.9339 15.6755 94.8705 15.6936 94.8134 15.6391C93.9574 14.8539 92.7527 14.4554 91.2356 14.4554C87.4752 14.4554 84.7457 17.3498 84.7457 21.3347C84.7457 25.3024 87.4752 28.1822 91.2356 28.1822C92.6259 28.1822 93.885 27.7242 94.7817 26.8927C94.8406 26.8382 94.904 26.8518 94.9357 26.8654C94.9583 26.8745 95.0353 26.9154 95.0353 27.0154V27.5879C95.0353 30.3596 93.8261 31.6523 91.2356 31.6523C89.5916 31.6523 88.3008 30.6299 87.9521 29.0496C87.9068 28.8451 87.7846 28.6725 87.6079 28.5621C87.4313 28.4516 87.2184 28.4167 87.0146 28.4621L85.3824 28.8392C84.9654 28.9388 84.7047 29.3551 84.7964 29.7752C85.3806 32.6469 87.9693 34.578 91.2319 34.578C93.664 34.578 95.5163 33.8351 96.7391 32.3697C97.749 31.1584 98.2834 29.4767 98.2834 27.5065V15.5032C98.2834 15.0716 97.9347 14.7217 97.5045 14.7217L97.5085 14.7076ZM112.941 16.3325C113.933 15.0112 115.429 14.315 117.268 14.315V14.3296C119.732 14.3296 122.218 16.0121 122.218 19.7744V28.0577C122.218 28.4894 121.869 28.841 121.439 28.841H119.777C119.347 28.841 118.998 28.4912 118.998 28.0595V20.0579C118.998 19.0219 118.669 17.2817 116.457 17.2817C114.813 17.2817 113.663 18.5494 113.663 20.3651V28.0572C113.663 28.4889 113.314 28.8406 112.884 28.8406H111.193C110.763 28.8406 110.415 28.4907 110.415 28.0591V20.0575C110.415 19.0215 110.084 17.2826 107.874 17.2826C106.185 17.2826 105.052 18.5326 105.052 20.3923V28.0454C105.052 28.4771 104.704 28.8297 104.273 28.8297H102.611C102.181 28.8297 101.83 28.4789 101.83 28.0472V15.4928C101.83 15.0611 102.179 14.7113 102.609 14.7113H104.188C104.618 14.7113 104.969 15.0611 104.969 15.4928C104.966 15.5545 105.003 15.6111 105.06 15.6346C105.118 15.6623 105.187 15.6495 105.232 15.6028C106.132 14.7835 107.41 14.3146 108.741 14.3146C110.413 14.3146 111.849 15.0552 112.681 16.3457C112.703 16.3841 112.745 16.4075 112.789 16.407C112.85 16.4105 112.907 16.3822 112.941 16.3325ZM128.504 20.0802C128.454 20.08 128.406 20.057 128.374 20.0175C128.346 19.9839 128.335 19.9394 128.344 19.8966C128.632 18.5789 129.757 17.2521 131.625 17.2521C133.458 17.2521 134.705 18.2381 134.96 19.8921C134.969 19.9511 134.941 19.9966 134.924 20.0148C134.891 20.0489 134.847 20.0685 134.799 20.0693H128.504V20.0802ZM124.854 21.7387C124.854 17.0831 128.282 14.3005 131.597 14.3005L131.588 14.2787C135.763 14.2787 138.358 17.1095 138.358 21.6623C138.358 21.8077 138.352 21.9531 138.345 22.0849C138.321 22.497 137.978 22.8196 137.566 22.8196H128.377C128.313 22.8196 128.272 22.8537 128.254 22.8764C128.224 22.9108 128.211 22.9567 128.218 23.0018C128.476 24.9711 129.966 26.2961 131.923 26.2961C133.539 26.2961 134.663 25.5791 135.26 24.1696C135.418 23.7961 135.844 23.6084 136.229 23.7416L137.615 24.2223C137.818 24.295 137.981 24.4404 138.072 24.6403C138.163 24.8403 138.167 25.0674 138.086 25.2719C137.067 27.7664 134.766 29.2568 131.931 29.2568C130.02 29.2568 128.262 28.5571 126.976 27.2803C125.588 25.9021 124.854 23.986 124.854 21.7387ZM148.25 14.3291C146.844 14.3291 145.611 14.8099 144.686 15.7195C144.643 15.7634 144.577 15.776 144.52 15.7513C144.462 15.7258 144.425 15.6679 144.425 15.6041V15.5042C144.425 15.0725 144.075 14.7226 143.645 14.7226H142.014C141.584 14.7226 141.233 15.0725 141.233 15.5042V28.0563C141.233 28.488 141.582 28.8392 142.012 28.8392H143.702C144.132 28.8392 144.483 28.4871 144.483 28.0554V20.7277C144.483 19.0883 145.223 17.3362 147.304 17.3362C149.175 17.3362 150.124 18.3736 150.124 20.4192V28.0527C150.124 28.4844 150.473 28.8342 150.903 28.8342H152.592C153.023 28.8342 153.372 28.4798 153.372 28.0482V19.9698C153.372 16.4893 151.408 14.3264 148.25 14.3264L148.25 14.3291ZM163.213 17.7288H161.243L161.25 17.7261C161.164 17.7261 161.091 17.7969 161.091 17.8842V24.4272C161.091 25.5495 161.517 25.9676 162.654 25.9676C162.788 25.9676 162.959 25.9571 163.136 25.9389C163.356 25.9154 163.576 25.9867 163.741 26.1351C163.905 26.2835 164 26.4951 164 26.7173V28.0527C164 28.4207 163.752 28.7343 163.398 28.8161C163.137 28.8751 162.595 28.9751 161.897 28.9751C159.395 28.9751 157.839 27.3848 157.839 24.8221V17.8837C157.839 17.7929 157.769 17.7247 157.681 17.7247H156.046C155.617 17.7247 155.267 17.3748 155.267 16.9432V15.5028C155.267 15.0711 155.616 14.7213 156.046 14.7213H156.296C157.75 14.7213 158.057 13.7612 158.057 12.9569V11.2394C158.057 10.8077 158.406 10.4569 158.836 10.4569H160.303C160.733 10.4569 161.085 10.8077 161.085 11.2394V14.5627C161.085 14.6505 161.156 14.7217 161.243 14.7217H163.213C163.643 14.7217 163.992 15.0716 163.992 15.5032V16.9454C163.992 17.3766 163.643 17.7288 163.213 17.7288Z" fill="#43AF79"/>
<mask id="mask0_537_40646" style="mask-type:luminance" maskUnits="userSpaceOnUse" x="0" y="19" width="37" height="17">
<path fill-rule="evenodd" clip-rule="evenodd" d="M36.4626 35.5375H0V19.9961H36.4626V35.5375Z" fill="white"/>
</mask>
<g mask="url(#mask0_537_40646)">
<path d="M24.0268 23.8291H1.85085C0.828254 23.8291 0 22.9717 0 21.9131C0 20.8545 0.828254 19.9971 1.85085 19.9971H24.0268C25.0494 19.9971 25.8776 20.8545 25.8776 21.9131C25.8776 22.9717 25.0494 23.8291 24.0268 23.8291Z" fill="#93C8A2"/>
</g>
<mask id="mask1_537_40646" style="mask-type:luminance" maskUnits="userSpaceOnUse" x="0" y="19" width="37" height="17">
<path fill-rule="evenodd" clip-rule="evenodd" d="M36.4626 35.5375H0V19.9961H36.4626V35.5375Z" fill="white"/>
</mask>
<g mask="url(#mask1_537_40646)">
<path d="M19.2717 35.5665C17.4653 35.5665 15.6811 35.2887 13.969 34.7392C12.9928 34.4261 12.4465 33.353 12.7489 32.3423C13.0515 31.3268 14.0907 30.7616 15.0647 31.0777C16.4214 31.5136 17.8364 31.734 19.2717 31.734C25.5521 31.734 31.0051 27.5618 32.8416 21.3491C32.9852 20.8632 33.3095 20.4564 33.743 20.2183C34.1766 19.9802 34.6838 19.9303 35.1529 20.0797C36.1301 20.3863 36.6798 21.4593 36.3809 22.47C34.0655 30.3022 27.1896 35.5665 19.2717 35.5665Z" fill="#43AF79"/>
</g>
<path d="M36.6927 15.8073H14.6805C13.6654 15.8073 12.8433 14.9231 12.8433 13.8314C12.8433 12.7397 13.6654 11.8555 14.6805 11.8555H36.6927C37.7078 11.8555 38.53 12.7397 38.53 13.8314C38.53 14.9231 37.7078 15.8073 36.6927 15.8073Z" fill="#93C8A2"/>
<path d="M3.82058 14.8124C3.23564 14.8125 2.68535 14.5383 2.33754 14.0735C1.98973 13.6086 1.88564 13.0083 2.05703 12.4555C4.36463 5.00462 11.216 0 19.1047 0C20.9061 0 22.6839 0.264313 24.3884 0.787469C24.8557 0.930545 25.2463 1.25124 25.4743 1.67898C25.7023 2.10673 25.7491 2.60649 25.6042 3.0683C25.4599 3.53041 25.1355 3.91677 24.7026 4.14213C24.2697 4.36749 23.7638 4.41334 23.2966 4.26956C21.9457 3.85942 20.5349 3.64979 19.1047 3.64979C12.8481 3.64979 7.41362 7.61904 5.58367 13.5296C5.34624 14.2953 4.6313 14.8184 3.82104 14.8193" fill="#43AF79"/>
<path fill-rule="evenodd" clip-rule="evenodd" d="M29.7627 8.5678C30.7854 8.5678 31.6145 7.75557 31.6145 6.75363C31.6145 5.75169 30.7854 4.93945 29.7627 4.93945C28.74 4.93945 27.9109 5.75169 27.9109 6.75363C27.9109 7.75557 28.74 8.5678 29.7627 8.5678ZM7.77953 31.6142C8.80225 31.6142 9.63133 30.8019 9.63133 29.8C9.63133 28.798 8.80225 27.9858 7.77953 27.9858C6.75681 27.9858 5.92773 28.798 5.92773 29.8C5.92773 30.8019 6.75681 31.6142 7.77953 31.6142Z" fill="#93C8A2"/>
</svg>
