<svg width="146" height="33" viewBox="0 0 146 33" fill="none" xmlns="http://www.w3.org/2000/svg">
<path fill-rule="evenodd" clip-rule="evenodd" d="M18 13.4175C18 8.54854 21.2035 5 26.126 5C31.2829 5 34.4864 8.30097 33.9395 14.9029H21.9849C22.2193 16.966 23.8601 18.3689 26.5167 18.3689C27.845 18.3689 29.7202 17.8738 30.5797 16.8835L32.9237 19.3592C31.2829 21.1748 28.7044 22 26.3604 22C21.1254 22 18 18.6165 18 13.4175ZM26.2823 8.54854C24.2508 8.54854 22.5318 9.62136 21.9849 11.6845H30.2671C30.0327 9.62136 28.47 8.54854 26.2823 8.54854Z" fill="#A33794"/>
<path d="M42.6364 18.5797C41.2727 18.5797 40.3636 17.8657 40.3636 16.3585V9.69489H45.2727V6.36308H40.3636V2L36 2.39664V6.36308V9.69489V16.3585C36 20.2456 38.5455 22.1495 42.3636 21.9908C43.6364 21.9908 44.8182 21.7529 46 21.3562L44.7273 18.1037C44.0909 18.421 43.3636 18.5797 42.6364 18.5797Z" fill="#A33794"/>
<path d="M72.2105 5C70.6316 5 69.0526 5.33831 67.8684 7.36816L67.5526 5.42289H64V22H67.7895V13.204C67.7895 10.1592 69.6053 8.97512 71.6579 8.97512C72.9211 8.97512 73.4737 9.14428 74.2632 9.8209L76 6.26866C75.1316 5.42289 73.7895 5 72.2105 5Z" fill="#A33794"/>
<path fill-rule="evenodd" clip-rule="evenodd" d="M76 13.5C76 8.83333 79.0588 5 83.9216 5C88.7843 5 91.9216 8.83333 92 13.5C92 18.1667 88.9412 22 84 22C78.9804 22 76 18.1667 76 13.5ZM79.7647 13.4167C79.7647 15.9167 81.1765 18.25 83.9216 18.25C86.7451 18.25 88.1569 15.9167 88.0784 13.4167C88.0784 11 86.5098 8.58333 83.9216 8.58333C81.1765 8.58333 79.7647 11 79.7647 13.4167Z" fill="#A33794"/>
<path d="M106.269 14.5427C106.269 17.1055 104.715 19.2412 102.383 19.2412C99.9741 19.2412 98.7306 17.2764 98.7306 14.799V6H95V14.799C95 20.01 97.6425 23 101.295 23C103.394 23 104.87 22.1457 106.425 20.5226L106.658 22.8291H110V6H106.269V14.5427Z" fill="#A33794"/>
<path d="M120.549 5C118.606 5 117.13 5.85859 115.575 7.4899L115.342 5.17172H112V22H115.731V13.4141C115.731 10.8384 117.285 8.69192 119.617 8.69192C122.026 8.69192 123.269 10.6667 123.269 13.1566V21.9141H127V13.3283C127 8.00505 124.124 5 120.549 5Z" fill="#A33794"/>
<path fill-rule="evenodd" clip-rule="evenodd" d="M141.925 8.45552V0H146V21.6868H142.179L141.925 19.573C140.651 21.3737 138.613 22 136.575 22C131.651 22 128 19.0249 128 14.0142C128 8.76868 131.651 6.02847 136.491 6.02847C138.189 6.02847 140.991 6.88968 141.925 8.45552ZM132.075 14.0142C132.075 16.7544 134.198 18.5552 136.83 18.5552C139.377 18.5552 141.585 16.8327 141.67 14.0142C141.67 11.3523 139.462 9.5516 136.83 9.5516C134.198 9.5516 132.075 11.274 132.075 14.0142Z" fill="#A33794"/>
<path fill-rule="evenodd" clip-rule="evenodd" d="M51.4585 5.35323C53.5103 4.77875 57.2855 4.86082 59.1731 5.92771C60.7325 6.83047 61.7173 8.38977 61.9635 10.3594C62.0181 11.9977 62.0001 13.5997 61.9819 15.2137C61.9727 16.0252 61.9635 16.8398 61.9635 17.6635V21.7669H57.86V20.2076C57.6856 20.3239 57.5317 20.4299 57.3875 20.5292C57.1247 20.7103 56.8939 20.8693 56.6289 21.0283C54.1668 22.6697 49.735 22.1773 47.9295 19.9614C46.2881 17.8276 46.6984 13.6421 50.1454 12.7394C51.089 12.4698 52.3525 12.2986 53.5855 12.1315C54.6046 11.9934 55.6029 11.8582 56.3827 11.6725C56.8752 11.5904 57.6959 11.4263 57.6959 11.016C57.7779 10.1132 57.6959 9.867 57.2034 9.37459C56.3007 8.38977 54.5772 8.38977 53.4282 8.5539C51.8688 8.80011 51.2944 9.45666 50.9661 11.3442L47.1908 10.5235C47.2729 8.06149 48.8322 6.09185 51.4585 5.35323ZM54.331 18.5663C54.9875 18.4842 55.562 18.238 56.0544 17.9918L56.2186 17.8276C56.7931 17.4173 57.1214 16.9249 57.3676 16.2683C57.4496 16.0221 57.5317 15.6939 57.5317 15.4477C57.6138 15.2014 57.6138 14.8732 57.6138 14.627C57.6138 14.5859 57.6138 14.5654 57.6035 14.5552C57.5933 14.5449 57.5728 14.5449 57.5317 14.5449H57.2855L56.7931 14.627L54.9055 14.7911C54.712 14.8209 54.5158 14.8479 54.318 14.8752C53.4246 14.9985 52.4961 15.1266 51.6226 15.5297C51.2944 15.6118 51.0481 15.858 50.8019 16.1042C50.6378 16.3504 50.4737 16.5966 50.4737 16.9249C50.4737 17.2532 50.5557 17.5814 50.7199 17.8276C50.9661 18.3201 51.5406 18.5663 52.033 18.6483C52.7716 18.8125 53.5923 18.7304 54.331 18.5663Z" fill="#A33794"/>
<path d="M8.27027 22.1532C3.08108 22.1532 0 18.2853 0 13.5766C0 8.86787 3.16216 5 8.18919 5H18C18 5 17.5946 7.69069 15.1622 8.6997H8.27027C5.43243 8.6997 3.97297 11.1381 3.97297 13.5766C3.97297 16.0991 5.43243 18.3694 8.27027 18.3694C11.1081 18.3694 12.5676 16.015 12.5676 13.4925C12.5676 12.1471 12.0811 10.8018 11.1892 9.87688H15.8108C16.2973 11.0541 16.5405 12.2312 16.5405 13.4925C16.5405 16.1832 15.4865 18.6216 13.7027 20.1351C15.973 21.5646 16.5405 23.4144 16.5405 25.4324C16.5405 30.1411 13.0541 33 8.35135 33C3.89189 33 0.486486 30.3934 0.0810811 26.2733L4.05405 25.9369C4.2973 27.8709 6.16216 29.1321 8.27027 29.1321C10.6216 29.1321 12.4054 27.7868 12.4054 25.5165C12.4054 23.2462 10.2973 22.1532 8.27027 22.1532Z" fill="#A33794"/>
</svg>
