<svg width="153" height="37" viewBox="0 0 153 37" fill="none" xmlns="http://www.w3.org/2000/svg">
<path d="M46.084 25.2143H56.8468V21.9725H49.9093V9.76172H46.084V25.2143Z" fill="#340E0E"/>
<path d="M63.2233 23.0524C61.6889 23.0524 60.8892 21.7125 60.8892 19.7026C60.8892 17.6926 61.6889 16.3311 63.2233 16.3311C64.7578 16.3311 65.579 17.6926 65.579 19.7026C65.579 21.7125 64.7578 23.0524 63.2233 23.0524ZM63.2449 25.5594C66.8109 25.5594 69.145 23.0308 69.145 19.7026C69.145 16.3743 66.8109 13.8457 63.2449 13.8457C59.7006 13.8457 57.3232 16.3743 57.3232 19.7026C57.3232 23.0308 59.7006 25.5594 63.2449 25.5594Z" fill="#340E0E"/>
<path d="M75.3175 29.0391C76.96 29.0391 78.408 28.6717 79.3805 27.8072C80.2666 27.0075 80.8502 25.7973 80.8502 24.1331V14.1484H77.4787V15.3371H77.4355C76.7871 14.4077 75.793 13.8242 74.3233 13.8242C71.5786 13.8242 69.6768 16.1151 69.6768 19.3569C69.6768 22.75 71.9892 24.6086 74.4746 24.6086C75.8146 24.6086 76.6574 24.0683 77.3058 23.3335H77.3922V24.4357C77.3922 25.7757 76.7655 26.5537 75.2743 26.5537C74.1072 26.5537 73.5237 26.0566 73.3292 25.4731H69.9145C70.2603 27.7856 72.2702 29.0391 75.3175 29.0391ZM75.2959 21.9936C73.9775 21.9936 73.1131 20.913 73.1131 19.2488C73.1131 17.5631 73.9775 16.4825 75.2959 16.4825C76.7655 16.4825 77.5435 17.736 77.5435 19.2272C77.5435 20.7833 76.8303 21.9936 75.2959 21.9936Z" fill="#340E0E"/>
<path d="M87.7824 23.0524C86.248 23.0524 85.4483 21.7125 85.4483 19.7026C85.4483 17.6926 86.248 16.3311 87.7824 16.3311C89.3169 16.3311 90.1381 17.6926 90.1381 19.7026C90.1381 21.7125 89.3169 23.0524 87.7824 23.0524ZM87.804 25.5594C91.37 25.5594 93.7041 23.0308 93.7041 19.7026C93.7041 16.3743 91.37 13.8457 87.804 13.8457C84.2596 13.8457 81.8823 16.3743 81.8823 19.7026C81.8823 23.0308 84.2596 25.5594 87.804 25.5594Z" fill="#340E0E"/>
<path d="M94.7324 25.2143H98.2552V14.149H94.7324V25.2143ZM94.7324 12.6145H98.2552V9.76172H94.7324V12.6145Z" fill="#340E0E"/>
<path d="M99.7847 28.8662H103.307V24.0683H103.351C104.042 24.9976 105.058 25.5595 106.484 25.5595C109.38 25.5595 111.304 23.2687 111.304 19.6811C111.304 16.3528 109.51 13.8242 106.571 13.8242C105.058 13.8242 103.977 14.4942 103.221 15.4883H103.156V14.1484H99.7847V28.8662ZM105.577 22.8364C104.064 22.8364 103.199 21.6045 103.199 19.8107C103.199 18.0169 103.977 16.6554 105.512 16.6554C107.025 16.6554 107.738 17.9089 107.738 19.8107C107.738 21.691 106.917 22.8364 105.577 22.8364Z" fill="#340E0E"/>
<path d="M117.039 25.5595C119.935 25.5595 122.075 24.306 122.075 21.8855C122.075 19.0543 119.784 18.5572 117.839 18.2331C116.434 17.9737 115.18 17.8657 115.18 17.0876C115.18 16.396 115.85 16.0719 116.715 16.0719C117.687 16.0719 118.357 16.3744 118.487 17.3686H121.729C121.556 15.1858 119.87 13.8242 116.737 13.8242C114.121 13.8242 111.96 15.0345 111.96 17.3686C111.96 19.962 114.013 20.4807 115.937 20.8049C117.407 21.0642 118.746 21.1723 118.746 22.1665C118.746 22.8796 118.076 23.2687 117.017 23.2687C115.85 23.2687 115.116 22.7284 114.986 21.6262H111.658C111.766 24.0683 113.797 25.5595 117.039 25.5595Z" fill="#340E0E"/>
<path d="M126.86 25.538C128.394 25.538 129.367 24.9328 130.167 23.8522H130.231V25.2138H133.603V14.1484H130.08V20.3295C130.08 21.6478 129.345 22.5555 128.135 22.5555C127.011 22.5555 126.471 21.8855 126.471 20.6753V14.1484H122.97V21.4101C122.97 23.8738 124.31 25.538 126.86 25.538Z" fill="#340E0E"/>
<path d="M135.134 25.2137H138.657V19.0111C138.657 17.6928 139.305 16.7635 140.408 16.7635C141.467 16.7635 141.964 17.455 141.964 18.6437V25.2137H145.486V19.0111C145.486 17.6928 146.113 16.7635 147.237 16.7635C148.296 16.7635 148.793 17.455 148.793 18.6437V25.2137H152.316V18.0169C152.316 15.5316 151.062 13.8242 148.555 13.8242C147.129 13.8242 145.94 14.4294 145.076 15.7693H145.033C144.471 14.5806 143.368 13.8242 141.92 13.8242C140.321 13.8242 139.262 14.5806 138.571 15.7261H138.506V14.1484H135.134V25.2137Z" fill="#340E0E"/>
<path fill-rule="evenodd" clip-rule="evenodd" d="M18.01 36.02C27.9567 36.02 36.02 27.9566 36.02 18.01C36.02 8.06336 27.9567 0 18.01 0C8.06334 0 0 8.06336 0 18.01C0 27.9566 8.06334 36.02 18.01 36.02ZM23.6285 8.38981C23.902 7.41836 22.9593 6.84392 22.0983 7.45731L10.0794 16.0195C9.14567 16.6847 9.29255 18.01 10.3 18.01H13.4649V17.9855H19.6332L14.6072 19.7588L12.3915 27.6302C12.118 28.6017 13.0607 29.1761 13.9217 28.5627L25.9406 20.0005C26.8744 19.3353 26.7274 18.01 25.72 18.01H20.9205L23.6285 8.38981Z" fill="#F15757"/>
</svg>
