<svg width="154" height="26" viewBox="0 0 154 26" fill="none" xmlns="http://www.w3.org/2000/svg">
<path d="M23.1527 19.8056H31.1478L11.3423 0H3.34717L23.1527 19.8056Z" fill="#7476ED"/>
<path d="M15.4497 1.01328e-06L34.5419 19.0922V0H29.3752V6.02776L23.3474 0L15.4497 1.01328e-06Z" fill="#E56F8C"/>
<path d="M0 0.663086V19.8055H5.16667V13.7777L11.1944 19.8055H19.1425L0 0.663086Z" fill="#64C2DB"/>
<path d="M47.0096 16.8278H51.6389V19.5558H43.4756V5.04785H47.0096V16.8278Z" fill="#3A3B7B"/>
<path d="M57.954 19.7211C56.8242 19.7211 55.8046 19.48 54.8953 18.9977C53.9997 18.5155 53.2902 17.8266 52.7666 16.9311C52.2569 16.0355 52.002 14.9884 52.002 13.7897C52.002 12.6049 52.2637 11.5646 52.7873 10.6691C53.3109 9.75969 54.0273 9.06395 54.9366 8.58173C55.846 8.09951 56.8655 7.8584 57.9953 7.8584C59.1251 7.8584 60.1446 8.09951 61.054 8.58173C61.9633 9.06395 62.6797 9.75969 63.2033 10.6691C63.7269 11.5646 63.9886 12.6049 63.9886 13.7897C63.9886 14.9746 63.72 16.0217 63.1826 16.9311C62.6591 17.8266 61.9356 18.5155 61.0126 18.9977C60.1033 19.48 59.0837 19.7211 57.954 19.7211ZM57.954 16.6624C58.6291 16.6624 59.2009 16.4144 59.6693 15.9184C60.1515 15.4224 60.3926 14.7129 60.3926 13.7897C60.3926 12.8666 60.1584 12.1571 59.69 11.6611C59.2353 11.1651 58.6704 10.9171 57.9953 10.9171C57.3064 10.9171 56.7346 11.1651 56.28 11.6611C55.8253 12.1433 55.5979 12.8529 55.5979 13.7897C55.5979 14.7129 55.8184 15.4224 56.2593 15.9184C56.714 16.4144 57.2789 16.6624 57.954 16.6624Z" fill="#3A3B7B"/>
<path d="M69.625 7.8584C70.4379 7.8584 71.1475 8.02373 71.7537 8.3544C72.3737 8.68507 72.849 9.11909 73.1797 9.65639V8.02373H76.7137V19.5351C76.7137 20.596 76.5001 21.5535 76.073 22.4077C75.6597 23.2757 75.019 23.9646 74.151 24.4744C73.2968 24.9842 72.229 25.2391 70.9477 25.2391C69.2392 25.2391 67.8546 24.8326 66.7937 24.0197C65.7328 23.2206 65.1266 22.1322 64.975 20.7544H68.4677C68.5779 21.1953 68.8397 21.5397 69.253 21.7877C69.6664 22.0495 70.1761 22.1804 70.7824 22.1804C71.5126 22.1804 72.0912 21.9669 72.5184 21.5397C72.9592 21.1264 73.1797 20.4582 73.1797 19.5351V17.9024C72.8352 18.4397 72.3599 18.8806 71.7537 19.2251C71.1475 19.5557 70.4379 19.7211 69.625 19.7211C68.6744 19.7211 67.8132 19.48 67.0417 18.9977C66.2701 18.5017 65.657 17.806 65.2024 16.9104C64.7615 16.0011 64.541 14.954 64.541 13.7691C64.541 12.5842 64.7615 11.544 65.2024 10.6484C65.657 9.75289 66.2701 9.06395 67.0417 8.58173C67.8132 8.09951 68.6744 7.8584 69.625 7.8584ZM73.1797 13.7897C73.1797 12.908 72.9317 12.2122 72.4357 11.7024C71.9535 11.1926 71.361 10.9377 70.6584 10.9377C69.9557 10.9377 69.3564 11.1926 68.8604 11.7024C68.3781 12.1984 68.137 12.8873 68.137 13.7691C68.137 14.6509 68.3781 15.3535 68.8604 15.8771C69.3564 16.3869 69.9557 16.6417 70.6584 16.6417C71.361 16.6417 71.9535 16.3869 72.4357 15.8771C72.9317 15.3673 73.1797 14.6715 73.1797 13.7897Z" fill="#3A3B7B"/>
<path d="M83.8997 19.7211C82.7699 19.7211 81.7504 19.48 80.841 18.9977C79.9455 18.5155 79.236 17.8266 78.7125 16.9311C78.2027 16.0355 77.9478 14.9884 77.9478 13.7897C77.9478 12.6049 78.2096 11.5646 78.7331 10.6691C79.2567 9.75969 79.9731 9.06395 80.8825 8.58173C81.7918 8.09951 82.8114 7.8584 83.9411 7.8584C85.0709 7.8584 86.0905 8.09951 86.9998 8.58173C87.9091 9.06395 88.6256 9.75969 89.1491 10.6691C89.6727 11.5646 89.9345 12.6049 89.9345 13.7897C89.9345 14.9746 89.6658 16.0217 89.1285 16.9311C88.6049 17.8266 87.8815 18.5155 86.9585 18.9977C86.0491 19.48 85.0295 19.7211 83.8997 19.7211ZM83.8997 16.6624C84.5748 16.6624 85.1467 16.4144 85.6151 15.9184C86.0974 15.4224 86.3385 14.7129 86.3385 13.7897C86.3385 12.8666 86.1042 12.1571 85.6357 11.6611C85.181 11.1651 84.6163 10.9171 83.9411 10.9171C83.2523 10.9171 82.6805 11.1651 82.2258 11.6611C81.7711 12.1433 81.5438 12.8529 81.5438 13.7897C81.5438 14.7129 81.7643 15.4224 82.2051 15.9184C82.6598 16.4144 83.2246 16.6624 83.8997 16.6624Z" fill="#3A3B7B"/>
<path d="M92.9664 6.82529C92.3464 6.82529 91.8366 6.64617 91.437 6.28795C91.0513 5.91595 90.8584 5.46129 90.8584 4.92395C90.8584 4.37284 91.0513 3.91817 91.437 3.55995C91.8366 3.18795 92.3464 3.00195 92.9664 3.00195C93.5726 3.00195 94.0686 3.18795 94.4544 3.55995C94.8539 3.91817 95.0537 4.37284 95.0537 4.92395C95.0537 5.46129 94.8539 5.91595 94.4544 6.28795C94.0686 6.64617 93.5726 6.82529 92.9664 6.82529ZM94.723 8.02395V19.5559H91.189V8.02395H94.723Z" fill="#3A3B7B"/>
<path d="M100.198 9.65639C100.543 9.11909 101.018 8.68507 101.624 8.3544C102.23 8.02373 102.94 7.8584 103.753 7.8584C104.704 7.8584 105.565 8.09951 106.336 8.58173C107.108 9.06395 107.714 9.75289 108.155 10.6484C108.61 11.544 108.837 12.5842 108.837 13.7691C108.837 14.954 108.61 16.0011 108.155 16.9104C107.714 17.806 107.108 18.5017 106.336 18.9977C105.565 19.48 104.704 19.7211 103.753 19.7211C102.954 19.7211 102.244 19.5557 101.624 19.2251C101.018 18.8944 100.543 18.4673 100.198 17.9437V25.0531H96.6641V8.02373H100.198V9.65639ZM105.241 13.7691C105.241 12.8873 104.993 12.1984 104.497 11.7024C104.015 11.1926 103.415 10.9377 102.699 10.9377C101.996 10.9377 101.397 11.1926 100.901 11.7024C100.419 12.2122 100.178 12.908 100.178 13.7897C100.178 14.6715 100.419 15.3673 100.901 15.8771C101.397 16.3869 101.996 16.6417 102.699 16.6417C103.402 16.6417 104.001 16.3869 104.497 15.8771C104.993 15.3535 105.241 14.6509 105.241 13.7691Z" fill="#3A3B7B"/>
<path d="M114.762 19.7211C113.756 19.7211 112.861 19.5489 112.076 19.2044C111.29 18.86 110.67 18.3915 110.216 17.7991C109.761 17.1929 109.506 16.5177 109.451 15.7737H112.944C112.985 16.1733 113.171 16.4971 113.502 16.7451C113.832 16.9931 114.239 17.1171 114.721 17.1171C115.162 17.1171 115.499 17.0344 115.734 16.8691C115.982 16.69 116.106 16.4626 116.106 16.1871C116.106 15.8564 115.933 15.6153 115.589 15.4637C115.244 15.2984 114.686 15.1193 113.915 14.9264C113.088 14.7335 112.399 14.5337 111.848 14.3271C111.297 14.1066 110.822 13.7691 110.422 13.3144C110.023 12.846 109.823 12.2191 109.823 11.4337C109.823 10.7724 110.002 10.1731 110.36 9.63569C110.732 9.08462 111.27 8.65062 111.972 8.33373C112.689 8.01684 113.536 7.8584 114.514 7.8584C115.961 7.8584 117.098 8.21662 117.924 8.93307C118.765 9.64949 119.247 10.6002 119.371 11.7851H116.106C116.05 11.3855 115.871 11.0686 115.568 10.8344C115.279 10.6002 114.893 10.4831 114.411 10.4831C113.998 10.4831 113.681 10.5657 113.46 10.7311C113.24 10.8826 113.13 11.0962 113.13 11.3717C113.13 11.7024 113.302 11.9504 113.646 12.1157C114.004 12.2811 114.556 12.4464 115.3 12.6117C116.154 12.8322 116.85 13.0526 117.387 13.2731C117.924 13.4797 118.393 13.8242 118.792 14.3064C119.206 14.7749 119.419 15.4086 119.433 16.2077C119.433 16.8829 119.24 17.4891 118.854 18.0264C118.482 18.55 117.938 18.9633 117.222 19.2664C116.519 19.5695 115.699 19.7211 114.762 19.7211Z" fill="#3A3B7B"/>
<path d="M132.362 8.02344V19.5554H128.828V17.9848C128.47 18.4946 127.981 18.9079 127.361 19.2248C126.755 19.5279 126.08 19.6794 125.336 19.6794C124.454 19.6794 123.675 19.4866 123 19.1008C122.325 18.7012 121.802 18.1294 121.43 17.3854C121.058 16.6414 120.872 15.7666 120.872 14.7608V8.02344H124.385V14.2854C124.385 15.057 124.585 15.6563 124.984 16.0834C125.384 16.5106 125.921 16.7241 126.596 16.7241C127.285 16.7241 127.829 16.5106 128.229 16.0834C128.629 15.6563 128.828 15.057 128.828 14.2854V8.02344H132.362Z" fill="#3A3B7B"/>
<path d="M148.995 7.89941C150.428 7.89941 151.565 8.33341 152.405 9.20137C153.26 10.0694 153.687 11.275 153.687 12.8181V19.5554H150.173V13.2934C150.173 12.5494 149.974 11.9777 149.574 11.5781C149.188 11.1648 148.651 10.9581 147.962 10.9581C147.273 10.9581 146.729 11.1648 146.329 11.5781C145.944 11.9777 145.751 12.5494 145.751 13.2934V19.5554H142.237V13.2934C142.237 12.5494 142.038 11.9777 141.638 11.5781C141.252 11.1648 140.715 10.9581 140.026 10.9581C139.337 10.9581 138.793 11.1648 138.393 11.5781C138.008 11.9777 137.815 12.5494 137.815 13.2934V19.5554H134.281V8.02341H137.815V9.47007C138.173 8.98786 138.641 8.60897 139.22 8.33341C139.799 8.04408 140.453 7.89941 141.183 7.89941C142.051 7.89941 142.823 8.08541 143.498 8.45741C144.187 8.82941 144.724 9.35987 145.11 10.0488C145.51 9.41497 146.054 8.8983 146.743 8.49875C147.432 8.09919 148.183 7.89941 148.995 7.89941Z" fill="#3A3B7B"/>
</svg>
